G04*
G04 #@! TF.GenerationSoftware,Altium Limited,Altium Designer,22.1.2 (22)*
G04*
G04 Layer_Color=255*
%FSLAX25Y25*%
%MOIN*%
G70*
G04*
G04 #@! TF.SameCoordinates,2BB1DE6D-457A-41CA-A848-8B8E96E8A4FB*
G04*
G04*
G04 #@! TF.FilePolarity,Positive*
G04*
G01*
G75*
%ADD52R,0.05984X0.05984*%
%ADD53C,0.05984*%
%ADD54C,0.11811*%
%ADD55C,0.04578*%
%ADD56R,0.04578X0.04578*%
%ADD57C,0.11516*%
%ADD58R,0.06201X0.06201*%
%ADD59C,0.06201*%
D52*
X431071Y286162D02*
D03*
Y406194D02*
D03*
D53*
Y274351D02*
D03*
Y262540D02*
D03*
Y250729D02*
D03*
Y238918D02*
D03*
X419260Y286162D02*
D03*
Y274351D02*
D03*
Y262540D02*
D03*
Y250729D02*
D03*
Y238918D02*
D03*
Y358950D02*
D03*
Y370761D02*
D03*
Y382572D02*
D03*
Y394383D02*
D03*
Y406194D02*
D03*
X431071Y358950D02*
D03*
Y370761D02*
D03*
Y382572D02*
D03*
Y394383D02*
D03*
D54*
X448000Y277658D02*
D03*
Y247422D02*
D03*
Y367454D02*
D03*
Y397690D02*
D03*
D55*
X147000Y242002D02*
D03*
Y232002D02*
D03*
Y279206D02*
D03*
Y289206D02*
D03*
Y326410D02*
D03*
Y336410D02*
D03*
Y373613D02*
D03*
Y383613D02*
D03*
Y420817D02*
D03*
Y430817D02*
D03*
D56*
Y222002D02*
D03*
Y269206D02*
D03*
Y316410D02*
D03*
Y363613D02*
D03*
Y410817D02*
D03*
D57*
X438685Y217500D02*
D03*
Y187972D02*
D03*
X419000Y217500D02*
D03*
Y187972D02*
D03*
Y308468D02*
D03*
Y337996D02*
D03*
X438685Y308468D02*
D03*
Y337996D02*
D03*
X419000Y428500D02*
D03*
Y458028D02*
D03*
X438685Y428500D02*
D03*
Y458028D02*
D03*
D58*
X286951Y458567D02*
D03*
X293343Y189500D02*
D03*
D59*
X296793Y458567D02*
D03*
X283500Y189500D02*
D03*
M02*
