G04*
G04 #@! TF.GenerationSoftware,Altium Limited,Altium Designer,22.1.2 (22)*
G04*
G04 Layer_Color=16711935*
%FSLAX25Y25*%
%MOIN*%
G70*
G04*
G04 #@! TF.SameCoordinates,1384077E-11D3-43F0-9A77-4EE49B0B0899*
G04*
G04*
G04 #@! TF.FilePolarity,Negative*
G04*
G01*
G75*
%ADD42R,0.06575X0.06575*%
%ADD43C,0.06575*%
%ADD44C,0.12402*%
%ADD45C,0.05169*%
%ADD46R,0.05169X0.05169*%
%ADD47C,0.12106*%
%ADD48R,0.06791X0.06791*%
%ADD49C,0.06791*%
%ADD50C,0.02953*%
D42*
X431071Y286162D02*
D03*
Y406194D02*
D03*
D43*
Y274351D02*
D03*
Y262540D02*
D03*
Y250729D02*
D03*
Y238918D02*
D03*
X419260Y286162D02*
D03*
Y274351D02*
D03*
Y262540D02*
D03*
Y250729D02*
D03*
Y238918D02*
D03*
Y358950D02*
D03*
Y370761D02*
D03*
Y382572D02*
D03*
Y394383D02*
D03*
Y406194D02*
D03*
X431071Y358950D02*
D03*
Y370761D02*
D03*
Y382572D02*
D03*
Y394383D02*
D03*
D44*
X448000Y277658D02*
D03*
Y247422D02*
D03*
Y367454D02*
D03*
Y397690D02*
D03*
D45*
X147000Y242002D02*
D03*
Y232002D02*
D03*
Y279206D02*
D03*
Y289206D02*
D03*
Y326410D02*
D03*
Y336410D02*
D03*
Y373613D02*
D03*
Y383613D02*
D03*
Y420817D02*
D03*
Y430817D02*
D03*
D46*
Y222002D02*
D03*
Y269206D02*
D03*
Y316410D02*
D03*
Y363613D02*
D03*
Y410817D02*
D03*
D47*
X438685Y217500D02*
D03*
Y187972D02*
D03*
X419000Y217500D02*
D03*
Y187972D02*
D03*
Y308468D02*
D03*
Y337996D02*
D03*
X438685Y308468D02*
D03*
Y337996D02*
D03*
X419000Y428500D02*
D03*
Y458028D02*
D03*
X438685Y428500D02*
D03*
Y458028D02*
D03*
D48*
X286951Y458567D02*
D03*
X293343Y189500D02*
D03*
D49*
X296793Y458567D02*
D03*
X283500Y189500D02*
D03*
D50*
X163531Y193031D02*
D03*
X186000Y236554D02*
D03*
X296069Y198794D02*
D03*
X199000Y219500D02*
D03*
X172876Y334100D02*
D03*
X190500Y379000D02*
D03*
X192500Y371769D02*
D03*
X170500Y359000D02*
D03*
X247000Y358000D02*
D03*
X237500Y351500D02*
D03*
X260000Y357000D02*
D03*
X355415Y204421D02*
D03*
X359769Y219000D02*
D03*
X351500Y453000D02*
D03*
X224700Y443131D02*
D03*
X309500Y179431D02*
D03*
X302931Y221470D02*
D03*
X204800Y208900D02*
D03*
X193200D02*
D03*
X399531Y361700D02*
D03*
X394600Y362900D02*
D03*
X399431Y368000D02*
D03*
X356331Y329569D02*
D03*
X347500D02*
D03*
X302996Y334172D02*
D03*
X302500Y308500D02*
D03*
X269000Y284700D02*
D03*
X307500Y258000D02*
D03*
X265964Y219569D02*
D03*
X251500D02*
D03*
X245924Y217486D02*
D03*
X238264Y213055D02*
D03*
X291000Y214300D02*
D03*
X347669Y216531D02*
D03*
X352500Y236000D02*
D03*
X327500Y213000D02*
D03*
X296000Y428500D02*
D03*
X169000Y275500D02*
D03*
X168500Y286000D02*
D03*
X215500Y217500D02*
D03*
X260500Y230000D02*
D03*
X262000Y262500D02*
D03*
X258000Y265800D02*
D03*
X260673Y276827D02*
D03*
X264783Y300500D02*
D03*
X263000Y295000D02*
D03*
X222500Y329000D02*
D03*
X220500Y340000D02*
D03*
X170877Y324185D02*
D03*
X159724Y334055D02*
D03*
X334500Y400500D02*
D03*
X352500Y401900D02*
D03*
X222500Y247500D02*
D03*
X257000Y251031D02*
D03*
X249500Y262000D02*
D03*
X232000Y257000D02*
D03*
X186126Y195100D02*
D03*
X252700Y300069D02*
D03*
X281700Y409000D02*
D03*
X278500Y406431D02*
D03*
X224700Y389000D02*
D03*
Y381500D02*
D03*
X239000Y347500D02*
D03*
X261134Y399351D02*
D03*
X312300Y434000D02*
D03*
X352500Y433500D02*
D03*
X404800Y377800D02*
D03*
X204800Y254000D02*
D03*
X204827Y348900D02*
D03*
X301514Y353800D02*
D03*
X409000Y371000D02*
D03*
X356331Y361586D02*
D03*
X325500D02*
D03*
X300500Y422200D02*
D03*
X312300Y291758D02*
D03*
X426100Y329300D02*
D03*
X241500Y369700D02*
D03*
X241910Y416390D02*
D03*
X193173Y348900D02*
D03*
X178200Y214400D02*
D03*
X281800Y371600D02*
D03*
X177614Y354914D02*
D03*
X281700Y419000D02*
D03*
X177614Y403400D02*
D03*
X173500Y232444D02*
D03*
X291000Y224345D02*
D03*
X303000Y229345D02*
D03*
X259176Y208000D02*
D03*
X303193Y324200D02*
D03*
X166900Y216100D02*
D03*
X216810Y301390D02*
D03*
X290928Y309100D02*
D03*
X285437Y351037D02*
D03*
X202780Y361820D02*
D03*
X241900Y242600D02*
D03*
X168976Y240700D02*
D03*
X277100Y279258D02*
D03*
X218720Y276700D02*
D03*
X291000Y376600D02*
D03*
X243400Y395100D02*
D03*
X264800Y332700D02*
D03*
X312200Y386586D02*
D03*
X155839Y240800D02*
D03*
X312300Y319172D02*
D03*
X155824Y380600D02*
D03*
Y429600D02*
D03*
X166909Y310200D02*
D03*
X211500Y284529D02*
D03*
X166900Y406700D02*
D03*
X237700Y286600D02*
D03*
X208700Y289529D02*
D03*
X184898Y331602D02*
D03*
X185000Y379800D02*
D03*
X173676D02*
D03*
X251500Y406984D02*
D03*
X173675Y428801D02*
D03*
X186126Y294326D02*
D03*
X281700Y266800D02*
D03*
X291004Y434000D02*
D03*
X241933Y434500D02*
D03*
X234264Y401500D02*
D03*
X185000Y428801D02*
D03*
X300900Y431500D02*
D03*
X186126Y391600D02*
D03*
X226700Y428002D02*
D03*
X281700Y314200D02*
D03*
X238264Y305555D02*
D03*
X193173Y300954D02*
D03*
X241900Y330216D02*
D03*
X242700Y227317D02*
D03*
X312300Y271800D02*
D03*
X303000Y284473D02*
D03*
X186126Y260800D02*
D03*
X301042Y274300D02*
D03*
X312400Y286758D02*
D03*
X295800Y361586D02*
D03*
X192100Y312100D02*
D03*
X281700Y324200D02*
D03*
X204827Y311300D02*
D03*
X261600Y319339D02*
D03*
X291004Y319172D02*
D03*
X312300Y214345D02*
D03*
X303000Y379700D02*
D03*
X186100Y343600D02*
D03*
X312286Y371600D02*
D03*
X303000Y314172D02*
D03*
X302996Y239345D02*
D03*
X347669Y386000D02*
D03*
X169000Y377300D02*
D03*
X193173Y397573D02*
D03*
X303000Y266800D02*
D03*
X194910Y253900D02*
D03*
X212179Y273521D02*
D03*
X291000Y261758D02*
D03*
X301845Y389031D02*
D03*
X312200Y391517D02*
D03*
X297000Y384100D02*
D03*
X184898Y285102D02*
D03*
X174300Y264500D02*
D03*
X281700Y276800D02*
D03*
X159724Y286083D02*
D03*
X241900Y272659D02*
D03*
X312200Y339200D02*
D03*
X241933Y385242D02*
D03*
X293900Y404000D02*
D03*
X204800Y398400D02*
D03*
X291004Y414000D02*
D03*
X169000Y426100D02*
D03*
X291000Y244345D02*
D03*
X335500Y342400D02*
D03*
X291000Y339172D02*
D03*
X238400Y335000D02*
D03*
X224700Y292000D02*
D03*
X215300Y357600D02*
D03*
X291004Y271758D02*
D03*
X294900Y291758D02*
D03*
X189700Y433000D02*
D03*
X193500Y420600D02*
D03*
X356300Y273000D02*
D03*
M02*
