G04*
G04 #@! TF.GenerationSoftware,Altium Limited,Altium Designer,22.1.2 (22)*
G04*
G04 Layer_Color=16711935*
%FSLAX25Y25*%
%MOIN*%
G70*
G04*
G04 #@! TF.SameCoordinates,2BB1DE6D-457A-41CA-A848-8B8E96E8A4FB*
G04*
G04*
G04 #@! TF.FilePolarity,Positive*
G04*
G01*
G75*
%ADD10C,0.00394*%
%ADD11C,0.00787*%
%ADD13C,0.00500*%
%ADD14C,0.00400*%
%ADD62C,0.00000*%
%ADD63C,0.00100*%
G36*
X168062Y397141D02*
X165107D01*
Y402851D01*
X168062D01*
Y397141D01*
D02*
G37*
G36*
X162358D02*
X159407D01*
Y402853D01*
X162358D01*
Y397141D01*
D02*
G37*
G36*
X168062Y348641D02*
X165107D01*
Y354351D01*
X168062D01*
Y348641D01*
D02*
G37*
G36*
X162358D02*
X159407D01*
Y354353D01*
X162358D01*
Y348641D01*
D02*
G37*
G36*
X168062Y300141D02*
X165107D01*
Y305851D01*
X168062D01*
Y300141D01*
D02*
G37*
G36*
X162358D02*
X159407D01*
Y305853D01*
X162358D01*
Y300141D01*
D02*
G37*
G36*
X168062Y253141D02*
X165107D01*
Y258851D01*
X168062D01*
Y253141D01*
D02*
G37*
G36*
X162358D02*
X159407D01*
Y258853D01*
X162358D01*
Y253141D01*
D02*
G37*
G36*
X168062Y205641D02*
X165107D01*
Y211351D01*
X168062D01*
Y205641D01*
D02*
G37*
G36*
X162358D02*
X159407D01*
Y211353D01*
X162358D01*
Y205641D01*
D02*
G37*
D10*
X355937Y388039D02*
Y392961D01*
X348063D02*
X355937D01*
X348063Y388039D02*
Y392961D01*
Y388039D02*
X355937D01*
X348063Y444539D02*
X355937D01*
X348063D02*
Y449461D01*
X355937D01*
Y444539D02*
Y449461D01*
X348063Y331539D02*
X355937D01*
X348063D02*
Y336461D01*
X355937D01*
Y331539D02*
Y336461D01*
X348063Y275039D02*
X355937D01*
X348063D02*
Y279961D01*
X355937D01*
Y275039D02*
Y279961D01*
X348063Y218539D02*
X355937D01*
X348063D02*
Y223461D01*
X355937D01*
Y218539D02*
Y223461D01*
X264783Y398539D02*
X272657D01*
X264783D02*
Y403461D01*
X272657D01*
Y398539D02*
Y403461D01*
X264783Y349539D02*
X272657D01*
X264783D02*
Y354461D01*
X272657D01*
Y349539D02*
Y354461D01*
X264783Y302039D02*
X272657D01*
X264783D02*
Y306961D01*
X272657D01*
Y302039D02*
Y306961D01*
X264783Y255539D02*
X272657D01*
X264783D02*
Y260461D01*
X272657D01*
Y255539D02*
Y260461D01*
X264783Y210039D02*
X272657D01*
X264783D02*
Y214961D01*
X272657D01*
Y210039D02*
Y214961D01*
X227122Y272758D02*
X239878D01*
Y290671D01*
X227122D02*
X239878D01*
X227122Y272758D02*
Y290671D01*
Y320730D02*
X239878D01*
Y338644D01*
X227122D02*
X239878D01*
X227122Y320730D02*
Y338644D01*
Y367230D02*
X239878D01*
Y385144D01*
X227122D02*
X239878D01*
X227122Y367230D02*
Y385144D01*
Y416488D02*
X239878D01*
Y434401D01*
X227122D02*
X239878D01*
X227122Y416488D02*
Y434401D01*
Y227415D02*
X239878D01*
Y245328D01*
X227122D02*
X239878D01*
X227122Y227415D02*
Y245328D01*
X198547Y381817D02*
X203547Y386817D01*
X198547Y376187D02*
Y386817D01*
Y376187D02*
X215870D01*
Y386817D01*
X198547D02*
X215870D01*
X182862Y309925D02*
X183913Y310976D01*
Y309925D02*
Y313075D01*
X177614D02*
X183913D01*
X177614Y309925D02*
Y313075D01*
Y309925D02*
X183913D01*
X185835Y227488D02*
Y232512D01*
X177961D02*
X185835D01*
X177961Y227488D02*
Y232512D01*
Y227488D02*
X185835D01*
X185437Y274988D02*
Y280012D01*
X177563D02*
X185437D01*
X177563Y274988D02*
Y280012D01*
Y274988D02*
X185437D01*
X183098Y262925D02*
X184150Y263976D01*
Y262925D02*
Y266075D01*
X177850D02*
X184150D01*
X177850Y262925D02*
Y266075D01*
Y262925D02*
X184150D01*
X183496Y216425D02*
X184547Y217476D01*
Y216425D02*
Y219575D01*
X178248D02*
X184547D01*
X178248Y216425D02*
Y219575D01*
Y216425D02*
X184547D01*
X185685Y368660D02*
Y373684D01*
X177811D02*
X185685D01*
X177811Y368660D02*
Y373684D01*
Y368660D02*
X185685D01*
X185437Y321488D02*
Y326512D01*
X177563D02*
X185437D01*
X177563Y321488D02*
Y326512D01*
Y321488D02*
X185437D01*
X177811Y417410D02*
X185685D01*
X177811D02*
Y422434D01*
X185685D01*
Y417410D02*
Y422434D01*
X177614Y405425D02*
X183913D01*
X177614D02*
Y408575D01*
X183913D01*
Y405425D02*
Y408575D01*
X182862Y405425D02*
X183913Y406476D01*
X182862Y356925D02*
X183913Y357976D01*
Y356925D02*
Y360075D01*
X177614D02*
X183913D01*
X177614Y356925D02*
Y360075D01*
Y356925D02*
X183913D01*
X142000Y247002D02*
X152000D01*
X142000Y217002D02*
Y247002D01*
Y217002D02*
X152000D01*
Y247002D01*
X142000D02*
X152000D01*
X142000Y217002D02*
Y247002D01*
Y217002D02*
X152000D01*
X289323Y436028D02*
X304677D01*
Y401972D02*
Y436028D01*
X289323Y401972D02*
X304677D01*
X289323D02*
Y436028D01*
Y431028D02*
X294323Y436028D01*
X244366Y411969D02*
Y433032D01*
X258634D01*
Y411969D02*
Y433032D01*
X244366Y411969D02*
X258634D01*
X244366Y416201D02*
X248594Y411969D01*
X244366Y363269D02*
Y384332D01*
X258634D01*
Y363269D02*
Y384332D01*
X244366Y363269D02*
X258634D01*
X244366Y367501D02*
X248594Y363269D01*
X244366Y317469D02*
Y338532D01*
X258634D01*
Y317469D02*
Y338532D01*
X244366Y317469D02*
X258634D01*
X244366Y321701D02*
X248594Y317469D01*
X244366Y270469D02*
Y291532D01*
X258634D01*
Y270469D02*
Y291532D01*
X244366Y270469D02*
X258634D01*
X244366Y274701D02*
X248594Y270469D01*
X244366Y224469D02*
Y245532D01*
X258634D01*
Y224469D02*
Y245532D01*
X244366Y224469D02*
X258634D01*
X244366Y228701D02*
X248594Y224469D01*
X142000Y264206D02*
X152000D01*
X142000D02*
Y294206D01*
X152000D01*
Y264206D02*
Y294206D01*
X142000Y264206D02*
X152000D01*
X142000D02*
Y294206D01*
X152000D01*
X142000Y311410D02*
X152000D01*
X142000D02*
Y341410D01*
X152000D01*
Y311410D02*
Y341410D01*
X142000Y311410D02*
X152000D01*
X142000D02*
Y341410D01*
X152000D01*
X142000Y358613D02*
X152000D01*
X142000D02*
Y388613D01*
X152000D01*
Y358613D02*
Y388613D01*
X142000Y358613D02*
X152000D01*
X142000D02*
Y388613D01*
X152000D01*
X142000Y405817D02*
X152000D01*
X142000D02*
Y435817D01*
X152000D01*
Y405817D02*
Y435817D01*
X142000Y405817D02*
X152000D01*
X142000D02*
Y435817D01*
X152000D01*
X289323Y383614D02*
X294323Y388614D01*
X289323Y354559D02*
Y388614D01*
Y354559D02*
X304677D01*
Y388614D01*
X289323D02*
X304677D01*
X265767Y221988D02*
X273641D01*
X265767D02*
Y227012D01*
X273641D01*
Y221988D02*
Y227012D01*
X159232Y223154D02*
X167106D01*
Y218131D02*
Y223154D01*
X159232Y218131D02*
X167106D01*
X159232D02*
Y223154D01*
X198547Y247002D02*
X215870D01*
Y236372D02*
Y247002D01*
X198547Y236372D02*
X215870D01*
X198547D02*
Y247002D01*
Y242002D02*
X203547Y247002D01*
X159232Y413759D02*
X167106D01*
Y408736D02*
Y413759D01*
X159232Y408736D02*
X167106D01*
X159232D02*
Y413759D01*
Y365093D02*
X167106D01*
Y360069D02*
Y365093D01*
X159232Y360069D02*
X167106D01*
X159232D02*
Y365093D01*
X198547Y340317D02*
X215870D01*
Y329687D02*
Y340317D01*
X198547Y329687D02*
X215870D01*
X198547D02*
Y340317D01*
Y335317D02*
X203547Y340317D01*
X198547Y435817D02*
X215870D01*
Y425187D02*
Y435817D01*
X198547Y425187D02*
X215870D01*
X198547D02*
Y435817D01*
Y430817D02*
X203547Y435817D01*
X265767Y361488D02*
X273641D01*
X265767D02*
Y366512D01*
X273641D01*
Y361488D02*
Y366512D01*
X265767Y410988D02*
X273641D01*
X265767D02*
Y416012D01*
X273641D01*
Y410988D02*
Y416012D01*
X265767Y314488D02*
X273641D01*
X265767D02*
Y319512D01*
X273641D01*
Y314488D02*
Y319512D01*
X265767Y267988D02*
X273641D01*
X265767D02*
Y273012D01*
X273641D01*
Y267988D02*
Y273012D01*
X289323Y246372D02*
X304677D01*
Y212317D02*
Y246372D01*
X289323Y212317D02*
X304677D01*
X289323D02*
Y246372D01*
Y241372D02*
X294323Y246372D01*
X289323Y293786D02*
X304677D01*
Y259731D02*
Y293786D01*
X289323Y259731D02*
X304677D01*
X289323D02*
Y293786D01*
Y288786D02*
X294323Y293786D01*
X289323Y341200D02*
X304677D01*
Y307145D02*
Y341200D01*
X289323Y307145D02*
X304677D01*
X289323D02*
Y341200D01*
Y336200D02*
X294323Y341200D01*
X159232Y269935D02*
X167106D01*
Y264911D02*
Y269935D01*
X159232Y264911D02*
X167106D01*
X159232D02*
Y269935D01*
Y317259D02*
X167106D01*
Y312236D02*
Y317259D01*
X159232Y312236D02*
X167106D01*
X159232D02*
Y317259D01*
X198547Y292344D02*
X215870D01*
Y281714D02*
Y292344D01*
X198547Y281714D02*
X215870D01*
X198547D02*
Y292344D01*
Y287344D02*
X203547Y292344D01*
D11*
X147394Y214443D02*
G03*
X147394Y214443I-394J0D01*
G01*
X274785Y458567D02*
G03*
X274785Y458567I-394J0D01*
G01*
X306295Y189500D02*
G03*
X306295Y189500I-394J0D01*
G01*
X147394Y261647D02*
G03*
X147394Y261647I-394J0D01*
G01*
Y308850D02*
G03*
X147394Y308850I-394J0D01*
G01*
Y356054D02*
G03*
X147394Y356054I-394J0D01*
G01*
Y403258D02*
G03*
X147394Y403258I-394J0D01*
G01*
X399000Y186004D02*
X444276D01*
Y219469D01*
X399000D02*
X444276D01*
X399000Y186004D02*
Y219469D01*
Y306500D02*
Y339965D01*
X444276D01*
Y306500D02*
Y339965D01*
X399000Y306500D02*
X444276D01*
X399000Y426532D02*
Y459996D01*
X444276D01*
Y426532D02*
Y459996D01*
X399000Y426532D02*
X444276D01*
D13*
X416937Y231339D02*
Y293741D01*
X464890D01*
Y231339D02*
Y293741D01*
X416937Y231339D02*
X464890D01*
X429102Y299942D02*
X433039D01*
X431071Y296005D02*
X433039Y299942D01*
X429102D02*
X431071Y296005D01*
X177366Y338677D02*
X185634D01*
X177366Y333323D02*
X185634D01*
X177366D02*
Y338677D01*
X185634Y333323D02*
Y338677D01*
X177563Y204539D02*
Y209461D01*
X185437Y204539D02*
Y209461D01*
X177563D02*
X185437D01*
X177563Y204539D02*
X185437D01*
X177563Y251539D02*
Y256461D01*
X185437Y251539D02*
Y256461D01*
X177563D02*
X185437D01*
X177563Y251539D02*
X185437D01*
X177563Y298266D02*
Y303187D01*
X185437Y298266D02*
Y303187D01*
X177563D02*
X185437D01*
X177563Y298266D02*
X185437D01*
X177563Y345039D02*
Y349961D01*
X185437Y345039D02*
Y349961D01*
X177563D02*
X185437D01*
X177563Y345039D02*
X185437D01*
X177563Y393039D02*
Y397961D01*
X185437Y393039D02*
Y397961D01*
X177563D02*
X185437D01*
X177563Y393039D02*
X185437D01*
X229701Y311961D02*
X237575D01*
X229701Y307039D02*
X237575D01*
X229701D02*
Y311961D01*
X237575Y307039D02*
Y311961D01*
X229701Y357961D02*
X237575D01*
X229701Y353039D02*
X237575D01*
X229701D02*
Y357961D01*
X237575Y353039D02*
Y357961D01*
X229701Y407961D02*
X237575D01*
X229701Y403039D02*
X237575D01*
X229701D02*
Y407961D01*
X237575Y403039D02*
Y407961D01*
X229701Y264961D02*
X237575D01*
X229701Y260039D02*
X237575D01*
X229701D02*
Y264961D01*
X237575Y260039D02*
Y264961D01*
X229701Y219461D02*
X237575D01*
X229701Y214539D02*
X237575D01*
X229701D02*
Y219461D01*
X237575Y214539D02*
Y219461D01*
X194217Y368217D02*
X202091D01*
X194217Y363296D02*
X202091D01*
X194217D02*
Y368217D01*
X202091Y363296D02*
Y368217D01*
X185634Y286823D02*
Y292177D01*
X177366Y286823D02*
Y292177D01*
Y286823D02*
X185634D01*
X177366Y292177D02*
X185634D01*
X186032Y238323D02*
Y243677D01*
X177764Y238323D02*
Y243677D01*
Y238323D02*
X186032D01*
X177764Y243677D02*
X186032D01*
X185736Y381522D02*
Y386876D01*
X177468Y381522D02*
Y386876D01*
Y381522D02*
X185736D01*
X177468Y386876D02*
X185736D01*
Y430522D02*
Y435876D01*
X177468Y430522D02*
Y435876D01*
Y430522D02*
X185736D01*
X177468Y435876D02*
X185736D01*
X429102Y419973D02*
X431071Y416036D01*
X433039Y419973D01*
X429102D02*
X433039D01*
X416937Y351371D02*
X464890D01*
Y413773D01*
X416937D02*
X464890D01*
X416937Y351371D02*
Y413773D01*
X277305Y445181D02*
X306439D01*
Y467819D01*
X277305D02*
X306439D01*
X277305Y445181D02*
Y467819D01*
X302988Y180248D02*
Y202886D01*
X273854Y180248D02*
X302988D01*
X273854D02*
Y202886D01*
X302988D01*
X246613Y396539D02*
X254487D01*
X246613Y401461D02*
X254487D01*
Y396539D02*
Y401461D01*
X246613Y396539D02*
Y401461D01*
X160413Y431039D02*
Y435961D01*
X168287Y431039D02*
Y435961D01*
X160413D02*
X168287D01*
X160413Y431039D02*
X168287D01*
X246613Y347539D02*
Y352461D01*
X254487Y347539D02*
Y352461D01*
X246613D02*
X254487D01*
X246613Y347539D02*
X254487D01*
X246613Y301539D02*
Y306461D01*
X254487Y301539D02*
Y306461D01*
X246613D02*
X254487D01*
X246613Y301539D02*
X254487D01*
X246613Y254039D02*
Y258961D01*
X254487Y254039D02*
Y258961D01*
X246613D02*
X254487D01*
X246613Y254039D02*
X254487D01*
X246613Y209539D02*
Y214461D01*
X254487Y209539D02*
Y214461D01*
X246613D02*
X254487D01*
X246613Y209539D02*
X254487D01*
X160413Y419694D02*
Y424615D01*
X168287Y419694D02*
Y424615D01*
X160413D02*
X168287D01*
X160413Y419694D02*
X168287D01*
X159563Y230040D02*
Y234961D01*
X167437Y230040D02*
Y234961D01*
X159563D02*
X167437D01*
X159563Y230040D02*
X167437D01*
X192701Y217346D02*
X205299D01*
X192701Y210654D02*
X205299D01*
X192701D02*
Y217346D01*
X205299Y210654D02*
Y217346D01*
X202091Y223389D02*
Y228310D01*
X194217Y223389D02*
Y228310D01*
Y223389D02*
X202091D01*
X194217Y228310D02*
X202091D01*
X192701Y262346D02*
X205299D01*
X192701Y255654D02*
X205299D01*
X192701D02*
Y262346D01*
X205299Y255654D02*
Y262346D01*
X160413Y370860D02*
Y375781D01*
X168287Y370860D02*
Y375781D01*
X160413D02*
X168287D01*
X160413Y370860D02*
X168287D01*
X160413Y323694D02*
Y328615D01*
X168287Y323694D02*
Y328615D01*
X160413D02*
X168287D01*
X160413Y323694D02*
X168287D01*
X202091Y316046D02*
Y320967D01*
X194217Y316046D02*
Y320967D01*
Y316046D02*
X202091D01*
X194217Y320967D02*
X202091D01*
X192701Y357346D02*
X205299D01*
X192701Y350654D02*
X205299D01*
X192701D02*
Y357346D01*
X205299Y350654D02*
Y357346D01*
X192701Y406846D02*
X205299D01*
X192701Y400154D02*
X205299D01*
X192701D02*
Y406846D01*
X205299Y400154D02*
Y406846D01*
X202091Y412546D02*
Y417467D01*
X194217Y412546D02*
Y417467D01*
Y412546D02*
X202091D01*
X194217Y417467D02*
X202091D01*
X160413Y382039D02*
Y386961D01*
X168287Y382039D02*
Y386961D01*
X160413D02*
X168287D01*
X160413Y382039D02*
X168287D01*
X160413Y242224D02*
Y247146D01*
X168287Y242224D02*
Y247146D01*
X160413D02*
X168287D01*
X160413Y242224D02*
X168287D01*
X160413Y287567D02*
Y292488D01*
X168287Y287567D02*
Y292488D01*
X160413D02*
X168287D01*
X160413Y287567D02*
X168287D01*
X160413Y335539D02*
Y340461D01*
X168287Y335539D02*
Y340461D01*
X160413D02*
X168287D01*
X160413Y335539D02*
X168287D01*
X160413Y276045D02*
Y280967D01*
X168287Y276045D02*
Y280967D01*
X160413D02*
X168287D01*
X160413Y276045D02*
X168287D01*
X202091Y268560D02*
Y273481D01*
X194217Y268560D02*
Y273481D01*
Y268560D02*
X202091D01*
X194217Y273481D02*
X202091D01*
X192701Y309346D02*
X205299D01*
X192701Y302654D02*
X205299D01*
X192701D02*
Y309346D01*
X205299Y302654D02*
Y309346D01*
D14*
X162260Y397402D02*
X165260D01*
X162260Y402598D02*
X165161D01*
X162260Y348902D02*
X165260D01*
X162260Y354098D02*
X165161D01*
X162260Y205902D02*
X165260D01*
X162260Y211098D02*
X165161D01*
X162260Y253402D02*
X165260D01*
X162260Y258598D02*
X165161D01*
X162260Y300402D02*
X165260D01*
X162260Y305598D02*
X165161D01*
D62*
X217256Y405909D02*
G03*
X217256Y405909I-500J0D01*
G01*
Y216752D02*
G03*
X217256Y216752I-500J0D01*
G01*
Y261923D02*
G03*
X217256Y261923I-500J0D01*
G01*
X218477Y309409D02*
G03*
X218477Y309409I-500J0D01*
G01*
X217256Y356660D02*
G03*
X217256Y356660I-500J0D01*
G01*
D63*
X267450Y432250D02*
Y434250D01*
X265100D02*
X267450D01*
X265100Y432250D02*
Y434250D01*
Y432250D02*
X267450D01*
Y424750D02*
Y426750D01*
X265100D02*
X267450D01*
X265100Y424750D02*
Y426750D01*
Y424750D02*
X267450D01*
X274550Y428500D02*
Y430500D01*
Y428500D02*
X276900D01*
Y430500D01*
X274550D02*
X276900D01*
X267450Y423400D02*
Y435600D01*
Y423400D02*
X274550D01*
Y435600D01*
X267450D02*
X274550D01*
X212244Y404909D02*
X217756D01*
X212244D02*
Y416917D01*
X217756D01*
Y404909D02*
Y416917D01*
X210079Y409909D02*
X212244D01*
X210079D02*
Y411917D01*
X212244D01*
Y409909D02*
Y411917D01*
X217756Y415953D02*
X219921D01*
Y413945D02*
Y415953D01*
X217756Y413945D02*
X219921D01*
X217756D02*
Y415953D01*
Y407882D02*
X219921D01*
Y405874D02*
Y407882D01*
X217756Y405874D02*
X219921D01*
X217756D02*
Y407882D01*
X267450Y246596D02*
X274550D01*
Y234396D02*
Y246596D01*
X267450Y234396D02*
X274550D01*
X267450D02*
Y246596D01*
X274550Y241496D02*
X276900D01*
Y239496D02*
Y241496D01*
X274550Y239496D02*
X276900D01*
X274550D02*
Y241496D01*
X265100Y235746D02*
X267450D01*
X265100D02*
Y237746D01*
X267450D01*
Y235746D02*
Y237746D01*
X265100Y243246D02*
X267450D01*
X265100D02*
Y245246D01*
X267450D01*
Y243246D02*
Y245246D01*
X212244Y215752D02*
X217756D01*
X212244D02*
Y227760D01*
X217756D01*
Y215752D02*
Y227760D01*
X210079Y220752D02*
X212244D01*
X210079D02*
Y222760D01*
X212244D01*
Y220752D02*
Y222760D01*
X217756Y226795D02*
X219921D01*
Y224788D02*
Y226795D01*
X217756Y224788D02*
X219921D01*
X217756D02*
Y226795D01*
Y218725D02*
X219921D01*
Y216717D02*
Y218725D01*
X217756Y216717D02*
X219921D01*
X217756D02*
Y218725D01*
X212244Y260923D02*
X217756D01*
X212244D02*
Y272931D01*
X217756D01*
Y260923D02*
Y272931D01*
X210079Y265923D02*
X212244D01*
X210079D02*
Y267931D01*
X212244D01*
Y265923D02*
Y267931D01*
X217756Y271967D02*
X219921D01*
Y269959D02*
Y271967D01*
X217756Y269959D02*
X219921D01*
X217756D02*
Y271967D01*
Y263896D02*
X219921D01*
Y261888D02*
Y263896D01*
X217756Y261888D02*
X219921D01*
X217756D02*
Y263896D01*
X267450Y339911D02*
X274550D01*
Y327711D02*
Y339911D01*
X267450Y327711D02*
X274550D01*
X267450D02*
Y339911D01*
X274550Y334811D02*
X276900D01*
Y332811D02*
Y334811D01*
X274550Y332811D02*
X276900D01*
X274550D02*
Y334811D01*
X265100Y329061D02*
X267450D01*
X265100D02*
Y331061D01*
X267450D01*
Y329061D02*
Y331061D01*
X265100Y336561D02*
X267450D01*
X265100D02*
Y338561D01*
X267450D01*
Y336561D02*
Y338561D01*
X213465Y308409D02*
X218976D01*
X213465D02*
Y320417D01*
X218976D01*
Y308409D02*
Y320417D01*
X211299Y313409D02*
X213465D01*
X211299D02*
Y315417D01*
X213465D01*
Y313409D02*
Y315417D01*
X218976Y319453D02*
X221142D01*
Y317445D02*
Y319453D01*
X218976Y317445D02*
X221142D01*
X218976D02*
Y319453D01*
Y311382D02*
X221142D01*
Y309374D02*
Y311382D01*
X218976Y309374D02*
X221142D01*
X218976D02*
Y311382D01*
X212244Y355660D02*
X217756D01*
X212244D02*
Y367667D01*
X217756D01*
Y355660D02*
Y367667D01*
X210079Y360659D02*
X212244D01*
X210079D02*
Y362667D01*
X212244D01*
Y360659D02*
Y362667D01*
X217756Y366703D02*
X219921D01*
Y364695D02*
Y366703D01*
X217756Y364695D02*
X219921D01*
X217756D02*
Y366703D01*
Y358632D02*
X219921D01*
Y356624D02*
Y358632D01*
X217756Y356624D02*
X219921D01*
X217756D02*
Y358632D01*
X267450Y386411D02*
X274550D01*
Y374211D02*
Y386411D01*
X267450Y374211D02*
X274550D01*
X267450D02*
Y386411D01*
X274550Y381311D02*
X276900D01*
Y379311D02*
Y381311D01*
X274550Y379311D02*
X276900D01*
X274550D02*
Y381311D01*
X265100Y375561D02*
X267450D01*
X265100D02*
Y377561D01*
X267450D01*
Y375561D02*
Y377561D01*
X265100Y383061D02*
X267450D01*
X265100D02*
Y385061D01*
X267450D01*
Y383061D02*
Y385061D01*
Y291938D02*
X274550D01*
Y279738D02*
Y291938D01*
X267450Y279738D02*
X274550D01*
X267450D02*
Y291938D01*
X274550Y286838D02*
X276900D01*
Y284838D02*
Y286838D01*
X274550Y284838D02*
X276900D01*
X274550D02*
Y286838D01*
X265100Y281088D02*
X267450D01*
X265100D02*
Y283088D01*
X267450D01*
Y281088D02*
Y283088D01*
X265100Y288588D02*
X267450D01*
X265100D02*
Y290588D01*
X267450D01*
Y288588D02*
Y290588D01*
M02*
