G04*
G04 #@! TF.GenerationSoftware,Altium Limited,Altium Designer,22.1.2 (22)*
G04*
G04 Layer_Color=255*
%FSLAX25Y25*%
%MOIN*%
G70*
G04*
G04 #@! TF.SameCoordinates,2BB1DE6D-457A-41CA-A848-8B8E96E8A4FB*
G04*
G04*
G04 #@! TF.FilePolarity,Positive*
G04*
G01*
G75*
%ADD15R,0.03772X0.10072*%
%ADD16R,0.02953X0.05709*%
%ADD17R,0.04331X0.05433*%
%ADD18R,0.04528X0.04528*%
%ADD19R,0.04724X0.04724*%
%ADD20R,0.13504X0.03347*%
%ADD21R,0.06102X0.02559*%
%ADD22R,0.03150X0.03740*%
%ADD23R,0.03937X0.05709*%
%ADD24R,0.05906X0.02559*%
%ADD25R,0.08465X0.08661*%
%ADD26R,0.05200X0.02200*%
%ADD27R,0.03500X0.03200*%
%ADD28R,0.03819X0.06811*%
%ADD29R,0.05118X0.05906*%
%ADD52R,0.05984X0.05984*%
%ADD53C,0.05984*%
%ADD54C,0.11811*%
%ADD55C,0.04578*%
%ADD56R,0.04578X0.04578*%
%ADD57C,0.11516*%
%ADD58R,0.06201X0.06201*%
%ADD59C,0.06201*%
D15*
X318232Y213000D02*
D03*
X335768D02*
D03*
X361268Y404500D02*
D03*
X343732D02*
D03*
X317965Y376000D02*
D03*
X335500D02*
D03*
X317965Y430500D02*
D03*
X335500D02*
D03*
X317965Y230500D02*
D03*
X335500D02*
D03*
X317965Y254500D02*
D03*
X335500D02*
D03*
Y271500D02*
D03*
X317965D02*
D03*
Y288500D02*
D03*
X335500D02*
D03*
X317965Y316500D02*
D03*
X335500D02*
D03*
Y333000D02*
D03*
X317965D02*
D03*
Y349500D02*
D03*
X335500D02*
D03*
Y391750D02*
D03*
X317965D02*
D03*
Y407500D02*
D03*
X335500D02*
D03*
Y445000D02*
D03*
X317965D02*
D03*
Y459500D02*
D03*
X335500D02*
D03*
X343732Y348658D02*
D03*
X361268D02*
D03*
X369232Y430500D02*
D03*
X386768D02*
D03*
Y445000D02*
D03*
X369232D02*
D03*
X386768Y459500D02*
D03*
X369232D02*
D03*
X343732Y419184D02*
D03*
X361268D02*
D03*
X317965Y196500D02*
D03*
X335500D02*
D03*
X343732Y362763D02*
D03*
X361268D02*
D03*
X343732Y306342D02*
D03*
X361268D02*
D03*
X343732Y249921D02*
D03*
X361268D02*
D03*
X343732Y193500D02*
D03*
X361268D02*
D03*
Y433289D02*
D03*
X343732D02*
D03*
X361268Y376868D02*
D03*
X343732D02*
D03*
X361268Y320447D02*
D03*
X343732D02*
D03*
X361268Y264026D02*
D03*
X343732D02*
D03*
X361268Y207605D02*
D03*
X343732D02*
D03*
Y461500D02*
D03*
X361268D02*
D03*
X343732Y292237D02*
D03*
X361268D02*
D03*
X343732Y235816D02*
D03*
X361268D02*
D03*
X369232Y376000D02*
D03*
X386768D02*
D03*
X369232Y316500D02*
D03*
X386768D02*
D03*
X369232Y254500D02*
D03*
X386768D02*
D03*
X369232Y196500D02*
D03*
X386768D02*
D03*
Y391750D02*
D03*
X369232D02*
D03*
X386768Y333000D02*
D03*
X369232D02*
D03*
X386768Y271500D02*
D03*
X369232D02*
D03*
X386768Y213500D02*
D03*
X369232D02*
D03*
X386768Y407500D02*
D03*
X369232D02*
D03*
X386768Y349500D02*
D03*
X369232D02*
D03*
X386768Y288500D02*
D03*
X369232D02*
D03*
X386768Y230500D02*
D03*
X369232D02*
D03*
D16*
X347669Y390500D02*
D03*
X356331D02*
D03*
Y447000D02*
D03*
X347669D02*
D03*
X356331Y334000D02*
D03*
X347669D02*
D03*
X356331Y277500D02*
D03*
X347669D02*
D03*
X356331Y221000D02*
D03*
X347669D02*
D03*
D17*
X184898Y336000D02*
D03*
X178102D02*
D03*
Y289500D02*
D03*
X184898D02*
D03*
X178500Y241000D02*
D03*
X185295D02*
D03*
X178205Y384199D02*
D03*
X185000D02*
D03*
X178205Y433199D02*
D03*
X185000D02*
D03*
D18*
X176874Y207000D02*
D03*
X186126D02*
D03*
X176874Y254000D02*
D03*
X186126D02*
D03*
X176874Y300726D02*
D03*
X186126D02*
D03*
X176874Y347500D02*
D03*
X186126D02*
D03*
X176874Y395500D02*
D03*
X186126D02*
D03*
X229012Y309500D02*
D03*
X238264D02*
D03*
X229012Y355500D02*
D03*
X238264D02*
D03*
X229012Y405500D02*
D03*
X238264D02*
D03*
X229012Y262500D02*
D03*
X238264D02*
D03*
X229012Y217000D02*
D03*
X238264D02*
D03*
X193528Y365757D02*
D03*
X202780D02*
D03*
X255176Y399000D02*
D03*
X245924D02*
D03*
X159724Y433500D02*
D03*
X168976D02*
D03*
X159724Y244685D02*
D03*
Y290028D02*
D03*
Y338000D02*
D03*
Y384500D02*
D03*
X245924Y350000D02*
D03*
X255176D02*
D03*
X245924Y304000D02*
D03*
X255176D02*
D03*
X245924Y256500D02*
D03*
X255176D02*
D03*
X245924Y212000D02*
D03*
X255176D02*
D03*
X159724Y422154D02*
D03*
X168976D02*
D03*
X158874Y232500D02*
D03*
X168126D02*
D03*
X202780Y225849D02*
D03*
X193528D02*
D03*
X159724Y373321D02*
D03*
X168976D02*
D03*
X159724Y326154D02*
D03*
X168976D02*
D03*
X202780Y318507D02*
D03*
X193528D02*
D03*
X202780Y415007D02*
D03*
X193528D02*
D03*
X168976Y384500D02*
D03*
Y244685D02*
D03*
Y290028D02*
D03*
Y338000D02*
D03*
X159724Y278506D02*
D03*
X168976D02*
D03*
X202780Y271021D02*
D03*
X193528D02*
D03*
D19*
X264783Y401000D02*
D03*
X272657D02*
D03*
X264783Y352000D02*
D03*
X272657D02*
D03*
X264783Y304500D02*
D03*
X272657D02*
D03*
X264783Y258000D02*
D03*
X272657D02*
D03*
X264783Y212500D02*
D03*
X272657D02*
D03*
D20*
X233500Y290770D02*
D03*
Y272659D02*
D03*
Y338742D02*
D03*
Y320632D02*
D03*
Y385242D02*
D03*
Y367132D02*
D03*
Y434500D02*
D03*
Y416390D02*
D03*
Y245427D02*
D03*
Y227317D02*
D03*
D21*
X220004Y384002D02*
D03*
Y379002D02*
D03*
X194413D02*
D03*
Y384002D02*
D03*
Y244187D02*
D03*
Y239187D02*
D03*
X220004D02*
D03*
Y244187D02*
D03*
X194413Y337502D02*
D03*
Y332502D02*
D03*
X220004D02*
D03*
Y337502D02*
D03*
X194413Y433002D02*
D03*
Y428002D02*
D03*
X220004D02*
D03*
Y433002D02*
D03*
X194413Y289529D02*
D03*
Y284529D02*
D03*
X220004D02*
D03*
Y289529D02*
D03*
D22*
X177614Y311500D02*
D03*
X183913D02*
D03*
X177850Y264500D02*
D03*
X184150D02*
D03*
X178248Y218000D02*
D03*
X184547D02*
D03*
X183913Y407000D02*
D03*
X177614D02*
D03*
Y358500D02*
D03*
X183913D02*
D03*
D23*
X178158Y230000D02*
D03*
X185638D02*
D03*
X177760Y277500D02*
D03*
X185240D02*
D03*
X178008Y371172D02*
D03*
X185488D02*
D03*
X177760Y324000D02*
D03*
X185240D02*
D03*
X185488Y419922D02*
D03*
X178008D02*
D03*
X273444Y224500D02*
D03*
X265964D02*
D03*
X159429Y220642D02*
D03*
X166909D02*
D03*
X159429Y411247D02*
D03*
X166909D02*
D03*
X159429Y362581D02*
D03*
X166909D02*
D03*
X273444Y364000D02*
D03*
X265964D02*
D03*
X273444Y413500D02*
D03*
X265964D02*
D03*
X273444Y317000D02*
D03*
X265964D02*
D03*
X273444Y270500D02*
D03*
X265964D02*
D03*
X159429Y267423D02*
D03*
X166909D02*
D03*
X159429Y314747D02*
D03*
X166909D02*
D03*
D24*
X286370Y434000D02*
D03*
Y429000D02*
D03*
Y424000D02*
D03*
Y419000D02*
D03*
Y414000D02*
D03*
Y409000D02*
D03*
Y404000D02*
D03*
X307630D02*
D03*
Y409000D02*
D03*
Y419000D02*
D03*
Y424000D02*
D03*
Y429000D02*
D03*
Y434000D02*
D03*
Y414000D02*
D03*
Y224345D02*
D03*
Y271758D02*
D03*
Y319172D02*
D03*
Y366586D02*
D03*
Y386586D02*
D03*
Y381586D02*
D03*
Y376586D02*
D03*
Y371586D02*
D03*
Y361586D02*
D03*
Y356586D02*
D03*
X286370D02*
D03*
Y361586D02*
D03*
Y366586D02*
D03*
Y371586D02*
D03*
Y376586D02*
D03*
Y381586D02*
D03*
Y386586D02*
D03*
Y244345D02*
D03*
Y239345D02*
D03*
Y234345D02*
D03*
Y229345D02*
D03*
Y224345D02*
D03*
Y219345D02*
D03*
Y214345D02*
D03*
X307630D02*
D03*
Y219345D02*
D03*
Y229345D02*
D03*
Y234345D02*
D03*
Y239345D02*
D03*
Y244345D02*
D03*
X286370Y291758D02*
D03*
Y286758D02*
D03*
Y281758D02*
D03*
Y276758D02*
D03*
Y271758D02*
D03*
Y266758D02*
D03*
Y261758D02*
D03*
X307630D02*
D03*
Y266758D02*
D03*
Y276758D02*
D03*
Y281758D02*
D03*
Y286758D02*
D03*
Y291758D02*
D03*
X286370Y339172D02*
D03*
Y334172D02*
D03*
Y329172D02*
D03*
Y324172D02*
D03*
Y319172D02*
D03*
Y314172D02*
D03*
Y309172D02*
D03*
X307630D02*
D03*
Y314172D02*
D03*
Y324172D02*
D03*
Y329172D02*
D03*
Y334172D02*
D03*
Y339172D02*
D03*
D25*
X251500Y413839D02*
D03*
Y431161D02*
D03*
Y365139D02*
D03*
Y382461D02*
D03*
Y319339D02*
D03*
Y336661D02*
D03*
Y272339D02*
D03*
Y289661D02*
D03*
Y226339D02*
D03*
Y243661D02*
D03*
D26*
X266300Y433250D02*
D03*
Y425750D02*
D03*
X275700Y429500D02*
D03*
Y240496D02*
D03*
X266300Y236746D02*
D03*
Y244246D02*
D03*
X275700Y333811D02*
D03*
X266300Y330061D02*
D03*
Y337561D02*
D03*
X275700Y380311D02*
D03*
X266300Y376561D02*
D03*
Y384061D02*
D03*
X275700Y285838D02*
D03*
X266300Y282088D02*
D03*
Y289588D02*
D03*
D27*
X211279Y410913D02*
D03*
X218720Y414949D02*
D03*
Y406878D02*
D03*
X211279Y221756D02*
D03*
X218720Y225791D02*
D03*
Y217721D02*
D03*
X211279Y266927D02*
D03*
X218720Y270963D02*
D03*
Y262892D02*
D03*
X212500Y314413D02*
D03*
X219941Y318449D02*
D03*
Y310378D02*
D03*
X211279Y361663D02*
D03*
X218720Y365699D02*
D03*
Y357628D02*
D03*
D28*
X204827Y214000D02*
D03*
X193173D02*
D03*
X204827Y259000D02*
D03*
X193173D02*
D03*
X204827Y354000D02*
D03*
X193173D02*
D03*
X204827Y403500D02*
D03*
X193173D02*
D03*
X204827Y306000D02*
D03*
X193173D02*
D03*
D29*
X167500Y400000D02*
D03*
X160020D02*
D03*
X167500Y351500D02*
D03*
X160020D02*
D03*
X167500Y208500D02*
D03*
X160020D02*
D03*
X167500Y256000D02*
D03*
X160020D02*
D03*
X167500Y303000D02*
D03*
X160020D02*
D03*
D52*
X431071Y286162D02*
D03*
Y406194D02*
D03*
D53*
Y274351D02*
D03*
Y262540D02*
D03*
Y250729D02*
D03*
Y238918D02*
D03*
X419260Y286162D02*
D03*
Y274351D02*
D03*
Y262540D02*
D03*
Y250729D02*
D03*
Y238918D02*
D03*
Y358950D02*
D03*
Y370761D02*
D03*
Y382572D02*
D03*
Y394383D02*
D03*
Y406194D02*
D03*
X431071Y358950D02*
D03*
Y370761D02*
D03*
Y382572D02*
D03*
Y394383D02*
D03*
D54*
X448000Y277658D02*
D03*
Y247422D02*
D03*
Y367454D02*
D03*
Y397690D02*
D03*
D55*
X147000Y242002D02*
D03*
Y232002D02*
D03*
Y279206D02*
D03*
Y289206D02*
D03*
Y326410D02*
D03*
Y336410D02*
D03*
Y373613D02*
D03*
Y383613D02*
D03*
Y420817D02*
D03*
Y430817D02*
D03*
D56*
Y222002D02*
D03*
Y269206D02*
D03*
Y316410D02*
D03*
Y363613D02*
D03*
Y410817D02*
D03*
D57*
X438685Y217500D02*
D03*
Y187972D02*
D03*
X419000Y217500D02*
D03*
Y187972D02*
D03*
Y308468D02*
D03*
Y337996D02*
D03*
X438685Y308468D02*
D03*
Y337996D02*
D03*
X419000Y428500D02*
D03*
Y458028D02*
D03*
X438685Y428500D02*
D03*
Y458028D02*
D03*
D58*
X286951Y458567D02*
D03*
X293343Y189500D02*
D03*
D59*
X296793Y458567D02*
D03*
X283500Y189500D02*
D03*
M02*
