G04*
G04 #@! TF.GenerationSoftware,Altium Limited,Altium Designer,22.1.2 (22)*
G04*
G04 Layer_Color=8388736*
%FSLAX25Y25*%
%MOIN*%
G70*
G04*
G04 #@! TF.SameCoordinates,1384077E-11D3-43F0-9A77-4EE49B0B0899*
G04*
G04*
G04 #@! TF.FilePolarity,Negative*
G04*
G01*
G75*
%ADD15R,0.03772X0.10072*%
%ADD26R,0.05200X0.02200*%
%ADD27R,0.03500X0.03200*%
%ADD30R,0.03543X0.06299*%
%ADD31R,0.04921X0.06024*%
%ADD32R,0.05118X0.05118*%
%ADD33R,0.05315X0.05315*%
%ADD34R,0.14094X0.03937*%
%ADD35R,0.06693X0.03150*%
%ADD36R,0.03740X0.04331*%
%ADD37R,0.04528X0.06299*%
%ADD38R,0.06496X0.03150*%
%ADD39R,0.09055X0.09252*%
%ADD40R,0.04410X0.07402*%
%ADD41R,0.05709X0.06496*%
%ADD42R,0.06575X0.06575*%
%ADD43C,0.06575*%
%ADD44C,0.12402*%
%ADD45C,0.05169*%
%ADD46R,0.05169X0.05169*%
%ADD47C,0.12106*%
%ADD48R,0.06791X0.06791*%
%ADD49C,0.06791*%
%ADD50C,0.02953*%
D15*
X318232Y213000D02*
D03*
X335768D02*
D03*
X361268Y404500D02*
D03*
X343732D02*
D03*
X317965Y376000D02*
D03*
X335500D02*
D03*
X317965Y430500D02*
D03*
X335500D02*
D03*
X317965Y230500D02*
D03*
X335500D02*
D03*
X317965Y254500D02*
D03*
X335500D02*
D03*
Y271500D02*
D03*
X317965D02*
D03*
Y288500D02*
D03*
X335500D02*
D03*
X317965Y316500D02*
D03*
X335500D02*
D03*
Y333000D02*
D03*
X317965D02*
D03*
Y349500D02*
D03*
X335500D02*
D03*
Y391750D02*
D03*
X317965D02*
D03*
Y407500D02*
D03*
X335500D02*
D03*
Y445000D02*
D03*
X317965D02*
D03*
Y459500D02*
D03*
X335500D02*
D03*
X343732Y348658D02*
D03*
X361268D02*
D03*
X369232Y430500D02*
D03*
X386768D02*
D03*
Y445000D02*
D03*
X369232D02*
D03*
X386768Y459500D02*
D03*
X369232D02*
D03*
X343732Y419184D02*
D03*
X361268D02*
D03*
X317965Y196500D02*
D03*
X335500D02*
D03*
X343732Y362763D02*
D03*
X361268D02*
D03*
X343732Y306342D02*
D03*
X361268D02*
D03*
X343732Y249921D02*
D03*
X361268D02*
D03*
X343732Y193500D02*
D03*
X361268D02*
D03*
Y433289D02*
D03*
X343732D02*
D03*
X361268Y376868D02*
D03*
X343732D02*
D03*
X361268Y320447D02*
D03*
X343732D02*
D03*
X361268Y264026D02*
D03*
X343732D02*
D03*
X361268Y207605D02*
D03*
X343732D02*
D03*
Y461500D02*
D03*
X361268D02*
D03*
X343732Y292237D02*
D03*
X361268D02*
D03*
X343732Y235816D02*
D03*
X361268D02*
D03*
X369232Y376000D02*
D03*
X386768D02*
D03*
X369232Y316500D02*
D03*
X386768D02*
D03*
X369232Y254500D02*
D03*
X386768D02*
D03*
X369232Y196500D02*
D03*
X386768D02*
D03*
Y391750D02*
D03*
X369232D02*
D03*
X386768Y333000D02*
D03*
X369232D02*
D03*
X386768Y271500D02*
D03*
X369232D02*
D03*
X386768Y213500D02*
D03*
X369232D02*
D03*
X386768Y407500D02*
D03*
X369232D02*
D03*
X386768Y349500D02*
D03*
X369232D02*
D03*
X386768Y288500D02*
D03*
X369232D02*
D03*
X386768Y230500D02*
D03*
X369232D02*
D03*
D26*
X266300Y433250D02*
D03*
Y425750D02*
D03*
X275700Y429500D02*
D03*
Y240496D02*
D03*
X266300Y236746D02*
D03*
Y244246D02*
D03*
X275700Y333811D02*
D03*
X266300Y330061D02*
D03*
Y337561D02*
D03*
X275700Y380311D02*
D03*
X266300Y376561D02*
D03*
Y384061D02*
D03*
X275700Y285838D02*
D03*
X266300Y282088D02*
D03*
Y289588D02*
D03*
D27*
X211279Y410913D02*
D03*
X218720Y414949D02*
D03*
Y406878D02*
D03*
X211279Y221756D02*
D03*
X218720Y225791D02*
D03*
Y217721D02*
D03*
X211279Y266927D02*
D03*
X218720Y270963D02*
D03*
Y262892D02*
D03*
X212500Y314413D02*
D03*
X219941Y318449D02*
D03*
Y310378D02*
D03*
X211279Y361663D02*
D03*
X218720Y365699D02*
D03*
Y357628D02*
D03*
D30*
X347669Y390500D02*
D03*
X356331D02*
D03*
Y447000D02*
D03*
X347669D02*
D03*
X356331Y334000D02*
D03*
X347669D02*
D03*
X356331Y277500D02*
D03*
X347669D02*
D03*
X356331Y221000D02*
D03*
X347669D02*
D03*
D31*
X184898Y336000D02*
D03*
X178102D02*
D03*
Y289500D02*
D03*
X184898D02*
D03*
X178500Y241000D02*
D03*
X185295D02*
D03*
X178205Y384199D02*
D03*
X185000D02*
D03*
X178205Y433199D02*
D03*
X185000D02*
D03*
D32*
X176874Y207000D02*
D03*
X186126D02*
D03*
X176874Y254000D02*
D03*
X186126D02*
D03*
X176874Y300726D02*
D03*
X186126D02*
D03*
X176874Y347500D02*
D03*
X186126D02*
D03*
X176874Y395500D02*
D03*
X186126D02*
D03*
X229012Y309500D02*
D03*
X238264D02*
D03*
X229012Y355500D02*
D03*
X238264D02*
D03*
X229012Y405500D02*
D03*
X238264D02*
D03*
X229012Y262500D02*
D03*
X238264D02*
D03*
X229012Y217000D02*
D03*
X238264D02*
D03*
X193528Y365757D02*
D03*
X202780D02*
D03*
X255176Y399000D02*
D03*
X245924D02*
D03*
X159724Y433500D02*
D03*
X168976D02*
D03*
X159724Y244685D02*
D03*
Y290028D02*
D03*
Y338000D02*
D03*
Y384500D02*
D03*
X245924Y350000D02*
D03*
X255176D02*
D03*
X245924Y304000D02*
D03*
X255176D02*
D03*
X245924Y256500D02*
D03*
X255176D02*
D03*
X245924Y212000D02*
D03*
X255176D02*
D03*
X159724Y422154D02*
D03*
X168976D02*
D03*
X158874Y232500D02*
D03*
X168126D02*
D03*
X202780Y225849D02*
D03*
X193528D02*
D03*
X159724Y373321D02*
D03*
X168976D02*
D03*
X159724Y326154D02*
D03*
X168976D02*
D03*
X202780Y318507D02*
D03*
X193528D02*
D03*
X202780Y415007D02*
D03*
X193528D02*
D03*
X168976Y384500D02*
D03*
Y244685D02*
D03*
Y290028D02*
D03*
Y338000D02*
D03*
X159724Y278506D02*
D03*
X168976D02*
D03*
X202780Y271021D02*
D03*
X193528D02*
D03*
D33*
X264783Y401000D02*
D03*
X272657D02*
D03*
X264783Y352000D02*
D03*
X272657D02*
D03*
X264783Y304500D02*
D03*
X272657D02*
D03*
X264783Y258000D02*
D03*
X272657D02*
D03*
X264783Y212500D02*
D03*
X272657D02*
D03*
D34*
X233500Y290770D02*
D03*
Y272659D02*
D03*
Y338742D02*
D03*
Y320632D02*
D03*
Y385242D02*
D03*
Y367132D02*
D03*
Y434500D02*
D03*
Y416390D02*
D03*
Y245427D02*
D03*
Y227317D02*
D03*
D35*
X220004Y384002D02*
D03*
Y379002D02*
D03*
X194413D02*
D03*
Y384002D02*
D03*
Y244187D02*
D03*
Y239187D02*
D03*
X220004D02*
D03*
Y244187D02*
D03*
X194413Y337502D02*
D03*
Y332502D02*
D03*
X220004D02*
D03*
Y337502D02*
D03*
X194413Y433002D02*
D03*
Y428002D02*
D03*
X220004D02*
D03*
Y433002D02*
D03*
X194413Y289529D02*
D03*
Y284529D02*
D03*
X220004D02*
D03*
Y289529D02*
D03*
D36*
X177614Y311500D02*
D03*
X183913D02*
D03*
X177850Y264500D02*
D03*
X184150D02*
D03*
X178248Y218000D02*
D03*
X184547D02*
D03*
X183913Y407000D02*
D03*
X177614D02*
D03*
Y358500D02*
D03*
X183913D02*
D03*
D37*
X178158Y230000D02*
D03*
X185638D02*
D03*
X177760Y277500D02*
D03*
X185240D02*
D03*
X178008Y371172D02*
D03*
X185488D02*
D03*
X177760Y324000D02*
D03*
X185240D02*
D03*
X185488Y419922D02*
D03*
X178008D02*
D03*
X273444Y224500D02*
D03*
X265964D02*
D03*
X159429Y220642D02*
D03*
X166909D02*
D03*
X159429Y411247D02*
D03*
X166909D02*
D03*
X159429Y362581D02*
D03*
X166909D02*
D03*
X273444Y364000D02*
D03*
X265964D02*
D03*
X273444Y413500D02*
D03*
X265964D02*
D03*
X273444Y317000D02*
D03*
X265964D02*
D03*
X273444Y270500D02*
D03*
X265964D02*
D03*
X159429Y267423D02*
D03*
X166909D02*
D03*
X159429Y314747D02*
D03*
X166909D02*
D03*
D38*
X286370Y434000D02*
D03*
Y429000D02*
D03*
Y424000D02*
D03*
Y419000D02*
D03*
Y414000D02*
D03*
Y409000D02*
D03*
Y404000D02*
D03*
X307630D02*
D03*
Y409000D02*
D03*
Y419000D02*
D03*
Y424000D02*
D03*
Y429000D02*
D03*
Y434000D02*
D03*
Y414000D02*
D03*
Y224345D02*
D03*
Y271758D02*
D03*
Y319172D02*
D03*
Y366586D02*
D03*
Y386586D02*
D03*
Y381586D02*
D03*
Y376586D02*
D03*
Y371586D02*
D03*
Y361586D02*
D03*
Y356586D02*
D03*
X286370D02*
D03*
Y361586D02*
D03*
Y366586D02*
D03*
Y371586D02*
D03*
Y376586D02*
D03*
Y381586D02*
D03*
Y386586D02*
D03*
Y244345D02*
D03*
Y239345D02*
D03*
Y234345D02*
D03*
Y229345D02*
D03*
Y224345D02*
D03*
Y219345D02*
D03*
Y214345D02*
D03*
X307630D02*
D03*
Y219345D02*
D03*
Y229345D02*
D03*
Y234345D02*
D03*
Y239345D02*
D03*
Y244345D02*
D03*
X286370Y291758D02*
D03*
Y286758D02*
D03*
Y281758D02*
D03*
Y276758D02*
D03*
Y271758D02*
D03*
Y266758D02*
D03*
Y261758D02*
D03*
X307630D02*
D03*
Y266758D02*
D03*
Y276758D02*
D03*
Y281758D02*
D03*
Y286758D02*
D03*
Y291758D02*
D03*
X286370Y339172D02*
D03*
Y334172D02*
D03*
Y329172D02*
D03*
Y324172D02*
D03*
Y319172D02*
D03*
Y314172D02*
D03*
Y309172D02*
D03*
X307630D02*
D03*
Y314172D02*
D03*
Y324172D02*
D03*
Y329172D02*
D03*
Y334172D02*
D03*
Y339172D02*
D03*
D39*
X251500Y413839D02*
D03*
Y431161D02*
D03*
Y365139D02*
D03*
Y382461D02*
D03*
Y319339D02*
D03*
Y336661D02*
D03*
Y272339D02*
D03*
Y289661D02*
D03*
Y226339D02*
D03*
Y243661D02*
D03*
D40*
X204827Y214000D02*
D03*
X193173D02*
D03*
X204827Y259000D02*
D03*
X193173D02*
D03*
X204827Y354000D02*
D03*
X193173D02*
D03*
X204827Y403500D02*
D03*
X193173D02*
D03*
X204827Y306000D02*
D03*
X193173D02*
D03*
D41*
X167500Y400000D02*
D03*
X160020D02*
D03*
X167500Y351500D02*
D03*
X160020D02*
D03*
X167500Y208500D02*
D03*
X160020D02*
D03*
X167500Y256000D02*
D03*
X160020D02*
D03*
X167500Y303000D02*
D03*
X160020D02*
D03*
D42*
X431071Y286162D02*
D03*
Y406194D02*
D03*
D43*
Y274351D02*
D03*
Y262540D02*
D03*
Y250729D02*
D03*
Y238918D02*
D03*
X419260Y286162D02*
D03*
Y274351D02*
D03*
Y262540D02*
D03*
Y250729D02*
D03*
Y238918D02*
D03*
Y358950D02*
D03*
Y370761D02*
D03*
Y382572D02*
D03*
Y394383D02*
D03*
Y406194D02*
D03*
X431071Y358950D02*
D03*
Y370761D02*
D03*
Y382572D02*
D03*
Y394383D02*
D03*
D44*
X448000Y277658D02*
D03*
Y247422D02*
D03*
Y367454D02*
D03*
Y397690D02*
D03*
D45*
X147000Y242002D02*
D03*
Y232002D02*
D03*
Y279206D02*
D03*
Y289206D02*
D03*
Y326410D02*
D03*
Y336410D02*
D03*
Y373613D02*
D03*
Y383613D02*
D03*
Y420817D02*
D03*
Y430817D02*
D03*
D46*
Y222002D02*
D03*
Y269206D02*
D03*
Y316410D02*
D03*
Y363613D02*
D03*
Y410817D02*
D03*
D47*
X438685Y217500D02*
D03*
Y187972D02*
D03*
X419000Y217500D02*
D03*
Y187972D02*
D03*
Y308468D02*
D03*
Y337996D02*
D03*
X438685Y308468D02*
D03*
Y337996D02*
D03*
X419000Y428500D02*
D03*
Y458028D02*
D03*
X438685Y428500D02*
D03*
Y458028D02*
D03*
D48*
X286951Y458567D02*
D03*
X293343Y189500D02*
D03*
D49*
X296793Y458567D02*
D03*
X283500Y189500D02*
D03*
D50*
X163531Y193031D02*
D03*
X186000Y236554D02*
D03*
X296069Y198794D02*
D03*
X199000Y219500D02*
D03*
X172876Y334100D02*
D03*
X190500Y379000D02*
D03*
X192500Y371769D02*
D03*
X170500Y359000D02*
D03*
X247000Y358000D02*
D03*
X237500Y351500D02*
D03*
X260000Y357000D02*
D03*
X355415Y204421D02*
D03*
X359769Y219000D02*
D03*
X351500Y453000D02*
D03*
X224700Y443131D02*
D03*
X309500Y179431D02*
D03*
X302931Y221470D02*
D03*
X204800Y208900D02*
D03*
X193200D02*
D03*
X399531Y361700D02*
D03*
X394600Y362900D02*
D03*
X399431Y368000D02*
D03*
X356331Y329569D02*
D03*
X347500D02*
D03*
X302996Y334172D02*
D03*
X302500Y308500D02*
D03*
X269000Y284700D02*
D03*
X307500Y258000D02*
D03*
X265964Y219569D02*
D03*
X251500D02*
D03*
X245924Y217486D02*
D03*
X238264Y213055D02*
D03*
X291000Y214300D02*
D03*
X347669Y216531D02*
D03*
X352500Y236000D02*
D03*
X327500Y213000D02*
D03*
X296000Y428500D02*
D03*
X169000Y275500D02*
D03*
X168500Y286000D02*
D03*
X215500Y217500D02*
D03*
X260500Y230000D02*
D03*
X262000Y262500D02*
D03*
X258000Y265800D02*
D03*
X260673Y276827D02*
D03*
X264783Y300500D02*
D03*
X263000Y295000D02*
D03*
X222500Y329000D02*
D03*
X220500Y340000D02*
D03*
X170877Y324185D02*
D03*
X159724Y334055D02*
D03*
X334500Y400500D02*
D03*
X352500Y401900D02*
D03*
X222500Y247500D02*
D03*
X257000Y251031D02*
D03*
X249500Y262000D02*
D03*
X232000Y257000D02*
D03*
X186126Y195100D02*
D03*
X252700Y300069D02*
D03*
X281700Y409000D02*
D03*
X278500Y406431D02*
D03*
X224700Y389000D02*
D03*
Y381500D02*
D03*
X239000Y347500D02*
D03*
X261134Y399351D02*
D03*
X312300Y434000D02*
D03*
X352500Y433500D02*
D03*
X404800Y377800D02*
D03*
X204800Y254000D02*
D03*
X204827Y348900D02*
D03*
X301514Y353800D02*
D03*
X409000Y371000D02*
D03*
X356331Y361586D02*
D03*
X325500D02*
D03*
X300500Y422200D02*
D03*
X312300Y291758D02*
D03*
X426100Y329300D02*
D03*
X241500Y369700D02*
D03*
X241910Y416390D02*
D03*
X193173Y348900D02*
D03*
X178200Y214400D02*
D03*
X281800Y371600D02*
D03*
X177614Y354914D02*
D03*
X281700Y419000D02*
D03*
X177614Y403400D02*
D03*
X173500Y232444D02*
D03*
X291000Y224345D02*
D03*
X303000Y229345D02*
D03*
X259176Y208000D02*
D03*
X303193Y324200D02*
D03*
X166900Y216100D02*
D03*
X216810Y301390D02*
D03*
X290928Y309100D02*
D03*
X285437Y351037D02*
D03*
X202780Y361820D02*
D03*
X241900Y242600D02*
D03*
X168976Y240700D02*
D03*
X277100Y279258D02*
D03*
X218720Y276700D02*
D03*
X291000Y376600D02*
D03*
X243400Y395100D02*
D03*
X264800Y332700D02*
D03*
X312200Y386586D02*
D03*
X155839Y240800D02*
D03*
X312300Y319172D02*
D03*
X155824Y380600D02*
D03*
Y429600D02*
D03*
X166909Y310200D02*
D03*
X211500Y284529D02*
D03*
X166900Y406700D02*
D03*
X237700Y286600D02*
D03*
X208700Y289529D02*
D03*
X184898Y331602D02*
D03*
X185000Y379800D02*
D03*
X173676D02*
D03*
X251500Y406984D02*
D03*
X173675Y428801D02*
D03*
X186126Y294326D02*
D03*
X281700Y266800D02*
D03*
X291004Y434000D02*
D03*
X241933Y434500D02*
D03*
X234264Y401500D02*
D03*
X185000Y428801D02*
D03*
X300900Y431500D02*
D03*
X186126Y391600D02*
D03*
X226700Y428002D02*
D03*
X281700Y314200D02*
D03*
X238264Y305555D02*
D03*
X193173Y300954D02*
D03*
X241900Y330216D02*
D03*
X242700Y227317D02*
D03*
X312300Y271800D02*
D03*
X303000Y284473D02*
D03*
X186126Y260800D02*
D03*
X301042Y274300D02*
D03*
X312400Y286758D02*
D03*
X295800Y361586D02*
D03*
X192100Y312100D02*
D03*
X281700Y324200D02*
D03*
X204827Y311300D02*
D03*
X261600Y319339D02*
D03*
X291004Y319172D02*
D03*
X312300Y214345D02*
D03*
X303000Y379700D02*
D03*
X186100Y343600D02*
D03*
X312286Y371600D02*
D03*
X303000Y314172D02*
D03*
X302996Y239345D02*
D03*
X347669Y386000D02*
D03*
X169000Y377300D02*
D03*
X193173Y397573D02*
D03*
X303000Y266800D02*
D03*
X194910Y253900D02*
D03*
X212179Y273521D02*
D03*
X291000Y261758D02*
D03*
X301845Y389031D02*
D03*
X312200Y391517D02*
D03*
X297000Y384100D02*
D03*
X184898Y285102D02*
D03*
X174300Y264500D02*
D03*
X281700Y276800D02*
D03*
X159724Y286083D02*
D03*
X241900Y272659D02*
D03*
X312200Y339200D02*
D03*
X241933Y385242D02*
D03*
X293900Y404000D02*
D03*
X204800Y398400D02*
D03*
X291004Y414000D02*
D03*
X169000Y426100D02*
D03*
X291000Y244345D02*
D03*
X335500Y342400D02*
D03*
X291000Y339172D02*
D03*
X238400Y335000D02*
D03*
X224700Y292000D02*
D03*
X215300Y357600D02*
D03*
X291004Y271758D02*
D03*
X294900Y291758D02*
D03*
X189700Y433000D02*
D03*
X193500Y420600D02*
D03*
X356300Y273000D02*
D03*
M02*
