M48
;Layer_Color=9474304
;FILE_FORMAT=2:5
INCH,LZ
;TYPE=PLATED
T1F00S00C0.01181
T2F00S00C0.03200
T3F00S00C0.04016
T4F00S00C0.04134
T5F00S00C0.07677
;TYPE=NON_PLATED
T6F00S00C0.11811
%
T01
X03275Y0213
X0347669Y0216531
X0358569Y0219
X0355415Y0204421
X03525Y0236
X03563Y0273
X03123Y02718
X0301042Y02743
X0303Y02668
X03075Y0258
X0291Y0261758
X0291004Y0271758
X02817Y02668
Y02768
X02771Y0279258
X0269Y02847
X0260673Y0276827
X0258Y02658
X0262Y02625
X02495Y0262
X02419Y0272659
X02377Y02866
X02247Y0292
X021681Y030139
X02087Y0289529
X02115Y0284529
X0212179Y0273521
X021872Y02767
X02225Y02475
X0232Y0257
X02419Y02426
X02427Y0227317
X0245924Y0217486
X02515Y0219569
X0265964
X02605Y023
X0259176Y0208
X0238264Y0213055
X02155Y02175
X0199Y02195
X02048Y02089
X01932
X01782Y02144
X01669Y02161
X01735Y0232444
X0168976Y02407
X0186Y0236554
X0186126Y02608
X01743Y02645
X0169Y02755
X01685Y0286
X0159724Y0286083
X0184898Y0285102
X0186126Y0294326
X0193173Y0300954
X01921Y03121
X0204827Y03113
X0166909Y03102
X0238264Y0305555
X02527Y0300069
X0264783Y03005
X0263Y0295
X02949Y0291758
X0303Y0284473
X03124Y0286758
X03123Y0291758
X03025Y03085
X0290928Y03091
X0291Y0244345
X0302996Y0239345
X0303Y0229345
X0302931Y022147
X0291Y0224345
Y02143
X0296069Y0198794
X03123Y0214345
X03095Y0179431
X0257Y0251031
X02048Y0254
X019491Y02539
X0186126Y01951
X0163531Y0193031
X0155839Y02408
X0155824Y03806
Y04296
X0169Y04261
X0173675Y0428801
X0185
X01897Y0433
X01935Y04206
X0193173Y0397573
X02048Y03984
X0186126Y03916
X0185Y03798
X01905Y0379
X01925Y0371769
X020278Y036182
X0204827Y03489
X0193173
X01861Y03436
X0184898Y0331602
X0172876Y03341
X0170877Y0324185
X0159724Y0334055
X01705Y0359
X0177614Y0354914
X0173676Y03798
X0169Y03773
X01669Y04067
X0177614Y04034
X0234264Y04015
X02434Y03951
X0241933Y0385242
X02415Y03697
X0247Y0358
X026Y0357
X02375Y03515
X0239Y03475
X02384Y0335
X02419Y0330216
X02225Y0329
X02205Y034
X02153Y03576
X02247Y03815
Y0389
X02267Y0428002
X02247Y0443131
X0241933Y04345
X024191Y041639
X02515Y0406984
X0261134Y0399351
X02785Y0406431
X02817Y0409
Y0419
X0291004Y0414
X02939Y0404
X0301845Y0389031
X0297Y03841
X0303Y03797
X0291Y03766
X02818Y03716
X02958Y0361586
X0301514Y03538
X0285437Y0351037
X0291Y0339172
X0302996Y0334172
X0303193Y03242
X0303Y0314172
X03123Y0319172
X03122Y03392
X0312286Y03716
X03122Y0386586
Y0391517
X03005Y04222
X03009Y04315
X0296Y04285
X0291004Y0434
X03123
X0291004Y0319172
X02817Y03142
Y03242
X02616Y0319339
X02648Y03327
X03355Y03424
X03475Y0329569
X0356331
Y0361586
X03255
X0347669Y0386
X03525Y04019
X03345Y04005
X0324Y0418
X03525Y04335
X03515Y0453
X03735Y04175
X04048Y03778
X0409Y0371
X0399431Y0368
X0399531Y03617
X03946Y03629
X04261Y03293
T02
X0147Y0222002
Y0232002
Y0242002
Y0269206
Y0279206
Y0289206
Y031641
Y032641
Y033641
Y0363613
Y0373613
Y0383613
Y0410817
Y0420817
Y0430817
T03
X041926Y0238918
X0431071
Y0250729
Y026254
Y0274351
Y0286162
X041926
Y0274351
Y026254
Y0250729
Y035895
Y0370761
Y0382572
Y0394383
Y0406194
X0431071
Y0394383
Y0382572
Y0370761
Y035895
T04
X02835Y01895
X0293343
X0296793Y0458567
X0286951
T05
X0419Y0187972
X0438685
Y02175
X0419
Y0308468
X0438685
Y0337996
X0419
Y04285
X0438685
Y0458028
X0419
T06
X0448Y0247422
Y0277658
Y0367454
Y039769
M30
