G04*
G04 #@! TF.GenerationSoftware,Altium Limited,Altium Designer,22.1.2 (22)*
G04*
G04 Layer_Color=128*
%FSLAX25Y25*%
%MOIN*%
G70*
G04*
G04 #@! TF.SameCoordinates,A84A231E-1FB4-490D-AB1D-95A42E3D9FFD*
G04*
G04*
G04 #@! TF.FilePolarity,Positive*
G04*
G01*
G75*
%ADD24C,0.00200*%
D24*
X258547Y167700D02*
X264453D01*
X261500Y164747D02*
Y170653D01*
X258547Y175600D02*
X264453D01*
X261500Y172647D02*
Y178553D01*
X258547Y183500D02*
X264453D01*
X261500Y180547D02*
Y186453D01*
X258547Y159800D02*
X264453D01*
X261500Y156847D02*
Y162753D01*
X258547Y200000D02*
X264453D01*
X261500Y197047D02*
Y202953D01*
X258547Y208600D02*
X264453D01*
X261500Y205647D02*
Y211553D01*
X258547Y217200D02*
X264453D01*
X261500Y214247D02*
Y220153D01*
X258547Y225800D02*
X264453D01*
X261500Y222847D02*
Y228753D01*
X227847Y192500D02*
X233753D01*
X230800Y189547D02*
Y195453D01*
X306147Y192500D02*
X312053D01*
X309100Y189547D02*
Y195453D01*
X297447Y192500D02*
X303353D01*
X300400Y189547D02*
Y195453D01*
X288747Y192500D02*
X294653D01*
X291700Y189547D02*
Y195453D01*
X280047Y192500D02*
X285953D01*
X283000Y189547D02*
Y195453D01*
X271347Y192500D02*
X277253D01*
X274300Y189547D02*
Y195453D01*
X262647Y192500D02*
X268553D01*
X265600Y189547D02*
Y195453D01*
X253947Y192500D02*
X259853D01*
X256900Y189547D02*
Y195453D01*
X245247Y192500D02*
X251153D01*
X248200Y189547D02*
Y195453D01*
X236547Y192500D02*
X242453D01*
X239500Y189547D02*
Y195453D01*
X219147Y192500D02*
X225053D01*
X222100Y189547D02*
Y195453D01*
X210447Y192500D02*
X216353D01*
X213400Y189547D02*
Y195453D01*
X226512Y163933D02*
X230646D01*
X228579Y161866D02*
Y166000D01*
X236354Y163933D02*
X240488D01*
X238421Y161866D02*
Y166000D01*
X295012Y163933D02*
X299146D01*
X297079Y161866D02*
Y166000D01*
X304854Y163933D02*
X308988D01*
X306921Y161866D02*
Y166000D01*
X226512Y216433D02*
X230646D01*
X228579Y214366D02*
Y218500D01*
X236354Y216433D02*
X240488D01*
X238421Y214366D02*
Y218500D01*
X295012Y216433D02*
X299146D01*
X297079Y214366D02*
Y218500D01*
X304854Y216433D02*
X308988D01*
X306921Y214366D02*
Y218500D01*
M02*
