G04*
G04 #@! TF.GenerationSoftware,Altium Limited,Altium Designer,22.1.2 (22)*
G04*
G04 Layer_Color=8388736*
%FSLAX25Y25*%
%MOIN*%
G70*
G04*
G04 #@! TF.SameCoordinates,A84A231E-1FB4-490D-AB1D-95A42E3D9FFD*
G04*
G04*
G04 #@! TF.FilePolarity,Negative*
G04*
G01*
G75*
%ADD17R,0.06299X0.03543*%
%ADD18C,0.06800*%
%ADD19C,0.06791*%
%ADD20R,0.06791X0.06791*%
D17*
X209000Y167031D02*
D03*
Y175692D02*
D03*
X277500Y167031D02*
D03*
Y175692D02*
D03*
X209000Y219531D02*
D03*
Y228192D02*
D03*
X277500Y219531D02*
D03*
Y228192D02*
D03*
D18*
X261500Y167700D02*
D03*
Y175600D02*
D03*
Y183500D02*
D03*
Y159800D02*
D03*
Y200000D02*
D03*
Y208600D02*
D03*
Y217200D02*
D03*
Y225800D02*
D03*
X230800Y192500D02*
D03*
X309100D02*
D03*
X300400D02*
D03*
X291700D02*
D03*
X283000D02*
D03*
X274300D02*
D03*
X265600D02*
D03*
X256900D02*
D03*
X248200D02*
D03*
X239500D02*
D03*
X222100D02*
D03*
X213400D02*
D03*
D19*
X228579Y163933D02*
D03*
X297079D02*
D03*
X228579Y216433D02*
D03*
X297079D02*
D03*
D20*
X238421Y163933D02*
D03*
X306921D02*
D03*
X238421Y216433D02*
D03*
X306921D02*
D03*
M02*
