G04*
G04 #@! TF.GenerationSoftware,Altium Limited,Altium Designer,22.1.2 (22)*
G04*
G04 Layer_Color=128*
%FSLAX43Y43*%
%MOMM*%
G71*
G04*
G04 #@! TF.SameCoordinates,B9ED1628-3B94-4FFD-BB59-448334CAC492*
G04*
G04*
G04 #@! TF.FilePolarity,Positive*
G04*
G01*
G75*
%ADD64C,0.051*%
D64*
X51550Y11150D02*
X52250D01*
X51900Y10800D02*
Y11500D01*
X51550Y8650D02*
X52250D01*
X51900Y8300D02*
Y9000D01*
X40900Y23900D02*
X41700D01*
X41300Y23500D02*
Y24300D01*
X40900Y20400D02*
X41700D01*
X41300Y20000D02*
Y20800D01*
X41350Y35100D02*
X42050D01*
X41700Y34750D02*
Y35450D01*
X41350Y32600D02*
X42050D01*
X41700Y32250D02*
Y32950D01*
X40250Y10650D02*
X40950D01*
X40600Y10300D02*
Y11000D01*
X40250Y8150D02*
X40950D01*
X40600Y7800D02*
Y8500D01*
X69650Y79890D02*
X70350D01*
X70000Y79540D02*
Y80240D01*
X69650Y78620D02*
X70350D01*
X70000Y78270D02*
Y78970D01*
X69650Y77350D02*
X70350D01*
X70000Y77000D02*
Y77700D01*
X69650Y76080D02*
X70350D01*
X70000Y75730D02*
Y76430D01*
X69650Y74810D02*
X70350D01*
X70000Y74460D02*
Y75160D01*
X69650Y73540D02*
X70350D01*
X70000Y73190D02*
Y73890D01*
X69650Y72270D02*
X70350D01*
X70000Y71920D02*
Y72620D01*
X69650Y71000D02*
X70350D01*
X70000Y70650D02*
Y71350D01*
X69650Y69730D02*
X70350D01*
X70000Y69380D02*
Y70080D01*
X6405Y80080D02*
X7595D01*
X7000Y79485D02*
Y80675D01*
X6405Y77540D02*
X7595D01*
X7000Y76945D02*
Y78135D01*
X6405Y75000D02*
X7595D01*
X7000Y74405D02*
Y75595D01*
X6405Y60000D02*
X7595D01*
X7000Y59405D02*
Y60595D01*
X6405Y57460D02*
X7595D01*
X7000Y56865D02*
Y58055D01*
X6405Y54920D02*
X7595D01*
X7000Y54325D02*
Y55515D01*
X38395Y88000D02*
X39045D01*
X38720Y87675D02*
Y88325D01*
X44955Y88000D02*
X45605D01*
X45280Y87675D02*
Y88325D01*
X38395Y84000D02*
X39045D01*
X38720Y83675D02*
Y84325D01*
X44955Y84000D02*
X45605D01*
X45280Y83675D02*
Y84325D01*
X15340Y62100D02*
X16660D01*
X16000Y61440D02*
Y62760D01*
X27340Y62100D02*
X28660D01*
X28000Y61440D02*
Y62760D01*
X27340Y49900D02*
X28660D01*
X28000Y49240D02*
Y50560D01*
X21355Y47900D02*
X22645D01*
X22000Y47255D02*
Y48545D01*
X15340Y49900D02*
X16660D01*
X16000Y49240D02*
Y50560D01*
X35500Y71710D02*
X36500D01*
X36000Y71210D02*
Y72210D01*
X35500Y74000D02*
X36500D01*
X36000Y73500D02*
Y74500D01*
X35500Y76290D02*
X36500D01*
X36000Y75790D02*
Y76790D01*
X35500Y58580D02*
X36500D01*
X36000Y58080D02*
Y59080D01*
X35500Y56290D02*
X36500D01*
X36000Y55790D02*
Y56790D01*
X35500Y54000D02*
X36500D01*
X36000Y53500D02*
Y54500D01*
X63405Y24000D02*
X64595D01*
X64000Y23405D02*
Y24595D01*
X63405Y26540D02*
X64595D01*
X64000Y25945D02*
Y27135D01*
X63405Y29080D02*
X64595D01*
X64000Y28485D02*
Y29675D01*
X63405Y31620D02*
X64595D01*
X64000Y31025D02*
Y32215D01*
X63405Y34160D02*
X64595D01*
X64000Y33565D02*
Y34755D01*
X63405Y36700D02*
X64595D01*
X64000Y36105D02*
Y37295D01*
X27457Y8164D02*
X28557D01*
X28007Y7614D02*
Y8714D01*
X27457Y10704D02*
X28557D01*
X28007Y10154D02*
Y11254D01*
X27457Y13244D02*
X28557D01*
X28007Y12694D02*
Y13794D01*
X6405Y18540D02*
X7595D01*
X7000Y17945D02*
Y19135D01*
X6405Y16000D02*
X7595D01*
X7000Y15405D02*
Y16595D01*
X17245Y29500D02*
X18755D01*
X18000Y28745D02*
Y30255D01*
X17245Y22000D02*
X18755D01*
X18000Y21245D02*
Y22755D01*
X17245Y14500D02*
X18755D01*
X18000Y13745D02*
Y15255D01*
X17245Y4500D02*
X18755D01*
X18000Y3745D02*
Y5255D01*
X26913Y41000D02*
X27963D01*
X27438Y40475D02*
Y41525D01*
X16037Y41000D02*
X17087D01*
X16562Y40475D02*
Y41525D01*
X15340Y82200D02*
X16660D01*
X16000Y81540D02*
Y82860D01*
X27340Y82200D02*
X28660D01*
X28000Y81540D02*
Y82860D01*
X27340Y70000D02*
X28660D01*
X28000Y69340D02*
Y70660D01*
X21355Y68000D02*
X22645D01*
X22000Y67355D02*
Y68645D01*
X15340Y70000D02*
X16660D01*
X16000Y69340D02*
Y70660D01*
X16037Y90000D02*
X17087D01*
X16562Y89475D02*
Y90525D01*
X26913Y90000D02*
X27963D01*
X27438Y89475D02*
Y90525D01*
X61675Y53280D02*
X62325D01*
X62000Y52955D02*
Y53605D01*
X61675Y46720D02*
X62325D01*
X62000Y46395D02*
Y47045D01*
X51675Y53280D02*
X52325D01*
X52000Y52955D02*
Y53605D01*
X51675Y46720D02*
X52325D01*
X52000Y46395D02*
Y47045D01*
X41825Y69000D02*
X42575D01*
X42200Y68625D02*
Y69375D01*
X41825Y79000D02*
X42575D01*
X42200Y78625D02*
Y79375D01*
X41625Y53000D02*
X42375D01*
X42000Y52625D02*
Y53375D01*
X41625Y63000D02*
X42375D01*
X42000Y62625D02*
Y63375D01*
X56750Y36700D02*
X57050D01*
X56900Y36550D02*
Y36850D01*
X48550Y36700D02*
X48850D01*
X48700Y36550D02*
Y36850D01*
X66750Y74200D02*
X67050D01*
X66900Y74050D02*
Y74350D01*
X67400Y4000D02*
X70600D01*
X69000Y2400D02*
Y5600D01*
X2400Y4000D02*
X5600D01*
X4000Y2400D02*
Y5600D01*
X2400Y89000D02*
X5600D01*
X4000Y87400D02*
Y90600D01*
X67400Y89000D02*
X70600D01*
X69000Y87400D02*
Y90600D01*
M02*
