G04*
G04 #@! TF.GenerationSoftware,Altium Limited,Altium Designer,22.1.2 (22)*
G04*
G04 Layer_Color=2752767*
%FSLAX43Y43*%
%MOMM*%
G71*
G04*
G04 #@! TF.SameCoordinates,B9ED1628-3B94-4FFD-BB59-448334CAC492*
G04*
G04*
G04 #@! TF.FilePolarity,Positive*
G04*
G01*
G75*
%ADD64C,0.051*%
%ADD65C,0.068*%
%ADD66C,0.034*%
D64*
X51697Y10947D02*
Y11353D01*
X52103D01*
Y10947D01*
X51697D01*
Y8447D02*
Y8853D01*
X52103D01*
Y8447D01*
X51697D01*
X41497Y34897D02*
Y35303D01*
X41903D01*
Y34897D01*
X41497D01*
Y32397D02*
Y32803D01*
X41903D01*
Y32397D01*
X41497D01*
X40397Y10447D02*
Y10853D01*
X40803D01*
Y10447D01*
X40397D01*
Y7947D02*
Y8353D01*
X40803D01*
Y7947D01*
X40397D01*
X69797Y79687D02*
Y80093D01*
X70203D01*
Y79687D01*
X69797D01*
Y78417D02*
Y78823D01*
X70203D01*
Y78417D01*
X69797D01*
Y77147D02*
Y77553D01*
X70203D01*
Y77147D01*
X69797D01*
Y75877D02*
Y76283D01*
X70203D01*
Y75877D01*
X69797D01*
Y74607D02*
Y75013D01*
X70203D01*
Y74607D01*
X69797D01*
Y73337D02*
Y73743D01*
X70203D01*
Y73337D01*
X69797D01*
Y72067D02*
Y72473D01*
X70203D01*
Y72067D01*
X69797D01*
Y70797D02*
Y71203D01*
X70203D01*
Y70797D01*
X69797D01*
Y69527D02*
Y69933D01*
X70203D01*
Y69527D01*
X69797D01*
X7000Y79877D02*
X6797Y80283D01*
X7203D01*
X7000Y79877D01*
Y77337D02*
X6797Y77743D01*
X7203D01*
X7000Y77337D01*
Y74797D02*
X6797Y75203D01*
X7203D01*
X7000Y74797D01*
Y59797D02*
X6797Y60203D01*
X7203D01*
X7000Y59797D01*
Y57257D02*
X6797Y57663D01*
X7203D01*
X7000Y57257D01*
Y54717D02*
X6797Y55123D01*
X7203D01*
X7000Y54717D01*
X38720Y87797D02*
X38822Y87898D01*
X38923D01*
X38822Y88000D01*
X38923Y88102D01*
X38822D01*
X38720Y88203D01*
X38618Y88102D01*
X38517D01*
X38618Y88000D01*
X38517Y87898D01*
X38618D01*
X38720Y87797D01*
X45280D02*
X45382Y87898D01*
X45483D01*
X45382Y88000D01*
X45483Y88102D01*
X45382D01*
X45280Y88203D01*
X45178Y88102D01*
X45077D01*
X45178Y88000D01*
X45077Y87898D01*
X45178D01*
X45280Y87797D01*
X38720Y83797D02*
X38822Y83898D01*
X38923D01*
X38822Y84000D01*
X38923Y84102D01*
X38822D01*
X38720Y84203D01*
X38618Y84102D01*
X38517D01*
X38618Y84000D01*
X38517Y83898D01*
X38618D01*
X38720Y83797D01*
X45280D02*
X45382Y83898D01*
X45483D01*
X45382Y84000D01*
X45483Y84102D01*
X45382D01*
X45280Y84203D01*
X45178Y84102D01*
X45077D01*
X45178Y84000D01*
X45077Y83898D01*
X45178D01*
X45280Y83797D01*
X15797Y61897D02*
X15898Y62100D01*
X15797Y62303D01*
X16000Y62202D01*
X16203Y62303D01*
X16102Y62100D01*
X16203Y61897D01*
X16000Y61998D01*
X15797Y61897D01*
X27797D02*
X27898Y62100D01*
X27797Y62303D01*
X28000Y62202D01*
X28203Y62303D01*
X28102Y62100D01*
X28203Y61897D01*
X28000Y61998D01*
X27797Y61897D01*
Y49697D02*
X27898Y49900D01*
X27797Y50103D01*
X28000Y50002D01*
X28203Y50103D01*
X28102Y49900D01*
X28203Y49697D01*
X28000Y49798D01*
X27797Y49697D01*
X21898Y47798D02*
Y47697D01*
X22102D01*
Y47798D01*
X22203D01*
Y48002D01*
X22102D01*
Y48103D01*
X21898D01*
Y48002D01*
X21797D01*
Y47798D01*
X21898D01*
X15797Y49697D02*
X15898Y49900D01*
X15797Y50103D01*
X16000Y50002D01*
X16203Y50103D01*
X16102Y49900D01*
X16203Y49697D01*
X16000Y49798D01*
X15797Y49697D01*
X35797Y71507D02*
X35898D01*
X36000Y71608D01*
X36102Y71507D01*
X36203D01*
Y71608D01*
X36102Y71710D01*
X36203Y71812D01*
Y71913D01*
X36102D01*
X36000Y71812D01*
X35898Y71913D01*
X35797D01*
Y71812D01*
X35898Y71710D01*
X35797Y71608D01*
Y71507D01*
Y73797D02*
X35898D01*
X36000Y73898D01*
X36102Y73797D01*
X36203D01*
Y73898D01*
X36102Y74000D01*
X36203Y74102D01*
Y74203D01*
X36102D01*
X36000Y74102D01*
X35898Y74203D01*
X35797D01*
Y74102D01*
X35898Y74000D01*
X35797Y73898D01*
Y73797D01*
Y76087D02*
X35898D01*
X36000Y76188D01*
X36102Y76087D01*
X36203D01*
Y76188D01*
X36102Y76290D01*
X36203Y76392D01*
Y76493D01*
X36102D01*
X36000Y76392D01*
X35898Y76493D01*
X35797D01*
Y76392D01*
X35898Y76290D01*
X35797Y76188D01*
Y76087D01*
Y58377D02*
X35898D01*
X36000Y58478D01*
X36102Y58377D01*
X36203D01*
Y58478D01*
X36102Y58580D01*
X36203Y58682D01*
Y58783D01*
X36102D01*
X36000Y58682D01*
X35898Y58783D01*
X35797D01*
Y58682D01*
X35898Y58580D01*
X35797Y58478D01*
Y58377D01*
Y56087D02*
X35898D01*
X36000Y56188D01*
X36102Y56087D01*
X36203D01*
Y56188D01*
X36102Y56290D01*
X36203Y56392D01*
Y56493D01*
X36102D01*
X36000Y56392D01*
X35898Y56493D01*
X35797D01*
Y56392D01*
X35898Y56290D01*
X35797Y56188D01*
Y56087D01*
Y53797D02*
X35898D01*
X36000Y53898D01*
X36102Y53797D01*
X36203D01*
Y53898D01*
X36102Y54000D01*
X36203Y54102D01*
Y54203D01*
X36102D01*
X36000Y54102D01*
X35898Y54203D01*
X35797D01*
Y54102D01*
X35898Y54000D01*
X35797Y53898D01*
Y53797D01*
X64000Y23797D02*
X63797Y24203D01*
X64203D01*
X64000Y23797D01*
Y26337D02*
X63797Y26743D01*
X64203D01*
X64000Y26337D01*
Y28877D02*
X63797Y29283D01*
X64203D01*
X64000Y28877D01*
Y31417D02*
X63797Y31823D01*
X64203D01*
X64000Y31417D01*
Y33957D02*
X63797Y34363D01*
X64203D01*
X64000Y33957D01*
Y36497D02*
X63797Y36903D01*
X64203D01*
X64000Y36497D01*
X27804Y8164D02*
X28007Y8367D01*
X28210Y8164D01*
X28007Y7961D01*
X27804Y8164D01*
Y10704D02*
X28007Y10907D01*
X28210Y10704D01*
X28007Y10501D01*
X27804Y10704D01*
Y13244D02*
X28007Y13447D01*
X28210Y13244D01*
X28007Y13041D01*
X27804Y13244D01*
X7000Y18337D02*
X6797Y18743D01*
X7203D01*
X7000Y18337D01*
Y15797D02*
X6797Y16203D01*
X7203D01*
X7000Y15797D01*
X17797Y29297D02*
Y29703D01*
X18203D01*
Y29297D01*
X17797D01*
X17898Y29398D02*
Y29602D01*
X18102D01*
Y29398D01*
X17898D01*
X17797Y21797D02*
Y22203D01*
X18203D01*
Y21797D01*
X17797D01*
X17898Y21898D02*
Y22102D01*
X18102D01*
Y21898D01*
X17898D01*
X17797Y14297D02*
Y14703D01*
X18203D01*
Y14297D01*
X17797D01*
X17898Y14398D02*
Y14602D01*
X18102D01*
Y14398D01*
X17898D01*
X17797Y4297D02*
Y4703D01*
X18203D01*
Y4297D01*
X17797D01*
X17898Y4398D02*
Y4602D01*
X18102D01*
Y4398D01*
X17898D01*
X15797Y81997D02*
X15898Y82200D01*
X15797Y82403D01*
X16000Y82302D01*
X16203Y82403D01*
X16102Y82200D01*
X16203Y81997D01*
X16000Y82098D01*
X15797Y81997D01*
X27797D02*
X27898Y82200D01*
X27797Y82403D01*
X28000Y82302D01*
X28203Y82403D01*
X28102Y82200D01*
X28203Y81997D01*
X28000Y82098D01*
X27797Y81997D01*
Y69797D02*
X27898Y70000D01*
X27797Y70203D01*
X28000Y70102D01*
X28203Y70203D01*
X28102Y70000D01*
X28203Y69797D01*
X28000Y69898D01*
X27797Y69797D01*
X21898Y67898D02*
Y67797D01*
X22102D01*
Y67898D01*
X22203D01*
Y68102D01*
X22102D01*
Y68203D01*
X21898D01*
Y68102D01*
X21797D01*
Y67898D01*
X21898D01*
X15797Y69797D02*
X15898Y70000D01*
X15797Y70203D01*
X16000Y70102D01*
X16203Y70203D01*
X16102Y70000D01*
X16203Y69797D01*
X16000Y69898D01*
X15797Y69797D01*
X62000Y53077D02*
X62102Y53178D01*
X62203D01*
X62102Y53280D01*
X62203Y53382D01*
X62102D01*
X62000Y53483D01*
X61898Y53382D01*
X61797D01*
X61898Y53280D01*
X61797Y53178D01*
X61898D01*
X62000Y53077D01*
Y46517D02*
X62102Y46618D01*
X62203D01*
X62102Y46720D01*
X62203Y46822D01*
X62102D01*
X62000Y46923D01*
X61898Y46822D01*
X61797D01*
X61898Y46720D01*
X61797Y46618D01*
X61898D01*
X62000Y46517D01*
X52000Y53077D02*
X52102Y53178D01*
X52203D01*
X52102Y53280D01*
X52203Y53382D01*
X52102D01*
X52000Y53483D01*
X51898Y53382D01*
X51797D01*
X51898Y53280D01*
X51797Y53178D01*
X51898D01*
X52000Y53077D01*
Y46517D02*
X52102Y46618D01*
X52203D01*
X52102Y46720D01*
X52203Y46822D01*
X52102D01*
X52000Y46923D01*
X51898Y46822D01*
X51797D01*
X51898Y46720D01*
X51797Y46618D01*
X51898D01*
X52000Y46517D01*
X42200Y68797D02*
X41997Y69203D01*
X42403D01*
X42200Y68797D01*
Y68898D02*
X42098Y69102D01*
X42302D01*
X42200Y68898D01*
Y78797D02*
X41997Y79203D01*
X42403D01*
X42200Y78797D01*
Y78898D02*
X42098Y79102D01*
X42302D01*
X42200Y78898D01*
X42000Y52797D02*
X41797Y53203D01*
X42203D01*
X42000Y52797D01*
Y52898D02*
X41898Y53102D01*
X42102D01*
X42000Y52898D01*
Y62797D02*
X41797Y63203D01*
X42203D01*
X42000Y62797D01*
Y62898D02*
X41898Y63102D01*
X42102D01*
X42000Y62898D01*
X56900Y36497D02*
X57002Y36598D01*
X57103D01*
X57002Y36700D01*
X57103Y36802D01*
X57002D01*
X56900Y36903D01*
X56798Y36802D01*
X56697D01*
X56798Y36700D01*
X56697Y36598D01*
X56798D01*
X56900Y36497D01*
Y36598D02*
X56951Y36649D01*
X57002D01*
X56951Y36700D01*
X57002Y36751D01*
X56951D01*
X56900Y36802D01*
X56849Y36751D01*
X56798D01*
X56849Y36700D01*
X56798Y36649D01*
X56849D01*
X56900Y36598D01*
X48700Y36497D02*
X48802Y36598D01*
X48903D01*
X48802Y36700D01*
X48903Y36802D01*
X48802D01*
X48700Y36903D01*
X48598Y36802D01*
X48497D01*
X48598Y36700D01*
X48497Y36598D01*
X48598D01*
X48700Y36497D01*
Y36598D02*
X48751Y36649D01*
X48802D01*
X48751Y36700D01*
X48802Y36751D01*
X48751D01*
X48700Y36802D01*
X48649Y36751D01*
X48598D01*
X48649Y36700D01*
X48598Y36649D01*
X48649D01*
X48700Y36598D01*
X66900Y73997D02*
X67002Y74098D01*
X67103D01*
X67002Y74200D01*
X67103Y74302D01*
X67002D01*
X66900Y74403D01*
X66798Y74302D01*
X66697D01*
X66798Y74200D01*
X66697Y74098D01*
X66798D01*
X66900Y73997D01*
Y74098D02*
X66951Y74149D01*
X67002D01*
X66951Y74200D01*
X67002Y74251D01*
X66951D01*
X66900Y74302D01*
X66849Y74251D01*
X66798D01*
X66849Y74200D01*
X66798Y74149D01*
X66849D01*
X66900Y74098D01*
X68797Y3797D02*
X68898Y4000D01*
X68797Y4203D01*
X69000Y4102D01*
X69203Y4203D01*
X69102Y4000D01*
X69203Y3797D01*
X69000Y3898D01*
X68797Y3797D01*
X68898Y3898D02*
X68949Y4000D01*
X68898Y4102D01*
X69000Y4051D01*
X69102Y4102D01*
X69051Y4000D01*
X69102Y3898D01*
X69000Y3949D01*
X68898Y3898D01*
X3797Y3797D02*
X3898Y4000D01*
X3797Y4203D01*
X4000Y4102D01*
X4203Y4203D01*
X4102Y4000D01*
X4203Y3797D01*
X4000Y3898D01*
X3797Y3797D01*
X3898Y3898D02*
X3949Y4000D01*
X3898Y4102D01*
X4000Y4051D01*
X4102Y4102D01*
X4051Y4000D01*
X4102Y3898D01*
X4000Y3949D01*
X3898Y3898D01*
X3797Y88797D02*
X3898Y89000D01*
X3797Y89203D01*
X4000Y89102D01*
X4203Y89203D01*
X4102Y89000D01*
X4203Y88797D01*
X4000Y88898D01*
X3797Y88797D01*
X3898Y88898D02*
X3949Y89000D01*
X3898Y89102D01*
X4000Y89051D01*
X4102Y89102D01*
X4051Y89000D01*
X4102Y88898D01*
X4000Y88949D01*
X3898Y88898D01*
X68797Y88797D02*
X68898Y89000D01*
X68797Y89203D01*
X69000Y89102D01*
X69203Y89203D01*
X69102Y89000D01*
X69203Y88797D01*
X69000Y88898D01*
X68797Y88797D01*
X68898Y88898D02*
X68949Y89000D01*
X68898Y89102D01*
X69000Y89051D01*
X69102Y89102D01*
X69051Y89000D01*
X69102Y88898D01*
X69000Y88949D01*
X68898Y88898D01*
D65*
X41503Y23900D02*
G03*
X41503Y23900I-203J0D01*
G01*
Y20400D02*
G03*
X41503Y20400I-203J0D01*
G01*
X27641Y41000D02*
G03*
X27641Y41000I-203J0D01*
G01*
X16765D02*
G03*
X16765Y41000I-203J0D01*
G01*
Y90000D02*
G03*
X16765Y90000I-203J0D01*
G01*
X27641D02*
G03*
X27641Y90000I-203J0D01*
G01*
D66*
X27540Y41000D02*
G03*
X27540Y41000I-102J0D01*
G01*
X16664D02*
G03*
X16664Y41000I-102J0D01*
G01*
Y90000D02*
G03*
X16664Y90000I-102J0D01*
G01*
X27540D02*
G03*
X27540Y90000I-102J0D01*
G01*
M02*
