G04*
G04 #@! TF.GenerationSoftware,Altium Limited,Altium Designer,22.1.2 (22)*
G04*
G04 Layer_Color=8388736*
%FSLAX43Y43*%
%MOMM*%
G71*
G04*
G04 #@! TF.SameCoordinates,B9ED1628-3B94-4FFD-BB59-448334CAC492*
G04*
G04*
G04 #@! TF.FilePolarity,Negative*
G04*
G01*
G75*
%ADD19R,1.004X0.872*%
G04:AMPARAMS|DCode=20|XSize=1.004mm|YSize=0.872mm|CornerRadius=0.436mm|HoleSize=0mm|Usage=FLASHONLY|Rotation=0.000|XOffset=0mm|YOffset=0mm|HoleType=Round|Shape=RoundedRectangle|*
%AMROUNDEDRECTD20*
21,1,1.004,0.000,0,0,0.0*
21,1,0.132,0.872,0,0,0.0*
1,1,0.872,0.066,0.000*
1,1,0.872,-0.066,0.000*
1,1,0.872,-0.066,0.000*
1,1,0.872,0.066,0.000*
%
%ADD20ROUNDEDRECTD20*%
G04:AMPARAMS|DCode=21|XSize=1.004mm|YSize=3.182mm|CornerRadius=0.437mm|HoleSize=0mm|Usage=FLASHONLY|Rotation=0.000|XOffset=0mm|YOffset=0mm|HoleType=Round|Shape=RoundedRectangle|*
%AMROUNDEDRECTD21*
21,1,1.004,2.308,0,0,0.0*
21,1,0.131,3.182,0,0,0.0*
1,1,0.874,0.065,-1.154*
1,1,0.874,-0.065,-1.154*
1,1,0.874,-0.065,1.154*
1,1,0.874,0.065,1.154*
%
%ADD21ROUNDEDRECTD21*%
%ADD23R,1.250X1.850*%
%ADD24R,2.150X1.350*%
%ADD25C,1.050*%
%ADD26C,1.200*%
%ADD27R,1.200X1.200*%
%ADD28C,1.300*%
%ADD29R,1.300X1.300*%
%ADD30C,1.120*%
%ADD31R,1.120X1.120*%
%ADD32R,1.850X1.850*%
%ADD33C,1.850*%
%ADD34R,1.150X1.150*%
%ADD35C,1.150*%
%ADD36C,2.130*%
%ADD37C,2.085*%
%ADD38R,2.130X2.130*%
%ADD39R,1.750X1.750*%
%ADD40C,1.750*%
%ADD41R,1.840X1.840*%
%ADD42C,1.840*%
%ADD43C,2.415*%
%ADD44R,2.415X2.415*%
%ADD45C,1.600*%
%ADD46R,1.600X1.600*%
%ADD47R,1.150X1.150*%
%ADD48C,1.250*%
%ADD49R,1.250X1.250*%
%ADD50C,0.750*%
%ADD51C,3.650*%
D19*
X24705Y30290D02*
D03*
D20*
Y28000D02*
D03*
Y25710D02*
D03*
D21*
X31295Y28000D02*
D03*
D23*
X62598Y63545D02*
D03*
X60598D02*
D03*
X58598D02*
D03*
X56598D02*
D03*
X54598D02*
D03*
X52598D02*
D03*
D24*
X65098Y79045D02*
D03*
Y77045D02*
D03*
Y75045D02*
D03*
Y73045D02*
D03*
Y71045D02*
D03*
Y69045D02*
D03*
Y67045D02*
D03*
Y65045D02*
D03*
X50098D02*
D03*
Y67045D02*
D03*
Y69045D02*
D03*
Y71045D02*
D03*
Y73045D02*
D03*
Y75045D02*
D03*
Y77045D02*
D03*
Y79045D02*
D03*
D25*
X7000Y80080D02*
X18858D01*
D26*
X51900Y11150D02*
D03*
X41700Y35100D02*
D03*
X40600Y10650D02*
D03*
D27*
X51900Y8650D02*
D03*
X41700Y32600D02*
D03*
X40600Y8150D02*
D03*
D28*
X41300Y23900D02*
D03*
D29*
Y20400D02*
D03*
D30*
X70000Y79890D02*
D03*
Y78620D02*
D03*
Y77350D02*
D03*
Y76080D02*
D03*
Y74810D02*
D03*
Y73540D02*
D03*
Y72270D02*
D03*
Y71000D02*
D03*
D31*
Y69730D02*
D03*
D32*
X7000Y80080D02*
D03*
Y60000D02*
D03*
X28007Y8164D02*
D03*
X7000Y18540D02*
D03*
D33*
Y77540D02*
D03*
Y75000D02*
D03*
Y57460D02*
D03*
Y54920D02*
D03*
X28007Y10704D02*
D03*
Y13244D02*
D03*
X7000Y16000D02*
D03*
D34*
X38720Y88000D02*
D03*
Y84000D02*
D03*
D35*
X45280Y88000D02*
D03*
Y84000D02*
D03*
X62000Y53280D02*
D03*
X52000D02*
D03*
D36*
X16000Y62100D02*
D03*
X28000D02*
D03*
Y49900D02*
D03*
X16000Y82200D02*
D03*
X28000D02*
D03*
Y70000D02*
D03*
D37*
X22000Y47900D02*
D03*
X22000Y68000D02*
D03*
D38*
X16000Y49900D02*
D03*
X16000Y70000D02*
D03*
D39*
X36000Y71710D02*
D03*
Y58580D02*
D03*
D40*
Y74000D02*
D03*
Y76290D02*
D03*
Y56290D02*
D03*
Y54000D02*
D03*
D41*
X64000Y24000D02*
D03*
D42*
Y26540D02*
D03*
Y29080D02*
D03*
Y31620D02*
D03*
Y34160D02*
D03*
Y36700D02*
D03*
D43*
X18000Y29500D02*
D03*
Y22000D02*
D03*
Y14500D02*
D03*
D44*
Y4500D02*
D03*
D45*
X27438Y41000D02*
D03*
Y90000D02*
D03*
D46*
X16562Y41000D02*
D03*
Y90000D02*
D03*
D47*
X62000Y46720D02*
D03*
X52000D02*
D03*
D48*
X42200Y69000D02*
D03*
X42000Y53000D02*
D03*
D49*
X42200Y79000D02*
D03*
X42000Y63000D02*
D03*
D50*
X56900Y36700D02*
D03*
X48700D02*
D03*
X66900Y74200D02*
D03*
D51*
X69000Y4000D02*
D03*
X4000D02*
D03*
Y89000D02*
D03*
X69000D02*
D03*
M02*
