G04*
G04 #@! TF.GenerationSoftware,Altium Limited,Altium Designer,22.1.2 (22)*
G04*
G04 Layer_Physical_Order=2*
G04 Layer_Color=16711680*
%FSLAX43Y43*%
%MOMM*%
G71*
G04*
G04 #@! TF.SameCoordinates,B9ED1628-3B94-4FFD-BB59-448334CAC492*
G04*
G04*
G04 #@! TF.FilePolarity,Positive*
G04*
G01*
G75*
%ADD10C,0.127*%
%ADD13C,0.300*%
%ADD16C,0.254*%
%ADD22C,0.900*%
%ADD26C,1.200*%
%ADD27R,1.200X1.200*%
%ADD28C,1.300*%
%ADD29R,1.300X1.300*%
%ADD30C,1.120*%
%ADD31R,1.120X1.120*%
%ADD34R,1.150X1.150*%
%ADD35C,1.150*%
%ADD41R,1.840X1.840*%
%ADD42C,1.840*%
%ADD45C,1.600*%
%ADD46R,1.600X1.600*%
%ADD47R,1.150X1.150*%
%ADD48C,1.250*%
%ADD49R,1.250X1.250*%
%ADD52C,0.400*%
%ADD53C,0.500*%
%ADD54R,1.700X1.700*%
%ADD55C,1.700*%
%ADD56C,1.980*%
%ADD57C,1.935*%
%ADD58R,1.980X1.980*%
%ADD59C,2.265*%
%ADD60R,2.265X2.265*%
%ADD61C,0.600*%
%ADD62C,3.500*%
D10*
X45280Y88000D02*
X46300Y86980D01*
X48300Y71300D02*
X69030D01*
X46300Y73300D02*
Y86980D01*
Y73300D02*
X48300Y71300D01*
X69030D02*
X70000Y72270D01*
X38720Y84000D02*
X40213Y82507D01*
X44419D02*
X45400Y81526D01*
Y61100D02*
Y81526D01*
X40213Y82507D02*
X44419D01*
X45400Y61100D02*
X52000Y54500D01*
Y53280D02*
Y54500D01*
X68780Y76080D02*
X70000D01*
X66900Y74200D02*
X68780Y76080D01*
X70119Y71000D02*
X70751Y70369D01*
Y62030D02*
Y70369D01*
X70000Y71000D02*
X70119D01*
X62000Y53280D02*
X70751Y62030D01*
X52000Y53280D02*
X59280D01*
X70000Y64000D02*
Y69730D01*
X59280Y53280D02*
X70000Y64000D01*
D13*
X16000Y56031D02*
X17700Y57731D01*
X16000Y67400D02*
Y70000D01*
X17700Y57731D02*
Y65700D01*
X16000Y67400D02*
X17700Y65700D01*
X16000Y70000D02*
Y77212D01*
X16000Y49900D02*
Y56031D01*
X26633Y85182D02*
X27438Y85987D01*
X26633Y71267D02*
Y85182D01*
Y71267D02*
X28000Y69900D01*
X27438Y85987D02*
Y90000D01*
X16562Y85833D02*
X17367Y85028D01*
X16562Y85833D02*
Y90000D01*
X17367Y78579D02*
Y85028D01*
X16000Y77212D02*
X17367Y78579D01*
D16*
X100Y90500D02*
X2500Y92900D01*
X100Y3800D02*
Y90500D01*
Y3800D02*
X3800Y100D01*
X69400D01*
X72900Y3600D01*
Y89600D01*
X69600Y92900D02*
X72900Y89600D01*
X2500Y92900D02*
X69600D01*
X50500Y30500D02*
Y47200D01*
X52000Y48700D01*
X43900Y23900D02*
X50500Y30500D01*
X40682Y8232D02*
X41073Y8623D01*
X40600Y8150D02*
X40682Y8232D01*
X41300Y23900D02*
X43900D01*
X52000Y48700D02*
Y53280D01*
X62952Y41316D02*
X65297Y38971D01*
X64000Y31620D02*
X65297Y32917D01*
Y38971D01*
X62000Y49989D02*
X62952Y49037D01*
Y41316D02*
Y49037D01*
X62000Y49989D02*
Y53280D01*
X38720Y84000D02*
Y88000D01*
X42000Y60000D02*
Y63000D01*
X36000Y54000D02*
X42000Y60000D01*
D22*
X7000Y75000D02*
X8800D01*
X16000Y82200D01*
X7000Y54920D02*
X8820D01*
X16000Y62100D01*
D26*
X51900Y11150D02*
D03*
X41700Y35100D02*
D03*
X40600Y10650D02*
D03*
D27*
X51900Y8650D02*
D03*
X41700Y32600D02*
D03*
X40600Y8150D02*
D03*
D28*
X41300Y23900D02*
D03*
D29*
Y20400D02*
D03*
D30*
X70000Y79890D02*
D03*
Y78620D02*
D03*
Y77350D02*
D03*
Y76080D02*
D03*
Y74810D02*
D03*
Y73540D02*
D03*
Y72270D02*
D03*
Y71000D02*
D03*
D31*
Y69730D02*
D03*
D34*
X38720Y88000D02*
D03*
Y84000D02*
D03*
D35*
X45280Y88000D02*
D03*
Y84000D02*
D03*
X62000Y53280D02*
D03*
X52000D02*
D03*
D41*
X64000Y24000D02*
D03*
D42*
Y26540D02*
D03*
Y29080D02*
D03*
Y31620D02*
D03*
Y34160D02*
D03*
Y36700D02*
D03*
D45*
X36000Y74000D02*
D03*
Y76290D02*
D03*
Y56290D02*
D03*
Y54000D02*
D03*
X27438Y41000D02*
D03*
Y90000D02*
D03*
D46*
X36000Y71710D02*
D03*
Y58580D02*
D03*
X16562Y41000D02*
D03*
Y90000D02*
D03*
D47*
X62000Y46720D02*
D03*
X52000D02*
D03*
D48*
X42200Y69000D02*
D03*
X42000Y53000D02*
D03*
D49*
X42200Y79000D02*
D03*
X42000Y63000D02*
D03*
D52*
X56900Y36700D02*
X64000D01*
X43300D02*
X48700D01*
X62300Y30780D02*
Y35000D01*
X64000Y36700D01*
X62300Y30780D02*
X64000Y29080D01*
X41700Y35100D02*
X43300Y36700D01*
D53*
X41300Y15800D02*
X41800Y15300D01*
X41300Y15800D02*
Y20400D01*
X40682Y8982D02*
X41800Y10100D01*
Y15300D01*
X40682Y8232D02*
Y8982D01*
X64000Y24000D02*
X65297Y25297D01*
Y30323D01*
X64000Y31620D02*
X65297Y30323D01*
D54*
X7000Y80080D02*
D03*
Y60000D02*
D03*
X28007Y8164D02*
D03*
X7000Y18540D02*
D03*
D55*
Y77540D02*
D03*
Y75000D02*
D03*
Y57460D02*
D03*
Y54920D02*
D03*
X28007Y10704D02*
D03*
Y13244D02*
D03*
X7000Y16000D02*
D03*
D56*
X16000Y62100D02*
D03*
X28000D02*
D03*
Y49900D02*
D03*
X16000Y82200D02*
D03*
X28000D02*
D03*
Y70000D02*
D03*
D57*
X22000Y47900D02*
D03*
X22000Y68000D02*
D03*
D58*
X16000Y49900D02*
D03*
X16000Y70000D02*
D03*
D59*
X18000Y29500D02*
D03*
Y22000D02*
D03*
Y14500D02*
D03*
D60*
Y4500D02*
D03*
D61*
X56900Y36700D02*
D03*
X48700D02*
D03*
X66900Y74200D02*
D03*
D62*
X69000Y4000D02*
D03*
X4000D02*
D03*
Y89000D02*
D03*
X69000D02*
D03*
M02*
