M48
;Layer_Color=9474304
;FILE_FORMAT=4:3
METRIC,LZ
;TYPE=PLATED
T1F00S00C0.300
T2F00S00C0.650
T3F00S00C0.700
T4F00S00C0.750
T5F00S00C0.800
T6F00S00C1.000
T7F00S00C1.050
T8F00S00C1.100
T9F00S00C1.190
T10F00S00C1.290
T11F00S00C1.320
T12F00S00C1.510
T13F00S00C3.200
%
T01
X00569Y00367
X00487
X00669Y00742
T02
X003872Y0084
X004528
X0052Y005328
Y004672
X0062
Y005328
X004528Y0088
X003872
T03
X00519Y000865
Y001115
X00406Y001065
Y000815
X00417Y00326
Y00351
X007Y006973
Y0071
Y007227
Y007354
Y007481
Y007608
Y007735
Y007862
Y007989
T04
X0042Y0053
Y0063
X00422Y0069
Y0079
T05
X00413Y00204
Y00239
T06
X0036Y0054
Y005629
Y005858
Y007171
Y0074
Y007629
T07
X0016562Y0041
X0027438
Y009
X0016562
T08
X0028007Y0008164
Y0010704
Y0013244
T09
X0064Y0024
Y002654
Y002908
Y003162
Y003416
Y00367
X0007Y001854
Y0016
Y005492
Y005746
Y006
Y0075
Y007754
Y008008
T10
X0022Y00479
X0022Y0068
T11
X0016Y00499
X0028
Y00621
X0028Y007
X0016
X0016Y00621
X0016Y00822
X0028
T12
X0018Y00045
Y00145
Y0022
Y00295
T13
X0004Y0004
X0069
Y0089
X0004
M30
