G04*
G04 #@! TF.GenerationSoftware,Altium Limited,Altium Designer,22.1.2 (22)*
G04*
G04 Layer_Color=255*
%FSLAX43Y43*%
%MOMM*%
G71*
G04*
G04 #@! TF.SameCoordinates,B9ED1628-3B94-4FFD-BB59-448334CAC492*
G04*
G04*
G04 #@! TF.FilePolarity,Positive*
G04*
G01*
G75*
%ADD26C,1.200*%
%ADD27R,1.200X1.200*%
%ADD28C,1.300*%
%ADD29R,1.300X1.300*%
%ADD30C,1.120*%
%ADD31R,1.120X1.120*%
%ADD34R,1.150X1.150*%
%ADD35C,1.150*%
%ADD41R,1.840X1.840*%
%ADD42C,1.840*%
%ADD45C,1.600*%
%ADD46R,1.600X1.600*%
%ADD47R,1.150X1.150*%
%ADD48C,1.250*%
%ADD49R,1.250X1.250*%
%ADD54R,1.700X1.700*%
%ADD55C,1.700*%
%ADD56C,1.980*%
%ADD57C,1.935*%
%ADD58R,1.980X1.980*%
%ADD59C,2.265*%
%ADD60R,2.265X2.265*%
D26*
X51900Y11150D02*
D03*
X41700Y35100D02*
D03*
X40600Y10650D02*
D03*
D27*
X51900Y8650D02*
D03*
X41700Y32600D02*
D03*
X40600Y8150D02*
D03*
D28*
X41300Y23900D02*
D03*
D29*
Y20400D02*
D03*
D30*
X70000Y79890D02*
D03*
Y78620D02*
D03*
Y77350D02*
D03*
Y76080D02*
D03*
Y74810D02*
D03*
Y73540D02*
D03*
Y72270D02*
D03*
Y71000D02*
D03*
D31*
Y69730D02*
D03*
D34*
X38720Y88000D02*
D03*
Y84000D02*
D03*
D35*
X45280Y88000D02*
D03*
Y84000D02*
D03*
X62000Y53280D02*
D03*
X52000D02*
D03*
D41*
X64000Y24000D02*
D03*
D42*
Y26540D02*
D03*
Y29080D02*
D03*
Y31620D02*
D03*
Y34160D02*
D03*
Y36700D02*
D03*
D45*
X36000Y74000D02*
D03*
Y76290D02*
D03*
Y56290D02*
D03*
Y54000D02*
D03*
X27438Y41000D02*
D03*
Y90000D02*
D03*
D46*
X36000Y71710D02*
D03*
Y58580D02*
D03*
X16562Y41000D02*
D03*
Y90000D02*
D03*
D47*
X62000Y46720D02*
D03*
X52000D02*
D03*
D48*
X42200Y69000D02*
D03*
X42000Y53000D02*
D03*
D49*
X42200Y79000D02*
D03*
X42000Y63000D02*
D03*
D54*
X7000Y80080D02*
D03*
Y60000D02*
D03*
X28007Y8164D02*
D03*
X7000Y18540D02*
D03*
D55*
Y77540D02*
D03*
Y75000D02*
D03*
Y57460D02*
D03*
Y54920D02*
D03*
X28007Y10704D02*
D03*
Y13244D02*
D03*
X7000Y16000D02*
D03*
D56*
X16000Y62100D02*
D03*
X28000D02*
D03*
Y49900D02*
D03*
X16000Y82200D02*
D03*
X28000D02*
D03*
Y70000D02*
D03*
D57*
X22000Y47900D02*
D03*
X22000Y68000D02*
D03*
D58*
X16000Y49900D02*
D03*
X16000Y70000D02*
D03*
D59*
X18000Y29500D02*
D03*
Y22000D02*
D03*
Y14500D02*
D03*
D60*
Y4500D02*
D03*
M02*
