G04*
G04 #@! TF.GenerationSoftware,Altium Limited,Altium Designer,22.1.2 (22)*
G04*
G04 Layer_Color=16711935*
%FSLAX43Y43*%
%MOMM*%
G71*
G04*
G04 #@! TF.SameCoordinates,B9ED1628-3B94-4FFD-BB59-448334CAC492*
G04*
G04*
G04 #@! TF.FilePolarity,Positive*
G04*
G01*
G75*
%ADD14C,0.200*%
G36*
X51714Y10957D02*
X51722Y10956D01*
X51730Y10954D01*
X51739Y10952D01*
X51749Y10950D01*
X51771Y10943D01*
X51784Y10937D01*
X51795Y10932D01*
X51807Y10924D01*
X51819Y10916D01*
X51831Y10907D01*
X51842Y10896D01*
X51843Y10895D01*
X51845Y10893D01*
X51847Y10889D01*
X51851Y10885D01*
X51856Y10879D01*
X51860Y10872D01*
X51866Y10863D01*
X51870Y10853D01*
X51876Y10843D01*
X51882Y10831D01*
X51886Y10819D01*
X51891Y10805D01*
X51894Y10790D01*
X51897Y10775D01*
X51899Y10759D01*
X51900Y10741D01*
Y10733D01*
X51899Y10727D01*
X51898Y10720D01*
X51897Y10712D01*
X51895Y10703D01*
X51894Y10692D01*
X51888Y10670D01*
X51879Y10647D01*
X51873Y10635D01*
X51867Y10624D01*
X51858Y10613D01*
X51850Y10602D01*
X51849Y10601D01*
X51847Y10599D01*
X51845Y10596D01*
X51841Y10593D01*
X51836Y10589D01*
X51830Y10584D01*
X51823Y10579D01*
X51815Y10573D01*
X51806Y10568D01*
X51796Y10562D01*
X51774Y10552D01*
X51748Y10543D01*
X51735Y10541D01*
X51720Y10539D01*
X51710Y10617D01*
X51710D01*
X51712Y10618D01*
X51716Y10619D01*
X51721Y10620D01*
X51726Y10621D01*
X51733Y10623D01*
X51747Y10628D01*
X51763Y10634D01*
X51779Y10642D01*
X51794Y10652D01*
X51807Y10663D01*
X51808Y10665D01*
X51811Y10668D01*
X51816Y10676D01*
X51820Y10685D01*
X51826Y10696D01*
X51831Y10710D01*
X51834Y10726D01*
X51835Y10742D01*
Y10748D01*
X51834Y10752D01*
X51833Y10762D01*
X51831Y10775D01*
X51826Y10789D01*
X51820Y10805D01*
X51810Y10821D01*
X51797Y10836D01*
X51796Y10837D01*
X51790Y10842D01*
X51782Y10848D01*
X51771Y10855D01*
X51757Y10862D01*
X51741Y10868D01*
X51722Y10873D01*
X51702Y10874D01*
X51701D01*
X51699D01*
X51697D01*
X51693Y10874D01*
X51683Y10873D01*
X51671Y10870D01*
X51656Y10866D01*
X51641Y10860D01*
X51626Y10850D01*
X51612Y10838D01*
X51611Y10837D01*
X51607Y10832D01*
X51601Y10825D01*
X51595Y10814D01*
X51588Y10801D01*
X51583Y10786D01*
X51579Y10768D01*
X51577Y10749D01*
Y10740D01*
X51578Y10734D01*
X51579Y10726D01*
X51581Y10716D01*
X51583Y10705D01*
X51586Y10693D01*
X51516Y10703D01*
Y10707D01*
X51517Y10711D01*
Y10723D01*
X51515Y10733D01*
X51514Y10745D01*
X51511Y10759D01*
X51506Y10775D01*
X51500Y10789D01*
X51491Y10805D01*
Y10806D01*
X51490Y10807D01*
X51487Y10812D01*
X51480Y10818D01*
X51472Y10825D01*
X51460Y10833D01*
X51446Y10839D01*
X51430Y10844D01*
X51421Y10846D01*
X51411D01*
X51410D01*
X51409D01*
X51404D01*
X51396Y10844D01*
X51386Y10842D01*
X51375Y10838D01*
X51363Y10834D01*
X51351Y10826D01*
X51340Y10816D01*
X51339Y10815D01*
X51335Y10811D01*
X51330Y10804D01*
X51325Y10796D01*
X51320Y10785D01*
X51316Y10772D01*
X51312Y10757D01*
X51311Y10740D01*
Y10733D01*
X51313Y10725D01*
X51315Y10714D01*
X51318Y10702D01*
X51323Y10690D01*
X51330Y10677D01*
X51340Y10665D01*
X51341Y10664D01*
X51345Y10660D01*
X51352Y10654D01*
X51361Y10648D01*
X51373Y10641D01*
X51388Y10635D01*
X51405Y10629D01*
X51426Y10626D01*
X51412Y10547D01*
X51411D01*
X51408Y10548D01*
X51404Y10549D01*
X51399Y10550D01*
X51392Y10552D01*
X51385Y10555D01*
X51367Y10560D01*
X51347Y10569D01*
X51327Y10580D01*
X51307Y10594D01*
X51290Y10612D01*
X51289Y10613D01*
X51288Y10615D01*
X51286Y10617D01*
X51283Y10621D01*
X51280Y10626D01*
X51276Y10632D01*
X51272Y10639D01*
X51268Y10647D01*
X51260Y10666D01*
X51253Y10687D01*
X51248Y10712D01*
X51246Y10725D01*
Y10748D01*
X51247Y10758D01*
X51249Y10770D01*
X51252Y10785D01*
X51257Y10801D01*
X51262Y10818D01*
X51269Y10835D01*
Y10836D01*
X51270Y10837D01*
X51273Y10842D01*
X51279Y10850D01*
X51285Y10860D01*
X51294Y10871D01*
X51305Y10882D01*
X51317Y10893D01*
X51330Y10902D01*
X51332Y10903D01*
X51337Y10906D01*
X51345Y10910D01*
X51355Y10914D01*
X51367Y10919D01*
X51381Y10923D01*
X51397Y10925D01*
X51413Y10926D01*
X51415D01*
X51420D01*
X51428Y10925D01*
X51438Y10923D01*
X51450Y10921D01*
X51463Y10916D01*
X51476Y10911D01*
X51489Y10903D01*
X51490Y10902D01*
X51494Y10899D01*
X51501Y10894D01*
X51508Y10886D01*
X51516Y10877D01*
X51526Y10866D01*
X51534Y10853D01*
X51542Y10837D01*
Y10838D01*
X51543Y10840D01*
X51544Y10843D01*
X51545Y10847D01*
X51549Y10857D01*
X51554Y10870D01*
X51562Y10885D01*
X51571Y10899D01*
X51583Y10913D01*
X51597Y10926D01*
X51599Y10927D01*
X51604Y10931D01*
X51613Y10936D01*
X51625Y10942D01*
X51640Y10948D01*
X51658Y10953D01*
X51678Y10957D01*
X51700Y10958D01*
X51701D01*
X51704D01*
X51709D01*
X51714Y10957D01*
D02*
G37*
G36*
X51691Y10465D02*
X51697Y10463D01*
X51704Y10460D01*
X51712Y10458D01*
X51722Y10454D01*
X51734Y10449D01*
X51746Y10444D01*
X51771Y10431D01*
X51797Y10414D01*
X51810Y10404D01*
X51823Y10394D01*
X51834Y10383D01*
X51845Y10370D01*
X51846Y10369D01*
X51848Y10367D01*
X51850Y10362D01*
X51854Y10358D01*
X51858Y10350D01*
X51863Y10343D01*
X51868Y10333D01*
X51872Y10323D01*
X51878Y10310D01*
X51882Y10298D01*
X51887Y10284D01*
X51892Y10269D01*
X51895Y10253D01*
X51897Y10237D01*
X51899Y10219D01*
X51900Y10200D01*
Y10190D01*
X51899Y10183D01*
Y10175D01*
X51898Y10164D01*
X51896Y10153D01*
X51894Y10140D01*
X51890Y10114D01*
X51882Y10086D01*
X51872Y10058D01*
X51866Y10045D01*
X51858Y10032D01*
X51857Y10031D01*
X51857Y10029D01*
X51854Y10026D01*
X51850Y10022D01*
X51846Y10016D01*
X51841Y10010D01*
X51834Y10003D01*
X51827Y9995D01*
X51819Y9988D01*
X51810Y9979D01*
X51789Y9963D01*
X51764Y9947D01*
X51736Y9933D01*
X51735D01*
X51733Y9931D01*
X51728Y9931D01*
X51722Y9928D01*
X51715Y9926D01*
X51706Y9923D01*
X51696Y9919D01*
X51685Y9917D01*
X51673Y9914D01*
X51659Y9910D01*
X51630Y9906D01*
X51598Y9902D01*
X51564Y9900D01*
X51563D01*
X51560D01*
X51554D01*
X51548Y9901D01*
X51539D01*
X51529Y9902D01*
X51517Y9903D01*
X51505Y9905D01*
X51478Y9909D01*
X51449Y9916D01*
X51419Y9925D01*
X51391Y9938D01*
X51390Y9939D01*
X51387Y9940D01*
X51383Y9942D01*
X51379Y9945D01*
X51372Y9949D01*
X51365Y9954D01*
X51348Y9966D01*
X51330Y9981D01*
X51311Y10000D01*
X51293Y10021D01*
X51277Y10046D01*
X51276Y10047D01*
X51275Y10050D01*
X51273Y10053D01*
X51270Y10058D01*
X51268Y10065D01*
X51265Y10073D01*
X51261Y10082D01*
X51257Y10092D01*
X51254Y10103D01*
X51250Y10115D01*
X51244Y10141D01*
X51240Y10171D01*
X51238Y10201D01*
Y10211D01*
X51239Y10217D01*
X51240Y10225D01*
X51241Y10236D01*
X51242Y10246D01*
X51244Y10258D01*
X51250Y10283D01*
X51258Y10310D01*
X51264Y10324D01*
X51270Y10337D01*
X51279Y10350D01*
X51287Y10363D01*
X51288Y10364D01*
X51289Y10366D01*
X51292Y10370D01*
X51296Y10374D01*
X51301Y10379D01*
X51307Y10385D01*
X51315Y10392D01*
X51322Y10399D01*
X51331Y10407D01*
X51342Y10414D01*
X51354Y10422D01*
X51366Y10430D01*
X51379Y10436D01*
X51393Y10444D01*
X51408Y10449D01*
X51425Y10455D01*
X51444Y10372D01*
X51443D01*
X51441Y10371D01*
X51438Y10369D01*
X51433Y10367D01*
X51428Y10365D01*
X51420Y10362D01*
X51405Y10355D01*
X51389Y10346D01*
X51372Y10335D01*
X51356Y10321D01*
X51342Y10306D01*
X51341Y10304D01*
X51337Y10298D01*
X51332Y10289D01*
X51326Y10277D01*
X51320Y10261D01*
X51315Y10244D01*
X51311Y10223D01*
X51310Y10200D01*
Y10192D01*
X51311Y10188D01*
Y10181D01*
X51312Y10174D01*
X51315Y10156D01*
X51318Y10137D01*
X51325Y10116D01*
X51334Y10095D01*
X51346Y10076D01*
Y10075D01*
X51348Y10074D01*
X51353Y10067D01*
X51360Y10059D01*
X51371Y10049D01*
X51385Y10037D01*
X51401Y10026D01*
X51420Y10016D01*
X51441Y10006D01*
X51442D01*
X51444Y10005D01*
X51447Y10004D01*
X51452Y10004D01*
X51457Y10002D01*
X51464Y10000D01*
X51479Y9997D01*
X51498Y9993D01*
X51518Y9990D01*
X51540Y9988D01*
X51564Y9987D01*
X51565D01*
X51568D01*
X51573D01*
X51578D01*
X51585Y9988D01*
X51593D01*
X51602Y9989D01*
X51612Y9990D01*
X51635Y9992D01*
X51659Y9997D01*
X51683Y10003D01*
X51707Y10010D01*
X51708D01*
X51710Y10011D01*
X51712Y10013D01*
X51717Y10015D01*
X51728Y10020D01*
X51741Y10028D01*
X51756Y10039D01*
X51771Y10052D01*
X51785Y10066D01*
X51798Y10084D01*
Y10085D01*
X51799Y10087D01*
X51801Y10090D01*
X51803Y10093D01*
X51805Y10098D01*
X51808Y10103D01*
X51813Y10116D01*
X51819Y10133D01*
X51823Y10151D01*
X51827Y10172D01*
X51828Y10193D01*
Y10200D01*
X51827Y10205D01*
Y10212D01*
X51826Y10218D01*
X51822Y10235D01*
X51818Y10254D01*
X51810Y10274D01*
X51800Y10294D01*
X51795Y10304D01*
X51787Y10313D01*
X51786Y10314D01*
X51785Y10315D01*
X51783Y10318D01*
X51780Y10322D01*
X51775Y10325D01*
X51770Y10330D01*
X51764Y10335D01*
X51757Y10340D01*
X51748Y10346D01*
X51739Y10352D01*
X51730Y10358D01*
X51719Y10363D01*
X51707Y10368D01*
X51694Y10372D01*
X51680Y10377D01*
X51665Y10381D01*
X51686Y10466D01*
X51687D01*
X51691Y10465D01*
D02*
G37*
G36*
X41324Y23118D02*
X41477D01*
Y23039D01*
X41324D01*
Y22761D01*
X41252D01*
X40837Y23054D01*
Y23118D01*
X41252D01*
Y23205D01*
X41324D01*
Y23118D01*
D02*
G37*
G36*
X41279Y22715D02*
X41285Y22713D01*
X41292Y22710D01*
X41301Y22708D01*
X41311Y22704D01*
X41322Y22699D01*
X41334Y22694D01*
X41360Y22681D01*
X41386Y22664D01*
X41399Y22654D01*
X41411Y22644D01*
X41423Y22633D01*
X41434Y22620D01*
X41435Y22619D01*
X41436Y22617D01*
X41438Y22612D01*
X41442Y22608D01*
X41447Y22600D01*
X41451Y22593D01*
X41456Y22583D01*
X41460Y22573D01*
X41466Y22560D01*
X41471Y22548D01*
X41475Y22534D01*
X41480Y22519D01*
X41484Y22503D01*
X41485Y22487D01*
X41487Y22469D01*
X41488Y22450D01*
Y22440D01*
X41487Y22433D01*
Y22425D01*
X41486Y22414D01*
X41485Y22403D01*
X41483Y22390D01*
X41478Y22364D01*
X41471Y22336D01*
X41460Y22308D01*
X41454Y22295D01*
X41447Y22282D01*
X41446Y22281D01*
X41445Y22279D01*
X41442Y22276D01*
X41438Y22272D01*
X41435Y22266D01*
X41429Y22260D01*
X41423Y22253D01*
X41415Y22245D01*
X41407Y22238D01*
X41399Y22230D01*
X41377Y22213D01*
X41352Y22197D01*
X41325Y22183D01*
X41324D01*
X41321Y22181D01*
X41316Y22181D01*
X41311Y22178D01*
X41303Y22176D01*
X41294Y22173D01*
X41284Y22169D01*
X41273Y22167D01*
X41261Y22164D01*
X41247Y22160D01*
X41218Y22156D01*
X41186Y22152D01*
X41153Y22150D01*
X41152D01*
X41148D01*
X41142D01*
X41136Y22151D01*
X41127D01*
X41117Y22152D01*
X41105Y22153D01*
X41093Y22155D01*
X41067Y22159D01*
X41037Y22166D01*
X41007Y22175D01*
X40979Y22188D01*
X40978Y22189D01*
X40975Y22190D01*
X40971Y22192D01*
X40967Y22195D01*
X40960Y22199D01*
X40953Y22204D01*
X40936Y22216D01*
X40918Y22231D01*
X40899Y22250D01*
X40881Y22271D01*
X40865Y22296D01*
X40864Y22297D01*
X40863Y22300D01*
X40861Y22303D01*
X40859Y22308D01*
X40856Y22316D01*
X40853Y22323D01*
X40849Y22332D01*
X40846Y22342D01*
X40842Y22353D01*
X40838Y22365D01*
X40833Y22391D01*
X40828Y22421D01*
X40826Y22451D01*
Y22461D01*
X40827Y22467D01*
X40828Y22475D01*
X40829Y22486D01*
X40830Y22496D01*
X40833Y22508D01*
X40838Y22533D01*
X40847Y22560D01*
X40852Y22574D01*
X40859Y22587D01*
X40867Y22600D01*
X40875Y22613D01*
X40876Y22614D01*
X40877Y22616D01*
X40880Y22620D01*
X40884Y22624D01*
X40889Y22629D01*
X40896Y22635D01*
X40903Y22642D01*
X40910Y22649D01*
X40920Y22657D01*
X40931Y22664D01*
X40942Y22672D01*
X40954Y22680D01*
X40968Y22686D01*
X40982Y22694D01*
X40996Y22699D01*
X41013Y22705D01*
X41032Y22622D01*
X41032D01*
X41030Y22621D01*
X41026Y22619D01*
X41021Y22617D01*
X41016Y22615D01*
X41008Y22612D01*
X40994Y22605D01*
X40977Y22596D01*
X40960Y22585D01*
X40945Y22571D01*
X40931Y22556D01*
X40929Y22554D01*
X40925Y22548D01*
X40921Y22539D01*
X40914Y22527D01*
X40909Y22511D01*
X40903Y22494D01*
X40899Y22473D01*
X40898Y22450D01*
Y22442D01*
X40899Y22438D01*
Y22431D01*
X40900Y22424D01*
X40903Y22406D01*
X40907Y22387D01*
X40913Y22366D01*
X40922Y22345D01*
X40934Y22326D01*
Y22325D01*
X40936Y22324D01*
X40941Y22317D01*
X40948Y22309D01*
X40959Y22299D01*
X40973Y22287D01*
X40989Y22276D01*
X41008Y22266D01*
X41030Y22256D01*
X41031D01*
X41032Y22255D01*
X41035Y22254D01*
X41040Y22254D01*
X41045Y22252D01*
X41052Y22250D01*
X41068Y22247D01*
X41086Y22243D01*
X41106Y22240D01*
X41129Y22238D01*
X41153Y22237D01*
X41154D01*
X41156D01*
X41161D01*
X41166D01*
X41173Y22238D01*
X41181D01*
X41191Y22239D01*
X41201Y22240D01*
X41223Y22242D01*
X41247Y22247D01*
X41271Y22253D01*
X41295Y22260D01*
X41296D01*
X41298Y22261D01*
X41301Y22263D01*
X41305Y22265D01*
X41316Y22270D01*
X41329Y22279D01*
X41344Y22289D01*
X41360Y22302D01*
X41374Y22316D01*
X41387Y22334D01*
Y22335D01*
X41387Y22337D01*
X41389Y22340D01*
X41391Y22343D01*
X41393Y22348D01*
X41396Y22353D01*
X41401Y22366D01*
X41407Y22383D01*
X41411Y22401D01*
X41415Y22422D01*
X41416Y22443D01*
Y22450D01*
X41415Y22455D01*
Y22462D01*
X41414Y22468D01*
X41411Y22485D01*
X41406Y22504D01*
X41399Y22524D01*
X41388Y22544D01*
X41383Y22554D01*
X41375Y22563D01*
X41375Y22564D01*
X41374Y22565D01*
X41371Y22568D01*
X41368Y22572D01*
X41363Y22575D01*
X41358Y22580D01*
X41352Y22585D01*
X41345Y22590D01*
X41337Y22596D01*
X41327Y22602D01*
X41318Y22608D01*
X41307Y22613D01*
X41295Y22618D01*
X41282Y22622D01*
X41268Y22627D01*
X41253Y22631D01*
X41275Y22716D01*
X41276D01*
X41279Y22715D01*
D02*
G37*
G36*
X41689Y34477D02*
X41688D01*
X41684D01*
X41679D01*
X41671Y34478D01*
X41663Y34479D01*
X41654Y34481D01*
X41645Y34482D01*
X41634Y34486D01*
X41633D01*
X41633Y34487D01*
X41627Y34489D01*
X41619Y34493D01*
X41608Y34498D01*
X41595Y34506D01*
X41580Y34515D01*
X41565Y34525D01*
X41549Y34538D01*
X41548D01*
X41547Y34540D01*
X41542Y34544D01*
X41534Y34553D01*
X41522Y34565D01*
X41508Y34579D01*
X41491Y34596D01*
X41473Y34617D01*
X41453Y34640D01*
X41452Y34641D01*
X41449Y34645D01*
X41445Y34651D01*
X41439Y34657D01*
X41432Y34665D01*
X41424Y34676D01*
X41414Y34686D01*
X41404Y34698D01*
X41382Y34721D01*
X41360Y34744D01*
X41349Y34755D01*
X41338Y34765D01*
X41327Y34775D01*
X41317Y34782D01*
X41316D01*
X41315Y34784D01*
X41313Y34786D01*
X41309Y34787D01*
X41299Y34794D01*
X41287Y34801D01*
X41272Y34808D01*
X41256Y34814D01*
X41239Y34818D01*
X41222Y34820D01*
X41221D01*
X41220D01*
X41215Y34819D01*
X41205Y34818D01*
X41195Y34815D01*
X41182Y34812D01*
X41169Y34805D01*
X41156Y34797D01*
X41143Y34786D01*
X41142Y34784D01*
X41138Y34779D01*
X41133Y34773D01*
X41127Y34763D01*
X41121Y34750D01*
X41116Y34735D01*
X41112Y34717D01*
X41111Y34698D01*
Y34692D01*
X41112Y34689D01*
X41113Y34677D01*
X41116Y34665D01*
X41119Y34651D01*
X41126Y34635D01*
X41134Y34620D01*
X41145Y34606D01*
X41147Y34604D01*
X41152Y34601D01*
X41159Y34595D01*
X41170Y34590D01*
X41183Y34583D01*
X41200Y34578D01*
X41218Y34574D01*
X41240Y34572D01*
X41231Y34492D01*
X41230D01*
X41228Y34493D01*
X41223D01*
X41216Y34493D01*
X41209Y34495D01*
X41201Y34497D01*
X41191Y34500D01*
X41180Y34503D01*
X41158Y34510D01*
X41136Y34521D01*
X41125Y34528D01*
X41114Y34536D01*
X41104Y34544D01*
X41094Y34554D01*
X41093Y34555D01*
X41093Y34556D01*
X41090Y34559D01*
X41087Y34564D01*
X41083Y34569D01*
X41080Y34576D01*
X41075Y34583D01*
X41070Y34592D01*
X41066Y34603D01*
X41061Y34614D01*
X41057Y34626D01*
X41054Y34639D01*
X41051Y34653D01*
X41048Y34667D01*
X41047Y34683D01*
X41046Y34700D01*
Y34709D01*
X41047Y34715D01*
X41048Y34723D01*
X41049Y34732D01*
X41051Y34742D01*
X41053Y34752D01*
X41059Y34776D01*
X41069Y34800D01*
X41074Y34812D01*
X41081Y34824D01*
X41089Y34836D01*
X41098Y34846D01*
X41099Y34847D01*
X41100Y34849D01*
X41104Y34850D01*
X41107Y34854D01*
X41112Y34859D01*
X41118Y34863D01*
X41125Y34868D01*
X41133Y34873D01*
X41151Y34883D01*
X41173Y34892D01*
X41184Y34896D01*
X41197Y34898D01*
X41210Y34899D01*
X41224Y34900D01*
X41226D01*
X41230D01*
X41238Y34899D01*
X41248Y34898D01*
X41259Y34897D01*
X41272Y34893D01*
X41286Y34889D01*
X41300Y34884D01*
X41302Y34883D01*
X41306Y34881D01*
X41314Y34877D01*
X41324Y34872D01*
X41335Y34864D01*
X41349Y34855D01*
X41363Y34844D01*
X41378Y34831D01*
X41380Y34829D01*
X41386Y34824D01*
X41390Y34820D01*
X41395Y34815D01*
X41400Y34810D01*
X41408Y34802D01*
X41415Y34795D01*
X41424Y34786D01*
X41433Y34776D01*
X41443Y34765D01*
X41453Y34753D01*
X41465Y34740D01*
X41477Y34726D01*
X41490Y34711D01*
X41491Y34710D01*
X41493Y34708D01*
X41496Y34704D01*
X41499Y34700D01*
X41505Y34694D01*
X41510Y34688D01*
X41522Y34673D01*
X41536Y34657D01*
X41550Y34642D01*
X41562Y34629D01*
X41567Y34624D01*
X41571Y34619D01*
X41572Y34618D01*
X41575Y34616D01*
X41579Y34612D01*
X41584Y34607D01*
X41591Y34603D01*
X41597Y34597D01*
X41613Y34586D01*
Y34901D01*
X41689D01*
Y34477D01*
D02*
G37*
G36*
X41491Y34415D02*
X41497Y34413D01*
X41504Y34410D01*
X41512Y34408D01*
X41522Y34404D01*
X41534Y34399D01*
X41546Y34394D01*
X41571Y34381D01*
X41597Y34364D01*
X41610Y34354D01*
X41623Y34344D01*
X41634Y34333D01*
X41645Y34320D01*
X41646Y34319D01*
X41648Y34317D01*
X41650Y34312D01*
X41654Y34308D01*
X41658Y34300D01*
X41663Y34293D01*
X41668Y34283D01*
X41672Y34273D01*
X41678Y34260D01*
X41682Y34248D01*
X41687Y34234D01*
X41692Y34219D01*
X41695Y34203D01*
X41697Y34187D01*
X41699Y34169D01*
X41700Y34150D01*
Y34140D01*
X41699Y34133D01*
Y34125D01*
X41698Y34114D01*
X41696Y34103D01*
X41694Y34090D01*
X41690Y34064D01*
X41682Y34036D01*
X41672Y34008D01*
X41666Y33995D01*
X41658Y33982D01*
X41657Y33981D01*
X41657Y33979D01*
X41654Y33976D01*
X41650Y33972D01*
X41646Y33966D01*
X41641Y33960D01*
X41634Y33953D01*
X41627Y33945D01*
X41619Y33938D01*
X41610Y33930D01*
X41589Y33913D01*
X41564Y33897D01*
X41536Y33883D01*
X41535D01*
X41533Y33881D01*
X41528Y33881D01*
X41522Y33878D01*
X41515Y33876D01*
X41506Y33873D01*
X41496Y33869D01*
X41485Y33867D01*
X41473Y33864D01*
X41459Y33860D01*
X41430Y33856D01*
X41398Y33852D01*
X41364Y33850D01*
X41363D01*
X41360D01*
X41354D01*
X41348Y33851D01*
X41339D01*
X41329Y33852D01*
X41317Y33853D01*
X41305Y33855D01*
X41278Y33859D01*
X41249Y33866D01*
X41219Y33875D01*
X41191Y33888D01*
X41190Y33889D01*
X41187Y33890D01*
X41183Y33892D01*
X41179Y33895D01*
X41172Y33899D01*
X41165Y33904D01*
X41148Y33916D01*
X41130Y33931D01*
X41111Y33950D01*
X41093Y33971D01*
X41077Y33996D01*
X41076Y33997D01*
X41075Y34000D01*
X41073Y34003D01*
X41070Y34008D01*
X41068Y34015D01*
X41065Y34023D01*
X41061Y34032D01*
X41057Y34042D01*
X41054Y34053D01*
X41050Y34065D01*
X41044Y34091D01*
X41040Y34121D01*
X41038Y34151D01*
Y34161D01*
X41039Y34167D01*
X41040Y34175D01*
X41041Y34186D01*
X41042Y34196D01*
X41044Y34208D01*
X41050Y34233D01*
X41058Y34260D01*
X41064Y34274D01*
X41070Y34287D01*
X41079Y34300D01*
X41087Y34313D01*
X41088Y34314D01*
X41089Y34316D01*
X41092Y34320D01*
X41096Y34324D01*
X41101Y34329D01*
X41107Y34335D01*
X41115Y34342D01*
X41122Y34349D01*
X41131Y34357D01*
X41143Y34364D01*
X41154Y34372D01*
X41166Y34380D01*
X41179Y34386D01*
X41193Y34394D01*
X41208Y34399D01*
X41225Y34405D01*
X41244Y34322D01*
X41243D01*
X41241Y34321D01*
X41238Y34319D01*
X41233Y34317D01*
X41228Y34315D01*
X41220Y34312D01*
X41205Y34305D01*
X41189Y34296D01*
X41172Y34285D01*
X41156Y34271D01*
X41143Y34256D01*
X41141Y34254D01*
X41137Y34248D01*
X41132Y34239D01*
X41126Y34227D01*
X41120Y34211D01*
X41115Y34194D01*
X41111Y34173D01*
X41110Y34150D01*
Y34142D01*
X41111Y34138D01*
Y34131D01*
X41112Y34124D01*
X41115Y34106D01*
X41118Y34087D01*
X41125Y34066D01*
X41134Y34045D01*
X41146Y34026D01*
Y34025D01*
X41148Y34024D01*
X41153Y34017D01*
X41160Y34009D01*
X41171Y33999D01*
X41185Y33987D01*
X41201Y33976D01*
X41220Y33966D01*
X41241Y33956D01*
X41242D01*
X41244Y33955D01*
X41247Y33954D01*
X41252Y33954D01*
X41257Y33952D01*
X41264Y33950D01*
X41279Y33947D01*
X41298Y33943D01*
X41318Y33940D01*
X41340Y33938D01*
X41364Y33937D01*
X41365D01*
X41368D01*
X41373D01*
X41378D01*
X41385Y33938D01*
X41393D01*
X41402Y33939D01*
X41412Y33940D01*
X41435Y33942D01*
X41459Y33947D01*
X41483Y33953D01*
X41507Y33960D01*
X41508D01*
X41510Y33961D01*
X41512Y33963D01*
X41517Y33965D01*
X41528Y33970D01*
X41541Y33979D01*
X41556Y33989D01*
X41571Y34002D01*
X41585Y34016D01*
X41598Y34034D01*
Y34035D01*
X41599Y34037D01*
X41601Y34040D01*
X41603Y34043D01*
X41605Y34048D01*
X41608Y34053D01*
X41613Y34066D01*
X41619Y34083D01*
X41623Y34101D01*
X41627Y34122D01*
X41628Y34143D01*
Y34150D01*
X41627Y34155D01*
Y34162D01*
X41626Y34168D01*
X41622Y34185D01*
X41618Y34204D01*
X41610Y34224D01*
X41600Y34244D01*
X41595Y34254D01*
X41587Y34263D01*
X41586Y34264D01*
X41585Y34265D01*
X41583Y34268D01*
X41580Y34272D01*
X41575Y34275D01*
X41570Y34280D01*
X41564Y34285D01*
X41557Y34290D01*
X41548Y34296D01*
X41539Y34302D01*
X41530Y34308D01*
X41519Y34313D01*
X41507Y34318D01*
X41494Y34322D01*
X41480Y34327D01*
X41465Y34331D01*
X41486Y34416D01*
X41487D01*
X41491Y34415D01*
D02*
G37*
G36*
X40589Y10255D02*
X40089D01*
X40090Y10254D01*
X40093Y10250D01*
X40099Y10244D01*
X40105Y10235D01*
X40114Y10225D01*
X40123Y10212D01*
X40133Y10197D01*
X40143Y10180D01*
Y10179D01*
X40144Y10178D01*
X40148Y10173D01*
X40153Y10164D01*
X40158Y10153D01*
X40165Y10140D01*
X40171Y10126D01*
X40177Y10112D01*
X40183Y10098D01*
X40107D01*
Y10099D01*
X40105Y10101D01*
X40104Y10104D01*
X40102Y10109D01*
X40099Y10115D01*
X40095Y10121D01*
X40086Y10137D01*
X40076Y10155D01*
X40063Y10174D01*
X40048Y10193D01*
X40032Y10213D01*
X40031Y10214D01*
X40030Y10215D01*
X40028Y10217D01*
X40025Y10221D01*
X40016Y10229D01*
X40005Y10240D01*
X39992Y10252D01*
X39977Y10264D01*
X39962Y10274D01*
X39946Y10283D01*
Y10334D01*
X40589D01*
Y10255D01*
D02*
G37*
G36*
X40391Y9965D02*
X40397Y9963D01*
X40404Y9960D01*
X40412Y9958D01*
X40422Y9954D01*
X40434Y9949D01*
X40446Y9944D01*
X40471Y9931D01*
X40497Y9914D01*
X40510Y9904D01*
X40523Y9894D01*
X40534Y9883D01*
X40545Y9870D01*
X40546Y9869D01*
X40548Y9867D01*
X40550Y9862D01*
X40554Y9858D01*
X40558Y9850D01*
X40563Y9843D01*
X40568Y9833D01*
X40572Y9823D01*
X40578Y9810D01*
X40582Y9798D01*
X40587Y9784D01*
X40592Y9769D01*
X40595Y9753D01*
X40597Y9737D01*
X40599Y9719D01*
X40600Y9700D01*
Y9690D01*
X40599Y9683D01*
Y9675D01*
X40598Y9664D01*
X40596Y9653D01*
X40594Y9640D01*
X40590Y9614D01*
X40582Y9586D01*
X40572Y9558D01*
X40566Y9545D01*
X40558Y9532D01*
X40557Y9531D01*
X40557Y9529D01*
X40554Y9526D01*
X40550Y9522D01*
X40546Y9516D01*
X40541Y9510D01*
X40534Y9503D01*
X40527Y9495D01*
X40519Y9488D01*
X40510Y9479D01*
X40489Y9463D01*
X40464Y9447D01*
X40436Y9433D01*
X40435D01*
X40433Y9431D01*
X40428Y9431D01*
X40422Y9428D01*
X40415Y9426D01*
X40406Y9423D01*
X40396Y9419D01*
X40385Y9417D01*
X40373Y9414D01*
X40359Y9410D01*
X40330Y9406D01*
X40298Y9402D01*
X40264Y9400D01*
X40263D01*
X40260D01*
X40254D01*
X40248Y9401D01*
X40238D01*
X40229Y9402D01*
X40217Y9403D01*
X40205Y9405D01*
X40178Y9409D01*
X40149Y9416D01*
X40119Y9425D01*
X40091Y9438D01*
X40090Y9439D01*
X40087Y9440D01*
X40083Y9442D01*
X40079Y9445D01*
X40072Y9449D01*
X40065Y9454D01*
X40048Y9466D01*
X40030Y9481D01*
X40011Y9500D01*
X39993Y9521D01*
X39977Y9546D01*
X39976Y9547D01*
X39975Y9550D01*
X39973Y9553D01*
X39970Y9558D01*
X39968Y9565D01*
X39965Y9573D01*
X39961Y9582D01*
X39957Y9592D01*
X39954Y9603D01*
X39950Y9615D01*
X39944Y9641D01*
X39940Y9671D01*
X39938Y9701D01*
Y9711D01*
X39939Y9717D01*
X39940Y9725D01*
X39941Y9736D01*
X39942Y9746D01*
X39944Y9758D01*
X39950Y9783D01*
X39958Y9810D01*
X39964Y9824D01*
X39970Y9837D01*
X39979Y9850D01*
X39987Y9863D01*
X39988Y9864D01*
X39989Y9866D01*
X39992Y9870D01*
X39996Y9874D01*
X40001Y9879D01*
X40007Y9885D01*
X40015Y9892D01*
X40022Y9899D01*
X40031Y9907D01*
X40042Y9914D01*
X40054Y9922D01*
X40066Y9930D01*
X40079Y9936D01*
X40093Y9944D01*
X40108Y9949D01*
X40125Y9955D01*
X40144Y9872D01*
X40143D01*
X40141Y9871D01*
X40138Y9869D01*
X40133Y9867D01*
X40128Y9865D01*
X40120Y9862D01*
X40105Y9855D01*
X40089Y9846D01*
X40072Y9835D01*
X40056Y9821D01*
X40042Y9806D01*
X40041Y9804D01*
X40037Y9798D01*
X40032Y9789D01*
X40026Y9777D01*
X40020Y9761D01*
X40015Y9744D01*
X40011Y9723D01*
X40010Y9700D01*
Y9692D01*
X40011Y9688D01*
Y9681D01*
X40012Y9674D01*
X40015Y9656D01*
X40018Y9637D01*
X40025Y9616D01*
X40034Y9595D01*
X40046Y9576D01*
Y9575D01*
X40048Y9574D01*
X40053Y9567D01*
X40060Y9559D01*
X40071Y9549D01*
X40085Y9537D01*
X40101Y9526D01*
X40120Y9516D01*
X40141Y9506D01*
X40142D01*
X40144Y9505D01*
X40147Y9504D01*
X40152Y9504D01*
X40157Y9502D01*
X40164Y9500D01*
X40179Y9497D01*
X40198Y9493D01*
X40218Y9490D01*
X40240Y9488D01*
X40264Y9487D01*
X40265D01*
X40268D01*
X40273D01*
X40278D01*
X40285Y9488D01*
X40293D01*
X40302Y9489D01*
X40312Y9490D01*
X40335Y9492D01*
X40359Y9497D01*
X40383Y9503D01*
X40407Y9510D01*
X40408D01*
X40410Y9511D01*
X40412Y9513D01*
X40417Y9515D01*
X40428Y9520D01*
X40441Y9528D01*
X40456Y9539D01*
X40471Y9552D01*
X40485Y9566D01*
X40498Y9584D01*
Y9585D01*
X40499Y9587D01*
X40501Y9590D01*
X40503Y9593D01*
X40505Y9598D01*
X40508Y9603D01*
X40513Y9616D01*
X40519Y9633D01*
X40523Y9651D01*
X40527Y9672D01*
X40528Y9693D01*
Y9700D01*
X40527Y9705D01*
Y9712D01*
X40526Y9718D01*
X40522Y9735D01*
X40518Y9754D01*
X40510Y9774D01*
X40500Y9794D01*
X40495Y9804D01*
X40487Y9813D01*
X40486Y9814D01*
X40485Y9815D01*
X40483Y9818D01*
X40480Y9822D01*
X40475Y9825D01*
X40470Y9830D01*
X40464Y9835D01*
X40457Y9840D01*
X40448Y9846D01*
X40439Y9852D01*
X40430Y9858D01*
X40419Y9863D01*
X40407Y9868D01*
X40394Y9872D01*
X40380Y9877D01*
X40365Y9881D01*
X40386Y9966D01*
X40387D01*
X40391Y9965D01*
D02*
G37*
G36*
X72424Y75486D02*
X71924D01*
X71925Y75485D01*
X71929Y75480D01*
X71934Y75475D01*
X71941Y75466D01*
X71949Y75455D01*
X71958Y75442D01*
X71968Y75428D01*
X71979Y75411D01*
Y75410D01*
X71980Y75409D01*
X71983Y75404D01*
X71988Y75394D01*
X71993Y75383D01*
X72000Y75370D01*
X72006Y75356D01*
X72013Y75343D01*
X72018Y75329D01*
X71943D01*
Y75330D01*
X71941Y75331D01*
X71940Y75335D01*
X71937Y75340D01*
X71934Y75345D01*
X71931Y75352D01*
X71921Y75368D01*
X71911Y75386D01*
X71898Y75404D01*
X71883Y75424D01*
X71868Y75443D01*
X71867Y75444D01*
X71866Y75445D01*
X71863Y75448D01*
X71860Y75452D01*
X71851Y75460D01*
X71840Y75471D01*
X71827Y75482D01*
X71812Y75494D01*
X71797Y75504D01*
X71782Y75514D01*
Y75564D01*
X72424D01*
Y75486D01*
D02*
G37*
G36*
X72241Y75161D02*
X72249D01*
X72266Y75159D01*
X72286Y75158D01*
X72308Y75154D01*
X72327Y75148D01*
X72346Y75142D01*
X72347D01*
X72348Y75141D01*
X72353Y75138D01*
X72360Y75134D01*
X72371Y75127D01*
X72381Y75118D01*
X72392Y75108D01*
X72403Y75095D01*
X72412Y75080D01*
X72413Y75078D01*
X72416Y75073D01*
X72420Y75064D01*
X72423Y75052D01*
X72428Y75037D01*
X72432Y75021D01*
X72434Y75002D01*
X72435Y74982D01*
Y74974D01*
X72434Y74968D01*
X72433Y74961D01*
X72433Y74953D01*
X72429Y74934D01*
X72423Y74914D01*
X72415Y74892D01*
X72409Y74881D01*
X72403Y74871D01*
X72396Y74862D01*
X72387Y74853D01*
X72386Y74852D01*
X72385Y74851D01*
X72382Y74849D01*
X72378Y74846D01*
X72373Y74842D01*
X72367Y74839D01*
X72360Y74835D01*
X72351Y74830D01*
X72342Y74827D01*
X72331Y74823D01*
X72320Y74819D01*
X72307Y74816D01*
X72293Y74814D01*
X72277Y74811D01*
X72262Y74810D01*
X72244D01*
X72233Y74887D01*
X72234D01*
X72236D01*
X72239D01*
X72245Y74888D01*
X72250Y74889D01*
X72257D01*
X72273Y74891D01*
X72289Y74894D01*
X72306Y74900D01*
X72321Y74905D01*
X72327Y74909D01*
X72333Y74914D01*
X72334Y74914D01*
X72336Y74918D01*
X72341Y74924D01*
X72346Y74931D01*
X72351Y74941D01*
X72355Y74952D01*
X72359Y74966D01*
X72360Y74981D01*
Y74987D01*
X72359Y74992D01*
X72358Y75000D01*
X72356Y75009D01*
X72354Y75018D01*
X72350Y75027D01*
X72346Y75037D01*
X72345Y75037D01*
X72343Y75040D01*
X72339Y75044D01*
X72335Y75049D01*
X72329Y75054D01*
X72323Y75060D01*
X72315Y75064D01*
X72306Y75068D01*
X72305D01*
X72301Y75070D01*
X72295Y75071D01*
X72286Y75073D01*
X72275Y75074D01*
X72262Y75075D01*
X72245Y75077D01*
X72225D01*
X71784D01*
Y75162D01*
X72221D01*
X72222D01*
X72225D01*
X72228D01*
X72234D01*
X72241Y75161D01*
D02*
G37*
G36*
X42839Y88642D02*
X42847Y88641D01*
X42856Y88640D01*
X42866Y88638D01*
X42876Y88636D01*
X42901Y88630D01*
X42925Y88620D01*
X42937Y88615D01*
X42949Y88608D01*
X42960Y88600D01*
X42970Y88591D01*
X42971Y88590D01*
X42973Y88589D01*
X42974Y88585D01*
X42978Y88582D01*
X42983Y88577D01*
X42987Y88570D01*
X42992Y88564D01*
X42998Y88556D01*
X43007Y88538D01*
X43016Y88516D01*
X43020Y88505D01*
X43022Y88492D01*
X43023Y88479D01*
X43024Y88465D01*
Y88463D01*
Y88459D01*
X43023Y88451D01*
X43023Y88441D01*
X43021Y88430D01*
X43017Y88417D01*
X43013Y88403D01*
X43008Y88389D01*
X43007Y88387D01*
X43005Y88383D01*
X43001Y88375D01*
X42996Y88365D01*
X42988Y88354D01*
X42979Y88340D01*
X42968Y88326D01*
X42955Y88311D01*
X42953Y88309D01*
X42949Y88303D01*
X42944Y88299D01*
X42939Y88294D01*
X42934Y88288D01*
X42926Y88281D01*
X42919Y88274D01*
X42910Y88265D01*
X42901Y88256D01*
X42889Y88246D01*
X42877Y88236D01*
X42864Y88224D01*
X42850Y88212D01*
X42835Y88199D01*
X42834Y88198D01*
X42832Y88196D01*
X42828Y88193D01*
X42824Y88190D01*
X42818Y88184D01*
X42812Y88178D01*
X42797Y88166D01*
X42781Y88153D01*
X42766Y88139D01*
X42754Y88127D01*
X42748Y88122D01*
X42743Y88117D01*
X42742Y88116D01*
X42740Y88114D01*
X42736Y88110D01*
X42731Y88104D01*
X42727Y88098D01*
X42721Y88092D01*
X42710Y88076D01*
X43025D01*
Y88000D01*
X42601D01*
Y88001D01*
Y88005D01*
Y88010D01*
X42602Y88018D01*
X42603Y88026D01*
X42605Y88035D01*
X42606Y88044D01*
X42610Y88055D01*
Y88055D01*
X42611Y88056D01*
X42613Y88062D01*
X42617Y88070D01*
X42622Y88081D01*
X42630Y88094D01*
X42639Y88109D01*
X42649Y88124D01*
X42662Y88140D01*
Y88141D01*
X42664Y88141D01*
X42668Y88147D01*
X42677Y88155D01*
X42689Y88167D01*
X42703Y88181D01*
X42720Y88198D01*
X42741Y88216D01*
X42765Y88236D01*
X42766Y88237D01*
X42769Y88239D01*
X42775Y88244D01*
X42781Y88250D01*
X42790Y88257D01*
X42800Y88265D01*
X42810Y88275D01*
X42822Y88285D01*
X42845Y88307D01*
X42868Y88329D01*
X42879Y88340D01*
X42889Y88351D01*
X42899Y88361D01*
X42906Y88372D01*
Y88373D01*
X42908Y88374D01*
X42910Y88376D01*
X42912Y88380D01*
X42918Y88390D01*
X42925Y88402D01*
X42932Y88417D01*
X42938Y88433D01*
X42942Y88450D01*
X42944Y88467D01*
Y88468D01*
Y88469D01*
X42943Y88474D01*
X42942Y88484D01*
X42939Y88494D01*
X42936Y88507D01*
X42929Y88520D01*
X42921Y88533D01*
X42910Y88545D01*
X42908Y88547D01*
X42903Y88551D01*
X42897Y88556D01*
X42887Y88562D01*
X42874Y88568D01*
X42859Y88573D01*
X42841Y88577D01*
X42822Y88578D01*
X42816D01*
X42813Y88577D01*
X42802Y88576D01*
X42789Y88573D01*
X42775Y88570D01*
X42759Y88563D01*
X42744Y88555D01*
X42730Y88544D01*
X42729Y88542D01*
X42725Y88537D01*
X42719Y88530D01*
X42714Y88519D01*
X42707Y88506D01*
X42702Y88489D01*
X42698Y88471D01*
X42696Y88449D01*
X42616Y88458D01*
Y88459D01*
X42617Y88461D01*
Y88466D01*
X42618Y88472D01*
X42619Y88480D01*
X42621Y88488D01*
X42624Y88498D01*
X42627Y88508D01*
X42634Y88531D01*
X42645Y88553D01*
X42652Y88564D01*
X42660Y88575D01*
X42668Y88585D01*
X42678Y88594D01*
X42679Y88595D01*
X42680Y88596D01*
X42683Y88599D01*
X42688Y88602D01*
X42693Y88606D01*
X42700Y88609D01*
X42707Y88614D01*
X42717Y88619D01*
X42727Y88623D01*
X42738Y88628D01*
X42750Y88631D01*
X42763Y88635D01*
X42777Y88638D01*
X42791Y88641D01*
X42807Y88642D01*
X42824Y88643D01*
X42833D01*
X42839Y88642D01*
D02*
G37*
G36*
X42304Y88639D02*
X42312D01*
X42332Y88638D01*
X42352Y88635D01*
X42374Y88632D01*
X42395Y88628D01*
X42405Y88625D01*
X42413Y88622D01*
X42414D01*
X42415Y88621D01*
X42421Y88619D01*
X42429Y88615D01*
X42439Y88608D01*
X42450Y88600D01*
X42462Y88589D01*
X42473Y88576D01*
X42484Y88561D01*
Y88560D01*
X42485Y88559D01*
X42489Y88554D01*
X42493Y88545D01*
X42498Y88533D01*
X42503Y88519D01*
X42508Y88502D01*
X42510Y88484D01*
X42511Y88465D01*
Y88464D01*
Y88462D01*
Y88459D01*
X42510Y88454D01*
Y88447D01*
X42509Y88441D01*
X42506Y88425D01*
X42500Y88407D01*
X42493Y88387D01*
X42482Y88368D01*
X42474Y88359D01*
X42467Y88349D01*
X42466Y88349D01*
X42465Y88348D01*
X42462Y88345D01*
X42459Y88342D01*
X42454Y88338D01*
X42448Y88335D01*
X42441Y88330D01*
X42434Y88325D01*
X42424Y88320D01*
X42414Y88315D01*
X42403Y88310D01*
X42391Y88305D01*
X42377Y88301D01*
X42363Y88297D01*
X42348Y88294D01*
X42331Y88291D01*
X42333Y88290D01*
X42337Y88288D01*
X42342Y88285D01*
X42349Y88281D01*
X42366Y88271D01*
X42374Y88264D01*
X42382Y88259D01*
X42384Y88257D01*
X42388Y88252D01*
X42396Y88245D01*
X42405Y88236D01*
X42415Y88223D01*
X42427Y88209D01*
X42439Y88192D01*
X42452Y88174D01*
X42562Y88000D01*
X42457D01*
X42373Y88133D01*
Y88134D01*
X42371Y88136D01*
X42369Y88139D01*
X42366Y88142D01*
X42360Y88153D01*
X42351Y88165D01*
X42341Y88179D01*
X42331Y88194D01*
X42321Y88208D01*
X42312Y88221D01*
X42311Y88222D01*
X42308Y88226D01*
X42303Y88231D01*
X42297Y88238D01*
X42283Y88251D01*
X42276Y88258D01*
X42268Y88263D01*
X42267Y88264D01*
X42265Y88265D01*
X42262Y88267D01*
X42256Y88270D01*
X42251Y88273D01*
X42244Y88276D01*
X42229Y88280D01*
X42228D01*
X42227Y88281D01*
X42223D01*
X42218Y88282D01*
X42212Y88283D01*
X42204D01*
X42194Y88284D01*
X42085D01*
Y88000D01*
X42000D01*
Y88640D01*
X42297D01*
X42304Y88639D01*
D02*
G37*
G36*
X42832Y84653D02*
X42844Y84651D01*
X42859Y84648D01*
X42876Y84643D01*
X42892Y84638D01*
X42909Y84631D01*
X42910D01*
X42911Y84630D01*
X42916Y84627D01*
X42925Y84621D01*
X42934Y84615D01*
X42945Y84606D01*
X42956Y84595D01*
X42967Y84583D01*
X42976Y84570D01*
X42977Y84568D01*
X42980Y84563D01*
X42984Y84555D01*
X42988Y84545D01*
X42993Y84533D01*
X42997Y84519D01*
X42999Y84503D01*
X43000Y84487D01*
Y84485D01*
Y84480D01*
X42999Y84472D01*
X42998Y84462D01*
X42995Y84450D01*
X42990Y84437D01*
X42985Y84424D01*
X42977Y84411D01*
X42976Y84410D01*
X42974Y84406D01*
X42968Y84399D01*
X42961Y84392D01*
X42951Y84384D01*
X42940Y84374D01*
X42927Y84366D01*
X42912Y84358D01*
X42913D01*
X42914Y84357D01*
X42917Y84356D01*
X42921Y84355D01*
X42931Y84351D01*
X42944Y84346D01*
X42959Y84338D01*
X42974Y84329D01*
X42987Y84317D01*
X43000Y84303D01*
X43001Y84301D01*
X43005Y84296D01*
X43011Y84287D01*
X43016Y84275D01*
X43022Y84260D01*
X43027Y84242D01*
X43031Y84222D01*
X43032Y84200D01*
Y84199D01*
Y84196D01*
Y84191D01*
X43031Y84186D01*
X43030Y84178D01*
X43028Y84170D01*
X43026Y84161D01*
X43024Y84151D01*
X43017Y84129D01*
X43011Y84116D01*
X43006Y84105D01*
X42999Y84093D01*
X42990Y84081D01*
X42981Y84069D01*
X42970Y84058D01*
X42969Y84057D01*
X42967Y84055D01*
X42963Y84053D01*
X42959Y84049D01*
X42953Y84044D01*
X42946Y84040D01*
X42937Y84034D01*
X42927Y84030D01*
X42917Y84024D01*
X42905Y84018D01*
X42893Y84014D01*
X42879Y84009D01*
X42864Y84006D01*
X42849Y84003D01*
X42833Y84001D01*
X42815Y84000D01*
X42807D01*
X42802Y84001D01*
X42794Y84002D01*
X42786Y84003D01*
X42777Y84005D01*
X42766Y84006D01*
X42744Y84012D01*
X42721Y84021D01*
X42709Y84027D01*
X42698Y84033D01*
X42687Y84042D01*
X42676Y84050D01*
X42675Y84051D01*
X42673Y84053D01*
X42670Y84055D01*
X42668Y84059D01*
X42663Y84064D01*
X42658Y84070D01*
X42653Y84077D01*
X42647Y84085D01*
X42642Y84094D01*
X42636Y84104D01*
X42626Y84126D01*
X42618Y84152D01*
X42615Y84165D01*
X42613Y84180D01*
X42692Y84190D01*
Y84190D01*
X42692Y84188D01*
X42693Y84184D01*
X42694Y84179D01*
X42695Y84174D01*
X42697Y84167D01*
X42702Y84153D01*
X42708Y84137D01*
X42717Y84121D01*
X42726Y84106D01*
X42737Y84093D01*
X42739Y84092D01*
X42742Y84089D01*
X42750Y84084D01*
X42759Y84079D01*
X42770Y84074D01*
X42784Y84069D01*
X42800Y84066D01*
X42816Y84065D01*
X42822D01*
X42826Y84066D01*
X42836Y84067D01*
X42849Y84069D01*
X42864Y84074D01*
X42879Y84080D01*
X42895Y84090D01*
X42910Y84103D01*
X42912Y84104D01*
X42916Y84110D01*
X42922Y84118D01*
X42929Y84129D01*
X42937Y84143D01*
X42942Y84159D01*
X42947Y84177D01*
X42949Y84198D01*
Y84199D01*
Y84201D01*
Y84203D01*
X42948Y84207D01*
X42947Y84217D01*
X42944Y84229D01*
X42940Y84244D01*
X42934Y84259D01*
X42925Y84274D01*
X42913Y84288D01*
X42911Y84289D01*
X42906Y84293D01*
X42899Y84299D01*
X42888Y84305D01*
X42876Y84312D01*
X42860Y84317D01*
X42842Y84321D01*
X42823Y84323D01*
X42815D01*
X42808Y84322D01*
X42800Y84321D01*
X42790Y84319D01*
X42779Y84317D01*
X42767Y84314D01*
X42777Y84384D01*
X42781D01*
X42785Y84383D01*
X42797D01*
X42807Y84385D01*
X42819Y84386D01*
X42833Y84389D01*
X42849Y84394D01*
X42864Y84400D01*
X42879Y84409D01*
X42880D01*
X42881Y84410D01*
X42886Y84413D01*
X42892Y84420D01*
X42900Y84428D01*
X42907Y84440D01*
X42913Y84454D01*
X42918Y84470D01*
X42920Y84479D01*
Y84489D01*
Y84490D01*
Y84491D01*
Y84496D01*
X42918Y84504D01*
X42916Y84514D01*
X42913Y84525D01*
X42908Y84537D01*
X42901Y84549D01*
X42890Y84560D01*
X42889Y84561D01*
X42885Y84565D01*
X42878Y84570D01*
X42870Y84575D01*
X42859Y84580D01*
X42846Y84584D01*
X42831Y84588D01*
X42815Y84589D01*
X42807D01*
X42799Y84587D01*
X42788Y84585D01*
X42776Y84582D01*
X42764Y84577D01*
X42751Y84570D01*
X42739Y84560D01*
X42738Y84559D01*
X42734Y84555D01*
X42729Y84548D01*
X42722Y84539D01*
X42716Y84527D01*
X42709Y84512D01*
X42704Y84495D01*
X42700Y84474D01*
X42621Y84488D01*
Y84489D01*
X42622Y84492D01*
X42623Y84496D01*
X42624Y84501D01*
X42626Y84508D01*
X42629Y84515D01*
X42634Y84533D01*
X42643Y84553D01*
X42655Y84573D01*
X42668Y84593D01*
X42686Y84610D01*
X42687Y84611D01*
X42689Y84612D01*
X42692Y84614D01*
X42695Y84617D01*
X42700Y84620D01*
X42706Y84624D01*
X42713Y84628D01*
X42721Y84632D01*
X42740Y84640D01*
X42761Y84647D01*
X42786Y84652D01*
X42799Y84654D01*
X42822D01*
X42832Y84653D01*
D02*
G37*
G36*
X42304Y84650D02*
X42312D01*
X42332Y84649D01*
X42352Y84646D01*
X42374Y84643D01*
X42395Y84639D01*
X42405Y84636D01*
X42413Y84633D01*
X42414D01*
X42415Y84632D01*
X42421Y84630D01*
X42429Y84626D01*
X42439Y84619D01*
X42450Y84611D01*
X42462Y84600D01*
X42473Y84587D01*
X42484Y84572D01*
Y84571D01*
X42485Y84570D01*
X42489Y84565D01*
X42493Y84556D01*
X42498Y84544D01*
X42503Y84530D01*
X42508Y84513D01*
X42510Y84496D01*
X42511Y84476D01*
Y84475D01*
Y84473D01*
Y84470D01*
X42510Y84465D01*
Y84459D01*
X42509Y84452D01*
X42506Y84436D01*
X42500Y84418D01*
X42493Y84398D01*
X42482Y84379D01*
X42474Y84370D01*
X42467Y84361D01*
X42466Y84360D01*
X42465Y84359D01*
X42462Y84356D01*
X42459Y84353D01*
X42454Y84349D01*
X42448Y84346D01*
X42441Y84341D01*
X42434Y84336D01*
X42424Y84331D01*
X42414Y84326D01*
X42403Y84321D01*
X42391Y84316D01*
X42377Y84312D01*
X42363Y84308D01*
X42348Y84305D01*
X42331Y84302D01*
X42333Y84301D01*
X42337Y84300D01*
X42342Y84296D01*
X42349Y84292D01*
X42366Y84282D01*
X42374Y84276D01*
X42382Y84270D01*
X42384Y84268D01*
X42388Y84263D01*
X42396Y84256D01*
X42405Y84247D01*
X42415Y84234D01*
X42427Y84220D01*
X42439Y84203D01*
X42452Y84185D01*
X42562Y84011D01*
X42457D01*
X42373Y84144D01*
Y84145D01*
X42371Y84147D01*
X42369Y84150D01*
X42366Y84153D01*
X42360Y84164D01*
X42351Y84177D01*
X42341Y84190D01*
X42331Y84205D01*
X42321Y84219D01*
X42312Y84232D01*
X42311Y84233D01*
X42308Y84237D01*
X42303Y84242D01*
X42297Y84249D01*
X42283Y84263D01*
X42276Y84269D01*
X42268Y84275D01*
X42267Y84276D01*
X42265Y84276D01*
X42262Y84278D01*
X42256Y84281D01*
X42251Y84284D01*
X42244Y84287D01*
X42229Y84291D01*
X42228D01*
X42227Y84292D01*
X42223D01*
X42218Y84293D01*
X42212Y84294D01*
X42204D01*
X42194Y84295D01*
X42085D01*
Y84011D01*
X42000D01*
Y84651D01*
X42297D01*
X42304Y84650D01*
D02*
G37*
G36*
X63989Y38429D02*
X63856Y38345D01*
X63855D01*
X63853Y38343D01*
X63850Y38341D01*
X63847Y38338D01*
X63836Y38332D01*
X63823Y38323D01*
X63810Y38313D01*
X63795Y38303D01*
X63781Y38293D01*
X63768Y38284D01*
X63767Y38283D01*
X63763Y38280D01*
X63758Y38275D01*
X63751Y38269D01*
X63737Y38255D01*
X63731Y38248D01*
X63725Y38240D01*
X63724Y38239D01*
X63724Y38237D01*
X63722Y38234D01*
X63719Y38228D01*
X63716Y38223D01*
X63713Y38216D01*
X63709Y38201D01*
Y38200D01*
X63708Y38199D01*
Y38195D01*
X63707Y38190D01*
X63706Y38184D01*
Y38176D01*
X63705Y38166D01*
Y38057D01*
X63989D01*
Y37972D01*
X63349D01*
Y38269D01*
X63350Y38276D01*
Y38285D01*
X63351Y38304D01*
X63354Y38324D01*
X63357Y38347D01*
X63361Y38367D01*
X63364Y38377D01*
X63367Y38385D01*
Y38386D01*
X63368Y38387D01*
X63370Y38393D01*
X63374Y38401D01*
X63381Y38411D01*
X63389Y38422D01*
X63400Y38434D01*
X63413Y38445D01*
X63428Y38457D01*
X63429D01*
X63430Y38457D01*
X63435Y38461D01*
X63444Y38465D01*
X63456Y38470D01*
X63470Y38475D01*
X63487Y38480D01*
X63504Y38482D01*
X63524Y38483D01*
X63525D01*
X63527D01*
X63530D01*
X63535Y38482D01*
X63541D01*
X63548Y38481D01*
X63564Y38478D01*
X63582Y38472D01*
X63602Y38465D01*
X63621Y38454D01*
X63630Y38446D01*
X63639Y38439D01*
X63640Y38438D01*
X63641Y38437D01*
X63644Y38434D01*
X63647Y38431D01*
X63651Y38426D01*
X63654Y38420D01*
X63659Y38413D01*
X63664Y38406D01*
X63669Y38396D01*
X63674Y38386D01*
X63679Y38375D01*
X63684Y38363D01*
X63688Y38349D01*
X63692Y38335D01*
X63695Y38320D01*
X63698Y38303D01*
X63699Y38305D01*
X63700Y38309D01*
X63704Y38314D01*
X63708Y38322D01*
X63718Y38338D01*
X63724Y38347D01*
X63730Y38354D01*
X63732Y38356D01*
X63737Y38360D01*
X63744Y38368D01*
X63753Y38377D01*
X63766Y38387D01*
X63780Y38399D01*
X63797Y38411D01*
X63815Y38424D01*
X63989Y38534D01*
Y38429D01*
D02*
G37*
G36*
X63688Y37861D02*
X63696D01*
X63706Y37860D01*
X63717Y37858D01*
X63729Y37857D01*
X63756Y37853D01*
X63786Y37845D01*
X63815Y37835D01*
X63830Y37830D01*
X63845Y37822D01*
X63846D01*
X63848Y37820D01*
X63852Y37819D01*
X63858Y37815D01*
X63864Y37811D01*
X63871Y37807D01*
X63888Y37794D01*
X63907Y37778D01*
X63926Y37759D01*
X63945Y37737D01*
X63961Y37711D01*
Y37710D01*
X63963Y37709D01*
X63965Y37704D01*
X63968Y37698D01*
X63970Y37692D01*
X63973Y37685D01*
X63977Y37675D01*
X63981Y37665D01*
X63984Y37654D01*
X63988Y37642D01*
X63994Y37615D01*
X63998Y37587D01*
X64000Y37556D01*
Y37547D01*
X63999Y37541D01*
Y37533D01*
X63997Y37524D01*
X63996Y37513D01*
X63994Y37501D01*
X63989Y37477D01*
X63982Y37450D01*
X63970Y37422D01*
X63964Y37408D01*
X63957Y37394D01*
X63956Y37393D01*
X63955Y37391D01*
X63952Y37388D01*
X63948Y37382D01*
X63945Y37377D01*
X63939Y37370D01*
X63925Y37354D01*
X63908Y37337D01*
X63888Y37318D01*
X63865Y37302D01*
X63838Y37286D01*
X63837D01*
X63835Y37284D01*
X63831Y37282D01*
X63825Y37280D01*
X63818Y37278D01*
X63810Y37275D01*
X63800Y37271D01*
X63790Y37268D01*
X63778Y37265D01*
X63766Y37261D01*
X63738Y37256D01*
X63710Y37252D01*
X63678Y37250D01*
X63677D01*
X63676D01*
X63671D01*
X63663Y37251D01*
X63651D01*
X63639Y37253D01*
X63623Y37255D01*
X63605Y37257D01*
X63587Y37261D01*
X63567Y37265D01*
X63547Y37270D01*
X63527Y37278D01*
X63505Y37286D01*
X63485Y37295D01*
X63465Y37307D01*
X63446Y37320D01*
X63429Y37335D01*
X63428Y37336D01*
X63425Y37339D01*
X63420Y37344D01*
X63415Y37351D01*
X63407Y37359D01*
X63400Y37369D01*
X63392Y37381D01*
X63383Y37395D01*
X63375Y37410D01*
X63367Y37427D01*
X63359Y37445D01*
X63352Y37464D01*
X63346Y37486D01*
X63342Y37508D01*
X63339Y37531D01*
X63338Y37556D01*
Y37564D01*
X63339Y37571D01*
Y37579D01*
X63340Y37587D01*
X63342Y37599D01*
X63344Y37610D01*
X63348Y37634D01*
X63356Y37661D01*
X63367Y37688D01*
X63373Y37702D01*
X63381Y37716D01*
X63381Y37717D01*
X63382Y37719D01*
X63385Y37722D01*
X63388Y37728D01*
X63393Y37734D01*
X63398Y37741D01*
X63411Y37757D01*
X63428Y37773D01*
X63448Y37792D01*
X63472Y37809D01*
X63499Y37824D01*
X63500D01*
X63503Y37826D01*
X63506Y37828D01*
X63512Y37830D01*
X63519Y37833D01*
X63528Y37836D01*
X63538Y37840D01*
X63549Y37844D01*
X63561Y37846D01*
X63574Y37850D01*
X63589Y37854D01*
X63603Y37856D01*
X63636Y37860D01*
X63671Y37862D01*
X63672D01*
X63675D01*
X63680D01*
X63688Y37861D01*
D02*
G37*
G36*
X63425Y36977D02*
X63989D01*
Y36892D01*
X63425D01*
Y36681D01*
X63349D01*
Y37188D01*
X63425D01*
Y36977D01*
D02*
G37*
G36*
X63791Y36624D02*
X63797Y36622D01*
X63804Y36619D01*
X63812Y36617D01*
X63822Y36613D01*
X63834Y36608D01*
X63846Y36603D01*
X63871Y36590D01*
X63897Y36573D01*
X63910Y36563D01*
X63923Y36553D01*
X63934Y36542D01*
X63945Y36529D01*
X63946Y36528D01*
X63948Y36526D01*
X63950Y36521D01*
X63954Y36517D01*
X63958Y36509D01*
X63963Y36502D01*
X63968Y36492D01*
X63972Y36482D01*
X63978Y36470D01*
X63982Y36457D01*
X63987Y36443D01*
X63992Y36428D01*
X63995Y36412D01*
X63997Y36396D01*
X63999Y36378D01*
X64000Y36360D01*
Y36349D01*
X63999Y36342D01*
Y36334D01*
X63998Y36324D01*
X63996Y36312D01*
X63994Y36300D01*
X63990Y36273D01*
X63982Y36245D01*
X63972Y36217D01*
X63966Y36204D01*
X63958Y36191D01*
X63957Y36190D01*
X63957Y36189D01*
X63954Y36185D01*
X63950Y36181D01*
X63946Y36176D01*
X63941Y36169D01*
X63934Y36162D01*
X63927Y36154D01*
X63919Y36147D01*
X63910Y36139D01*
X63889Y36122D01*
X63864Y36106D01*
X63836Y36092D01*
X63835D01*
X63833Y36091D01*
X63828Y36090D01*
X63822Y36087D01*
X63815Y36085D01*
X63806Y36082D01*
X63796Y36079D01*
X63785Y36076D01*
X63773Y36073D01*
X63759Y36069D01*
X63730Y36065D01*
X63698Y36061D01*
X63664Y36059D01*
X63663D01*
X63660D01*
X63654D01*
X63648Y36060D01*
X63639D01*
X63629Y36061D01*
X63617Y36062D01*
X63605Y36064D01*
X63578Y36068D01*
X63549Y36075D01*
X63519Y36084D01*
X63491Y36097D01*
X63490Y36098D01*
X63487Y36099D01*
X63483Y36101D01*
X63479Y36104D01*
X63472Y36108D01*
X63465Y36113D01*
X63448Y36125D01*
X63430Y36141D01*
X63411Y36159D01*
X63393Y36180D01*
X63377Y36205D01*
X63376Y36206D01*
X63375Y36209D01*
X63373Y36213D01*
X63370Y36217D01*
X63368Y36225D01*
X63365Y36232D01*
X63361Y36241D01*
X63357Y36251D01*
X63354Y36263D01*
X63350Y36275D01*
X63344Y36300D01*
X63340Y36330D01*
X63338Y36361D01*
Y36370D01*
X63339Y36376D01*
X63340Y36385D01*
X63341Y36395D01*
X63342Y36405D01*
X63344Y36417D01*
X63350Y36442D01*
X63358Y36470D01*
X63364Y36484D01*
X63370Y36496D01*
X63379Y36509D01*
X63387Y36522D01*
X63388Y36523D01*
X63389Y36525D01*
X63392Y36529D01*
X63396Y36533D01*
X63401Y36538D01*
X63407Y36545D01*
X63415Y36551D01*
X63422Y36558D01*
X63431Y36566D01*
X63443Y36573D01*
X63454Y36582D01*
X63466Y36589D01*
X63479Y36595D01*
X63493Y36603D01*
X63508Y36608D01*
X63525Y36614D01*
X63544Y36531D01*
X63543D01*
X63541Y36530D01*
X63538Y36528D01*
X63533Y36526D01*
X63528Y36524D01*
X63520Y36521D01*
X63505Y36514D01*
X63489Y36505D01*
X63472Y36494D01*
X63456Y36480D01*
X63443Y36465D01*
X63441Y36463D01*
X63437Y36458D01*
X63432Y36448D01*
X63426Y36436D01*
X63420Y36421D01*
X63415Y36403D01*
X63411Y36382D01*
X63410Y36359D01*
Y36351D01*
X63411Y36347D01*
Y36340D01*
X63412Y36333D01*
X63415Y36315D01*
X63418Y36296D01*
X63425Y36275D01*
X63434Y36254D01*
X63446Y36235D01*
Y36234D01*
X63448Y36233D01*
X63453Y36226D01*
X63460Y36218D01*
X63471Y36208D01*
X63485Y36196D01*
X63501Y36185D01*
X63520Y36175D01*
X63541Y36165D01*
X63542D01*
X63544Y36165D01*
X63547Y36164D01*
X63552Y36163D01*
X63557Y36161D01*
X63564Y36159D01*
X63579Y36156D01*
X63598Y36153D01*
X63618Y36149D01*
X63640Y36147D01*
X63664Y36146D01*
X63665D01*
X63668D01*
X63673D01*
X63678D01*
X63685Y36147D01*
X63693D01*
X63702Y36148D01*
X63712Y36149D01*
X63735Y36152D01*
X63759Y36156D01*
X63783Y36162D01*
X63807Y36169D01*
X63808D01*
X63810Y36170D01*
X63812Y36172D01*
X63817Y36174D01*
X63828Y36179D01*
X63841Y36188D01*
X63856Y36198D01*
X63871Y36211D01*
X63885Y36226D01*
X63898Y36243D01*
Y36244D01*
X63899Y36246D01*
X63901Y36249D01*
X63903Y36252D01*
X63905Y36257D01*
X63908Y36263D01*
X63913Y36275D01*
X63919Y36292D01*
X63923Y36311D01*
X63927Y36331D01*
X63928Y36352D01*
Y36359D01*
X63927Y36364D01*
Y36371D01*
X63926Y36377D01*
X63922Y36394D01*
X63918Y36413D01*
X63910Y36433D01*
X63900Y36453D01*
X63895Y36463D01*
X63887Y36472D01*
X63886Y36473D01*
X63885Y36474D01*
X63883Y36477D01*
X63880Y36481D01*
X63875Y36484D01*
X63870Y36489D01*
X63864Y36495D01*
X63857Y36499D01*
X63848Y36505D01*
X63839Y36511D01*
X63830Y36517D01*
X63819Y36522D01*
X63807Y36527D01*
X63794Y36532D01*
X63780Y36536D01*
X63765Y36540D01*
X63786Y36625D01*
X63787D01*
X63791Y36624D01*
D02*
G37*
G36*
X63989Y35489D02*
X63349D01*
Y35952D01*
X63425D01*
Y35574D01*
X63620D01*
Y35928D01*
X63696D01*
Y35574D01*
X63913D01*
Y35967D01*
X63989D01*
Y35489D01*
D02*
G37*
G36*
Y35258D02*
X63487Y34923D01*
X63989D01*
Y34841D01*
X63349D01*
Y34928D01*
X63852Y35264D01*
X63349D01*
Y35345D01*
X63989D01*
Y35258D01*
D02*
G37*
G36*
Y34612D02*
X63487Y34278D01*
X63989D01*
Y34196D01*
X63349D01*
Y34283D01*
X63852Y34619D01*
X63349D01*
Y34700D01*
X63989D01*
Y34612D01*
D02*
G37*
G36*
X63688Y34087D02*
X63696D01*
X63706Y34086D01*
X63717Y34084D01*
X63729Y34083D01*
X63756Y34079D01*
X63786Y34071D01*
X63815Y34061D01*
X63830Y34056D01*
X63845Y34048D01*
X63846D01*
X63848Y34046D01*
X63852Y34045D01*
X63858Y34041D01*
X63864Y34037D01*
X63871Y34033D01*
X63888Y34020D01*
X63907Y34004D01*
X63926Y33985D01*
X63945Y33963D01*
X63961Y33937D01*
Y33936D01*
X63963Y33935D01*
X63965Y33930D01*
X63968Y33924D01*
X63970Y33918D01*
X63973Y33910D01*
X63977Y33901D01*
X63981Y33891D01*
X63984Y33880D01*
X63988Y33868D01*
X63994Y33841D01*
X63998Y33812D01*
X64000Y33782D01*
Y33773D01*
X63999Y33767D01*
Y33759D01*
X63997Y33750D01*
X63996Y33739D01*
X63994Y33727D01*
X63989Y33702D01*
X63982Y33676D01*
X63970Y33648D01*
X63964Y33634D01*
X63957Y33620D01*
X63956Y33619D01*
X63955Y33617D01*
X63952Y33614D01*
X63948Y33608D01*
X63945Y33603D01*
X63939Y33596D01*
X63925Y33580D01*
X63908Y33563D01*
X63888Y33544D01*
X63865Y33528D01*
X63838Y33512D01*
X63837D01*
X63835Y33510D01*
X63831Y33508D01*
X63825Y33506D01*
X63818Y33504D01*
X63810Y33501D01*
X63800Y33497D01*
X63790Y33494D01*
X63778Y33491D01*
X63766Y33487D01*
X63738Y33481D01*
X63710Y33478D01*
X63678Y33476D01*
X63677D01*
X63676D01*
X63671D01*
X63663Y33477D01*
X63651D01*
X63639Y33479D01*
X63623Y33481D01*
X63605Y33483D01*
X63587Y33487D01*
X63567Y33491D01*
X63547Y33496D01*
X63527Y33504D01*
X63505Y33512D01*
X63485Y33521D01*
X63465Y33533D01*
X63446Y33546D01*
X63429Y33561D01*
X63428Y33562D01*
X63425Y33565D01*
X63420Y33570D01*
X63415Y33577D01*
X63407Y33585D01*
X63400Y33595D01*
X63392Y33607D01*
X63383Y33621D01*
X63375Y33636D01*
X63367Y33653D01*
X63359Y33671D01*
X63352Y33690D01*
X63346Y33712D01*
X63342Y33734D01*
X63339Y33757D01*
X63338Y33782D01*
Y33790D01*
X63339Y33797D01*
Y33805D01*
X63340Y33813D01*
X63342Y33824D01*
X63344Y33836D01*
X63348Y33860D01*
X63356Y33887D01*
X63367Y33914D01*
X63373Y33928D01*
X63381Y33942D01*
X63381Y33943D01*
X63382Y33945D01*
X63385Y33948D01*
X63388Y33954D01*
X63393Y33959D01*
X63398Y33967D01*
X63411Y33983D01*
X63428Y33999D01*
X63448Y34018D01*
X63472Y34035D01*
X63499Y34050D01*
X63500D01*
X63503Y34052D01*
X63506Y34054D01*
X63512Y34056D01*
X63519Y34059D01*
X63528Y34062D01*
X63538Y34066D01*
X63549Y34069D01*
X63561Y34072D01*
X63574Y34076D01*
X63589Y34080D01*
X63603Y34082D01*
X63636Y34086D01*
X63671Y34088D01*
X63672D01*
X63675D01*
X63680D01*
X63688Y34087D01*
D02*
G37*
G36*
X63791Y33396D02*
X63797Y33395D01*
X63804Y33392D01*
X63812Y33389D01*
X63822Y33385D01*
X63834Y33381D01*
X63846Y33375D01*
X63871Y33362D01*
X63897Y33346D01*
X63910Y33335D01*
X63923Y33325D01*
X63934Y33314D01*
X63945Y33301D01*
X63946Y33300D01*
X63948Y33298D01*
X63950Y33294D01*
X63954Y33289D01*
X63958Y33282D01*
X63963Y33274D01*
X63968Y33264D01*
X63972Y33254D01*
X63978Y33242D01*
X63982Y33229D01*
X63987Y33215D01*
X63992Y33200D01*
X63995Y33185D01*
X63997Y33168D01*
X63999Y33150D01*
X64000Y33132D01*
Y33122D01*
X63999Y33114D01*
Y33106D01*
X63998Y33096D01*
X63996Y33085D01*
X63994Y33072D01*
X63990Y33045D01*
X63982Y33017D01*
X63972Y32990D01*
X63966Y32977D01*
X63958Y32964D01*
X63957Y32963D01*
X63957Y32961D01*
X63954Y32957D01*
X63950Y32954D01*
X63946Y32948D01*
X63941Y32942D01*
X63934Y32934D01*
X63927Y32927D01*
X63919Y32919D01*
X63910Y32911D01*
X63889Y32894D01*
X63864Y32879D01*
X63836Y32865D01*
X63835D01*
X63833Y32863D01*
X63828Y32862D01*
X63822Y32859D01*
X63815Y32857D01*
X63806Y32855D01*
X63796Y32851D01*
X63785Y32848D01*
X63773Y32845D01*
X63759Y32842D01*
X63730Y32837D01*
X63698Y32833D01*
X63664Y32832D01*
X63663D01*
X63660D01*
X63654D01*
X63648Y32832D01*
X63639D01*
X63629Y32833D01*
X63617Y32834D01*
X63605Y32836D01*
X63578Y32841D01*
X63549Y32847D01*
X63519Y32856D01*
X63491Y32869D01*
X63490Y32870D01*
X63487Y32871D01*
X63483Y32873D01*
X63479Y32877D01*
X63472Y32881D01*
X63465Y32885D01*
X63448Y32897D01*
X63430Y32913D01*
X63411Y32931D01*
X63393Y32953D01*
X63377Y32978D01*
X63376Y32979D01*
X63375Y32981D01*
X63373Y32985D01*
X63370Y32990D01*
X63368Y32997D01*
X63365Y33004D01*
X63361Y33014D01*
X63357Y33024D01*
X63354Y33035D01*
X63350Y33047D01*
X63344Y33073D01*
X63340Y33102D01*
X63338Y33133D01*
Y33142D01*
X63339Y33149D01*
X63340Y33157D01*
X63341Y33167D01*
X63342Y33177D01*
X63344Y33189D01*
X63350Y33214D01*
X63358Y33242D01*
X63364Y33256D01*
X63370Y33269D01*
X63379Y33282D01*
X63387Y33295D01*
X63388Y33296D01*
X63389Y33297D01*
X63392Y33301D01*
X63396Y33306D01*
X63401Y33310D01*
X63407Y33317D01*
X63415Y33323D01*
X63422Y33331D01*
X63431Y33338D01*
X63443Y33346D01*
X63454Y33354D01*
X63466Y33361D01*
X63479Y33368D01*
X63493Y33375D01*
X63508Y33381D01*
X63525Y33386D01*
X63544Y33303D01*
X63543D01*
X63541Y33302D01*
X63538Y33300D01*
X63533Y33298D01*
X63528Y33297D01*
X63520Y33294D01*
X63505Y33286D01*
X63489Y33277D01*
X63472Y33266D01*
X63456Y33252D01*
X63443Y33237D01*
X63441Y33236D01*
X63437Y33230D01*
X63432Y33221D01*
X63426Y33209D01*
X63420Y33193D01*
X63415Y33175D01*
X63411Y33154D01*
X63410Y33131D01*
Y33124D01*
X63411Y33119D01*
Y33113D01*
X63412Y33105D01*
X63415Y33088D01*
X63418Y33068D01*
X63425Y33048D01*
X63434Y33027D01*
X63446Y33007D01*
Y33006D01*
X63448Y33005D01*
X63453Y32999D01*
X63460Y32991D01*
X63471Y32980D01*
X63485Y32968D01*
X63501Y32957D01*
X63520Y32947D01*
X63541Y32938D01*
X63542D01*
X63544Y32937D01*
X63547Y32936D01*
X63552Y32935D01*
X63557Y32933D01*
X63564Y32931D01*
X63579Y32929D01*
X63598Y32925D01*
X63618Y32921D01*
X63640Y32919D01*
X63664Y32918D01*
X63665D01*
X63668D01*
X63673D01*
X63678D01*
X63685Y32919D01*
X63693D01*
X63702Y32920D01*
X63712Y32921D01*
X63735Y32924D01*
X63759Y32929D01*
X63783Y32934D01*
X63807Y32942D01*
X63808D01*
X63810Y32942D01*
X63812Y32944D01*
X63817Y32946D01*
X63828Y32952D01*
X63841Y32960D01*
X63856Y32970D01*
X63871Y32983D01*
X63885Y32998D01*
X63898Y33015D01*
Y33016D01*
X63899Y33018D01*
X63901Y33021D01*
X63903Y33025D01*
X63905Y33029D01*
X63908Y33035D01*
X63913Y33048D01*
X63919Y33064D01*
X63923Y33083D01*
X63927Y33103D01*
X63928Y33125D01*
Y33131D01*
X63927Y33137D01*
Y33143D01*
X63926Y33150D01*
X63922Y33166D01*
X63918Y33186D01*
X63910Y33205D01*
X63900Y33225D01*
X63895Y33236D01*
X63887Y33245D01*
X63886Y33246D01*
X63885Y33247D01*
X63883Y33249D01*
X63880Y33253D01*
X63875Y33257D01*
X63870Y33261D01*
X63864Y33267D01*
X63857Y33272D01*
X63848Y33277D01*
X63839Y33284D01*
X63830Y33289D01*
X63819Y33295D01*
X63807Y33299D01*
X63794Y33304D01*
X63780Y33309D01*
X63765Y33312D01*
X63786Y33397D01*
X63787D01*
X63791Y33396D01*
D02*
G37*
G36*
X63688Y32498D02*
X63696D01*
X63706Y32497D01*
X63717Y32495D01*
X63729Y32494D01*
X63756Y32489D01*
X63786Y32482D01*
X63815Y32472D01*
X63830Y32466D01*
X63845Y32459D01*
X63846D01*
X63848Y32457D01*
X63852Y32455D01*
X63858Y32452D01*
X63864Y32448D01*
X63871Y32443D01*
X63888Y32430D01*
X63907Y32415D01*
X63926Y32396D01*
X63945Y32374D01*
X63961Y32348D01*
Y32347D01*
X63963Y32345D01*
X63965Y32341D01*
X63968Y32335D01*
X63970Y32329D01*
X63973Y32321D01*
X63977Y32312D01*
X63981Y32302D01*
X63984Y32291D01*
X63988Y32279D01*
X63994Y32252D01*
X63998Y32223D01*
X64000Y32193D01*
Y32183D01*
X63999Y32178D01*
Y32170D01*
X63997Y32160D01*
X63996Y32150D01*
X63994Y32138D01*
X63989Y32113D01*
X63982Y32086D01*
X63970Y32059D01*
X63964Y32045D01*
X63957Y32031D01*
X63956Y32030D01*
X63955Y32028D01*
X63952Y32024D01*
X63948Y32019D01*
X63945Y32013D01*
X63939Y32007D01*
X63925Y31991D01*
X63908Y31974D01*
X63888Y31955D01*
X63865Y31938D01*
X63838Y31923D01*
X63837D01*
X63835Y31921D01*
X63831Y31919D01*
X63825Y31917D01*
X63818Y31914D01*
X63810Y31912D01*
X63800Y31908D01*
X63790Y31905D01*
X63778Y31901D01*
X63766Y31898D01*
X63738Y31892D01*
X63710Y31888D01*
X63678Y31887D01*
X63677D01*
X63676D01*
X63671D01*
X63663Y31888D01*
X63651D01*
X63639Y31889D01*
X63623Y31891D01*
X63605Y31894D01*
X63587Y31898D01*
X63567Y31901D01*
X63547Y31907D01*
X63527Y31914D01*
X63505Y31923D01*
X63485Y31932D01*
X63465Y31944D01*
X63446Y31957D01*
X63429Y31972D01*
X63428Y31973D01*
X63425Y31975D01*
X63420Y31981D01*
X63415Y31987D01*
X63407Y31996D01*
X63400Y32006D01*
X63392Y32018D01*
X63383Y32032D01*
X63375Y32047D01*
X63367Y32063D01*
X63359Y32082D01*
X63352Y32101D01*
X63346Y32122D01*
X63342Y32145D01*
X63339Y32168D01*
X63338Y32193D01*
Y32201D01*
X63339Y32207D01*
Y32216D01*
X63340Y32224D01*
X63342Y32235D01*
X63344Y32246D01*
X63348Y32270D01*
X63356Y32298D01*
X63367Y32325D01*
X63373Y32339D01*
X63381Y32353D01*
X63381Y32354D01*
X63382Y32355D01*
X63385Y32359D01*
X63388Y32365D01*
X63393Y32370D01*
X63398Y32378D01*
X63411Y32393D01*
X63428Y32410D01*
X63448Y32428D01*
X63472Y32446D01*
X63499Y32461D01*
X63500D01*
X63503Y32463D01*
X63506Y32464D01*
X63512Y32466D01*
X63519Y32470D01*
X63528Y32473D01*
X63538Y32476D01*
X63549Y32480D01*
X63561Y32483D01*
X63574Y32487D01*
X63589Y32490D01*
X63603Y32493D01*
X63636Y32497D01*
X63671Y32499D01*
X63672D01*
X63675D01*
X63680D01*
X63688Y32498D01*
D02*
G37*
G36*
X63989Y31678D02*
X63349D01*
Y31763D01*
X63989D01*
Y31678D01*
D02*
G37*
G36*
X63549Y31555D02*
X63555Y31554D01*
X63564Y31553D01*
X63573Y31551D01*
X63583Y31549D01*
X63604Y31543D01*
X63615Y31539D01*
X63627Y31533D01*
X63639Y31527D01*
X63651Y31520D01*
X63662Y31512D01*
X63673Y31503D01*
X63674Y31502D01*
X63675Y31500D01*
X63678Y31497D01*
X63681Y31493D01*
X63686Y31487D01*
X63690Y31480D01*
X63696Y31471D01*
X63700Y31460D01*
X63706Y31448D01*
X63712Y31434D01*
X63716Y31420D01*
X63720Y31402D01*
X63724Y31384D01*
X63726Y31363D01*
X63728Y31340D01*
X63729Y31316D01*
Y31153D01*
X63989D01*
Y31067D01*
X63349D01*
Y31330D01*
X63350Y31344D01*
X63351Y31360D01*
X63352Y31376D01*
X63354Y31392D01*
X63356Y31406D01*
Y31408D01*
X63357Y31414D01*
X63359Y31422D01*
X63362Y31434D01*
X63367Y31446D01*
X63372Y31459D01*
X63379Y31472D01*
X63386Y31484D01*
X63387Y31486D01*
X63390Y31490D01*
X63395Y31496D01*
X63402Y31503D01*
X63410Y31511D01*
X63421Y31520D01*
X63433Y31529D01*
X63447Y31536D01*
X63449Y31537D01*
X63454Y31539D01*
X63462Y31543D01*
X63473Y31546D01*
X63486Y31549D01*
X63501Y31553D01*
X63517Y31555D01*
X63535Y31556D01*
X63536D01*
X63539D01*
X63542D01*
X63549Y31555D01*
D02*
G37*
G36*
X63901Y30942D02*
X63902Y30940D01*
X63905Y30936D01*
X63908Y30932D01*
X63912Y30926D01*
X63917Y30920D01*
X63922Y30911D01*
X63928Y30903D01*
X63940Y30883D01*
X63953Y30861D01*
X63965Y30838D01*
X63975Y30813D01*
Y30812D01*
X63976Y30810D01*
X63977Y30807D01*
X63979Y30802D01*
X63981Y30796D01*
X63983Y30788D01*
X63985Y30780D01*
X63987Y30772D01*
X63992Y30751D01*
X63996Y30728D01*
X63999Y30703D01*
X64000Y30677D01*
Y30668D01*
X63999Y30662D01*
Y30653D01*
X63998Y30643D01*
X63996Y30632D01*
X63995Y30620D01*
X63990Y30593D01*
X63983Y30564D01*
X63973Y30535D01*
X63968Y30520D01*
X63960Y30505D01*
X63959Y30504D01*
X63958Y30502D01*
X63956Y30498D01*
X63953Y30492D01*
X63948Y30486D01*
X63944Y30479D01*
X63931Y30462D01*
X63914Y30443D01*
X63894Y30424D01*
X63871Y30405D01*
X63844Y30389D01*
X63843D01*
X63840Y30387D01*
X63836Y30385D01*
X63830Y30382D01*
X63823Y30380D01*
X63814Y30377D01*
X63805Y30373D01*
X63794Y30369D01*
X63782Y30366D01*
X63768Y30362D01*
X63754Y30359D01*
X63739Y30356D01*
X63707Y30352D01*
X63673Y30350D01*
X63672D01*
X63668D01*
X63663D01*
X63657Y30351D01*
X63649D01*
X63639Y30352D01*
X63628Y30354D01*
X63616Y30355D01*
X63603Y30357D01*
X63590Y30359D01*
X63560Y30367D01*
X63529Y30376D01*
X63499Y30389D01*
X63498Y30390D01*
X63495Y30391D01*
X63492Y30393D01*
X63486Y30396D01*
X63479Y30400D01*
X63471Y30405D01*
X63454Y30417D01*
X63433Y30433D01*
X63414Y30453D01*
X63394Y30475D01*
X63386Y30488D01*
X63378Y30501D01*
X63377Y30502D01*
X63376Y30504D01*
X63374Y30508D01*
X63371Y30514D01*
X63369Y30521D01*
X63365Y30529D01*
X63361Y30539D01*
X63357Y30550D01*
X63354Y30562D01*
X63351Y30575D01*
X63347Y30589D01*
X63344Y30603D01*
X63340Y30636D01*
X63338Y30652D01*
Y30682D01*
X63339Y30687D01*
Y30695D01*
X63341Y30712D01*
X63344Y30732D01*
X63348Y30752D01*
X63354Y30774D01*
X63361Y30796D01*
Y30797D01*
X63362Y30798D01*
X63363Y30801D01*
X63365Y30805D01*
X63370Y30815D01*
X63377Y30828D01*
X63386Y30842D01*
X63397Y30857D01*
X63409Y30871D01*
X63424Y30883D01*
X63426Y30885D01*
X63431Y30889D01*
X63440Y30895D01*
X63452Y30902D01*
X63467Y30909D01*
X63485Y30918D01*
X63505Y30926D01*
X63528Y30932D01*
X63549Y30856D01*
X63548D01*
X63547Y30855D01*
X63544Y30854D01*
X63541Y30853D01*
X63532Y30850D01*
X63521Y30846D01*
X63508Y30841D01*
X63496Y30834D01*
X63483Y30828D01*
X63472Y30820D01*
X63471Y30819D01*
X63467Y30816D01*
X63463Y30810D01*
X63456Y30804D01*
X63449Y30796D01*
X63442Y30785D01*
X63434Y30773D01*
X63428Y30759D01*
X63427Y30757D01*
X63425Y30752D01*
X63422Y30744D01*
X63418Y30733D01*
X63416Y30720D01*
X63413Y30705D01*
X63411Y30688D01*
X63410Y30671D01*
Y30661D01*
X63411Y30656D01*
Y30650D01*
X63412Y30637D01*
X63415Y30621D01*
X63418Y30603D01*
X63422Y30587D01*
X63429Y30570D01*
X63430Y30568D01*
X63431Y30563D01*
X63436Y30555D01*
X63441Y30546D01*
X63448Y30535D01*
X63455Y30523D01*
X63465Y30512D01*
X63475Y30502D01*
X63476Y30501D01*
X63479Y30497D01*
X63486Y30492D01*
X63493Y30487D01*
X63503Y30480D01*
X63514Y30474D01*
X63526Y30467D01*
X63539Y30461D01*
X63540D01*
X63541Y30460D01*
X63544Y30459D01*
X63549Y30457D01*
X63554Y30455D01*
X63561Y30454D01*
X63568Y30451D01*
X63577Y30449D01*
X63596Y30444D01*
X63618Y30441D01*
X63641Y30438D01*
X63667Y30437D01*
X63668D01*
X63671D01*
X63675D01*
X63681Y30438D01*
X63688D01*
X63698Y30439D01*
X63707Y30440D01*
X63717Y30441D01*
X63740Y30444D01*
X63764Y30449D01*
X63788Y30456D01*
X63811Y30466D01*
X63812D01*
X63814Y30467D01*
X63817Y30468D01*
X63821Y30471D01*
X63831Y30478D01*
X63844Y30488D01*
X63858Y30500D01*
X63871Y30515D01*
X63884Y30532D01*
X63896Y30552D01*
Y30552D01*
X63897Y30554D01*
X63899Y30557D01*
X63901Y30562D01*
X63903Y30566D01*
X63905Y30573D01*
X63910Y30588D01*
X63915Y30606D01*
X63920Y30626D01*
X63923Y30649D01*
X63924Y30672D01*
Y30681D01*
X63923Y30687D01*
Y30692D01*
X63921Y30706D01*
X63920Y30723D01*
X63916Y30740D01*
X63910Y30760D01*
X63904Y30779D01*
Y30780D01*
X63903Y30782D01*
X63902Y30784D01*
X63900Y30787D01*
X63896Y30797D01*
X63890Y30809D01*
X63884Y30822D01*
X63876Y30835D01*
X63868Y30848D01*
X63859Y30859D01*
X63738D01*
Y30671D01*
X63663D01*
Y30943D01*
X63900D01*
X63901Y30942D01*
D02*
G37*
G36*
X28832Y28653D02*
X28844Y28651D01*
X28859Y28648D01*
X28876Y28643D01*
X28892Y28638D01*
X28909Y28631D01*
X28910D01*
X28911Y28630D01*
X28916Y28627D01*
X28925Y28621D01*
X28934Y28615D01*
X28945Y28606D01*
X28956Y28595D01*
X28967Y28583D01*
X28976Y28570D01*
X28977Y28568D01*
X28980Y28563D01*
X28984Y28555D01*
X28988Y28545D01*
X28993Y28533D01*
X28997Y28519D01*
X28999Y28503D01*
X29000Y28487D01*
Y28485D01*
Y28480D01*
X28999Y28472D01*
X28998Y28462D01*
X28995Y28450D01*
X28990Y28437D01*
X28985Y28424D01*
X28977Y28411D01*
X28976Y28410D01*
X28974Y28406D01*
X28968Y28399D01*
X28961Y28392D01*
X28951Y28384D01*
X28940Y28374D01*
X28927Y28366D01*
X28912Y28358D01*
X28913D01*
X28914Y28357D01*
X28917Y28356D01*
X28921Y28355D01*
X28931Y28351D01*
X28944Y28346D01*
X28959Y28338D01*
X28974Y28329D01*
X28987Y28317D01*
X29000Y28303D01*
X29001Y28301D01*
X29005Y28296D01*
X29011Y28287D01*
X29016Y28275D01*
X29022Y28260D01*
X29027Y28242D01*
X29031Y28222D01*
X29032Y28200D01*
Y28199D01*
Y28196D01*
Y28191D01*
X29031Y28186D01*
X29030Y28178D01*
X29028Y28170D01*
X29026Y28161D01*
X29024Y28151D01*
X29017Y28128D01*
X29011Y28116D01*
X29006Y28105D01*
X28999Y28093D01*
X28990Y28081D01*
X28981Y28069D01*
X28970Y28058D01*
X28969Y28057D01*
X28967Y28055D01*
X28963Y28053D01*
X28959Y28049D01*
X28953Y28044D01*
X28946Y28040D01*
X28937Y28034D01*
X28927Y28030D01*
X28917Y28024D01*
X28905Y28018D01*
X28893Y28014D01*
X28879Y28009D01*
X28864Y28006D01*
X28849Y28003D01*
X28833Y28001D01*
X28815Y28000D01*
X28807D01*
X28802Y28001D01*
X28794Y28002D01*
X28786Y28003D01*
X28777Y28005D01*
X28766Y28006D01*
X28744Y28012D01*
X28721Y28021D01*
X28709Y28027D01*
X28698Y28033D01*
X28687Y28042D01*
X28676Y28050D01*
X28675Y28051D01*
X28673Y28053D01*
X28670Y28055D01*
X28668Y28059D01*
X28663Y28064D01*
X28658Y28070D01*
X28653Y28077D01*
X28647Y28085D01*
X28642Y28094D01*
X28636Y28104D01*
X28626Y28126D01*
X28618Y28152D01*
X28615Y28165D01*
X28613Y28180D01*
X28692Y28190D01*
Y28190D01*
X28692Y28188D01*
X28693Y28184D01*
X28694Y28179D01*
X28695Y28174D01*
X28697Y28167D01*
X28702Y28153D01*
X28708Y28137D01*
X28717Y28121D01*
X28726Y28106D01*
X28737Y28093D01*
X28739Y28092D01*
X28742Y28089D01*
X28750Y28084D01*
X28759Y28080D01*
X28770Y28074D01*
X28784Y28069D01*
X28800Y28066D01*
X28816Y28065D01*
X28822D01*
X28826Y28066D01*
X28836Y28067D01*
X28849Y28069D01*
X28864Y28074D01*
X28879Y28080D01*
X28895Y28090D01*
X28910Y28103D01*
X28912Y28104D01*
X28916Y28110D01*
X28922Y28118D01*
X28929Y28129D01*
X28937Y28143D01*
X28942Y28159D01*
X28947Y28177D01*
X28949Y28198D01*
Y28199D01*
Y28201D01*
Y28203D01*
X28948Y28207D01*
X28947Y28217D01*
X28944Y28229D01*
X28940Y28244D01*
X28934Y28259D01*
X28925Y28274D01*
X28913Y28288D01*
X28911Y28289D01*
X28906Y28293D01*
X28899Y28299D01*
X28888Y28305D01*
X28876Y28312D01*
X28860Y28317D01*
X28842Y28321D01*
X28823Y28323D01*
X28815D01*
X28808Y28322D01*
X28800Y28321D01*
X28790Y28319D01*
X28779Y28317D01*
X28767Y28314D01*
X28777Y28384D01*
X28781D01*
X28785Y28383D01*
X28797D01*
X28807Y28385D01*
X28819Y28386D01*
X28833Y28389D01*
X28849Y28394D01*
X28864Y28400D01*
X28879Y28409D01*
X28880D01*
X28881Y28410D01*
X28886Y28413D01*
X28892Y28420D01*
X28900Y28428D01*
X28907Y28440D01*
X28913Y28454D01*
X28918Y28470D01*
X28920Y28479D01*
Y28489D01*
Y28490D01*
Y28491D01*
Y28496D01*
X28918Y28504D01*
X28916Y28514D01*
X28913Y28525D01*
X28908Y28537D01*
X28901Y28549D01*
X28890Y28560D01*
X28889Y28561D01*
X28885Y28565D01*
X28878Y28570D01*
X28870Y28575D01*
X28859Y28580D01*
X28846Y28584D01*
X28831Y28588D01*
X28815Y28589D01*
X28807D01*
X28799Y28587D01*
X28788Y28585D01*
X28776Y28582D01*
X28764Y28577D01*
X28751Y28570D01*
X28739Y28560D01*
X28738Y28559D01*
X28734Y28555D01*
X28729Y28548D01*
X28722Y28539D01*
X28716Y28527D01*
X28709Y28512D01*
X28704Y28495D01*
X28700Y28474D01*
X28621Y28488D01*
Y28489D01*
X28622Y28492D01*
X28623Y28496D01*
X28624Y28501D01*
X28626Y28508D01*
X28629Y28515D01*
X28634Y28533D01*
X28643Y28553D01*
X28655Y28573D01*
X28668Y28593D01*
X28686Y28610D01*
X28687Y28611D01*
X28689Y28612D01*
X28692Y28614D01*
X28695Y28617D01*
X28700Y28620D01*
X28706Y28624D01*
X28713Y28628D01*
X28721Y28632D01*
X28740Y28640D01*
X28761Y28647D01*
X28786Y28652D01*
X28799Y28654D01*
X28822D01*
X28832Y28653D01*
D02*
G37*
G36*
X28503Y28281D02*
Y28280D01*
Y28276D01*
Y28272D01*
Y28265D01*
X28502Y28257D01*
Y28248D01*
X28501Y28237D01*
X28500Y28226D01*
X28497Y28201D01*
X28494Y28175D01*
X28488Y28150D01*
X28484Y28138D01*
X28481Y28127D01*
Y28126D01*
X28480Y28124D01*
X28478Y28121D01*
X28476Y28117D01*
X28471Y28107D01*
X28462Y28094D01*
X28451Y28080D01*
X28438Y28065D01*
X28422Y28049D01*
X28401Y28035D01*
X28400D01*
X28398Y28033D01*
X28396Y28032D01*
X28391Y28030D01*
X28386Y28027D01*
X28378Y28024D01*
X28371Y28021D01*
X28361Y28018D01*
X28351Y28014D01*
X28340Y28011D01*
X28328Y28008D01*
X28314Y28006D01*
X28300Y28004D01*
X28286Y28002D01*
X28252Y28000D01*
X28244D01*
X28238Y28001D01*
X28230D01*
X28221Y28002D01*
X28211Y28003D01*
X28201Y28004D01*
X28177Y28007D01*
X28153Y28013D01*
X28128Y28020D01*
X28105Y28031D01*
X28104D01*
X28103Y28032D01*
X28100Y28034D01*
X28096Y28036D01*
X28086Y28043D01*
X28074Y28054D01*
X28060Y28067D01*
X28047Y28081D01*
X28034Y28100D01*
X28024Y28120D01*
Y28121D01*
X28023Y28123D01*
X28022Y28127D01*
X28020Y28131D01*
X28018Y28137D01*
X28017Y28144D01*
X28014Y28153D01*
X28012Y28163D01*
X28010Y28174D01*
X28007Y28186D01*
X28006Y28199D01*
X28004Y28213D01*
X28002Y28228D01*
X28001Y28245D01*
X28000Y28263D01*
Y28281D01*
Y28651D01*
X28085D01*
Y28281D01*
Y28280D01*
Y28277D01*
Y28273D01*
Y28267D01*
X28086Y28261D01*
Y28252D01*
X28087Y28235D01*
X28089Y28214D01*
X28092Y28194D01*
X28095Y28175D01*
X28097Y28166D01*
X28100Y28158D01*
X28101Y28156D01*
X28103Y28152D01*
X28107Y28145D01*
X28113Y28136D01*
X28119Y28127D01*
X28128Y28116D01*
X28140Y28106D01*
X28153Y28098D01*
X28154Y28097D01*
X28159Y28094D01*
X28167Y28092D01*
X28178Y28088D01*
X28191Y28083D01*
X28208Y28080D01*
X28226Y28078D01*
X28245Y28077D01*
X28254D01*
X28260Y28078D01*
X28268D01*
X28276Y28079D01*
X28297Y28082D01*
X28319Y28087D01*
X28340Y28094D01*
X28361Y28104D01*
X28370Y28111D01*
X28378Y28118D01*
X28379Y28119D01*
X28380Y28120D01*
X28382Y28123D01*
X28385Y28127D01*
X28387Y28132D01*
X28391Y28138D01*
X28395Y28146D01*
X28398Y28154D01*
X28402Y28165D01*
X28405Y28177D01*
X28409Y28190D01*
X28411Y28205D01*
X28414Y28222D01*
X28416Y28239D01*
X28418Y28260D01*
Y28281D01*
Y28651D01*
X28503D01*
Y28281D01*
D02*
G37*
G36*
X22909Y41000D02*
X22830D01*
Y41500D01*
X22829Y41499D01*
X22825Y41496D01*
X22819Y41490D01*
X22810Y41484D01*
X22800Y41475D01*
X22787Y41466D01*
X22772Y41456D01*
X22755Y41446D01*
X22754D01*
X22753Y41445D01*
X22748Y41441D01*
X22739Y41436D01*
X22728Y41431D01*
X22715Y41424D01*
X22701Y41418D01*
X22687Y41411D01*
X22673Y41406D01*
Y41482D01*
X22674D01*
X22676Y41484D01*
X22680Y41484D01*
X22684Y41487D01*
X22690Y41490D01*
X22696Y41494D01*
X22712Y41503D01*
X22730Y41513D01*
X22749Y41526D01*
X22768Y41541D01*
X22788Y41557D01*
X22789Y41557D01*
X22790Y41558D01*
X22792Y41561D01*
X22796Y41564D01*
X22804Y41573D01*
X22815Y41584D01*
X22827Y41597D01*
X22839Y41612D01*
X22849Y41627D01*
X22858Y41643D01*
X22909D01*
Y41000D01*
D02*
G37*
G36*
X22263Y41639D02*
X22281Y41638D01*
X22300Y41636D01*
X22318Y41633D01*
X22334Y41631D01*
X22335D01*
X22337Y41630D01*
X22339D01*
X22343Y41628D01*
X22353Y41625D01*
X22366Y41620D01*
X22381Y41614D01*
X22397Y41606D01*
X22412Y41596D01*
X22427Y41584D01*
X22428Y41583D01*
X22429Y41582D01*
X22432Y41580D01*
X22435Y41577D01*
X22445Y41568D01*
X22456Y41555D01*
X22468Y41539D01*
X22481Y41521D01*
X22493Y41499D01*
X22503Y41475D01*
Y41474D01*
X22504Y41472D01*
X22506Y41469D01*
X22507Y41463D01*
X22509Y41457D01*
X22511Y41449D01*
X22513Y41441D01*
X22516Y41431D01*
X22519Y41421D01*
X22521Y41409D01*
X22525Y41383D01*
X22528Y41354D01*
X22529Y41323D01*
Y41322D01*
Y41320D01*
Y41315D01*
Y41311D01*
X22528Y41304D01*
Y41297D01*
X22527Y41279D01*
X22524Y41259D01*
X22521Y41238D01*
X22517Y41215D01*
X22511Y41193D01*
Y41192D01*
X22510Y41190D01*
X22509Y41188D01*
X22508Y41184D01*
X22505Y41174D01*
X22499Y41161D01*
X22494Y41146D01*
X22486Y41131D01*
X22477Y41116D01*
X22468Y41101D01*
X22467Y41099D01*
X22463Y41094D01*
X22458Y41088D01*
X22450Y41079D01*
X22442Y41070D01*
X22432Y41061D01*
X22422Y41051D01*
X22410Y41043D01*
X22408Y41042D01*
X22404Y41039D01*
X22398Y41035D01*
X22388Y41030D01*
X22377Y41025D01*
X22364Y41020D01*
X22349Y41015D01*
X22333Y41010D01*
X22331D01*
X22328Y41009D01*
X22325Y41008D01*
X22316Y41007D01*
X22303Y41006D01*
X22288Y41004D01*
X22271Y41002D01*
X22251Y41001D01*
X22230Y41000D01*
X22000D01*
Y41640D01*
X22246D01*
X22263Y41639D01*
D02*
G37*
G36*
X22840Y90642D02*
X22848Y90641D01*
X22857Y90640D01*
X22867Y90638D01*
X22877Y90636D01*
X22901Y90630D01*
X22925Y90620D01*
X22937Y90615D01*
X22950Y90608D01*
X22961Y90600D01*
X22971Y90591D01*
X22972Y90590D01*
X22974Y90589D01*
X22975Y90585D01*
X22979Y90582D01*
X22984Y90577D01*
X22988Y90570D01*
X22993Y90564D01*
X22999Y90556D01*
X23008Y90538D01*
X23017Y90516D01*
X23021Y90505D01*
X23023Y90492D01*
X23024Y90479D01*
X23025Y90465D01*
Y90463D01*
Y90459D01*
X23024Y90451D01*
X23023Y90441D01*
X23022Y90430D01*
X23018Y90417D01*
X23014Y90403D01*
X23009Y90389D01*
X23008Y90387D01*
X23006Y90383D01*
X23002Y90375D01*
X22997Y90365D01*
X22989Y90354D01*
X22980Y90340D01*
X22969Y90326D01*
X22956Y90311D01*
X22954Y90309D01*
X22950Y90303D01*
X22945Y90299D01*
X22940Y90294D01*
X22935Y90288D01*
X22927Y90281D01*
X22920Y90274D01*
X22911Y90265D01*
X22901Y90256D01*
X22890Y90246D01*
X22878Y90236D01*
X22865Y90224D01*
X22851Y90212D01*
X22836Y90199D01*
X22835Y90198D01*
X22833Y90196D01*
X22829Y90193D01*
X22825Y90190D01*
X22819Y90184D01*
X22813Y90178D01*
X22798Y90166D01*
X22782Y90153D01*
X22767Y90139D01*
X22754Y90127D01*
X22749Y90122D01*
X22744Y90117D01*
X22743Y90116D01*
X22741Y90114D01*
X22737Y90110D01*
X22732Y90104D01*
X22728Y90098D01*
X22722Y90092D01*
X22711Y90076D01*
X23026D01*
Y90000D01*
X22602D01*
Y90001D01*
Y90005D01*
Y90010D01*
X22603Y90018D01*
X22604Y90026D01*
X22606Y90035D01*
X22607Y90044D01*
X22611Y90055D01*
Y90055D01*
X22612Y90056D01*
X22614Y90062D01*
X22618Y90070D01*
X22623Y90081D01*
X22631Y90094D01*
X22640Y90109D01*
X22650Y90124D01*
X22663Y90140D01*
Y90141D01*
X22665Y90141D01*
X22669Y90147D01*
X22678Y90155D01*
X22690Y90167D01*
X22704Y90181D01*
X22721Y90198D01*
X22742Y90216D01*
X22766Y90236D01*
X22766Y90237D01*
X22770Y90239D01*
X22776Y90244D01*
X22782Y90250D01*
X22790Y90257D01*
X22801Y90265D01*
X22811Y90275D01*
X22823Y90285D01*
X22846Y90307D01*
X22869Y90329D01*
X22880Y90340D01*
X22890Y90351D01*
X22900Y90361D01*
X22907Y90372D01*
Y90373D01*
X22909Y90374D01*
X22911Y90376D01*
X22913Y90380D01*
X22919Y90390D01*
X22926Y90402D01*
X22933Y90417D01*
X22939Y90433D01*
X22943Y90450D01*
X22945Y90467D01*
Y90468D01*
Y90469D01*
X22944Y90474D01*
X22943Y90484D01*
X22940Y90494D01*
X22937Y90507D01*
X22930Y90520D01*
X22922Y90533D01*
X22911Y90545D01*
X22909Y90547D01*
X22904Y90551D01*
X22898Y90556D01*
X22888Y90562D01*
X22875Y90568D01*
X22860Y90573D01*
X22842Y90577D01*
X22823Y90578D01*
X22817D01*
X22814Y90577D01*
X22802Y90576D01*
X22790Y90573D01*
X22776Y90570D01*
X22760Y90563D01*
X22745Y90555D01*
X22731Y90544D01*
X22729Y90542D01*
X22726Y90537D01*
X22720Y90530D01*
X22715Y90519D01*
X22708Y90506D01*
X22703Y90489D01*
X22699Y90471D01*
X22697Y90449D01*
X22617Y90458D01*
Y90459D01*
X22618Y90461D01*
Y90466D01*
X22619Y90472D01*
X22620Y90480D01*
X22622Y90488D01*
X22625Y90498D01*
X22628Y90508D01*
X22635Y90531D01*
X22646Y90553D01*
X22653Y90564D01*
X22661Y90575D01*
X22669Y90585D01*
X22679Y90594D01*
X22680Y90595D01*
X22681Y90596D01*
X22684Y90599D01*
X22689Y90602D01*
X22694Y90606D01*
X22701Y90609D01*
X22708Y90614D01*
X22717Y90619D01*
X22728Y90623D01*
X22739Y90628D01*
X22751Y90631D01*
X22764Y90635D01*
X22778Y90638D01*
X22792Y90641D01*
X22808Y90642D01*
X22825Y90643D01*
X22834D01*
X22840Y90642D01*
D02*
G37*
G36*
X22263Y90639D02*
X22281Y90638D01*
X22300Y90636D01*
X22318Y90633D01*
X22334Y90631D01*
X22335D01*
X22337Y90630D01*
X22339D01*
X22343Y90628D01*
X22353Y90625D01*
X22366Y90620D01*
X22381Y90614D01*
X22397Y90606D01*
X22412Y90596D01*
X22427Y90584D01*
X22428Y90583D01*
X22429Y90582D01*
X22432Y90580D01*
X22435Y90577D01*
X22445Y90568D01*
X22456Y90555D01*
X22468Y90539D01*
X22481Y90521D01*
X22493Y90499D01*
X22503Y90475D01*
Y90474D01*
X22504Y90472D01*
X22506Y90469D01*
X22507Y90463D01*
X22509Y90457D01*
X22511Y90449D01*
X22513Y90441D01*
X22516Y90431D01*
X22519Y90421D01*
X22521Y90409D01*
X22525Y90383D01*
X22528Y90354D01*
X22529Y90323D01*
Y90322D01*
Y90320D01*
Y90315D01*
Y90311D01*
X22528Y90304D01*
Y90297D01*
X22527Y90279D01*
X22524Y90259D01*
X22521Y90238D01*
X22517Y90215D01*
X22511Y90193D01*
Y90192D01*
X22510Y90190D01*
X22509Y90188D01*
X22508Y90184D01*
X22505Y90174D01*
X22499Y90161D01*
X22494Y90146D01*
X22486Y90131D01*
X22477Y90116D01*
X22468Y90101D01*
X22467Y90099D01*
X22463Y90094D01*
X22458Y90088D01*
X22450Y90079D01*
X22442Y90070D01*
X22432Y90061D01*
X22422Y90051D01*
X22410Y90043D01*
X22408Y90042D01*
X22404Y90039D01*
X22398Y90035D01*
X22388Y90031D01*
X22377Y90025D01*
X22364Y90020D01*
X22349Y90015D01*
X22333Y90010D01*
X22331D01*
X22328Y90009D01*
X22325Y90008D01*
X22316Y90007D01*
X22303Y90006D01*
X22288Y90004D01*
X22271Y90002D01*
X22251Y90001D01*
X22230Y90000D01*
X22000D01*
Y90640D01*
X22246D01*
X22263Y90639D01*
D02*
G37*
G36*
X61847Y50942D02*
X62000D01*
Y50864D01*
X61847D01*
Y50585D01*
X61774D01*
X61360Y50878D01*
Y50942D01*
X61774D01*
Y51029D01*
X61847D01*
Y50942D01*
D02*
G37*
G36*
X62000Y50457D02*
X61867Y50373D01*
X61866D01*
X61864Y50371D01*
X61861Y50369D01*
X61858Y50366D01*
X61847Y50360D01*
X61835Y50351D01*
X61821Y50341D01*
X61806Y50331D01*
X61792Y50321D01*
X61779Y50312D01*
X61778Y50311D01*
X61774Y50308D01*
X61769Y50303D01*
X61762Y50297D01*
X61749Y50283D01*
X61742Y50276D01*
X61737Y50268D01*
X61736Y50267D01*
X61735Y50265D01*
X61733Y50262D01*
X61730Y50256D01*
X61727Y50251D01*
X61724Y50244D01*
X61720Y50229D01*
Y50228D01*
X61719Y50227D01*
Y50223D01*
X61718Y50218D01*
X61717Y50212D01*
Y50204D01*
X61716Y50194D01*
Y50085D01*
X62000D01*
Y50000D01*
X61360D01*
Y50297D01*
X61361Y50304D01*
Y50312D01*
X61362Y50332D01*
X61365Y50352D01*
X61368Y50374D01*
X61372Y50395D01*
X61375Y50405D01*
X61378Y50413D01*
Y50414D01*
X61379Y50415D01*
X61381Y50421D01*
X61385Y50429D01*
X61392Y50439D01*
X61400Y50450D01*
X61411Y50462D01*
X61424Y50473D01*
X61439Y50484D01*
X61440D01*
X61441Y50485D01*
X61446Y50489D01*
X61455Y50493D01*
X61467Y50498D01*
X61481Y50503D01*
X61498Y50508D01*
X61516Y50510D01*
X61535Y50511D01*
X61536D01*
X61538D01*
X61541D01*
X61546Y50510D01*
X61553D01*
X61559Y50509D01*
X61575Y50506D01*
X61593Y50500D01*
X61613Y50493D01*
X61632Y50482D01*
X61641Y50474D01*
X61651Y50467D01*
X61651Y50466D01*
X61652Y50465D01*
X61655Y50462D01*
X61658Y50459D01*
X61662Y50454D01*
X61665Y50448D01*
X61670Y50441D01*
X61675Y50434D01*
X61680Y50424D01*
X61685Y50414D01*
X61690Y50403D01*
X61695Y50391D01*
X61699Y50377D01*
X61703Y50363D01*
X61706Y50348D01*
X61709Y50331D01*
X61710Y50333D01*
X61712Y50337D01*
X61715Y50342D01*
X61719Y50349D01*
X61729Y50366D01*
X61736Y50374D01*
X61741Y50382D01*
X61743Y50384D01*
X61748Y50388D01*
X61755Y50396D01*
X61764Y50405D01*
X61777Y50415D01*
X61791Y50427D01*
X61808Y50439D01*
X61826Y50452D01*
X62000Y50562D01*
Y50457D01*
D02*
G37*
G36*
X52000Y50829D02*
X51500D01*
X51501Y50828D01*
X51504Y50824D01*
X51510Y50818D01*
X51516Y50809D01*
X51525Y50799D01*
X51534Y50786D01*
X51544Y50771D01*
X51554Y50754D01*
Y50754D01*
X51555Y50753D01*
X51559Y50747D01*
X51564Y50738D01*
X51569Y50727D01*
X51576Y50714D01*
X51582Y50700D01*
X51589Y50686D01*
X51594Y50672D01*
X51518D01*
Y50673D01*
X51516Y50675D01*
X51516Y50679D01*
X51513Y50683D01*
X51510Y50689D01*
X51506Y50695D01*
X51497Y50711D01*
X51487Y50729D01*
X51474Y50748D01*
X51459Y50767D01*
X51443Y50787D01*
X51443Y50788D01*
X51442Y50789D01*
X51439Y50791D01*
X51436Y50795D01*
X51427Y50803D01*
X51416Y50815D01*
X51403Y50826D01*
X51388Y50838D01*
X51373Y50848D01*
X51357Y50857D01*
Y50908D01*
X52000D01*
Y50829D01*
D02*
G37*
G36*
Y50457D02*
X51867Y50373D01*
X51866D01*
X51864Y50371D01*
X51861Y50369D01*
X51858Y50366D01*
X51847Y50360D01*
X51835Y50351D01*
X51821Y50341D01*
X51806Y50331D01*
X51792Y50321D01*
X51779Y50312D01*
X51778Y50311D01*
X51774Y50308D01*
X51769Y50303D01*
X51762Y50297D01*
X51749Y50283D01*
X51742Y50276D01*
X51737Y50268D01*
X51736Y50267D01*
X51735Y50265D01*
X51733Y50262D01*
X51730Y50256D01*
X51727Y50251D01*
X51724Y50244D01*
X51720Y50229D01*
Y50228D01*
X51719Y50227D01*
Y50223D01*
X51718Y50218D01*
X51717Y50212D01*
Y50204D01*
X51716Y50194D01*
Y50085D01*
X52000D01*
Y50000D01*
X51360D01*
Y50297D01*
X51361Y50304D01*
Y50312D01*
X51362Y50332D01*
X51365Y50352D01*
X51368Y50374D01*
X51372Y50395D01*
X51375Y50405D01*
X51378Y50413D01*
Y50414D01*
X51379Y50415D01*
X51381Y50421D01*
X51385Y50429D01*
X51392Y50439D01*
X51400Y50450D01*
X51411Y50462D01*
X51424Y50473D01*
X51439Y50484D01*
X51440D01*
X51441Y50485D01*
X51446Y50489D01*
X51455Y50493D01*
X51467Y50498D01*
X51481Y50503D01*
X51498Y50508D01*
X51516Y50510D01*
X51535Y50511D01*
X51536D01*
X51538D01*
X51541D01*
X51546Y50510D01*
X51553D01*
X51559Y50509D01*
X51575Y50506D01*
X51593Y50500D01*
X51613Y50493D01*
X51632Y50482D01*
X51641Y50474D01*
X51651Y50467D01*
X51651Y50466D01*
X51652Y50465D01*
X51655Y50462D01*
X51658Y50459D01*
X51662Y50454D01*
X51665Y50448D01*
X51670Y50441D01*
X51675Y50434D01*
X51680Y50424D01*
X51685Y50414D01*
X51690Y50403D01*
X51695Y50391D01*
X51699Y50377D01*
X51703Y50363D01*
X51706Y50348D01*
X51709Y50331D01*
X51710Y50333D01*
X51712Y50337D01*
X51715Y50342D01*
X51719Y50349D01*
X51729Y50366D01*
X51736Y50374D01*
X51741Y50382D01*
X51743Y50384D01*
X51748Y50388D01*
X51755Y50396D01*
X51764Y50405D01*
X51777Y50415D01*
X51791Y50427D01*
X51808Y50439D01*
X51826Y50452D01*
X52000Y50562D01*
Y50457D01*
D02*
G37*
G36*
X42851Y73703D02*
X42850Y73696D01*
Y73688D01*
X42849Y73668D01*
X42846Y73648D01*
X42843Y73626D01*
X42839Y73605D01*
X42836Y73595D01*
X42833Y73587D01*
Y73586D01*
X42832Y73585D01*
X42830Y73579D01*
X42826Y73571D01*
X42819Y73561D01*
X42811Y73550D01*
X42800Y73538D01*
X42787Y73527D01*
X42772Y73516D01*
X42771D01*
X42770Y73515D01*
X42765Y73511D01*
X42756Y73507D01*
X42744Y73502D01*
X42730Y73497D01*
X42713Y73492D01*
X42696Y73490D01*
X42676Y73489D01*
X42675D01*
X42673D01*
X42670D01*
X42665Y73490D01*
X42659D01*
X42652Y73491D01*
X42636Y73494D01*
X42618Y73500D01*
X42598Y73507D01*
X42579Y73518D01*
X42570Y73526D01*
X42561Y73533D01*
X42560Y73534D01*
X42559Y73535D01*
X42556Y73538D01*
X42553Y73541D01*
X42549Y73546D01*
X42546Y73552D01*
X42541Y73559D01*
X42536Y73566D01*
X42531Y73576D01*
X42526Y73586D01*
X42521Y73597D01*
X42516Y73609D01*
X42512Y73623D01*
X42508Y73637D01*
X42505Y73652D01*
X42502Y73669D01*
X42501Y73667D01*
X42500Y73663D01*
X42496Y73658D01*
X42492Y73651D01*
X42482Y73634D01*
X42476Y73626D01*
X42470Y73618D01*
X42468Y73616D01*
X42463Y73612D01*
X42456Y73604D01*
X42447Y73595D01*
X42434Y73585D01*
X42420Y73573D01*
X42403Y73561D01*
X42385Y73548D01*
X42211Y73438D01*
Y73543D01*
X42344Y73627D01*
X42345D01*
X42347Y73629D01*
X42350Y73631D01*
X42353Y73634D01*
X42364Y73640D01*
X42377Y73649D01*
X42390Y73659D01*
X42405Y73669D01*
X42419Y73679D01*
X42432Y73688D01*
X42433Y73689D01*
X42437Y73692D01*
X42442Y73697D01*
X42449Y73703D01*
X42463Y73717D01*
X42469Y73724D01*
X42475Y73732D01*
X42476Y73733D01*
X42476Y73735D01*
X42478Y73738D01*
X42481Y73744D01*
X42484Y73749D01*
X42487Y73756D01*
X42491Y73771D01*
Y73772D01*
X42492Y73773D01*
Y73777D01*
X42493Y73782D01*
X42494Y73788D01*
Y73796D01*
X42495Y73806D01*
Y73915D01*
X42211D01*
Y74000D01*
X42851D01*
Y73703D01*
D02*
G37*
G36*
X42527Y73391D02*
X42540D01*
X42555Y73390D01*
X42573Y73388D01*
X42592Y73386D01*
X42613Y73383D01*
X42635Y73380D01*
X42658Y73375D01*
X42680Y73369D01*
X42702Y73363D01*
X42723Y73355D01*
X42744Y73345D01*
X42763Y73335D01*
X42780Y73323D01*
X42781Y73322D01*
X42782Y73320D01*
X42786Y73317D01*
X42792Y73312D01*
X42797Y73307D01*
X42803Y73299D01*
X42810Y73290D01*
X42817Y73281D01*
X42823Y73270D01*
X42831Y73258D01*
X42836Y73244D01*
X42843Y73230D01*
X42847Y73214D01*
X42851Y73197D01*
X42853Y73180D01*
X42854Y73161D01*
Y73154D01*
X42853Y73148D01*
Y73142D01*
X42852Y73135D01*
X42848Y73117D01*
X42843Y73098D01*
X42836Y73077D01*
X42825Y73057D01*
X42819Y73047D01*
X42811Y73038D01*
X42810Y73037D01*
X42809Y73036D01*
X42806Y73033D01*
X42804Y73030D01*
X42799Y73026D01*
X42794Y73022D01*
X42781Y73012D01*
X42764Y73001D01*
X42744Y72992D01*
X42721Y72984D01*
X42695Y72978D01*
X42688Y73057D01*
X42689D01*
X42690Y73058D01*
X42696Y73059D01*
X42704Y73062D01*
X42714Y73065D01*
X42725Y73069D01*
X42736Y73075D01*
X42746Y73081D01*
X42755Y73087D01*
X42757Y73089D01*
X42760Y73093D01*
X42766Y73099D01*
X42772Y73109D01*
X42778Y73121D01*
X42783Y73134D01*
X42787Y73149D01*
X42789Y73166D01*
Y73173D01*
X42788Y73180D01*
X42786Y73188D01*
X42783Y73199D01*
X42780Y73210D01*
X42775Y73222D01*
X42768Y73233D01*
X42767Y73234D01*
X42763Y73239D01*
X42757Y73246D01*
X42747Y73254D01*
X42736Y73263D01*
X42723Y73273D01*
X42707Y73283D01*
X42688Y73292D01*
X42687D01*
X42685Y73293D01*
X42683Y73294D01*
X42679Y73296D01*
X42673Y73296D01*
X42667Y73298D01*
X42659Y73300D01*
X42650Y73302D01*
X42640Y73305D01*
X42629Y73307D01*
X42617Y73308D01*
X42604Y73309D01*
X42589Y73311D01*
X42574Y73312D01*
X42558Y73313D01*
X42541D01*
X42542Y73312D01*
X42548Y73308D01*
X42555Y73302D01*
X42564Y73294D01*
X42575Y73284D01*
X42586Y73272D01*
X42596Y73259D01*
X42605Y73245D01*
Y73244D01*
X42606Y73243D01*
X42609Y73237D01*
X42611Y73229D01*
X42616Y73218D01*
X42620Y73205D01*
X42623Y73190D01*
X42625Y73174D01*
X42626Y73158D01*
Y73150D01*
X42625Y73145D01*
X42624Y73137D01*
X42623Y73130D01*
X42622Y73121D01*
X42619Y73112D01*
X42612Y73090D01*
X42608Y73079D01*
X42601Y73068D01*
X42595Y73057D01*
X42587Y73045D01*
X42578Y73034D01*
X42568Y73024D01*
X42567Y73023D01*
X42565Y73021D01*
X42562Y73018D01*
X42558Y73015D01*
X42551Y73011D01*
X42545Y73006D01*
X42537Y73001D01*
X42527Y72996D01*
X42517Y72990D01*
X42506Y72986D01*
X42493Y72981D01*
X42480Y72977D01*
X42466Y72974D01*
X42451Y72971D01*
X42435Y72969D01*
X42418Y72968D01*
X42417D01*
X42415D01*
X42413D01*
X42408D01*
X42402Y72969D01*
X42397D01*
X42382Y72972D01*
X42365Y72975D01*
X42346Y72979D01*
X42326Y72986D01*
X42306Y72995D01*
X42305D01*
X42304Y72996D01*
X42302Y72998D01*
X42298Y73000D01*
X42289Y73005D01*
X42277Y73014D01*
X42264Y73024D01*
X42251Y73036D01*
X42238Y73050D01*
X42227Y73066D01*
Y73067D01*
X42226Y73068D01*
X42224Y73071D01*
X42223Y73075D01*
X42218Y73084D01*
X42214Y73096D01*
X42208Y73112D01*
X42205Y73129D01*
X42201Y73148D01*
X42200Y73170D01*
Y73174D01*
X42201Y73179D01*
Y73186D01*
X42202Y73195D01*
X42204Y73204D01*
X42206Y73215D01*
X42209Y73226D01*
X42213Y73239D01*
X42218Y73252D01*
X42223Y73265D01*
X42230Y73279D01*
X42239Y73292D01*
X42248Y73305D01*
X42259Y73318D01*
X42272Y73330D01*
X42273Y73331D01*
X42276Y73332D01*
X42279Y73335D01*
X42286Y73339D01*
X42294Y73344D01*
X42304Y73349D01*
X42316Y73355D01*
X42328Y73360D01*
X42344Y73367D01*
X42362Y73372D01*
X42381Y73377D01*
X42402Y73381D01*
X42426Y73386D01*
X42452Y73389D01*
X42480Y73391D01*
X42510Y73392D01*
X42511D01*
X42512D01*
X42514D01*
X42518D01*
X42527Y73391D01*
D02*
G37*
G36*
X42651Y57703D02*
X42650Y57696D01*
Y57688D01*
X42649Y57668D01*
X42646Y57648D01*
X42643Y57626D01*
X42639Y57605D01*
X42636Y57595D01*
X42633Y57587D01*
Y57586D01*
X42632Y57585D01*
X42630Y57579D01*
X42626Y57571D01*
X42619Y57561D01*
X42611Y57550D01*
X42600Y57538D01*
X42587Y57527D01*
X42572Y57516D01*
X42571D01*
X42570Y57515D01*
X42565Y57511D01*
X42556Y57507D01*
X42544Y57502D01*
X42530Y57497D01*
X42513Y57492D01*
X42496Y57490D01*
X42476Y57489D01*
X42475D01*
X42473D01*
X42470D01*
X42465Y57490D01*
X42459D01*
X42452Y57491D01*
X42436Y57494D01*
X42418Y57500D01*
X42398Y57507D01*
X42379Y57518D01*
X42370Y57526D01*
X42361Y57533D01*
X42360Y57534D01*
X42359Y57535D01*
X42356Y57538D01*
X42353Y57541D01*
X42349Y57546D01*
X42346Y57552D01*
X42341Y57559D01*
X42336Y57566D01*
X42331Y57576D01*
X42326Y57586D01*
X42321Y57597D01*
X42316Y57609D01*
X42312Y57623D01*
X42308Y57637D01*
X42305Y57652D01*
X42302Y57669D01*
X42301Y57667D01*
X42300Y57663D01*
X42296Y57658D01*
X42292Y57651D01*
X42282Y57634D01*
X42276Y57626D01*
X42270Y57618D01*
X42268Y57616D01*
X42263Y57612D01*
X42256Y57604D01*
X42247Y57595D01*
X42234Y57585D01*
X42220Y57573D01*
X42203Y57561D01*
X42185Y57548D01*
X42011Y57438D01*
Y57543D01*
X42144Y57627D01*
X42145D01*
X42147Y57629D01*
X42150Y57631D01*
X42153Y57634D01*
X42164Y57640D01*
X42177Y57649D01*
X42190Y57659D01*
X42205Y57669D01*
X42219Y57679D01*
X42232Y57688D01*
X42233Y57689D01*
X42237Y57692D01*
X42242Y57697D01*
X42249Y57703D01*
X42263Y57717D01*
X42269Y57724D01*
X42275Y57732D01*
X42276Y57733D01*
X42276Y57735D01*
X42278Y57738D01*
X42281Y57744D01*
X42284Y57749D01*
X42287Y57756D01*
X42291Y57771D01*
Y57772D01*
X42292Y57773D01*
Y57777D01*
X42293Y57782D01*
X42294Y57788D01*
Y57796D01*
X42295Y57806D01*
Y57915D01*
X42011D01*
Y58000D01*
X42651D01*
Y57703D01*
D02*
G37*
G36*
X42185Y57306D02*
X42184D01*
X42182D01*
X42179Y57305D01*
X42175Y57304D01*
X42165Y57301D01*
X42151Y57297D01*
X42137Y57292D01*
X42121Y57284D01*
X42107Y57275D01*
X42094Y57264D01*
X42093Y57262D01*
X42090Y57259D01*
X42085Y57251D01*
X42079Y57241D01*
X42074Y57230D01*
X42069Y57216D01*
X42066Y57200D01*
X42065Y57183D01*
Y57177D01*
X42066Y57173D01*
X42067Y57162D01*
X42070Y57149D01*
X42075Y57134D01*
X42082Y57118D01*
X42093Y57101D01*
X42100Y57094D01*
X42107Y57087D01*
X42108Y57086D01*
X42109Y57085D01*
X42112Y57083D01*
X42115Y57080D01*
X42125Y57074D01*
X42138Y57066D01*
X42153Y57060D01*
X42173Y57053D01*
X42196Y57049D01*
X42208Y57047D01*
X42221D01*
X42222D01*
X42224D01*
X42227D01*
X42232Y57048D01*
X42238D01*
X42244Y57049D01*
X42259Y57051D01*
X42276Y57056D01*
X42294Y57062D01*
X42311Y57072D01*
X42326Y57085D01*
X42327D01*
X42328Y57087D01*
X42333Y57091D01*
X42339Y57099D01*
X42347Y57111D01*
X42353Y57125D01*
X42360Y57142D01*
X42364Y57161D01*
X42366Y57173D01*
Y57190D01*
X42365Y57197D01*
X42364Y57207D01*
X42361Y57218D01*
X42359Y57229D01*
X42354Y57241D01*
X42349Y57253D01*
X42348Y57254D01*
X42346Y57258D01*
X42341Y57263D01*
X42337Y57271D01*
X42330Y57278D01*
X42322Y57285D01*
X42313Y57294D01*
X42303Y57300D01*
X42313Y57374D01*
X42643Y57312D01*
Y56994D01*
X42568D01*
Y57250D01*
X42395Y57284D01*
X42396Y57283D01*
X42397Y57282D01*
X42398Y57279D01*
X42401Y57274D01*
X42404Y57269D01*
X42408Y57262D01*
X42415Y57247D01*
X42423Y57229D01*
X42429Y57209D01*
X42434Y57186D01*
X42435Y57175D01*
Y57155D01*
X42435Y57149D01*
X42434Y57142D01*
X42433Y57134D01*
X42431Y57124D01*
X42428Y57114D01*
X42422Y57092D01*
X42417Y57080D01*
X42410Y57068D01*
X42404Y57056D01*
X42397Y57044D01*
X42387Y57033D01*
X42377Y57022D01*
X42376Y57021D01*
X42374Y57019D01*
X42372Y57016D01*
X42367Y57013D01*
X42361Y57008D01*
X42354Y57003D01*
X42346Y56998D01*
X42337Y56992D01*
X42326Y56988D01*
X42315Y56982D01*
X42302Y56977D01*
X42289Y56973D01*
X42276Y56969D01*
X42260Y56966D01*
X42244Y56965D01*
X42227Y56964D01*
X42227D01*
X42224D01*
X42219D01*
X42213Y56965D01*
X42205Y56965D01*
X42197Y56966D01*
X42187Y56968D01*
X42177Y56970D01*
X42153Y56976D01*
X42128Y56985D01*
X42115Y56990D01*
X42103Y56998D01*
X42090Y57005D01*
X42078Y57014D01*
X42077Y57015D01*
X42074Y57017D01*
X42070Y57021D01*
X42066Y57026D01*
X42060Y57032D01*
X42053Y57039D01*
X42046Y57049D01*
X42039Y57059D01*
X42031Y57070D01*
X42025Y57083D01*
X42018Y57097D01*
X42012Y57112D01*
X42007Y57127D01*
X42004Y57145D01*
X42001Y57163D01*
X42000Y57183D01*
Y57191D01*
X42001Y57197D01*
X42002Y57205D01*
X42003Y57213D01*
X42004Y57223D01*
X42006Y57234D01*
X42012Y57257D01*
X42020Y57280D01*
X42026Y57292D01*
X42032Y57304D01*
X42040Y57315D01*
X42048Y57326D01*
X42049Y57327D01*
X42050Y57329D01*
X42054Y57331D01*
X42057Y57334D01*
X42062Y57339D01*
X42067Y57344D01*
X42075Y57349D01*
X42083Y57354D01*
X42092Y57359D01*
X42102Y57365D01*
X42124Y57375D01*
X42150Y57383D01*
X42164Y57386D01*
X42178Y57388D01*
X42185Y57306D01*
D02*
G37*
%LPC*%
G36*
X41252Y23039D02*
X40965D01*
X41252Y22838D01*
Y23039D01*
D02*
G37*
G36*
X42287Y88569D02*
X42085D01*
Y88357D01*
X42276D01*
X42287Y88358D01*
X42300Y88359D01*
X42314Y88360D01*
X42329Y88361D01*
X42344Y88364D01*
X42357Y88368D01*
X42359Y88369D01*
X42362Y88371D01*
X42368Y88374D01*
X42375Y88377D01*
X42384Y88383D01*
X42392Y88389D01*
X42400Y88398D01*
X42407Y88407D01*
X42408Y88408D01*
X42410Y88411D01*
X42412Y88417D01*
X42416Y88424D01*
X42419Y88433D01*
X42422Y88442D01*
X42423Y88453D01*
X42424Y88464D01*
Y88465D01*
Y88466D01*
X42423Y88472D01*
X42423Y88480D01*
X42421Y88491D01*
X42416Y88502D01*
X42410Y88515D01*
X42402Y88527D01*
X42391Y88539D01*
X42389Y88540D01*
X42385Y88544D01*
X42377Y88548D01*
X42365Y88554D01*
X42351Y88559D01*
X42333Y88564D01*
X42312Y88568D01*
X42287Y88569D01*
D02*
G37*
G36*
Y84580D02*
X42085D01*
Y84368D01*
X42276D01*
X42287Y84369D01*
X42300Y84370D01*
X42314Y84371D01*
X42329Y84373D01*
X42344Y84375D01*
X42357Y84379D01*
X42359Y84380D01*
X42362Y84382D01*
X42368Y84385D01*
X42375Y84388D01*
X42384Y84394D01*
X42392Y84400D01*
X42400Y84409D01*
X42407Y84418D01*
X42408Y84419D01*
X42410Y84423D01*
X42412Y84428D01*
X42416Y84435D01*
X42419Y84444D01*
X42422Y84453D01*
X42423Y84464D01*
X42424Y84475D01*
Y84476D01*
Y84477D01*
X42423Y84483D01*
X42423Y84491D01*
X42421Y84502D01*
X42416Y84513D01*
X42410Y84526D01*
X42402Y84538D01*
X42391Y84550D01*
X42389Y84551D01*
X42385Y84555D01*
X42377Y84559D01*
X42365Y84565D01*
X42351Y84570D01*
X42333Y84575D01*
X42312Y84579D01*
X42287Y84580D01*
D02*
G37*
G36*
X63525Y38396D02*
X63524D01*
X63523D01*
X63517Y38396D01*
X63509Y38395D01*
X63498Y38393D01*
X63487Y38388D01*
X63474Y38383D01*
X63462Y38374D01*
X63450Y38363D01*
X63449Y38361D01*
X63445Y38357D01*
X63441Y38349D01*
X63435Y38337D01*
X63430Y38323D01*
X63425Y38305D01*
X63421Y38284D01*
X63420Y38259D01*
Y38057D01*
X63632D01*
Y38248D01*
X63631Y38259D01*
X63630Y38272D01*
X63629Y38286D01*
X63627Y38301D01*
X63625Y38316D01*
X63621Y38329D01*
X63620Y38331D01*
X63618Y38334D01*
X63615Y38340D01*
X63612Y38347D01*
X63606Y38356D01*
X63600Y38364D01*
X63591Y38372D01*
X63582Y38379D01*
X63581Y38380D01*
X63577Y38382D01*
X63572Y38384D01*
X63565Y38388D01*
X63556Y38391D01*
X63547Y38394D01*
X63536Y38396D01*
X63525Y38396D01*
D02*
G37*
G36*
X63670Y37775D02*
X63669D01*
X63666D01*
X63663D01*
X63657D01*
X63651Y37774D01*
X63642D01*
X63634Y37773D01*
X63624Y37771D01*
X63602Y37769D01*
X63580Y37764D01*
X63556Y37758D01*
X63534Y37748D01*
X63533D01*
X63531Y37747D01*
X63528Y37746D01*
X63525Y37744D01*
X63514Y37737D01*
X63501Y37729D01*
X63486Y37718D01*
X63471Y37704D01*
X63456Y37688D01*
X63443Y37671D01*
Y37670D01*
X63442Y37669D01*
X63441Y37666D01*
X63438Y37661D01*
X63436Y37657D01*
X63433Y37651D01*
X63427Y37637D01*
X63421Y37621D01*
X63416Y37601D01*
X63412Y37579D01*
X63411Y37556D01*
Y37548D01*
X63412Y37541D01*
X63413Y37533D01*
X63415Y37525D01*
X63417Y37514D01*
X63418Y37503D01*
X63426Y37479D01*
X63431Y37466D01*
X63437Y37453D01*
X63444Y37440D01*
X63453Y37427D01*
X63462Y37414D01*
X63473Y37402D01*
X63474Y37401D01*
X63476Y37399D01*
X63479Y37396D01*
X63485Y37391D01*
X63492Y37387D01*
X63500Y37381D01*
X63510Y37376D01*
X63522Y37369D01*
X63535Y37364D01*
X63551Y37357D01*
X63567Y37352D01*
X63586Y37347D01*
X63606Y37342D01*
X63629Y37340D01*
X63653Y37338D01*
X63679Y37337D01*
X63680D01*
X63684D01*
X63690D01*
X63699Y37338D01*
X63708Y37339D01*
X63719Y37341D01*
X63732Y37342D01*
X63745Y37344D01*
X63774Y37352D01*
X63789Y37357D01*
X63805Y37363D01*
X63820Y37370D01*
X63835Y37378D01*
X63848Y37388D01*
X63861Y37399D01*
X63862Y37400D01*
X63864Y37402D01*
X63868Y37405D01*
X63871Y37410D01*
X63877Y37416D01*
X63883Y37424D01*
X63888Y37432D01*
X63895Y37441D01*
X63901Y37452D01*
X63907Y37464D01*
X63912Y37477D01*
X63918Y37491D01*
X63921Y37506D01*
X63925Y37521D01*
X63927Y37538D01*
X63928Y37555D01*
Y37560D01*
X63927Y37564D01*
Y37571D01*
X63926Y37579D01*
X63924Y37588D01*
X63922Y37599D01*
X63920Y37611D01*
X63916Y37624D01*
X63911Y37636D01*
X63907Y37649D01*
X63900Y37662D01*
X63892Y37675D01*
X63884Y37688D01*
X63873Y37701D01*
X63861Y37713D01*
X63860Y37714D01*
X63859Y37716D01*
X63854Y37719D01*
X63848Y37723D01*
X63842Y37728D01*
X63834Y37733D01*
X63823Y37738D01*
X63812Y37745D01*
X63799Y37750D01*
X63785Y37756D01*
X63769Y37760D01*
X63752Y37766D01*
X63734Y37770D01*
X63713Y37772D01*
X63692Y37774D01*
X63670Y37775D01*
D02*
G37*
G36*
Y34001D02*
X63669D01*
X63666D01*
X63663D01*
X63657D01*
X63651Y34000D01*
X63642D01*
X63634Y33999D01*
X63624Y33997D01*
X63602Y33995D01*
X63580Y33990D01*
X63556Y33984D01*
X63534Y33974D01*
X63533D01*
X63531Y33973D01*
X63528Y33971D01*
X63525Y33970D01*
X63514Y33963D01*
X63501Y33955D01*
X63486Y33944D01*
X63471Y33930D01*
X63456Y33914D01*
X63443Y33897D01*
Y33896D01*
X63442Y33895D01*
X63441Y33892D01*
X63438Y33887D01*
X63436Y33883D01*
X63433Y33877D01*
X63427Y33863D01*
X63421Y33847D01*
X63416Y33827D01*
X63412Y33805D01*
X63411Y33782D01*
Y33774D01*
X63412Y33767D01*
X63413Y33759D01*
X63415Y33751D01*
X63417Y33740D01*
X63418Y33729D01*
X63426Y33705D01*
X63431Y33692D01*
X63437Y33679D01*
X63444Y33665D01*
X63453Y33653D01*
X63462Y33640D01*
X63473Y33628D01*
X63474Y33627D01*
X63476Y33625D01*
X63479Y33622D01*
X63485Y33617D01*
X63492Y33613D01*
X63500Y33607D01*
X63510Y33602D01*
X63522Y33595D01*
X63535Y33590D01*
X63551Y33583D01*
X63567Y33578D01*
X63586Y33573D01*
X63606Y33568D01*
X63629Y33566D01*
X63653Y33564D01*
X63679Y33563D01*
X63680D01*
X63684D01*
X63690D01*
X63699Y33564D01*
X63708Y33565D01*
X63719Y33567D01*
X63732Y33568D01*
X63745Y33570D01*
X63774Y33578D01*
X63789Y33583D01*
X63805Y33589D01*
X63820Y33596D01*
X63835Y33604D01*
X63848Y33614D01*
X63861Y33625D01*
X63862Y33626D01*
X63864Y33628D01*
X63868Y33631D01*
X63871Y33636D01*
X63877Y33642D01*
X63883Y33650D01*
X63888Y33658D01*
X63895Y33667D01*
X63901Y33678D01*
X63907Y33690D01*
X63912Y33703D01*
X63918Y33717D01*
X63921Y33732D01*
X63925Y33747D01*
X63927Y33763D01*
X63928Y33781D01*
Y33786D01*
X63927Y33790D01*
Y33797D01*
X63926Y33805D01*
X63924Y33814D01*
X63922Y33825D01*
X63920Y33836D01*
X63916Y33849D01*
X63911Y33861D01*
X63907Y33875D01*
X63900Y33888D01*
X63892Y33901D01*
X63884Y33914D01*
X63873Y33927D01*
X63861Y33939D01*
X63860Y33940D01*
X63859Y33942D01*
X63854Y33945D01*
X63848Y33949D01*
X63842Y33954D01*
X63834Y33959D01*
X63823Y33964D01*
X63812Y33971D01*
X63799Y33976D01*
X63785Y33982D01*
X63769Y33986D01*
X63752Y33992D01*
X63734Y33996D01*
X63713Y33998D01*
X63692Y34000D01*
X63670Y34001D01*
D02*
G37*
G36*
Y32412D02*
X63669D01*
X63666D01*
X63663D01*
X63657D01*
X63651Y32411D01*
X63642D01*
X63634Y32410D01*
X63624Y32408D01*
X63602Y32405D01*
X63580Y32401D01*
X63556Y32394D01*
X63534Y32385D01*
X63533D01*
X63531Y32384D01*
X63528Y32382D01*
X63525Y32380D01*
X63514Y32374D01*
X63501Y32366D01*
X63486Y32354D01*
X63471Y32341D01*
X63456Y32325D01*
X63443Y32307D01*
Y32306D01*
X63442Y32305D01*
X63441Y32303D01*
X63438Y32298D01*
X63436Y32293D01*
X63433Y32288D01*
X63427Y32274D01*
X63421Y32257D01*
X63416Y32238D01*
X63412Y32216D01*
X63411Y32193D01*
Y32184D01*
X63412Y32178D01*
X63413Y32170D01*
X63415Y32161D01*
X63417Y32151D01*
X63418Y32140D01*
X63426Y32116D01*
X63431Y32103D01*
X63437Y32090D01*
X63444Y32076D01*
X63453Y32063D01*
X63462Y32050D01*
X63473Y32038D01*
X63474Y32037D01*
X63476Y32035D01*
X63479Y32033D01*
X63485Y32028D01*
X63492Y32023D01*
X63500Y32018D01*
X63510Y32012D01*
X63522Y32006D01*
X63535Y32000D01*
X63551Y31994D01*
X63567Y31988D01*
X63586Y31984D01*
X63606Y31979D01*
X63629Y31976D01*
X63653Y31974D01*
X63679Y31974D01*
X63680D01*
X63684D01*
X63690D01*
X63699Y31974D01*
X63708Y31975D01*
X63719Y31977D01*
X63732Y31979D01*
X63745Y31981D01*
X63774Y31988D01*
X63789Y31994D01*
X63805Y31999D01*
X63820Y32007D01*
X63835Y32015D01*
X63848Y32024D01*
X63861Y32035D01*
X63862Y32036D01*
X63864Y32038D01*
X63868Y32042D01*
X63871Y32047D01*
X63877Y32053D01*
X63883Y32060D01*
X63888Y32069D01*
X63895Y32078D01*
X63901Y32089D01*
X63907Y32101D01*
X63912Y32114D01*
X63918Y32128D01*
X63921Y32143D01*
X63925Y32158D01*
X63927Y32174D01*
X63928Y32192D01*
Y32196D01*
X63927Y32201D01*
Y32207D01*
X63926Y32216D01*
X63924Y32225D01*
X63922Y32236D01*
X63920Y32247D01*
X63916Y32260D01*
X63911Y32272D01*
X63907Y32286D01*
X63900Y32299D01*
X63892Y32312D01*
X63884Y32325D01*
X63873Y32338D01*
X63861Y32350D01*
X63860Y32351D01*
X63859Y32353D01*
X63854Y32355D01*
X63848Y32360D01*
X63842Y32365D01*
X63834Y32369D01*
X63823Y32375D01*
X63812Y32381D01*
X63799Y32387D01*
X63785Y32392D01*
X63769Y32397D01*
X63752Y32403D01*
X63734Y32406D01*
X63713Y32409D01*
X63692Y32411D01*
X63670Y32412D01*
D02*
G37*
G36*
X63538Y31469D02*
X63537D01*
X63536D01*
X63531D01*
X63523Y31468D01*
X63514Y31466D01*
X63504Y31464D01*
X63492Y31460D01*
X63480Y31455D01*
X63469Y31448D01*
X63468Y31447D01*
X63465Y31445D01*
X63460Y31440D01*
X63454Y31434D01*
X63447Y31426D01*
X63442Y31417D01*
X63436Y31407D01*
X63431Y31395D01*
Y31394D01*
X63430Y31390D01*
X63430Y31385D01*
X63428Y31377D01*
X63427Y31366D01*
X63426Y31352D01*
X63425Y31336D01*
Y31153D01*
X63653D01*
Y31324D01*
X63652Y31331D01*
Y31337D01*
X63651Y31345D01*
X63650Y31362D01*
X63646Y31382D01*
X63640Y31401D01*
X63633Y31419D01*
X63628Y31427D01*
X63623Y31434D01*
X63621Y31435D01*
X63617Y31439D01*
X63610Y31445D01*
X63601Y31451D01*
X63589Y31458D01*
X63574Y31463D01*
X63557Y31467D01*
X63538Y31469D01*
D02*
G37*
G36*
X22233Y41564D02*
X22085D01*
Y41076D01*
X22237D01*
X22243Y41077D01*
X22257Y41078D01*
X22273Y41079D01*
X22289Y41080D01*
X22306Y41083D01*
X22320Y41087D01*
X22322Y41088D01*
X22326Y41089D01*
X22333Y41092D01*
X22341Y41095D01*
X22350Y41101D01*
X22360Y41106D01*
X22369Y41113D01*
X22378Y41120D01*
X22379Y41122D01*
X22383Y41126D01*
X22388Y41132D01*
X22395Y41141D01*
X22402Y41153D01*
X22410Y41167D01*
X22418Y41183D01*
X22424Y41201D01*
Y41202D01*
X22425Y41203D01*
X22426Y41206D01*
X22427Y41210D01*
X22428Y41214D01*
X22430Y41221D01*
X22432Y41227D01*
X22434Y41235D01*
X22436Y41253D01*
X22439Y41275D01*
X22441Y41299D01*
X22442Y41325D01*
Y41325D01*
Y41329D01*
Y41334D01*
X22441Y41341D01*
Y41349D01*
X22440Y41359D01*
X22439Y41370D01*
X22438Y41381D01*
X22434Y41406D01*
X22428Y41432D01*
X22420Y41456D01*
X22414Y41468D01*
X22409Y41478D01*
Y41479D01*
X22407Y41481D01*
X22405Y41484D01*
X22403Y41487D01*
X22396Y41496D01*
X22386Y41508D01*
X22374Y41520D01*
X22361Y41532D01*
X22345Y41542D01*
X22328Y41550D01*
X22326Y41551D01*
X22322Y41552D01*
X22313Y41555D01*
X22301Y41557D01*
X22287Y41559D01*
X22268Y41562D01*
X22257Y41563D01*
X22245D01*
X22233Y41564D01*
D02*
G37*
G36*
Y90564D02*
X22085D01*
Y90076D01*
X22237D01*
X22243Y90077D01*
X22257Y90078D01*
X22273Y90079D01*
X22289Y90080D01*
X22306Y90083D01*
X22320Y90087D01*
X22322Y90088D01*
X22326Y90089D01*
X22333Y90092D01*
X22341Y90095D01*
X22350Y90101D01*
X22360Y90106D01*
X22369Y90113D01*
X22378Y90120D01*
X22379Y90122D01*
X22383Y90126D01*
X22388Y90132D01*
X22395Y90141D01*
X22402Y90153D01*
X22410Y90167D01*
X22418Y90183D01*
X22424Y90201D01*
Y90202D01*
X22425Y90203D01*
X22426Y90206D01*
X22427Y90210D01*
X22428Y90214D01*
X22430Y90221D01*
X22432Y90227D01*
X22434Y90235D01*
X22436Y90253D01*
X22439Y90275D01*
X22441Y90299D01*
X22442Y90325D01*
Y90325D01*
Y90329D01*
Y90334D01*
X22441Y90341D01*
Y90349D01*
X22440Y90359D01*
X22439Y90370D01*
X22438Y90381D01*
X22434Y90406D01*
X22428Y90432D01*
X22420Y90456D01*
X22414Y90468D01*
X22409Y90478D01*
Y90479D01*
X22407Y90481D01*
X22405Y90484D01*
X22403Y90487D01*
X22396Y90496D01*
X22386Y90508D01*
X22374Y90520D01*
X22361Y90532D01*
X22345Y90542D01*
X22328Y90550D01*
X22326Y90551D01*
X22322Y90552D01*
X22313Y90555D01*
X22301Y90558D01*
X22287Y90559D01*
X22268Y90562D01*
X22257Y90563D01*
X22245D01*
X22233Y90564D01*
D02*
G37*
G36*
X61774Y50864D02*
X61488D01*
X61774Y50662D01*
Y50864D01*
D02*
G37*
G36*
X61536Y50424D02*
X61535D01*
X61534D01*
X61528Y50423D01*
X61520Y50423D01*
X61509Y50421D01*
X61498Y50416D01*
X61485Y50410D01*
X61473Y50402D01*
X61461Y50391D01*
X61460Y50389D01*
X61456Y50385D01*
X61452Y50377D01*
X61446Y50365D01*
X61441Y50351D01*
X61436Y50333D01*
X61432Y50312D01*
X61431Y50287D01*
Y50085D01*
X61643D01*
Y50276D01*
X61642Y50287D01*
X61641Y50300D01*
X61640Y50314D01*
X61639Y50329D01*
X61636Y50344D01*
X61632Y50357D01*
X61631Y50359D01*
X61629Y50362D01*
X61626Y50368D01*
X61623Y50375D01*
X61617Y50384D01*
X61611Y50392D01*
X61602Y50400D01*
X61593Y50407D01*
X61592Y50408D01*
X61589Y50410D01*
X61583Y50412D01*
X61576Y50416D01*
X61567Y50419D01*
X61558Y50422D01*
X61547Y50423D01*
X61536Y50424D01*
D02*
G37*
G36*
X51536D02*
X51535D01*
X51534D01*
X51528Y50423D01*
X51520Y50423D01*
X51509Y50421D01*
X51498Y50416D01*
X51485Y50410D01*
X51473Y50402D01*
X51461Y50391D01*
X51460Y50389D01*
X51456Y50385D01*
X51452Y50377D01*
X51446Y50365D01*
X51441Y50351D01*
X51436Y50333D01*
X51432Y50312D01*
X51431Y50287D01*
Y50085D01*
X51643D01*
Y50276D01*
X51642Y50287D01*
X51641Y50300D01*
X51640Y50314D01*
X51639Y50329D01*
X51636Y50344D01*
X51632Y50357D01*
X51631Y50359D01*
X51629Y50362D01*
X51626Y50368D01*
X51623Y50375D01*
X51617Y50384D01*
X51611Y50392D01*
X51602Y50400D01*
X51593Y50407D01*
X51592Y50408D01*
X51589Y50410D01*
X51583Y50412D01*
X51576Y50416D01*
X51567Y50419D01*
X51558Y50422D01*
X51547Y50423D01*
X51536Y50424D01*
D02*
G37*
G36*
X42780Y73915D02*
X42568D01*
Y73724D01*
X42569Y73713D01*
X42570Y73700D01*
X42571Y73686D01*
X42573Y73671D01*
X42575Y73656D01*
X42579Y73643D01*
X42580Y73641D01*
X42582Y73638D01*
X42585Y73632D01*
X42588Y73625D01*
X42594Y73616D01*
X42600Y73608D01*
X42609Y73600D01*
X42618Y73593D01*
X42619Y73592D01*
X42623Y73590D01*
X42628Y73588D01*
X42635Y73584D01*
X42644Y73581D01*
X42653Y73578D01*
X42664Y73577D01*
X42675Y73576D01*
X42676D01*
X42677D01*
X42683Y73577D01*
X42691Y73577D01*
X42702Y73579D01*
X42713Y73584D01*
X42726Y73590D01*
X42738Y73598D01*
X42750Y73609D01*
X42751Y73611D01*
X42755Y73615D01*
X42759Y73623D01*
X42765Y73635D01*
X42770Y73649D01*
X42775Y73667D01*
X42779Y73688D01*
X42780Y73713D01*
Y73915D01*
D02*
G37*
G36*
X42418Y73301D02*
X42416D01*
X42412D01*
X42403Y73300D01*
X42393Y73299D01*
X42381Y73297D01*
X42368Y73294D01*
X42354Y73290D01*
X42341Y73284D01*
X42339Y73283D01*
X42334Y73281D01*
X42328Y73277D01*
X42319Y73271D01*
X42311Y73265D01*
X42301Y73257D01*
X42292Y73247D01*
X42284Y73236D01*
X42283Y73234D01*
X42281Y73231D01*
X42278Y73224D01*
X42275Y73216D01*
X42271Y73207D01*
X42267Y73196D01*
X42266Y73184D01*
X42265Y73171D01*
Y73166D01*
X42266Y73162D01*
X42267Y73153D01*
X42269Y73141D01*
X42275Y73128D01*
X42281Y73113D01*
X42292Y73099D01*
X42297Y73091D01*
X42304Y73085D01*
X42305D01*
X42306Y73083D01*
X42312Y73079D01*
X42321Y73074D01*
X42333Y73066D01*
X42349Y73060D01*
X42367Y73054D01*
X42389Y73050D01*
X42414Y73049D01*
X42414D01*
X42416D01*
X42420D01*
X42425Y73050D01*
X42430D01*
X42437Y73050D01*
X42451Y73053D01*
X42468Y73057D01*
X42486Y73063D01*
X42502Y73073D01*
X42518Y73085D01*
X42520Y73087D01*
X42525Y73091D01*
X42530Y73099D01*
X42537Y73109D01*
X42545Y73122D01*
X42550Y73136D01*
X42555Y73154D01*
X42557Y73173D01*
Y73179D01*
X42556Y73183D01*
X42555Y73192D01*
X42552Y73205D01*
X42548Y73219D01*
X42540Y73234D01*
X42531Y73249D01*
X42518Y73264D01*
X42516Y73266D01*
X42512Y73270D01*
X42503Y73276D01*
X42491Y73283D01*
X42477Y73289D01*
X42460Y73296D01*
X42440Y73299D01*
X42418Y73301D01*
D02*
G37*
G36*
X42580Y57915D02*
X42368D01*
Y57724D01*
X42369Y57713D01*
X42370Y57700D01*
X42371Y57686D01*
X42373Y57671D01*
X42375Y57656D01*
X42379Y57643D01*
X42380Y57641D01*
X42382Y57638D01*
X42385Y57632D01*
X42388Y57625D01*
X42394Y57616D01*
X42400Y57608D01*
X42409Y57600D01*
X42418Y57593D01*
X42419Y57592D01*
X42423Y57590D01*
X42428Y57588D01*
X42435Y57584D01*
X42444Y57581D01*
X42453Y57578D01*
X42464Y57577D01*
X42475Y57576D01*
X42476D01*
X42477D01*
X42483Y57577D01*
X42491Y57577D01*
X42502Y57579D01*
X42513Y57584D01*
X42526Y57590D01*
X42538Y57598D01*
X42550Y57609D01*
X42551Y57611D01*
X42555Y57615D01*
X42559Y57623D01*
X42565Y57635D01*
X42570Y57649D01*
X42575Y57667D01*
X42579Y57688D01*
X42580Y57713D01*
Y57915D01*
D02*
G37*
%LPD*%
D14*
X69340Y68741D02*
X75154D01*
Y80879D01*
X69340D02*
X75154D01*
X69340Y68741D02*
Y80879D01*
X38045Y89100D02*
X45955D01*
Y86900D02*
Y89100D01*
X38045Y86900D02*
X45955D01*
X38045D02*
Y89100D01*
Y85100D02*
X45955D01*
Y82900D02*
Y85100D01*
X38045Y82900D02*
X45955D01*
X38045D02*
Y85100D01*
X60825Y22505D02*
Y38195D01*
X67175D01*
Y22505D02*
Y38195D01*
X60825Y22505D02*
X67175D01*
X24103Y31353D02*
X31897D01*
Y24647D02*
Y31353D01*
X24103Y24647D02*
X31897D01*
X24103D02*
Y31353D01*
X15662Y39550D02*
Y42450D01*
Y39550D02*
X28338D01*
Y42450D01*
X15662D02*
X28338D01*
X15662Y91450D02*
X28338D01*
Y88550D02*
Y91450D01*
X15662Y88550D02*
X28338D01*
X15662D02*
Y91450D01*
X60900Y46045D02*
X63100D01*
Y53955D01*
X60900D02*
X63100D01*
X60900Y46045D02*
Y53955D01*
X50900Y46045D02*
X53100D01*
Y53955D01*
X50900D02*
X53100D01*
X50900Y46045D02*
Y53955D01*
X40850Y79725D02*
X43550D01*
X40850Y68275D02*
Y79725D01*
Y68275D02*
X43550D01*
Y79725D01*
X40650Y63725D02*
X43350D01*
X40650Y52275D02*
Y63725D01*
Y52275D02*
X43350D01*
Y63725D01*
M02*
