G04*
G04 #@! TF.GenerationSoftware,Altium Limited,Altium Designer,22.1.2 (22)*
G04*
G04 Layer_Color=0*
%FSLAX43Y43*%
%MOMM*%
G71*
G04*
G04 #@! TF.SameCoordinates,B9ED1628-3B94-4FFD-BB59-448334CAC492*
G04*
G04*
G04 #@! TF.FilePolarity,Positive*
G04*
G01*
G75*
%ADD15C,0.100*%
D15*
X51400Y9900D02*
X52400D01*
X51900Y9400D02*
Y10400D01*
X40800Y22150D02*
X41800D01*
X41300Y21650D02*
Y22650D01*
X41200Y33850D02*
X42200D01*
X41700Y33350D02*
Y34350D01*
X40100Y9400D02*
X41100D01*
X40600Y8900D02*
Y9900D01*
X70757Y74810D02*
X71757D01*
X71257Y74310D02*
Y75310D01*
X41500Y88000D02*
X42500D01*
X42000Y87500D02*
Y88500D01*
X41500Y84000D02*
X42500D01*
X42000Y83500D02*
Y84500D01*
X64000Y29850D02*
Y30850D01*
X63500Y30350D02*
X64500D01*
X27500Y28000D02*
X28500D01*
X28000Y27500D02*
Y28500D01*
X22000Y40500D02*
Y41500D01*
X21500Y41000D02*
X22500D01*
X21500Y90000D02*
X22500D01*
X22000Y89500D02*
Y90500D01*
X61500Y50000D02*
X62500D01*
X62000Y49500D02*
Y50500D01*
X51500Y50000D02*
X52500D01*
X52000Y49500D02*
Y50500D01*
X41700Y74000D02*
X42700D01*
X42200Y73500D02*
Y74500D01*
X41500Y58000D02*
X42500D01*
X42000Y57500D02*
Y58500D01*
M02*
