G04*
G04 #@! TF.GenerationSoftware,Altium Limited,Altium Designer,22.1.2 (22)*
G04*
G04 Layer_Color=2752767*
%FSLAX25Y25*%
%MOIN*%
G70*
G04*
G04 #@! TF.SameCoordinates,9BB02E8B-A7E0-4FF3-B7F6-0A232C0EF0B8*
G04*
G04*
G04 #@! TF.FilePolarity,Positive*
G04*
G01*
G75*
%ADD104C,0.00200*%
%ADD105C,0.00267*%
D104*
X113200Y463700D02*
Y465300D01*
X114800D01*
Y463700D01*
X113200D01*
Y112200D02*
Y113800D01*
X114800D01*
Y112200D01*
X113200D01*
X368200D02*
Y113800D01*
X369800D01*
Y112200D01*
X368200D01*
Y485700D02*
Y487300D01*
X369800D01*
Y485700D01*
X368200D01*
X252715Y110397D02*
X251915Y111997D01*
X253515D01*
X252715Y110397D01*
X242872D02*
X242072Y111997D01*
X243672D01*
X242872Y110397D01*
X233030D02*
X232229Y111997D01*
X233829D01*
X233030Y110397D01*
X165149Y110397D02*
X164349Y111997D01*
X165949D01*
X165149Y110397D01*
X155307D02*
X154507Y111997D01*
X156107D01*
X155307Y110397D01*
X145464D02*
X144664Y111997D01*
X146264D01*
X145464Y110397D01*
X185122Y187606D02*
X185522Y188006D01*
X185922D01*
X185522Y188406D01*
X185922Y188806D01*
X185522D01*
X185122Y189206D01*
X184722Y188806D01*
X184322D01*
X184722Y188406D01*
X184322Y188006D01*
X184722D01*
X185122Y187606D01*
X137878D02*
X138278Y188006D01*
X138678D01*
X138278Y188406D01*
X138678Y188806D01*
X138278D01*
X137878Y189206D01*
X137478Y188806D01*
X137078D01*
X137478Y188406D01*
X137078Y188006D01*
X137478D01*
X137878Y187606D01*
X185122Y139574D02*
X185522Y139974D01*
X185922D01*
X185522Y140374D01*
X185922Y140774D01*
X185522D01*
X185122Y141174D01*
X184722Y140774D01*
X184322D01*
X184722Y140374D01*
X184322Y139974D01*
X184722D01*
X185122Y139574D01*
X137878D02*
X138278Y139974D01*
X138678D01*
X138278Y140374D01*
X138678Y140774D01*
X138278D01*
X137878Y141174D01*
X137478Y140774D01*
X137078D01*
X137478Y140374D01*
X137078Y139974D01*
X137478D01*
X137878Y139574D01*
X160700Y131700D02*
X161100Y132500D01*
X160700Y133300D01*
X161500Y132900D01*
X162300Y133300D01*
X161900Y132500D01*
X162300Y131700D01*
X161500Y132100D01*
X160700Y131700D01*
X175685Y482424D02*
X174885Y484024D01*
X176485D01*
X175685Y482424D01*
X165843D02*
X165043Y484024D01*
X166643D01*
X165843Y482424D01*
X156000D02*
X155200Y484024D01*
X156800D01*
X156000Y482424D01*
X146157D02*
X145357Y484024D01*
X146957D01*
X146157Y482424D01*
X136315D02*
X135515Y484024D01*
X137115D01*
X136315Y482424D01*
X126472D02*
X125672Y484024D01*
X127272D01*
X126472Y482424D01*
X116630D02*
X115830Y484024D01*
X117430D01*
X116630Y482424D01*
X116567Y319436D02*
X115767Y321036D01*
X117367D01*
X116567Y319436D01*
Y329279D02*
X115767Y330879D01*
X117367D01*
X116567Y329279D01*
Y339121D02*
X115767Y340721D01*
X117367D01*
X116567Y339121D01*
Y348964D02*
X115767Y350564D01*
X117367D01*
X116567Y348964D01*
X365000Y159672D02*
X364200Y161272D01*
X365800D01*
X365000Y159672D01*
Y169515D02*
X364200Y171115D01*
X365800D01*
X365000Y169515D01*
Y179357D02*
X364200Y180957D01*
X365800D01*
X365000Y179357D01*
Y189200D02*
X364200Y190800D01*
X365800D01*
X365000Y189200D01*
X308236Y114334D02*
X307436Y115934D01*
X309036D01*
X308236Y114334D01*
X318079D02*
X317279Y115934D01*
X318879D01*
X318079Y114334D01*
X327921D02*
X327121Y115934D01*
X328721D01*
X327921Y114334D01*
X337764D02*
X336964Y115934D01*
X338564D01*
X337764Y114334D01*
X271122Y187106D02*
X271522Y187506D01*
X271922D01*
X271522Y187906D01*
X271922Y188306D01*
X271522D01*
X271122Y188706D01*
X270722Y188306D01*
X270322D01*
X270722Y187906D01*
X270322Y187506D01*
X270722D01*
X271122Y187106D01*
X223878D02*
X224278Y187506D01*
X224678D01*
X224278Y187906D01*
X224678Y188306D01*
X224278D01*
X223878Y188706D01*
X223478Y188306D01*
X223078D01*
X223478Y187906D01*
X223078Y187506D01*
X223478D01*
X223878Y187106D01*
X271122Y139074D02*
X271522Y139474D01*
X271922D01*
X271522Y139874D01*
X271922Y140274D01*
X271522D01*
X271122Y140674D01*
X270722Y140274D01*
X270322D01*
X270722Y139874D01*
X270322Y139474D01*
X270722D01*
X271122Y139074D01*
X223878D02*
X224278Y139474D01*
X224678D01*
X224278Y139874D01*
X224678Y140274D01*
X224278D01*
X223878Y140674D01*
X223478Y140274D01*
X223078D01*
X223478Y139874D01*
X223078Y139474D01*
X223478D01*
X223878Y139074D01*
X246700Y131200D02*
X247100Y132000D01*
X246700Y132800D01*
X247500Y132400D01*
X248300Y132800D01*
X247900Y132000D01*
X248300Y131200D01*
X247500Y131600D01*
X246700Y131200D01*
X116567Y287464D02*
X115767Y289064D01*
X117367D01*
X116567Y287464D01*
Y277621D02*
X115767Y279221D01*
X117367D01*
X116567Y277621D01*
Y267779D02*
X115767Y269379D01*
X117367D01*
X116567Y267779D01*
Y257936D02*
X115767Y259536D01*
X117367D01*
X116567Y257936D01*
Y424228D02*
X115767Y425828D01*
X117367D01*
X116567Y424228D01*
Y414385D02*
X115767Y415985D01*
X117367D01*
X116567Y414385D01*
Y404543D02*
X115767Y406143D01*
X117367D01*
X116567Y404543D01*
Y394700D02*
X115767Y396300D01*
X117367D01*
X116567Y394700D01*
X241030Y120463D02*
Y120063D01*
X241830D01*
Y120463D01*
X242230D01*
Y121263D01*
X241830D01*
Y121663D01*
X241030D01*
Y121263D01*
X240630D01*
Y120463D01*
X241030D01*
X287281Y144100D02*
Y143700D01*
X288081D01*
Y144100D01*
X288481D01*
Y144900D01*
X288081D01*
Y145300D01*
X287281D01*
Y144900D01*
X286881D01*
Y144100D01*
X287281D01*
X266600Y265600D02*
Y265200D01*
X267400D01*
Y265600D01*
X267800D01*
Y266400D01*
X267400D01*
Y266800D01*
X266600D01*
Y266400D01*
X266200D01*
Y265600D01*
X266600D01*
X330600Y380600D02*
Y380200D01*
X331400D01*
Y380600D01*
X331800D01*
Y381400D01*
X331400D01*
Y381800D01*
X330600D01*
Y381400D01*
X330200D01*
Y380600D01*
X330600D01*
X175100Y307600D02*
Y307200D01*
X175900D01*
Y307600D01*
X176300D01*
Y308400D01*
X175900D01*
Y308800D01*
X175100D01*
Y308400D01*
X174700D01*
Y307600D01*
X175100D01*
X171300Y305419D02*
Y305019D01*
X172100D01*
Y305419D01*
X172500D01*
Y306219D01*
X172100D01*
Y306619D01*
X171300D01*
Y306219D01*
X170900D01*
Y305419D01*
X171300D01*
X173100Y300100D02*
Y299700D01*
X173900D01*
Y300100D01*
X174300D01*
Y300900D01*
X173900D01*
Y301300D01*
X173100D01*
Y300900D01*
X172700D01*
Y300100D01*
X173100D01*
X169100Y301100D02*
Y300700D01*
X169900D01*
Y301100D01*
X170300D01*
Y301900D01*
X169900D01*
Y302300D01*
X169100D01*
Y301900D01*
X168700D01*
Y301100D01*
X169100D01*
X162600Y324600D02*
Y324200D01*
X163400D01*
Y324600D01*
X163800D01*
Y325400D01*
X163400D01*
Y325800D01*
X162600D01*
Y325400D01*
X162200D01*
Y324600D01*
X162600D01*
X275219Y403100D02*
Y402700D01*
X276019D01*
Y403100D01*
X276419D01*
Y403900D01*
X276019D01*
Y404300D01*
X275219D01*
Y403900D01*
X274819D01*
Y403100D01*
X275219D01*
X281300Y405000D02*
Y404600D01*
X282100D01*
Y405000D01*
X282500D01*
Y405800D01*
X282100D01*
Y406200D01*
X281300D01*
Y405800D01*
X280900D01*
Y405000D01*
X281300D01*
X237600Y393100D02*
Y392700D01*
X238400D01*
Y393100D01*
X238800D01*
Y393900D01*
X238400D01*
Y394300D01*
X237600D01*
Y393900D01*
X237200D01*
Y393100D01*
X237600D01*
X197600Y361600D02*
Y361200D01*
X198400D01*
Y361600D01*
X198800D01*
Y362400D01*
X198400D01*
Y362800D01*
X197600D01*
Y362400D01*
X197200D01*
Y361600D01*
X197600D01*
X170100Y383600D02*
Y383200D01*
X170900D01*
Y383600D01*
X171300D01*
Y384400D01*
X170900D01*
Y384800D01*
X170100D01*
Y384400D01*
X169700D01*
Y383600D01*
X170100D01*
X294573Y435627D02*
Y435227D01*
X295373D01*
Y435627D01*
X295773D01*
Y436427D01*
X295373D01*
Y436827D01*
X294573D01*
Y436427D01*
X294173D01*
Y435627D01*
X294573D01*
X286600Y435600D02*
Y435200D01*
X287400D01*
Y435600D01*
X287800D01*
Y436400D01*
X287400D01*
Y436800D01*
X286600D01*
Y436400D01*
X286200D01*
Y435600D01*
X286600D01*
X240100Y420100D02*
Y419700D01*
X240900D01*
Y420100D01*
X241300D01*
Y420900D01*
X240900D01*
Y421300D01*
X240100D01*
Y420900D01*
X239700D01*
Y420100D01*
X240100D01*
X243600Y409100D02*
Y408700D01*
X244400D01*
Y409100D01*
X244800D01*
Y409900D01*
X244400D01*
Y410300D01*
X243600D01*
Y409900D01*
X243200D01*
Y409100D01*
X243600D01*
X264100Y404100D02*
Y403700D01*
X264900D01*
Y404100D01*
X265300D01*
Y404900D01*
X264900D01*
Y405300D01*
X264100D01*
Y404900D01*
X263700D01*
Y404100D01*
X264100D01*
X325600Y336600D02*
Y336200D01*
X326400D01*
Y336600D01*
X326800D01*
Y337400D01*
X326400D01*
Y337800D01*
X325600D01*
Y337400D01*
X325200D01*
Y336600D01*
X325600D01*
X333100Y278100D02*
Y277700D01*
X333900D01*
Y278100D01*
X334300D01*
Y278900D01*
X333900D01*
Y279300D01*
X333100D01*
Y278900D01*
X332700D01*
Y278100D01*
X333100D01*
X301600Y316100D02*
Y315700D01*
X302400D01*
Y316100D01*
X302800D01*
Y316900D01*
X302400D01*
Y317300D01*
X301600D01*
Y316900D01*
X301200D01*
Y316100D01*
X301600D01*
X156600Y419600D02*
Y419200D01*
X157400D01*
Y419600D01*
X157800D01*
Y420400D01*
X157400D01*
Y420800D01*
X156600D01*
Y420400D01*
X156200D01*
Y419600D01*
X156600D01*
X160100Y420100D02*
Y419700D01*
X160900D01*
Y420100D01*
X161300D01*
Y420900D01*
X160900D01*
Y421300D01*
X160100D01*
Y420900D01*
X159700D01*
Y420100D01*
X160100D01*
X187100Y419100D02*
Y418700D01*
X187900D01*
Y419100D01*
X188300D01*
Y419900D01*
X187900D01*
Y420300D01*
X187100D01*
Y419900D01*
X186700D01*
Y419100D01*
X187100D01*
X156600Y406100D02*
Y405700D01*
X157400D01*
Y406100D01*
X157800D01*
Y406900D01*
X157400D01*
Y407300D01*
X156600D01*
Y406900D01*
X156200D01*
Y406100D01*
X156600D01*
X158600Y307600D02*
Y307200D01*
X159400D01*
Y307600D01*
X159800D01*
Y308400D01*
X159400D01*
Y308800D01*
X158600D01*
Y308400D01*
X158200D01*
Y307600D01*
X158600D01*
X135361Y321861D02*
Y321461D01*
X136161D01*
Y321861D01*
X136561D01*
Y322661D01*
X136161D01*
Y323061D01*
X135361D01*
Y322661D01*
X134961D01*
Y321861D01*
X135361D01*
X155100Y336600D02*
Y336200D01*
X155900D01*
Y336600D01*
X156300D01*
Y337400D01*
X155900D01*
Y337800D01*
X155100D01*
Y337400D01*
X154700D01*
Y336600D01*
X155100D01*
X224600Y206600D02*
Y206200D01*
X225400D01*
Y206600D01*
X225800D01*
Y207400D01*
X225400D01*
Y207800D01*
X224600D01*
Y207400D01*
X224200D01*
Y206600D01*
X224600D01*
X247100Y206100D02*
Y205700D01*
X247900D01*
Y206100D01*
X248300D01*
Y206900D01*
X247900D01*
Y207300D01*
X247100D01*
Y206900D01*
X246700D01*
Y206100D01*
X247100D01*
X292100Y248600D02*
Y248200D01*
X292900D01*
Y248600D01*
X293300D01*
Y249400D01*
X292900D01*
Y249800D01*
X292100D01*
Y249400D01*
X291700D01*
Y248600D01*
X292100D01*
X316100Y246600D02*
Y246200D01*
X316900D01*
Y246600D01*
X317300D01*
Y247400D01*
X316900D01*
Y247800D01*
X316100D01*
Y247400D01*
X315700D01*
Y246600D01*
X316100D01*
X353700Y242200D02*
X354100D01*
X354500Y242600D01*
X354900Y242200D01*
X355300D01*
Y242600D01*
X354900Y243000D01*
X355300Y243400D01*
Y243800D01*
X354900D01*
X354500Y243400D01*
X354100Y243800D01*
X353700D01*
Y243400D01*
X354100Y243000D01*
X353700Y242600D01*
Y242200D01*
X262800Y275787D02*
Y275387D01*
X263600D01*
Y275787D01*
X264000D01*
Y276587D01*
X263600D01*
Y276987D01*
X262800D01*
Y276587D01*
X262400D01*
Y275787D01*
X262800D01*
X258100Y228600D02*
Y228200D01*
X258900D01*
Y228600D01*
X259300D01*
Y229400D01*
X258900D01*
Y229800D01*
X258100D01*
Y229400D01*
X257700D01*
Y228600D01*
X258100D01*
X224537Y268400D02*
Y268000D01*
X225337D01*
Y268400D01*
X225737D01*
Y269200D01*
X225337D01*
Y269600D01*
X224537D01*
Y269200D01*
X224137D01*
Y268400D01*
X224537D01*
X176100Y346100D02*
Y345700D01*
X176900D01*
Y346100D01*
X177300D01*
Y346900D01*
X176900D01*
Y347300D01*
X176100D01*
Y346900D01*
X175700D01*
Y346100D01*
X176100D01*
X227600Y323600D02*
Y323200D01*
X228400D01*
Y323600D01*
X228800D01*
Y324400D01*
X228400D01*
Y324800D01*
X227600D01*
Y324400D01*
X227200D01*
Y323600D01*
X227600D01*
X289600Y318281D02*
Y317881D01*
X290400D01*
Y318281D01*
X290800D01*
Y319081D01*
X290400D01*
Y319481D01*
X289600D01*
Y319081D01*
X289200D01*
Y318281D01*
X289600D01*
X165123Y403100D02*
Y402700D01*
X165923D01*
Y403100D01*
X166323D01*
Y403900D01*
X165923D01*
Y404300D01*
X165123D01*
Y403900D01*
X164723D01*
Y403100D01*
X165123D01*
X274247Y383053D02*
Y382653D01*
X275047D01*
Y383053D01*
X275447D01*
Y383853D01*
X275047D01*
Y384253D01*
X274247D01*
Y383853D01*
X273847D01*
Y383053D01*
X274247D01*
X137000Y307700D02*
Y307300D01*
X137800D01*
Y307700D01*
X138200D01*
Y308500D01*
X137800D01*
Y308900D01*
X137000D01*
Y308500D01*
X136600D01*
Y307700D01*
X137000D01*
X171300Y455100D02*
Y454700D01*
X172100D01*
Y455100D01*
X172500D01*
Y455900D01*
X172100D01*
Y456300D01*
X171300D01*
Y455900D01*
X170900D01*
Y455100D01*
X171300D01*
X310600Y244100D02*
Y243700D01*
X311400D01*
Y244100D01*
X311800D01*
Y244900D01*
X311400D01*
Y245300D01*
X310600D01*
Y244900D01*
X310200D01*
Y244100D01*
X310600D01*
X282800Y346400D02*
Y346000D01*
X283600D01*
Y346400D01*
X284000D01*
Y347200D01*
X283600D01*
Y347600D01*
X282800D01*
Y347200D01*
X282400D01*
Y346400D01*
X282800D01*
X167400Y374930D02*
Y374530D01*
X168200D01*
Y374930D01*
X168600D01*
Y375730D01*
X168200D01*
Y376130D01*
X167400D01*
Y375730D01*
X167000D01*
Y374930D01*
X167400D01*
X301600Y265000D02*
Y264600D01*
X302400D01*
Y265000D01*
X302800D01*
Y265800D01*
X302400D01*
Y266200D01*
X301600D01*
Y265800D01*
X301200D01*
Y265000D01*
X301600D01*
X300900Y302100D02*
Y301700D01*
X301700D01*
Y302100D01*
X302100D01*
Y302900D01*
X301700D01*
Y303300D01*
X300900D01*
Y302900D01*
X300500D01*
Y302100D01*
X300900D01*
X180616Y410300D02*
Y409900D01*
X181416D01*
Y410300D01*
X181816D01*
Y411100D01*
X181416D01*
Y411500D01*
X180616D01*
Y411100D01*
X180216D01*
Y410300D01*
X180616D01*
X234400Y399400D02*
Y399000D01*
X235200D01*
Y399400D01*
X235600D01*
Y400200D01*
X235200D01*
Y400600D01*
X234400D01*
Y400200D01*
X234000D01*
Y399400D01*
X234400D01*
X300200Y372600D02*
Y372200D01*
X301000D01*
Y372600D01*
X301400D01*
Y373400D01*
X301000D01*
Y373800D01*
X300200D01*
Y373400D01*
X299800D01*
Y372600D01*
X300200D01*
X152400Y350617D02*
Y350217D01*
X153200D01*
Y350617D01*
X153600D01*
Y351417D01*
X153200D01*
Y351817D01*
X152400D01*
Y351417D01*
X152000D01*
Y350617D01*
X152400D01*
X242000Y329800D02*
Y329400D01*
X242800D01*
Y329800D01*
X243200D01*
Y330600D01*
X242800D01*
Y331000D01*
X242000D01*
Y330600D01*
X241600D01*
Y329800D01*
X242000D01*
X313994Y313494D02*
Y313094D01*
X314794D01*
Y313494D01*
X315194D01*
Y314294D01*
X314794D01*
Y314694D01*
X313994D01*
Y314294D01*
X313594D01*
Y313494D01*
X313994D01*
D105*
X366733Y427579D02*
G03*
X366733Y427579I-800J0D01*
G01*
Y437421D02*
G03*
X366733Y437421I-800J0D01*
G01*
Y398921D02*
G03*
X366733Y398921I-800J0D01*
G01*
Y389079D02*
G03*
X366733Y389079I-800J0D01*
G01*
X207457Y478500D02*
G03*
X207457Y478500I-800J0D01*
G01*
X217300D02*
G03*
X217300Y478500I-800J0D01*
G01*
X258918Y478933D02*
G03*
X258918Y478933I-800J0D01*
G01*
X268761D02*
G03*
X268761Y478933I-800J0D01*
G01*
X310379D02*
G03*
X310379Y478933I-800J0D01*
G01*
X320221D02*
G03*
X320221Y478933I-800J0D01*
G01*
M02*
