G04*
G04 #@! TF.GenerationSoftware,Altium Limited,Altium Designer,22.1.2 (22)*
G04*
G04 Layer_Color=128*
%FSLAX25Y25*%
%MOIN*%
G70*
G04*
G04 #@! TF.SameCoordinates,9BB02E8B-A7E0-4FF3-B7F6-0A232C0EF0B8*
G04*
G04*
G04 #@! TF.FilePolarity,Positive*
G04*
G01*
G75*
%ADD104C,0.00200*%
D104*
X107996Y464500D02*
X120004D01*
X114000Y458496D02*
Y470504D01*
X107996Y113000D02*
X120004D01*
X114000Y106996D02*
Y119004D01*
X362996Y113000D02*
X375004D01*
X369000Y106996D02*
Y119004D01*
X362996Y486500D02*
X375004D01*
X369000Y480496D02*
Y492504D01*
X363965Y427579D02*
X367901D01*
X365933Y425610D02*
Y429547D01*
X363965Y437421D02*
X367901D01*
X365933Y435453D02*
Y439390D01*
X250943Y111197D02*
X254486D01*
X252715Y109426D02*
Y112969D01*
X241100Y111197D02*
X244644D01*
X242872Y109426D02*
Y112969D01*
X231258Y111197D02*
X234801D01*
X233030Y109426D02*
Y112969D01*
X163378Y111197D02*
X166921D01*
X165149Y109425D02*
Y112969D01*
X153535Y111197D02*
X157079D01*
X155307Y109425D02*
Y112969D01*
X143693Y111197D02*
X147236D01*
X145464Y109425D02*
Y112969D01*
X183547Y188406D02*
X186697D01*
X185122Y186831D02*
Y189980D01*
X136303Y188406D02*
X139453D01*
X137878Y186831D02*
Y189980D01*
X183547Y140374D02*
X186697D01*
X185122Y138799D02*
Y141949D01*
X136303Y140374D02*
X139453D01*
X137878Y138799D02*
Y141949D01*
X158862Y132500D02*
X164138D01*
X161500Y129862D02*
Y135138D01*
X173913Y483224D02*
X177457D01*
X175685Y481453D02*
Y484996D01*
X164071Y483224D02*
X167614D01*
X165843Y481453D02*
Y484996D01*
X154228Y483224D02*
X157772D01*
X156000Y481453D02*
Y484996D01*
X144386Y483224D02*
X147929D01*
X146157Y481453D02*
Y484996D01*
X134543Y483224D02*
X138087D01*
X136315Y481453D02*
Y484996D01*
X124701Y483224D02*
X128244D01*
X126472Y481453D02*
Y484996D01*
X114858Y483224D02*
X118402D01*
X116630Y481453D02*
Y484996D01*
X363965Y398921D02*
X367901D01*
X365933Y396953D02*
Y400890D01*
X363965Y389079D02*
X367901D01*
X365933Y387110D02*
Y391047D01*
X114795Y320236D02*
X118339D01*
X116567Y318465D02*
Y322008D01*
X114795Y330079D02*
X118339D01*
X116567Y328307D02*
Y331851D01*
X114795Y339921D02*
X118339D01*
X116567Y338149D02*
Y341693D01*
X114795Y349764D02*
X118339D01*
X116567Y347992D02*
Y351535D01*
X204689Y478500D02*
X208626D01*
X206657Y476532D02*
Y480469D01*
X214531Y478500D02*
X218468D01*
X216500Y476532D02*
Y480469D01*
X363228Y160472D02*
X366772D01*
X365000Y158701D02*
Y162244D01*
X363228Y170315D02*
X366772D01*
X365000Y168543D02*
Y172087D01*
X363228Y180157D02*
X366772D01*
X365000Y178386D02*
Y181929D01*
X363228Y190000D02*
X366772D01*
X365000Y188228D02*
Y191772D01*
X306465Y115134D02*
X310008D01*
X308236Y113362D02*
Y116905D01*
X316307Y115134D02*
X319850D01*
X318079Y113362D02*
Y116905D01*
X326150Y115134D02*
X329693D01*
X327921Y113362D02*
Y116905D01*
X335992Y115134D02*
X339535D01*
X337764Y113362D02*
Y116905D01*
X256150Y478933D02*
X260087D01*
X258118Y476965D02*
Y480901D01*
X265992Y478933D02*
X269929D01*
X267961Y476965D02*
Y480901D01*
X269547Y187906D02*
X272697D01*
X271122Y186331D02*
Y189480D01*
X222303Y187906D02*
X225453D01*
X223878Y186331D02*
Y189480D01*
X269547Y139874D02*
X272697D01*
X271122Y138299D02*
Y141449D01*
X222303Y139874D02*
X225453D01*
X223878Y138299D02*
Y141449D01*
X244862Y132000D02*
X250138D01*
X247500Y129362D02*
Y134638D01*
X114795Y288264D02*
X118339D01*
X116567Y286492D02*
Y290035D01*
X114795Y278421D02*
X118339D01*
X116567Y276649D02*
Y280193D01*
X114795Y268579D02*
X118339D01*
X116567Y266807D02*
Y270351D01*
X114795Y258736D02*
X118339D01*
X116567Y256965D02*
Y260508D01*
X114795Y425028D02*
X118339D01*
X116567Y423256D02*
Y426799D01*
X114795Y415185D02*
X118339D01*
X116567Y413413D02*
Y416957D01*
X114795Y405343D02*
X118339D01*
X116567Y403571D02*
Y407114D01*
X114795Y395500D02*
X118339D01*
X116567Y393728D02*
Y397272D01*
X307610Y478933D02*
X311547D01*
X309579Y476965D02*
Y480901D01*
X317453Y478933D02*
X321390D01*
X319421Y476965D02*
Y480901D01*
X240840Y120863D02*
X242021D01*
X241430Y120273D02*
Y121454D01*
X287090Y144500D02*
X288272D01*
X287681Y143909D02*
Y145091D01*
X266409Y266000D02*
X267590D01*
X267000Y265409D02*
Y266590D01*
X330410Y381000D02*
X331591D01*
X331000Y380410D02*
Y381591D01*
X174909Y308000D02*
X176091D01*
X175500Y307410D02*
Y308591D01*
X171109Y305819D02*
X172291D01*
X171700Y305228D02*
Y306410D01*
X172909Y300500D02*
X174091D01*
X173500Y299909D02*
Y301091D01*
X168909Y301500D02*
X170091D01*
X169500Y300909D02*
Y302091D01*
X162409Y325000D02*
X163591D01*
X163000Y324410D02*
Y325590D01*
X275028Y403500D02*
X276209D01*
X275619Y402910D02*
Y404090D01*
X281109Y405400D02*
X282291D01*
X281700Y404810D02*
Y405991D01*
X237409Y393500D02*
X238591D01*
X238000Y392910D02*
Y394091D01*
X197409Y362000D02*
X198591D01*
X198000Y361409D02*
Y362591D01*
X169909Y384000D02*
X171091D01*
X170500Y383410D02*
Y384591D01*
X294383Y436027D02*
X295564D01*
X294973Y435436D02*
Y436617D01*
X286409Y436000D02*
X287591D01*
X287000Y435409D02*
Y436590D01*
X239910Y420500D02*
X241090D01*
X240500Y419909D02*
Y421091D01*
X243409Y409500D02*
X244590D01*
X244000Y408910D02*
Y410090D01*
X263910Y404500D02*
X265090D01*
X264500Y403909D02*
Y405091D01*
X325410Y337000D02*
X326590D01*
X326000Y336409D02*
Y337591D01*
X332909Y278500D02*
X334090D01*
X333500Y277909D02*
Y279090D01*
X301410Y316500D02*
X302590D01*
X302000Y315910D02*
Y317091D01*
X156409Y420000D02*
X157591D01*
X157000Y419410D02*
Y420590D01*
X159909Y420500D02*
X161091D01*
X160500Y419909D02*
Y421091D01*
X186909Y419500D02*
X188091D01*
X187500Y418910D02*
Y420090D01*
X156409Y406500D02*
X157591D01*
X157000Y405909D02*
Y407091D01*
X158409Y308000D02*
X159591D01*
X159000Y307410D02*
Y308591D01*
X135170Y322261D02*
X136351D01*
X135761Y321670D02*
Y322851D01*
X154909Y337000D02*
X156091D01*
X155500Y336409D02*
Y337591D01*
X224410Y207000D02*
X225590D01*
X225000Y206410D02*
Y207591D01*
X246909Y206500D02*
X248091D01*
X247500Y205909D02*
Y207090D01*
X291910Y249000D02*
X293091D01*
X292500Y248410D02*
Y249590D01*
X315910Y247000D02*
X317091D01*
X316500Y246410D02*
Y247590D01*
X353100Y243000D02*
X355900D01*
X354500Y241600D02*
Y244400D01*
X262610Y276187D02*
X263790D01*
X263200Y275596D02*
Y276777D01*
X257909Y229000D02*
X259090D01*
X258500Y228410D02*
Y229591D01*
X224346Y268800D02*
X225528D01*
X224937Y268210D02*
Y269391D01*
X175909Y346500D02*
X177091D01*
X176500Y345910D02*
Y347091D01*
X227410Y324000D02*
X228590D01*
X228000Y323410D02*
Y324590D01*
X289409Y318681D02*
X290591D01*
X290000Y318091D02*
Y319272D01*
X164932Y403500D02*
X166113D01*
X165523Y402910D02*
Y404090D01*
X274057Y383453D02*
X275238D01*
X274647Y382862D02*
Y384043D01*
X136809Y308100D02*
X137991D01*
X137400Y307509D02*
Y308691D01*
X171109Y455500D02*
X172291D01*
X171700Y454910D02*
Y456090D01*
X310409Y244500D02*
X311591D01*
X311000Y243910D02*
Y245091D01*
X282610Y346800D02*
X283790D01*
X283200Y346210D02*
Y347391D01*
X167209Y375330D02*
X168391D01*
X167800Y374739D02*
Y375921D01*
X301410Y265400D02*
X302590D01*
X302000Y264809D02*
Y265990D01*
X300710Y302500D02*
X301890D01*
X301300Y301909D02*
Y303091D01*
X180425Y410700D02*
X181606D01*
X181016Y410110D02*
Y411291D01*
X234209Y399800D02*
X235390D01*
X234800Y399209D02*
Y400390D01*
X300009Y373000D02*
X301190D01*
X300600Y372410D02*
Y373590D01*
X152209Y351017D02*
X153391D01*
X152800Y350426D02*
Y351607D01*
X241810Y330200D02*
X242990D01*
X242400Y329609D02*
Y330790D01*
X313803Y313894D02*
X314984D01*
X314394Y313303D02*
Y314484D01*
M02*
