M48
;Layer_Color=9474304
;FILE_FORMAT=2:5
INCH,LZ
;TYPE=PLATED
T1F00S00C0.01181
T2F00S00C0.02800
T3F00S00C0.03150
T4F00S00C0.03543
T5F00S00C0.03937
T6F00S00C0.05276
T7F00S00C0.12008
%
T01
X024143Y0120863
X0287681Y01445
X03165Y0247
X03335Y02785
X0302Y02654
X02925Y0249
X0311Y02445
X0267Y0266
X02632Y0276187
X0224937Y02688
X0225Y0207
X02475Y02065
X02585Y0229
X03013Y03025
X01735Y03005
X01695Y03015
X01717Y0305819
X01755Y0308
X0159
X01374Y03081
X0135761Y0322261
X01555Y0337
X01528Y0351017
X01765Y03465
X0163Y0325
X01678Y037533
X01705Y0384
X0165523Y04035
X0157Y04065
Y042
X01605Y04205
X01875Y04195
X0181016Y04107
X01717Y04555
X02405Y04205
X0244Y04095
X02348Y03998
X0238Y03935
X02645Y04045
X0275619Y04035
X02817Y04054
X0274647Y0383453
X03006Y0373
X02832Y03468
X029Y0318681
X0302Y03165
X02424Y03302
X0228Y0324
X0198Y0362
X0287Y0436
X0294973Y0436027
X0331Y0381
X0326Y0337
X0314394Y0313894
T02
X03545Y0243
T03
X0137878Y0140374
X0185122
X0223878Y0139874
X0271122
Y0187906
X0223878
X0185122Y0188406
X0137878
T04
X0145464Y0111197
X0155307
X0165149
X023303Y0111197
X0242872
X0252715
X0308236Y0115134
X0318079
X0327921
X0337764
X0365Y0160472
Y0170315
Y0180157
Y019
X0116567Y0258736
Y0268579
Y0278421
Y0288264
Y0320236
Y0330079
Y0339921
Y0349764
Y03955
Y0405343
Y0415185
Y0425028
X0165843Y0483224
X0175685
X0156
X0146157
X0136315
X0126472
X011663
T05
X0365933Y0389079
Y0398921
Y0427579
Y0437421
X0319421Y0478933
X0309579
X0267961
X0258118
X02165Y04785
X0206657
T06
X01615Y01325
X02475Y0132
T07
X0114Y0113
X0369
X0114Y04645
X0369Y04865
M30
