G04*
G04 #@! TF.GenerationSoftware,Altium Limited,Altium Designer,22.1.2 (22)*
G04*
G04 Layer_Color=0*
%FSLAX25Y25*%
%MOIN*%
G70*
G04*
G04 #@! TF.SameCoordinates,9BB02E8B-A7E0-4FF3-B7F6-0A232C0EF0B8*
G04*
G04*
G04 #@! TF.FilePolarity,Positive*
G04*
G01*
G75*
%ADD11C,0.00394*%
D11*
X368000Y430532D02*
Y434469D01*
X366032Y432500D02*
X369969D01*
X240903Y113264D02*
X244841D01*
X242872Y111296D02*
Y115233D01*
X153338Y113264D02*
X157275D01*
X155307Y111296D02*
Y115233D01*
X274500Y429711D02*
Y433648D01*
X272532Y431679D02*
X276468D01*
X144189Y484406D02*
X148126D01*
X146157Y482437D02*
Y486374D01*
X366032Y394000D02*
X369969D01*
X368000Y392032D02*
Y395969D01*
X161532Y358228D02*
X165469D01*
X163500Y356260D02*
Y360197D01*
X114500Y333032D02*
Y336969D01*
X112532Y335000D02*
X116469D01*
X211579Y478598D02*
Y482535D01*
X209610Y480567D02*
X213547D01*
X143531Y410260D02*
X147468D01*
X145500Y408291D02*
Y412228D01*
X277000Y377532D02*
Y381469D01*
X275032Y379500D02*
X278969D01*
X365098Y175236D02*
X369035D01*
X367067Y173268D02*
Y177205D01*
X323000Y111098D02*
Y115035D01*
X321032Y113067D02*
X324969D01*
X310000Y244697D02*
Y248634D01*
X308032Y246665D02*
X311969D01*
X263039Y479032D02*
Y482969D01*
X261071Y481000D02*
X265008D01*
X254067Y377032D02*
Y380969D01*
X252099Y379000D02*
X256036D01*
X271500Y389032D02*
Y392969D01*
X269532Y391000D02*
X273469D01*
X196532Y339000D02*
X200469D01*
X198500Y337032D02*
Y340969D01*
X196532Y351500D02*
X200469D01*
X198500Y349532D02*
Y353469D01*
X270500Y367032D02*
Y370969D01*
X268532Y369000D02*
X272469D01*
X254067Y388532D02*
Y392469D01*
X252099Y390500D02*
X256036D01*
X220532Y349000D02*
X224469D01*
X222500Y347032D02*
Y350969D01*
X255898Y217032D02*
Y220969D01*
X253929Y219000D02*
X257866D01*
X168372Y217417D02*
Y221354D01*
X166404Y219386D02*
X170341D01*
X254067Y365532D02*
Y369469D01*
X252099Y367500D02*
X256036D01*
X146032Y328000D02*
X149969D01*
X148000Y326032D02*
Y329969D01*
X180795Y423532D02*
Y427469D01*
X178827Y425500D02*
X182764D01*
X169295Y423532D02*
Y427469D01*
X167327Y425500D02*
X171264D01*
X158500Y423532D02*
Y427469D01*
X156531Y425500D02*
X160468D01*
X112532Y273500D02*
X116469D01*
X114500Y271532D02*
Y275469D01*
X112532Y410264D02*
X116469D01*
X114500Y408295D02*
Y412232D01*
X142606Y397000D02*
X146543D01*
X144575Y395032D02*
Y398969D01*
X338000Y339532D02*
Y343469D01*
X336032Y341500D02*
X339969D01*
X321717Y292106D02*
X325654D01*
X323685Y290138D02*
Y294075D01*
X251115Y450032D02*
Y453969D01*
X249146Y452000D02*
X253083D01*
X254000Y440063D02*
Y444000D01*
X252032Y442032D02*
X255969D01*
X314500Y479032D02*
Y482969D01*
X312532Y481000D02*
X316469D01*
X252505Y427795D02*
Y431732D01*
X250536Y429764D02*
X254473D01*
X252505Y416032D02*
Y419969D01*
X250536Y418000D02*
X254473D01*
X317999Y369032D02*
Y372969D01*
X316030Y371000D02*
X319967D01*
M02*
