G04*
G04 #@! TF.GenerationSoftware,Altium Limited,Altium Designer,22.1.2 (22)*
G04*
G04 Layer_Color=32768*
%FSLAX25Y25*%
%MOIN*%
G70*
G04*
G04 #@! TF.SameCoordinates,9BB02E8B-A7E0-4FF3-B7F6-0A232C0EF0B8*
G04*
G04*
G04 #@! TF.FilePolarity,Positive*
G04*
G01*
G75*
%ADD11C,0.00394*%
%ADD17C,0.00600*%
%ADD102C,0.00197*%
G36*
X168988Y316400D02*
Y311150D01*
X158012D01*
Y316400D01*
X156400D01*
Y330600D01*
X158012D01*
Y335850D01*
X168988D01*
Y330600D01*
X170600D01*
Y316400D01*
X168988D01*
D02*
G37*
D11*
X384803Y204283D02*
Y239717D01*
X354882Y204283D02*
X384803D01*
X354882D02*
Y239717D01*
X384803D01*
Y204283D02*
Y239717D01*
X354882Y204283D02*
X384803D01*
X354882D02*
Y239717D01*
X384803D01*
X291500Y244146D02*
Y246311D01*
X290417Y245228D02*
X292583D01*
X293630Y426500D02*
X297370D01*
X295500Y424630D02*
Y428370D01*
X138106Y227500D02*
X142043D01*
X140075Y225531D02*
Y229469D01*
X225650Y228000D02*
X229587D01*
X227618Y226031D02*
Y229969D01*
X190031Y398205D02*
X193968D01*
X192000Y396236D02*
Y400173D01*
X190031Y410205D02*
X193968D01*
X192000Y408236D02*
Y412173D01*
X210083Y418205D02*
Y443795D01*
X232917D01*
Y418205D02*
Y443795D01*
X210083Y418205D02*
X232917D01*
X163000Y341032D02*
Y344969D01*
X161031Y343000D02*
X164969D01*
X156500Y213669D02*
Y215835D01*
X155417Y214752D02*
X157583D01*
X179000Y215835D02*
Y217803D01*
X178015Y216819D02*
X179984D01*
X187000Y213669D02*
Y215835D01*
X185917Y214752D02*
X188083D01*
X139417Y327500D02*
X141583D01*
X140500Y326417D02*
Y328583D01*
X166925Y436000D02*
X170665D01*
X168795Y434130D02*
Y437870D01*
X141531Y357146D02*
X145469D01*
X143500Y355177D02*
Y359114D01*
X210083Y389705D02*
Y415295D01*
X232917D01*
Y389705D02*
Y415295D01*
X210083Y389705D02*
X232917D01*
X179075Y436000D02*
X182815D01*
X180945Y434130D02*
Y437870D01*
X172000Y287378D02*
Y291315D01*
X170032Y289346D02*
X173969D01*
X153917Y382205D02*
X156083D01*
X155000Y381122D02*
Y383287D01*
X161417Y382205D02*
X163583D01*
X162500Y381122D02*
Y383287D01*
X167531Y403500D02*
X171469D01*
X169500Y401532D02*
Y405469D01*
X172000Y252339D02*
Y256276D01*
X170032Y254307D02*
X173969D01*
X299500Y244146D02*
Y246311D01*
X298417Y245228D02*
X300583D01*
X275000Y213283D02*
Y215449D01*
X273917Y214366D02*
X276083D01*
X265848Y215449D02*
Y217417D01*
X264864Y216433D02*
X266832D01*
X323500Y245032D02*
Y248969D01*
X321532Y247000D02*
X325469D01*
X244000Y213283D02*
Y215449D01*
X242917Y214366D02*
X245083D01*
X141531Y340539D02*
X145469D01*
X143500Y338571D02*
Y342508D01*
X139417Y317500D02*
X141583D01*
X140500Y316417D02*
Y318583D01*
D17*
X168988Y311150D02*
Y316400D01*
X170600D01*
Y330600D01*
X168988D02*
X170600D01*
X168988D02*
Y335850D01*
X158012D02*
X168988D01*
X158012Y330600D02*
Y335850D01*
X156400Y330600D02*
X158012D01*
X156400Y316400D02*
Y330600D01*
Y316400D02*
X158012D01*
Y311150D02*
Y316400D01*
Y311150D02*
X168988D01*
D102*
X311736Y419732D02*
X325909D01*
Y436268D01*
X311736D02*
X325909D01*
X311736Y419732D02*
Y436268D01*
X288547Y246803D02*
X294453D01*
X288547Y243654D02*
X294453D01*
X288547D02*
Y246803D01*
X294453Y243654D02*
Y246803D01*
X302287Y440264D02*
Y455736D01*
Y440264D02*
X325713D01*
Y455736D01*
X302287D02*
X325713D01*
X264854Y410913D02*
Y425087D01*
Y410913D02*
X281390D01*
Y425087D01*
X264854D02*
X281390D01*
X287823Y422366D02*
Y430634D01*
X303177Y422366D02*
Y430634D01*
X287823D02*
X303177D01*
X287823Y422366D02*
X303177D01*
X131217Y223169D02*
Y231831D01*
X148933Y223169D02*
Y231831D01*
X131217D02*
X148933D01*
X131217Y223169D02*
X148933D01*
X218760Y223669D02*
Y232331D01*
X236476Y223669D02*
Y232331D01*
X218760D02*
X236476D01*
X218760Y223669D02*
X236476D01*
X188654Y392890D02*
Y403520D01*
X195346Y392890D02*
Y403520D01*
X188654Y392890D02*
X195346D01*
X188654Y403520D02*
X195346D01*
X188654Y404890D02*
Y415520D01*
X195346Y404890D02*
Y415520D01*
X188654Y404890D02*
X195346D01*
X188654Y415520D02*
X195346D01*
X157685Y339654D02*
X168315D01*
X157685Y346346D02*
X168315D01*
Y339654D02*
Y346346D01*
X157685Y339654D02*
Y346346D01*
X238228Y211307D02*
Y219693D01*
X218858Y211307D02*
X238228D01*
X218858D02*
Y219693D01*
X238228D01*
X150185Y210807D02*
Y219193D01*
X130815Y210807D02*
X150185D01*
X130815D02*
Y219193D01*
X150185D01*
X154925Y217705D02*
X158075D01*
X154925Y211799D02*
X158075D01*
Y217705D01*
X154925Y211799D02*
Y217705D01*
X177031Y211898D02*
X180968D01*
X177031D02*
Y221740D01*
X180968Y211898D02*
Y221740D01*
X177031D02*
X180968D01*
X185425Y211799D02*
X188575D01*
X185425Y217705D02*
X188575D01*
X185425Y211799D02*
Y217705D01*
X188575Y211799D02*
Y217705D01*
X138925Y324547D02*
Y330453D01*
X142075Y324547D02*
Y330453D01*
X138925Y324547D02*
X142075D01*
X138925Y330453D02*
X142075D01*
X163480Y433047D02*
Y438953D01*
X174110Y433047D02*
Y438953D01*
X163480D02*
X174110D01*
X163480Y433047D02*
X174110D01*
X135823Y351437D02*
Y362854D01*
X151177Y351437D02*
Y362854D01*
X135823D02*
X151177D01*
X135823Y351437D02*
X151177D01*
X175630Y433047D02*
Y438953D01*
X186260Y433047D02*
Y438953D01*
X175630D02*
X186260D01*
X175630Y433047D02*
X186260D01*
X168063Y296039D02*
X175937D01*
X168063Y282654D02*
X175937D01*
Y296039D01*
X168063Y282654D02*
Y296039D01*
X165134Y282358D02*
Y302043D01*
X131866D02*
X165134D01*
X131866Y282358D02*
Y302043D01*
Y282358D02*
X165134D01*
X153425Y379252D02*
Y385157D01*
X156575Y379252D02*
Y385157D01*
X153425Y379252D02*
X156575D01*
X153425Y385157D02*
X156575D01*
X164075Y379252D02*
Y385157D01*
X160925Y379252D02*
Y385157D01*
X164075D01*
X160925Y379252D02*
X164075D01*
X185445Y389524D02*
Y417476D01*
X153555Y389524D02*
Y417476D01*
X185445D01*
X153555Y389524D02*
X185445D01*
X168063Y261000D02*
X175937D01*
X168063Y247614D02*
X175937D01*
Y261000D01*
X168063Y247614D02*
Y261000D01*
X165134Y247319D02*
Y267004D01*
X131866D02*
X165134D01*
X131866Y247319D02*
Y267004D01*
Y247319D02*
X165134D01*
X264854Y455693D02*
X298516D01*
Y442307D02*
Y455693D01*
X264854Y442307D02*
X298516D01*
X264854D02*
Y455693D01*
X296547Y246803D02*
X302453D01*
X296547Y243654D02*
X302453D01*
X296547D02*
Y246803D01*
X302453Y243654D02*
Y246803D01*
X273425Y211413D02*
X276575D01*
X273425Y217319D02*
X276575D01*
X273425Y211413D02*
Y217319D01*
X276575Y211413D02*
Y217319D01*
X263879Y211512D02*
X267816D01*
X263879D02*
Y221354D01*
X267816Y211512D02*
Y221354D01*
X263879D02*
X267816D01*
X318185Y250346D02*
X328815D01*
X318185Y243654D02*
X328815D01*
X318185D02*
Y250346D01*
X328815Y243654D02*
Y250346D01*
X242425Y211413D02*
X245575D01*
X242425Y217319D02*
X245575D01*
X242425Y211413D02*
Y217319D01*
X245575Y211413D02*
Y217319D01*
X135823Y334831D02*
Y346248D01*
X151177Y334831D02*
Y346248D01*
X135823D02*
X151177D01*
X135823Y334831D02*
X151177D01*
X138925Y314547D02*
Y320453D01*
X142075Y314547D02*
Y320453D01*
X138925Y314547D02*
X142075D01*
X138925Y320453D02*
X142075D01*
M02*
