G04*
G04 #@! TF.GenerationSoftware,Altium Limited,Altium Designer,22.1.2 (22)*
G04*
G04 Layer_Physical_Order=2*
G04 Layer_Color=16711680*
%FSLAX25Y25*%
%MOIN*%
G70*
G04*
G04 #@! TF.SameCoordinates,9BB02E8B-A7E0-4FF3-B7F6-0A232C0EF0B8*
G04*
G04*
G04 #@! TF.FilePolarity,Positive*
G04*
G01*
G75*
%ADD14C,0.01000*%
%ADD81R,0.06102X0.06102*%
%ADD82C,0.06102*%
%ADD83R,0.05512X0.05512*%
%ADD84C,0.05512*%
%ADD87R,0.05512X0.05512*%
%ADD88R,0.06102X0.06102*%
%ADD91C,0.03000*%
%ADD92C,0.02000*%
%ADD94C,0.06000*%
%ADD95C,0.05118*%
%ADD96C,0.07244*%
%ADD97C,0.02362*%
%ADD98C,0.05000*%
D14*
X157500Y448500D02*
X236000D01*
X146157Y459843D02*
Y483224D01*
Y459843D02*
X157500Y448500D01*
X123406Y490000D02*
X202000D01*
X116630Y483224D02*
X123406Y490000D01*
X202000D02*
X206657Y485343D01*
Y478500D02*
Y485343D01*
X287681Y144500D02*
X308398D01*
X263200Y269800D02*
Y276187D01*
Y269800D02*
X267000Y266000D01*
X368371Y384000D02*
X369984Y385613D01*
X320400Y384000D02*
X368371D01*
X369984Y387484D02*
X372000Y389500D01*
X369984Y385613D02*
Y387484D01*
X372000Y389500D02*
Y396500D01*
X283200Y346800D02*
X320400Y384000D01*
X369898Y398602D02*
X372000Y396500D01*
X365933Y398921D02*
X366253Y398602D01*
X369898D01*
X175500Y308000D02*
X181000D01*
X175358Y313900D02*
X186900D01*
X188857D01*
X181000Y308000D02*
X186900Y313900D01*
X171700Y305819D02*
X308381D01*
X320420Y293780D01*
X176635Y302681D02*
X176816Y302500D01*
X171676Y301761D02*
X172597Y302681D01*
X169761Y301761D02*
X171676D01*
X173500Y297400D02*
X190400Y280500D01*
X172597Y302681D02*
X176635D01*
X173500Y297400D02*
Y300500D01*
X169500Y301500D02*
X169761Y301761D01*
X176816Y302500D02*
X301300D01*
X160100Y327900D02*
X163000Y325000D01*
X124231Y327900D02*
X160100D01*
X236000Y448500D02*
X275619Y408881D01*
X273438Y395647D02*
Y406262D01*
X274647Y383453D02*
Y394437D01*
X275619Y403500D02*
Y408881D01*
X255700Y424000D02*
X273438Y406262D01*
Y395647D02*
X274647Y394437D01*
X244000Y424000D02*
X255700D01*
X267961Y478933D02*
X277800Y469094D01*
X279500Y428500D02*
X287000Y436000D01*
X277800Y332400D02*
X282967Y327233D01*
X279500Y394100D02*
X300600Y373000D01*
X277800Y332400D02*
Y469094D01*
X281700Y405400D02*
X298021Y389079D01*
X279500Y394100D02*
Y428500D01*
X238000Y393500D02*
Y403500D01*
X222000Y419500D02*
X238000Y403500D01*
X116567Y395500D02*
X128067Y384000D01*
X170500D01*
X294973Y436027D02*
X303421Y427579D01*
X365933D01*
X158428Y424000D02*
X237000D01*
X240500Y420500D01*
X244000Y424000D01*
X249000Y404500D02*
X264500D01*
X235319Y415013D02*
X238488D01*
X249000Y404500D01*
X228650Y421681D02*
X235319Y415013D01*
X157109Y422681D02*
X158428Y424000D01*
X175727Y421681D02*
X228650D01*
X313000Y334000D02*
X323000D01*
X326000Y337000D01*
X331300D02*
X335681Y332619D01*
X326000Y337000D02*
X331300D01*
X335681Y265881D02*
Y332619D01*
X320420Y291580D02*
Y293780D01*
X316800Y247000D02*
X335681Y265881D01*
X320420Y291580D02*
X333500Y278500D01*
X293000Y314000D02*
X313000Y334000D01*
X192379Y312500D02*
X298000D01*
X302000Y316500D01*
X157000Y420000D02*
X157109Y420109D01*
Y422681D01*
X174546Y420500D02*
X175727Y421681D01*
X160500Y420500D02*
X174546D01*
X187500Y419500D02*
X222000D01*
X116567Y425028D02*
X135095Y406500D01*
X157000D01*
X139681Y305819D02*
X167277D01*
X155500Y314700D02*
X159000Y311200D01*
Y308000D02*
Y311200D01*
X137400Y308100D02*
X139681Y305819D01*
X167277D02*
X175358Y313900D01*
X147500Y314700D02*
X155500D01*
X135761Y322261D02*
X139939D01*
X146481Y315719D01*
X152800Y339700D02*
X155500Y337000D01*
X152800Y339700D02*
Y351017D01*
X225000Y207000D02*
X225250Y206750D01*
X247250D02*
X247500Y206500D01*
X224937Y268800D02*
X244737Y249000D01*
X292500D01*
X316500Y247000D02*
X316800D01*
X315200Y244500D02*
X365000Y194700D01*
X311000Y244500D02*
X315200D01*
X365000Y190000D02*
Y194700D01*
X316800Y247000D02*
X350500D01*
X354500Y243000D01*
X308398Y144500D02*
X337764Y115134D01*
X258500Y229000D02*
X326000D01*
X365000Y190000D01*
X176500Y346500D02*
X178600Y348600D01*
X224000D01*
X242400Y330200D01*
X284267Y327233D02*
X290000Y321500D01*
Y318681D02*
Y321500D01*
X188857Y313900D02*
X191757Y311000D01*
X193000Y314000D02*
X293000D01*
X311500Y311000D02*
X314394Y313894D01*
X167800Y339200D02*
X193000Y314000D01*
X189160Y315719D02*
X192379Y312500D01*
X191757Y311000D02*
X311500D01*
X146481Y315719D02*
X189160D01*
X282967Y327233D02*
X284267D01*
X146481Y315719D02*
X147500Y314700D01*
X116567Y415185D02*
X128252Y403500D01*
X165523D01*
X193500Y455500D02*
X216500Y478500D01*
X171700Y455500D02*
X193500D01*
X167800Y339200D02*
Y375330D01*
X116567Y320236D02*
X124231Y327900D01*
X286900Y280500D02*
X302000Y265400D01*
X190400Y280500D02*
X286900D01*
X298021Y389079D02*
X365933D01*
X181016Y410700D02*
X191916Y399800D01*
X234800D01*
X206657Y478500D02*
X218557Y490400D01*
X246651D01*
X258118Y478933D01*
X262185Y483000D01*
X315354D01*
X319421Y478933D01*
X385000Y491000D02*
G03*
X375000Y501000I-10000J0D01*
G01*
Y101000D02*
G03*
X385000Y111000I0J10000D01*
G01*
X111500Y501000D02*
G03*
X101500Y491000I0J-10000D01*
G01*
Y111000D02*
G03*
X111500Y101000I10000J0D01*
G01*
X375000D01*
X111500Y501000D02*
X375000D01*
X385000Y111000D02*
Y491000D01*
X101500Y111000D02*
Y491000D01*
D81*
X365933Y427579D02*
D03*
Y389079D02*
D03*
D82*
Y437421D02*
D03*
Y398921D02*
D03*
X206657Y478500D02*
D03*
X258118Y478933D02*
D03*
X309579D02*
D03*
D83*
X252715Y111197D02*
D03*
X165149Y111197D02*
D03*
X175685Y483224D02*
D03*
X308236Y115134D02*
D03*
D84*
X242872Y111197D02*
D03*
X233030D02*
D03*
X155307Y111197D02*
D03*
X145464D02*
D03*
X165843Y483224D02*
D03*
X156000D02*
D03*
X146157D02*
D03*
X136315D02*
D03*
X126472D02*
D03*
X116630D02*
D03*
X116567Y320236D02*
D03*
Y330079D02*
D03*
Y339921D02*
D03*
X365000Y170315D02*
D03*
Y180157D02*
D03*
Y190000D02*
D03*
X318079Y115134D02*
D03*
X327921D02*
D03*
X337764D02*
D03*
X116567Y278421D02*
D03*
Y268579D02*
D03*
Y258736D02*
D03*
Y415185D02*
D03*
Y405343D02*
D03*
Y395500D02*
D03*
D87*
Y349764D02*
D03*
X365000Y160472D02*
D03*
X116567Y288264D02*
D03*
Y425028D02*
D03*
D88*
X216500Y478500D02*
D03*
X267961Y478933D02*
D03*
X319421D02*
D03*
D91*
X247999Y115913D02*
X252715Y111197D01*
X246380Y115913D02*
X247999D01*
X241430Y120863D02*
X246380Y115913D01*
X230000Y114227D02*
X233030Y111197D01*
X223878Y174122D02*
X230000Y168000D01*
Y114227D02*
Y168000D01*
X155307Y158591D02*
X185764Y189047D01*
X155307Y111197D02*
Y158591D01*
X223878Y174122D02*
Y187906D01*
X137878Y188406D02*
X145464Y180819D01*
Y111197D02*
Y180819D01*
D92*
X198000Y362000D02*
X240000D01*
X197902D02*
X198000D01*
X321400Y381000D02*
X331000D01*
X301800Y361400D02*
X321400Y381000D01*
X188600Y364500D02*
X195402D01*
X197902Y362000D01*
X240000D02*
X286000Y316000D01*
X173700Y349600D02*
X188600Y364500D01*
X225250Y206750D02*
X247250D01*
X173700Y343300D02*
Y349600D01*
Y343300D02*
X193000Y324000D01*
X228000D01*
X286000Y316000D02*
X292000D01*
X301800Y325800D01*
Y361400D01*
D94*
X114000Y464500D02*
D03*
Y113000D02*
D03*
X369000D02*
D03*
Y486500D02*
D03*
D95*
X185122Y188406D02*
D03*
X137878D02*
D03*
X185122Y140374D02*
D03*
X137878D02*
D03*
X271122Y187906D02*
D03*
X223878D02*
D03*
X271122Y139874D02*
D03*
X223878D02*
D03*
D96*
X161500Y132500D02*
D03*
X247500Y132000D02*
D03*
D97*
X241430Y120863D02*
D03*
X287681Y144500D02*
D03*
X267000Y266000D02*
D03*
X331000Y381000D02*
D03*
X175500Y308000D02*
D03*
X171700Y305819D02*
D03*
X173500Y300500D02*
D03*
X169500Y301500D02*
D03*
X163000Y325000D02*
D03*
X275619Y403500D02*
D03*
X281700Y405400D02*
D03*
X238000Y393500D02*
D03*
X198000Y362000D02*
D03*
X170500Y384000D02*
D03*
X294973Y436027D02*
D03*
X287000Y436000D02*
D03*
X240500Y420500D02*
D03*
X244000Y409500D02*
D03*
X264500Y404500D02*
D03*
X326000Y337000D02*
D03*
X333500Y278500D02*
D03*
X302000Y316500D02*
D03*
X157000Y420000D02*
D03*
X160500Y420500D02*
D03*
X187500Y419500D02*
D03*
X157000Y406500D02*
D03*
X159000Y308000D02*
D03*
X135761Y322261D02*
D03*
X155500Y337000D02*
D03*
X225000Y207000D02*
D03*
X247500Y206500D02*
D03*
X292500Y249000D02*
D03*
X316500Y247000D02*
D03*
X263200Y276187D02*
D03*
X258500Y229000D02*
D03*
X224937Y268800D02*
D03*
X176500Y346500D02*
D03*
X228000Y324000D02*
D03*
X290000Y318681D02*
D03*
X165523Y403500D02*
D03*
X274647Y383453D02*
D03*
X137400Y308100D02*
D03*
X171700Y455500D02*
D03*
X311000Y244500D02*
D03*
X283200Y346800D02*
D03*
X167800Y375330D02*
D03*
X302000Y265400D02*
D03*
X301300Y302500D02*
D03*
X181016Y410700D02*
D03*
X234800Y399800D02*
D03*
X300600Y373000D02*
D03*
X152800Y351017D02*
D03*
X242400Y330200D02*
D03*
X314394Y313894D02*
D03*
D98*
X354500Y243000D02*
D03*
M02*
