G04*
G04 #@! TF.GenerationSoftware,Altium Limited,Altium Designer,22.1.2 (22)*
G04*
G04 Layer_Color=65535*
%FSLAX25Y25*%
%MOIN*%
G70*
G04*
G04 #@! TF.SameCoordinates,9BB02E8B-A7E0-4FF3-B7F6-0A232C0EF0B8*
G04*
G04*
G04 #@! TF.FilePolarity,Positive*
G04*
G01*
G75*
%ADD10C,0.00984*%
%ADD11C,0.00394*%
%ADD12C,0.00787*%
%ADD13C,0.02362*%
%ADD14C,0.01000*%
%ADD15C,0.00500*%
%ADD16C,0.01575*%
%ADD17C,0.00600*%
%ADD18C,0.00300*%
G36*
X158812Y335850D02*
Y336850D01*
X160312D01*
Y335850D01*
X158812D01*
D02*
G37*
D10*
X366425Y415276D02*
G03*
X366425Y415276I-492J0D01*
G01*
X264919Y111001D02*
G03*
X264919Y111001I-492J0D01*
G01*
X177354Y111000D02*
G03*
X177354Y111000I-492J0D01*
G01*
X188382Y483224D02*
G03*
X188382Y483224I-492J0D01*
G01*
X366425Y376776D02*
G03*
X366425Y376776I-492J0D01*
G01*
X117059Y361575D02*
G03*
X117059Y361575I-492J0D01*
G01*
X229295Y478500D02*
G03*
X229295Y478500I-492J0D01*
G01*
X289795Y379500D02*
G03*
X289795Y379500I-492J0D01*
G01*
X365492Y148661D02*
G03*
X365492Y148661I-492J0D01*
G01*
X296917Y115134D02*
G03*
X296917Y115134I-492J0D01*
G01*
X280756Y478933D02*
G03*
X280756Y478933I-492J0D01*
G01*
X265201Y391000D02*
G03*
X265201Y391000I-492J0D01*
G01*
X265677Y369098D02*
G03*
X265677Y369098I-492J0D01*
G01*
X209213Y336028D02*
G03*
X209213Y336028I-492J0D01*
G01*
X152965Y392280D02*
G03*
X152965Y392280I-492J0D01*
G01*
X117059Y300075D02*
G03*
X117059Y300075I-492J0D01*
G01*
Y436839D02*
G03*
X117059Y436839I-492J0D01*
G01*
X344886Y331772D02*
G03*
X344886Y331772I-492J0D01*
G01*
X332217Y478933D02*
G03*
X332217Y478933I-492J0D01*
G01*
D11*
X377126Y237748D02*
G03*
X377126Y237354I0J-197D01*
G01*
D02*
G03*
X377126Y237748I0J197D01*
G01*
X217563Y420126D02*
G03*
X217563Y420520I0J197D01*
G01*
D02*
G03*
X217563Y420126I0J-197D01*
G01*
Y391626D02*
G03*
X217563Y392020I0J197D01*
G01*
D02*
G03*
X217563Y391626I0J-197D01*
G01*
D12*
X239941Y215500D02*
G03*
X239941Y215500I-394J0D01*
G01*
X151898Y215000D02*
G03*
X151898Y215000I-394J0D01*
G01*
X356681Y417933D02*
Y447067D01*
X379319D01*
Y417933D02*
Y447067D01*
X356681Y417933D02*
X379319D01*
X223384Y101945D02*
X262360D01*
X223384D02*
Y124583D01*
X262360D01*
Y101945D02*
Y124583D01*
X135819Y101945D02*
X174795D01*
X135819D02*
Y124583D01*
X174795D01*
Y101945D02*
Y124583D01*
X365118Y232236D02*
X374567D01*
X365118Y211764D02*
X374567D01*
X377716Y230661D02*
X380079Y227906D01*
Y224362D02*
Y227906D01*
Y216094D02*
Y219638D01*
X377716Y213339D02*
X380079Y216094D01*
X359606Y227906D02*
X361968Y230661D01*
X359606Y224362D02*
Y227906D01*
Y216094D02*
X361968Y213339D01*
X359606Y216094D02*
Y219638D01*
X269566Y435235D02*
X279433D01*
X269566Y428124D02*
X279433D01*
X106787Y476925D02*
X185528D01*
X106787D02*
Y491886D01*
X185528D01*
Y476925D02*
Y491886D01*
X356681Y379433D02*
X379319D01*
Y408567D01*
X356681D02*
X379319D01*
X356681Y379433D02*
Y408567D01*
X161335Y361772D02*
X165665D01*
X161335Y354685D02*
X165665D01*
X103181Y310591D02*
Y359409D01*
X125819D01*
Y310591D02*
Y359409D01*
X103181Y310591D02*
X125819D01*
X226146Y469248D02*
Y491886D01*
X197012D02*
X226146D01*
X197012Y469248D02*
Y491886D01*
Y469248D02*
X226146D01*
X142744Y409374D02*
Y411146D01*
X148256Y409374D02*
Y411146D01*
X274539Y382846D02*
X279461D01*
X274539Y376154D02*
X279461D01*
X355748Y199646D02*
X378386D01*
X355748Y150827D02*
Y199646D01*
Y150827D02*
X378386D01*
Y199646D01*
X347409Y101748D02*
Y124386D01*
X298591D02*
X347409D01*
X298591Y101748D02*
Y124386D01*
Y101748D02*
X347409D01*
X308302Y244441D02*
X311698D01*
X308302Y248890D02*
X311698D01*
X277606Y469681D02*
Y492319D01*
X248472D02*
X277606D01*
X248472Y469681D02*
Y492319D01*
Y469681D02*
X277606D01*
X312917Y420717D02*
Y425441D01*
X313016Y426819D02*
X324630D01*
Y429181D01*
X313016D02*
X324630D01*
X313016Y426819D02*
Y429181D01*
X314000Y442016D02*
Y453984D01*
X265839Y423906D02*
X270563D01*
X271941Y412193D02*
Y423807D01*
Y412193D02*
X274303D01*
Y423807D01*
X271941D02*
X274303D01*
X252591Y375555D02*
X255544D01*
X252591Y382445D02*
X255544D01*
X138106Y230354D02*
X142043D01*
X138106Y224646D02*
X142043D01*
X225650Y230854D02*
X229587D01*
X225650Y225146D02*
X229587D01*
X268154Y394150D02*
X274846D01*
X268154Y387850D02*
X274846D01*
X195744Y338114D02*
Y339886D01*
X201256Y338114D02*
Y339886D01*
X195744Y350614D02*
Y352386D01*
X201256Y350614D02*
Y352386D01*
X268335Y366424D02*
X272665D01*
X268335Y371559D02*
X272665D01*
X252591Y387055D02*
X255544D01*
X252591Y393945D02*
X255544D01*
X209695Y342100D02*
X235305D01*
Y355900D01*
X209695D02*
X235305D01*
X209695Y342100D02*
Y355900D01*
X252355Y218311D02*
Y219689D01*
X254225Y212898D02*
X259441D01*
Y222051D02*
Y225102D01*
Y212898D02*
Y215949D01*
X254225Y225102D02*
X259441D01*
X164829Y218697D02*
Y220075D01*
X166699Y213283D02*
X171915D01*
Y222437D02*
Y225488D01*
Y213283D02*
Y216335D01*
X166699Y225488D02*
X171915D01*
X252591Y364055D02*
X255544D01*
X252591Y370945D02*
X255544D01*
X150224Y326302D02*
Y329698D01*
X145776Y326302D02*
Y329698D01*
X180795Y423532D02*
Y427469D01*
X141925Y361870D02*
X145075D01*
X141925Y352421D02*
X145075D01*
X169295Y423532D02*
Y427469D01*
X157654Y284445D02*
X164150D01*
X156276Y283736D02*
Y300665D01*
X140724D02*
X156276D01*
X140724Y283736D02*
Y300665D01*
Y283736D02*
X156276D01*
X158500Y423532D02*
Y427469D01*
X185051Y396217D02*
Y410783D01*
X153949Y396217D02*
Y410783D01*
X185051D01*
X153949Y396217D02*
X185051D01*
X157654Y249406D02*
X164150D01*
X156276Y248697D02*
Y265626D01*
X140724D02*
X156276D01*
X140724Y248697D02*
Y265626D01*
Y248697D02*
X156276D01*
X103181Y249091D02*
X125819D01*
Y297909D01*
X103181D02*
X125819D01*
X103181Y249091D02*
Y297909D01*
Y385854D02*
X125819D01*
Y434673D01*
X103181D02*
X125819D01*
X103181Y385854D02*
Y434673D01*
X273319Y454315D02*
X290051D01*
Y443685D02*
Y454315D01*
X273319Y443685D02*
X290051D01*
X273319D02*
Y454315D01*
X265839Y454157D02*
X271941D01*
X146799Y395302D02*
Y398698D01*
X142350Y395302D02*
Y398698D01*
X337114Y338744D02*
X338886D01*
X337114Y344256D02*
X338886D01*
X347642Y327835D02*
X374177D01*
X273193D02*
X276146D01*
X273193Y256378D02*
Y266339D01*
Y317835D02*
Y327835D01*
X347642Y256378D02*
X374177D01*
X273193D02*
X276146D01*
X374177D02*
Y327835D01*
X251115Y450130D02*
Y453870D01*
X251047Y438291D02*
X256953D01*
X251047Y445772D02*
X256953D01*
X329067Y469681D02*
Y492319D01*
X299933D02*
X329067D01*
X299933Y469681D02*
Y492319D01*
Y469681D02*
X329067D01*
X247571Y433319D02*
X257438D01*
X247571Y426208D02*
X257438D01*
X247571Y421556D02*
X257438D01*
X247571Y414444D02*
X257438D01*
X316300Y373224D02*
X319697D01*
X316300Y368776D02*
X319697D01*
X141925Y345264D02*
X145075D01*
X141925Y335815D02*
X145075D01*
D13*
X159067Y400153D02*
G03*
X159067Y400153I-1181J0D01*
G01*
D14*
X130988Y126988D02*
X192012D01*
Y202185D01*
X130988D02*
X192012D01*
X130988Y126988D02*
Y202185D01*
X216988Y126488D02*
X278012D01*
Y201685D01*
X216988D02*
X278012D01*
X216988Y126488D02*
Y201685D01*
D15*
X225591Y212744D02*
X231496D01*
X225591Y218256D02*
X231496D01*
X137547Y212244D02*
X143453D01*
X137547Y217756D02*
X143453D01*
X355000Y390000D02*
X352001D01*
Y391499D01*
X352501Y391999D01*
X353501D01*
X354000Y391499D01*
Y390000D01*
Y391000D02*
X355000Y391999D01*
X352001Y392999D02*
X355000Y394998D01*
X352001D02*
X355000Y392999D01*
X351501Y431500D02*
Y433499D01*
Y432500D01*
X354500D01*
X351501Y434499D02*
X354500Y436498D01*
X351501D02*
X354500Y434499D01*
X301721Y493875D02*
Y496874D01*
X303221D01*
X303721Y496375D01*
Y495375D01*
X303221Y494875D01*
X301721D01*
X305220Y493875D02*
X306220D01*
X306720Y494375D01*
Y495375D01*
X306220Y495875D01*
X305220D01*
X304720Y495375D01*
Y494375D01*
X305220Y493875D01*
X307719Y495875D02*
Y494375D01*
X308219Y493875D01*
X308719Y494375D01*
X309219Y493875D01*
X309719Y494375D01*
Y495875D01*
X312218Y493875D02*
X311218D01*
X310718Y494375D01*
Y495375D01*
X311218Y495875D01*
X312218D01*
X312718Y495375D01*
Y494875D01*
X310718D01*
X313718Y495875D02*
Y493875D01*
Y494875D01*
X314217Y495375D01*
X314717Y495875D01*
X315217D01*
X382499Y180500D02*
X380000D01*
X379500Y180000D01*
Y179000D01*
X380000Y178501D01*
X382499D01*
X379500Y177501D02*
X381499D01*
X382499Y176501D01*
X381499Y175502D01*
X379500D01*
X380999D01*
Y177501D01*
X379500Y174502D02*
X382499D01*
Y173002D01*
X381999Y172503D01*
X380999D01*
X380500Y173002D01*
Y174502D01*
Y173502D02*
X379500Y172503D01*
X382499Y171503D02*
Y169503D01*
Y170503D01*
X379500D01*
X348501Y103499D02*
Y102500D01*
Y102999D01*
X351000D01*
X351500Y102500D01*
Y102000D01*
X351000Y101500D01*
X348501Y104499D02*
Y106498D01*
Y105499D01*
X351500D01*
Y107498D02*
X349501D01*
X348501Y108498D01*
X349501Y109497D01*
X351500D01*
X350001D01*
Y107498D01*
X349001Y112496D02*
X348501Y111997D01*
Y110997D01*
X349001Y110497D01*
X351000D01*
X351500Y110997D01*
Y111997D01*
X351000Y112496D01*
X350001D01*
Y111497D01*
X221000Y102500D02*
X218001D01*
Y103999D01*
X218501Y104499D01*
X219500D01*
X220000Y103999D01*
Y102500D01*
Y103500D02*
X221000Y104499D01*
Y106999D02*
Y105999D01*
X220500Y105499D01*
X219500D01*
X219001Y105999D01*
Y106999D01*
X219500Y107498D01*
X220000D01*
Y105499D01*
X221000Y108498D02*
Y109498D01*
Y108998D01*
X218001D01*
Y108498D01*
X219001Y111497D02*
Y112497D01*
X219500Y112997D01*
X221000D01*
Y111497D01*
X220500Y110997D01*
X220000Y111497D01*
Y112997D01*
X219001Y113996D02*
X220500D01*
X221000Y114496D01*
Y115996D01*
X221500D01*
X222000Y115496D01*
Y114996D01*
X221000Y115996D02*
X219001D01*
X221000Y118995D02*
Y116995D01*
X219001Y118995D01*
X218501D01*
X218001Y118495D01*
Y117495D01*
X218501Y116995D01*
X133925Y102052D02*
X130926D01*
Y103551D01*
X131426Y104051D01*
X132426D01*
X132926Y103551D01*
Y102052D01*
Y103051D02*
X133925Y104051D01*
Y106550D02*
Y105551D01*
X133425Y105051D01*
X132426D01*
X131926Y105551D01*
Y106550D01*
X132426Y107050D01*
X132926D01*
Y105051D01*
X133925Y108050D02*
Y109049D01*
Y108549D01*
X130926D01*
Y108050D01*
X131926Y111049D02*
Y112048D01*
X132426Y112548D01*
X133925D01*
Y111049D01*
X133425Y110549D01*
X132926Y111049D01*
Y112548D01*
X131926Y113548D02*
X133425D01*
X133925Y114048D01*
Y115547D01*
X134425D01*
X134925Y115047D01*
Y114548D01*
X133925Y115547D02*
X131926D01*
X133925Y116547D02*
Y117547D01*
Y117047D01*
X130926D01*
X131426Y116547D01*
X105499Y246499D02*
X104999Y246999D01*
X104000D01*
X103500Y246499D01*
Y245999D01*
X104000Y245499D01*
X104999D01*
X105499Y245000D01*
Y244500D01*
X104999Y244000D01*
X104000D01*
X103500Y244500D01*
X108498Y246499D02*
X107999Y246999D01*
X106999D01*
X106499Y246499D01*
Y245999D01*
X106999Y245499D01*
X107999D01*
X108498Y245000D01*
Y244500D01*
X107999Y244000D01*
X106999D01*
X106499Y244500D01*
X109498Y244000D02*
Y246999D01*
X110998D01*
X111497Y246499D01*
Y245499D01*
X110998Y245000D01*
X109498D01*
X110498D02*
X111497Y244000D01*
X112497D02*
X113997D01*
X114496Y244500D01*
X113997Y245000D01*
X112997D01*
X112497Y245499D01*
X112997Y245999D01*
X114496D01*
X129999Y350501D02*
X130499Y351000D01*
Y352000D01*
X129999Y352500D01*
X128000D01*
X127500Y352000D01*
Y351000D01*
X128000Y350501D01*
X129499Y349501D02*
X128000D01*
X127500Y349001D01*
Y347502D01*
X129499D01*
Y346502D02*
X127500D01*
X128500D01*
X128999Y346002D01*
X129499Y345502D01*
Y345002D01*
Y343503D02*
X127500D01*
X128500D01*
X128999Y343003D01*
X129499Y342503D01*
Y342003D01*
X127500Y339004D02*
Y340004D01*
X128000Y340504D01*
X128999D01*
X129499Y340004D01*
Y339004D01*
X128999Y338505D01*
X128500D01*
Y340504D01*
X127500Y337505D02*
X129499D01*
Y336005D01*
X128999Y335506D01*
X127500D01*
X129999Y334006D02*
X129499D01*
Y334506D01*
Y333506D01*
Y334006D01*
X128000D01*
X127500Y333506D01*
X129999Y327008D02*
X130499Y327508D01*
Y328508D01*
X129999Y329008D01*
X129499D01*
X128999Y328508D01*
Y327508D01*
X128500Y327008D01*
X128000D01*
X127500Y327508D01*
Y328508D01*
X128000Y329008D01*
X130499Y326009D02*
X127500D01*
X128999D01*
X129499Y325509D01*
Y324509D01*
X128999Y324009D01*
X127500D01*
X129499Y323009D02*
X128000D01*
X127500Y322510D01*
Y321010D01*
X129499D01*
X127500Y320010D02*
X129499D01*
Y318511D01*
X128999Y318011D01*
X127500D01*
X129999Y316512D02*
X129499D01*
Y317011D01*
Y316012D01*
Y316512D01*
X128000D01*
X127500Y316012D01*
X105999Y383999D02*
X104000D01*
Y381000D01*
X105999D01*
X104000Y382500D02*
X105000D01*
X106999Y382999D02*
X108998Y381000D01*
X107999Y382000D01*
X108998Y382999D01*
X106999Y381000D01*
X110498Y383499D02*
Y382999D01*
X109998D01*
X110998D01*
X110498D01*
Y381500D01*
X110998Y381000D01*
X115496Y383999D02*
X116496D01*
X115996D01*
Y381000D01*
X115496D01*
X116496D01*
X119495Y383999D02*
X118495D01*
X117996Y383499D01*
Y381500D01*
X118495Y381000D01*
X119495D01*
X119995Y381500D01*
Y383499D01*
X119495Y383999D01*
X109499Y496499D02*
X109000Y496999D01*
X108000D01*
X107500Y496499D01*
Y495999D01*
X108000Y495500D01*
X109000D01*
X109499Y495000D01*
Y494500D01*
X109000Y494000D01*
X108000D01*
X107500Y494500D01*
X110499Y495999D02*
Y494500D01*
X110999Y494000D01*
X111499Y494500D01*
X111999Y494000D01*
X112498Y494500D01*
Y495999D01*
X113498Y494000D02*
X114498D01*
X113998D01*
Y495999D01*
X113498D01*
X116497Y496499D02*
Y495999D01*
X115997D01*
X116997D01*
X116497D01*
Y494500D01*
X116997Y494000D01*
X120496Y495999D02*
X118996D01*
X118496Y495500D01*
Y494500D01*
X118996Y494000D01*
X120496D01*
X121495Y496999D02*
Y494000D01*
Y495500D01*
X121995Y495999D01*
X122995D01*
X123495Y495500D01*
Y494000D01*
X125994D02*
X124994D01*
X124495Y494500D01*
Y495500D01*
X124994Y495999D01*
X125994D01*
X126494Y495500D01*
Y495000D01*
X124495D01*
X127494Y494000D02*
X128993D01*
X129493Y494500D01*
X128993Y495000D01*
X127993D01*
X127494Y495500D01*
X127993Y495999D01*
X129493D01*
X197500Y493500D02*
Y496499D01*
X198500Y495499D01*
X199499Y496499D01*
Y493500D01*
X200499Y495499D02*
Y494000D01*
X200999Y493500D01*
X202498D01*
Y495499D01*
X203498D02*
X205497Y493500D01*
X204498Y494500D01*
X205497Y495499D01*
X203498Y493500D01*
X248500Y496999D02*
Y494000D01*
X249999D01*
X250499Y494500D01*
Y495000D01*
X249999Y495500D01*
X248500D01*
X249999D01*
X250499Y495999D01*
Y496499D01*
X249999Y496999D01*
X248500D01*
X251999Y494000D02*
X252998D01*
X253498Y494500D01*
Y495500D01*
X252998Y495999D01*
X251999D01*
X251499Y495500D01*
Y494500D01*
X251999Y494000D01*
X254998D02*
X255998D01*
X256497Y494500D01*
Y495500D01*
X255998Y495999D01*
X254998D01*
X254498Y495500D01*
Y494500D01*
X254998Y494000D01*
X257997Y496499D02*
Y495999D01*
X257497D01*
X258497D01*
X257997D01*
Y494500D01*
X258497Y494000D01*
X301721Y494070D02*
Y497069D01*
X303221D01*
X303721Y496569D01*
Y495570D01*
X303221Y495070D01*
X301721D01*
X305220Y494070D02*
X306220D01*
X306720Y494570D01*
Y495570D01*
X306220Y496070D01*
X305220D01*
X304720Y495570D01*
Y494570D01*
X305220Y494070D01*
X307719Y496070D02*
Y494570D01*
X308219Y494070D01*
X308719Y494570D01*
X309219Y494070D01*
X309719Y494570D01*
Y496070D01*
X312218Y494070D02*
X311218D01*
X310718Y494570D01*
Y495570D01*
X311218Y496070D01*
X312218D01*
X312718Y495570D01*
Y495070D01*
X310718D01*
X313718Y496070D02*
Y494070D01*
Y495070D01*
X314217Y495570D01*
X314717Y496070D01*
X315217D01*
X134144Y209704D02*
Y207705D01*
Y208371D01*
X135477Y209704D01*
X134477Y208705D01*
X135477Y207705D01*
X136143D02*
X136810D01*
X136476D01*
Y209704D01*
X136143Y209371D01*
X369167Y237167D02*
X368834Y237500D01*
X368167D01*
X367834Y237167D01*
Y236833D01*
X368167Y236500D01*
X368834D01*
X369167Y236167D01*
Y235834D01*
X368834Y235500D01*
X368167D01*
X367834Y235834D01*
X369833Y237167D02*
X370166Y237500D01*
X370833D01*
X371166Y237167D01*
Y236833D01*
X370833Y236500D01*
X370500D01*
X370833D01*
X371166Y236167D01*
Y235834D01*
X370833Y235500D01*
X370166D01*
X369833Y235834D01*
X365667Y450500D02*
X365001D01*
X365334D01*
Y448834D01*
X365001Y448500D01*
X364667D01*
X364334Y448834D01*
X366334Y448500D02*
Y450500D01*
X367333D01*
X367666Y450167D01*
Y449500D01*
X367333Y449167D01*
X366334D01*
X369666Y450500D02*
X368333D01*
Y449500D01*
X368999Y449833D01*
X369333D01*
X369666Y449500D01*
Y448834D01*
X369333Y448500D01*
X368666D01*
X368333Y448834D01*
X370167Y378000D02*
X369501D01*
X369834D01*
Y376334D01*
X369501Y376000D01*
X369167D01*
X368834Y376334D01*
X370834Y376000D02*
Y378000D01*
X371833D01*
X372166Y377666D01*
Y377000D01*
X371833Y376667D01*
X370834D01*
X374166Y378000D02*
X373499Y377666D01*
X372833Y377000D01*
Y376334D01*
X373166Y376000D01*
X373833D01*
X374166Y376334D01*
Y376667D01*
X373833Y377000D01*
X372833D01*
X265872Y107478D02*
Y108145D01*
Y107811D01*
X264206D01*
X263872Y108145D01*
Y108478D01*
X264206Y108811D01*
X263872Y106812D02*
Y106145D01*
Y106479D01*
X265872D01*
X265539Y106812D01*
X263872Y105146D02*
Y104479D01*
Y104812D01*
X265872D01*
X265539Y105146D01*
X176000Y113834D02*
Y113167D01*
Y113500D01*
X177666D01*
X178000Y113167D01*
Y112834D01*
X177666Y112501D01*
X178000Y114500D02*
Y115167D01*
Y114833D01*
X176000D01*
X176333Y114500D01*
Y116166D02*
X176000Y116499D01*
Y117166D01*
X176333Y117499D01*
X177666D01*
X178000Y117166D01*
Y116499D01*
X177666Y116166D01*
X176333D01*
X150957Y394054D02*
X152623D01*
X152956Y394388D01*
Y395054D01*
X152623Y395387D01*
X150957D01*
Y397387D02*
Y396054D01*
X151957D01*
X151623Y396720D01*
Y397053D01*
X151957Y397387D01*
X152623D01*
X152956Y397053D01*
Y396387D01*
X152623Y396054D01*
X206500Y337834D02*
X208166D01*
X208500Y338167D01*
Y338834D01*
X208166Y339167D01*
X206500D01*
X206834Y339833D02*
X206500Y340166D01*
Y340833D01*
X206834Y341166D01*
X207167D01*
X207500Y340833D01*
Y340500D01*
Y340833D01*
X207833Y341166D01*
X208166D01*
X208500Y340833D01*
Y340166D01*
X208166Y339833D01*
X207641Y391064D02*
X207307Y390731D01*
Y390065D01*
X207641Y389732D01*
X207974D01*
X208307Y390065D01*
Y390731D01*
X208640Y391064D01*
X208974D01*
X209307Y390731D01*
Y390065D01*
X208974Y389732D01*
X209307Y393064D02*
Y391731D01*
X207974Y393064D01*
X207641D01*
X207307Y392730D01*
Y392064D01*
X207641Y391731D01*
X207708Y419500D02*
X207374Y419167D01*
Y418500D01*
X207708Y418167D01*
X208041D01*
X208374Y418500D01*
Y419167D01*
X208707Y419500D01*
X209040D01*
X209374Y419167D01*
Y418500D01*
X209040Y418167D01*
X209374Y420166D02*
Y420833D01*
Y420500D01*
X207374D01*
X207708Y420166D01*
X246382Y395000D02*
Y397000D01*
X247381D01*
X247715Y396667D01*
Y396000D01*
X247381Y395667D01*
X246382D01*
X247048D02*
X247715Y395000D01*
X249714D02*
X248381D01*
X249714Y396333D01*
Y396667D01*
X249381Y397000D01*
X248714D01*
X248381Y396667D01*
X251380Y395000D02*
Y397000D01*
X250380Y396000D01*
X251713D01*
X176129Y428650D02*
Y430650D01*
X177129D01*
X177462Y430316D01*
Y429650D01*
X177129Y429317D01*
X176129D01*
X176796D02*
X177462Y428650D01*
X179462D02*
X178129D01*
X179462Y429983D01*
Y430316D01*
X179129Y430650D01*
X178462D01*
X178129Y430316D01*
X180128D02*
X180461Y430650D01*
X181128D01*
X181461Y430316D01*
Y429983D01*
X181128Y429650D01*
X180795D01*
X181128D01*
X181461Y429317D01*
Y428984D01*
X181128Y428650D01*
X180461D01*
X180128Y428984D01*
X164629Y429150D02*
Y431150D01*
X165629D01*
X165962Y430817D01*
Y430150D01*
X165629Y429817D01*
X164629D01*
X165296D02*
X165962Y429150D01*
X167962D02*
X166629D01*
X167962Y430483D01*
Y430817D01*
X167629Y431150D01*
X166962D01*
X166629Y430817D01*
X169961Y429150D02*
X168628D01*
X169961Y430483D01*
Y430817D01*
X169628Y431150D01*
X168961D01*
X168628Y430817D01*
X175963Y439500D02*
Y441500D01*
X176962D01*
X177296Y441166D01*
Y440500D01*
X176962Y440167D01*
X175963D01*
X176629D02*
X177296Y439500D01*
X179295D02*
X177962D01*
X179295Y440833D01*
Y441166D01*
X178962Y441500D01*
X178295D01*
X177962Y441166D01*
X179961Y439500D02*
X180628D01*
X180295D01*
Y441500D01*
X179961Y441166D01*
X163629Y439650D02*
Y441650D01*
X164629D01*
X164962Y441317D01*
Y440650D01*
X164629Y440317D01*
X163629D01*
X164296D02*
X164962Y439650D01*
X166962D02*
X165629D01*
X166962Y440983D01*
Y441317D01*
X166629Y441650D01*
X165962D01*
X165629Y441317D01*
X167628D02*
X167961Y441650D01*
X168628D01*
X168961Y441317D01*
Y439984D01*
X168628Y439650D01*
X167961D01*
X167628Y439984D01*
Y441317D01*
X164500Y384834D02*
X166500D01*
Y383834D01*
X166166Y383501D01*
X165500D01*
X165167Y383834D01*
Y384834D01*
Y384167D02*
X164500Y383501D01*
Y382835D02*
Y382168D01*
Y382501D01*
X166500D01*
X166166Y382835D01*
X164833Y381168D02*
X164500Y380835D01*
Y380169D01*
X164833Y379835D01*
X166166D01*
X166500Y380169D01*
Y380835D01*
X166166Y381168D01*
X165833D01*
X165500Y380835D01*
Y379835D01*
X138000Y314576D02*
X136000D01*
Y315575D01*
X136334Y315909D01*
X137000D01*
X137333Y315575D01*
Y314576D01*
Y315242D02*
X138000Y315909D01*
Y316575D02*
Y317241D01*
Y316908D01*
X136000D01*
X136334Y316575D01*
Y318241D02*
X136000Y318574D01*
Y319241D01*
X136334Y319574D01*
X136667D01*
X137000Y319241D01*
X137333Y319574D01*
X137666D01*
X138000Y319241D01*
Y318574D01*
X137666Y318241D01*
X137333D01*
X137000Y318574D01*
X136667Y318241D01*
X136334D01*
X137000Y318574D02*
Y319241D01*
X154001Y429000D02*
Y431000D01*
X155000D01*
X155334Y430666D01*
Y430000D01*
X155000Y429667D01*
X154001D01*
X154667D02*
X155334Y429000D01*
X156000D02*
X156667D01*
X156333D01*
Y431000D01*
X156000Y430666D01*
X157666Y431000D02*
X158999D01*
Y430666D01*
X157666Y429334D01*
Y429000D01*
X136284Y363646D02*
Y365645D01*
X137284D01*
X137617Y365312D01*
Y364646D01*
X137284Y364312D01*
X136284D01*
X136951D02*
X137617Y363646D01*
X138284D02*
X138950D01*
X138617D01*
Y365645D01*
X138284Y365312D01*
X141283Y365645D02*
X140616Y365312D01*
X139950Y364646D01*
Y363979D01*
X140283Y363646D01*
X140949D01*
X141283Y363979D01*
Y364312D01*
X140949Y364646D01*
X139950D01*
X157150Y384574D02*
X159150D01*
Y383574D01*
X158817Y383241D01*
X158150D01*
X157817Y383574D01*
Y384574D01*
Y383908D02*
X157150Y383241D01*
Y382575D02*
Y381908D01*
Y382241D01*
X159150D01*
X158817Y382575D01*
X159150Y379576D02*
Y380908D01*
X158150D01*
X158483Y380242D01*
Y379909D01*
X158150Y379576D01*
X157483D01*
X157150Y379909D01*
Y380575D01*
X157483Y380908D01*
X138000Y324926D02*
X136000D01*
Y325926D01*
X136334Y326259D01*
X137000D01*
X137333Y325926D01*
Y324926D01*
Y325592D02*
X138000Y326259D01*
Y326925D02*
Y327592D01*
Y327259D01*
X136000D01*
X136334Y326925D01*
X138000Y329591D02*
X136000D01*
X137000Y328591D01*
Y329924D01*
X136001Y347040D02*
Y349039D01*
X137001D01*
X137334Y348706D01*
Y348039D01*
X137001Y347706D01*
X136001D01*
X136667D02*
X137334Y347040D01*
X138000D02*
X138667D01*
X138333D01*
Y349039D01*
X138000Y348706D01*
X139666D02*
X139999Y349039D01*
X140666D01*
X140999Y348706D01*
Y348373D01*
X140666Y348039D01*
X140333D01*
X140666D01*
X140999Y347706D01*
Y347373D01*
X140666Y347040D01*
X139999D01*
X139666Y347373D01*
X176500Y260751D02*
X178500D01*
Y259752D01*
X178166Y259418D01*
X177500D01*
X177167Y259752D01*
Y260751D01*
Y260085D02*
X176500Y259418D01*
Y258752D02*
Y258085D01*
Y258419D01*
X178500D01*
X178166Y258752D01*
X176500Y255753D02*
Y257086D01*
X177833Y255753D01*
X178166D01*
X178500Y256086D01*
Y256752D01*
X178166Y257086D01*
X176500Y295567D02*
X178500D01*
Y294568D01*
X178166Y294235D01*
X177500D01*
X177167Y294568D01*
Y295567D01*
Y294901D02*
X176500Y294235D01*
Y293568D02*
Y292902D01*
Y293235D01*
X178500D01*
X178166Y293568D01*
X176500Y291902D02*
Y291236D01*
Y291569D01*
X178500D01*
X178166Y291902D01*
X246548Y372000D02*
Y374000D01*
X247548D01*
X247881Y373667D01*
Y373000D01*
X247548Y372667D01*
X246548D01*
X247215D02*
X247881Y372000D01*
X248548D02*
X249214D01*
X248881D01*
Y374000D01*
X248548Y373667D01*
X250214D02*
X250547Y374000D01*
X251214D01*
X251547Y373667D01*
Y372334D01*
X251214Y372000D01*
X250547D01*
X250214Y372334D01*
Y373667D01*
X246293Y434264D02*
Y436264D01*
X247293D01*
X247626Y435930D01*
Y435264D01*
X247293Y434931D01*
X246293D01*
X246960D02*
X247626Y434264D01*
X248292Y434597D02*
X248626Y434264D01*
X249292D01*
X249625Y434597D01*
Y435930D01*
X249292Y436264D01*
X248626D01*
X248292Y435930D01*
Y435597D01*
X248626Y435264D01*
X249625D01*
X246384Y422500D02*
Y424500D01*
X247384D01*
X247717Y424166D01*
Y423500D01*
X247384Y423167D01*
X246384D01*
X247050D02*
X247717Y422500D01*
X248383Y424166D02*
X248716Y424500D01*
X249383D01*
X249716Y424166D01*
Y423833D01*
X249383Y423500D01*
X249716Y423167D01*
Y422834D01*
X249383Y422500D01*
X248716D01*
X248383Y422834D01*
Y423167D01*
X248716Y423500D01*
X248383Y423833D01*
Y424166D01*
X248716Y423500D02*
X249383D01*
X287680Y431500D02*
Y433500D01*
X288680D01*
X289013Y433167D01*
Y432500D01*
X288680Y432167D01*
X287680D01*
X288347D02*
X289013Y431500D01*
X289680Y433500D02*
X291013D01*
Y433167D01*
X289680Y431834D01*
Y431500D01*
X294241Y243228D02*
Y241229D01*
X293241D01*
X292908Y241562D01*
Y242228D01*
X293241Y242562D01*
X294241D01*
X293575D02*
X292908Y243228D01*
X290909Y241229D02*
X291575Y241562D01*
X292242Y242228D01*
Y242895D01*
X291908Y243228D01*
X291242D01*
X290909Y242895D01*
Y242562D01*
X291242Y242228D01*
X292242D01*
X246334Y447032D02*
Y449031D01*
X247334D01*
X247667Y448698D01*
Y448032D01*
X247334Y447698D01*
X246334D01*
X247000D02*
X247667Y447032D01*
X249666Y449031D02*
X248333D01*
Y448032D01*
X249000Y448365D01*
X249333D01*
X249666Y448032D01*
Y447365D01*
X249333Y447032D01*
X248667D01*
X248333Y447365D01*
X265834Y436179D02*
Y438179D01*
X266834D01*
X267167Y437846D01*
Y437179D01*
X266834Y436846D01*
X265834D01*
X266500D02*
X267167Y436179D01*
X268833D02*
Y438179D01*
X267833Y437179D01*
X269166D01*
X302091Y243228D02*
Y241229D01*
X301092D01*
X300758Y241562D01*
Y242228D01*
X301092Y242562D01*
X302091D01*
X301425D02*
X300758Y243228D01*
X300092Y241562D02*
X299759Y241229D01*
X299092D01*
X298759Y241562D01*
Y241895D01*
X299092Y242228D01*
X299426D01*
X299092D01*
X298759Y242562D01*
Y242895D01*
X299092Y243228D01*
X299759D01*
X300092Y242895D01*
X246381Y383500D02*
Y385500D01*
X247381D01*
X247714Y385167D01*
Y384500D01*
X247381Y384167D01*
X246381D01*
X247048D02*
X247714Y383500D01*
X249714D02*
X248381D01*
X249714Y384833D01*
Y385167D01*
X249380Y385500D01*
X248714D01*
X248381Y385167D01*
X246282Y455000D02*
Y457000D01*
X247281D01*
X247615Y456667D01*
Y456000D01*
X247281Y455667D01*
X246282D01*
X246948D02*
X247615Y455000D01*
X248281D02*
X248947D01*
X248614D01*
Y457000D01*
X248281Y456667D01*
X163039Y227719D02*
Y229052D01*
X162706Y229385D01*
X162039D01*
X161706Y229052D01*
Y227719D01*
X162039Y227386D01*
X162706D01*
X162372Y228053D02*
X163039Y227386D01*
X162706D02*
X163039Y227719D01*
X164705Y227386D02*
Y229385D01*
X163705Y228386D01*
X165038D01*
X250340Y227093D02*
Y228426D01*
X250007Y228760D01*
X249341D01*
X249007Y228426D01*
Y227093D01*
X249341Y226760D01*
X250007D01*
X249674Y227427D02*
X250340Y226760D01*
X250007D02*
X250340Y227093D01*
X251007Y228426D02*
X251340Y228760D01*
X252006D01*
X252340Y228426D01*
Y228093D01*
X252006Y227760D01*
X251673D01*
X252006D01*
X252340Y227427D01*
Y227093D01*
X252006Y226760D01*
X251340D01*
X251007Y227093D01*
X310749Y421245D02*
X309416D01*
X309083Y420912D01*
Y420246D01*
X309416Y419913D01*
X310749D01*
X311082Y420246D01*
Y420912D01*
X310416Y420579D02*
X311082Y421245D01*
Y420912D02*
X310749Y421245D01*
X311082Y423245D02*
Y421912D01*
X309749Y423245D01*
X309416D01*
X309083Y422912D01*
Y422245D01*
X309416Y421912D01*
X266122Y425834D02*
Y427167D01*
X265789Y427500D01*
X265122D01*
X264789Y427167D01*
Y425834D01*
X265122Y425500D01*
X265789D01*
X265456Y426167D02*
X266122Y425500D01*
X265789D02*
X266122Y425834D01*
X266789Y425500D02*
X267455D01*
X267122D01*
Y427500D01*
X266789Y427167D01*
X271500Y321667D02*
X269500D01*
X270167Y322334D01*
X269500Y323000D01*
X271500D01*
X269500Y323667D02*
X271500D01*
Y324667D01*
X271166Y325000D01*
X269833D01*
X269500Y324667D01*
Y323667D01*
X271500Y325666D02*
Y326333D01*
Y325999D01*
X269500D01*
X269833Y325666D01*
X129500Y247495D02*
X131500D01*
X130833D01*
X129500Y248828D01*
X130500Y247829D01*
X131500Y248828D01*
Y250494D02*
X129500D01*
X130500Y249495D01*
Y250828D01*
X129500Y282535D02*
X131500D01*
X130833D01*
X129500Y283868D01*
X130500Y282868D01*
X131500Y283868D01*
X129833Y284534D02*
X129500Y284867D01*
Y285534D01*
X129833Y285867D01*
X130167D01*
X130500Y285534D01*
Y285201D01*
Y285534D01*
X130833Y285867D01*
X131166D01*
X131500Y285534D01*
Y284867D01*
X131166Y284534D01*
X217212Y205405D02*
Y203406D01*
Y204072D01*
X218545Y205405D01*
X217545Y204405D01*
X218545Y203406D01*
X220544D02*
X219211D01*
X220544Y204739D01*
Y205072D01*
X220211Y205405D01*
X219544D01*
X219211Y205072D01*
X224833Y466000D02*
X225499D01*
X225166D01*
Y467666D01*
X225499Y468000D01*
X225833D01*
X226166Y467666D01*
X224166Y468000D02*
Y466000D01*
X223167D01*
X222834Y466333D01*
Y467000D01*
X223167Y467333D01*
X224166D01*
X220834Y466000D02*
X222167D01*
Y467000D01*
X221501Y466667D01*
X221167D01*
X220834Y467000D01*
Y467666D01*
X221167Y468000D01*
X221834D01*
X222167Y467666D01*
X295000Y103167D02*
Y102501D01*
Y102834D01*
X296666D01*
X297000Y102501D01*
Y102167D01*
X296666Y101834D01*
X297000Y103834D02*
X295000D01*
Y104833D01*
X295334Y105166D01*
X296000D01*
X296333Y104833D01*
Y103834D01*
X297000Y106833D02*
X295000D01*
X296000Y105833D01*
Y107166D01*
X277022Y466500D02*
X277689D01*
X277356D01*
Y468166D01*
X277689Y468500D01*
X278022D01*
X278355Y468166D01*
X276356Y468500D02*
Y466500D01*
X275356D01*
X275023Y466833D01*
Y467500D01*
X275356Y467833D01*
X276356D01*
X274356Y466833D02*
X274023Y466500D01*
X273357D01*
X273024Y466833D01*
Y467167D01*
X273357Y467500D01*
X273690D01*
X273357D01*
X273024Y467833D01*
Y468166D01*
X273357Y468500D01*
X274023D01*
X274356Y468166D01*
X374167Y202500D02*
X373501D01*
X373834D01*
Y200834D01*
X373501Y200500D01*
X373167D01*
X372834Y200834D01*
X374834Y200500D02*
Y202500D01*
X375833D01*
X376166Y202167D01*
Y201500D01*
X375833Y201167D01*
X374834D01*
X378166Y200500D02*
X376833D01*
X378166Y201833D01*
Y202167D01*
X377833Y202500D01*
X377166D01*
X376833Y202167D01*
X328000Y466500D02*
X328666D01*
X328333D01*
Y468166D01*
X328666Y468500D01*
X328999D01*
X329333Y468166D01*
X327333Y468500D02*
Y466500D01*
X326333D01*
X326000Y466833D01*
Y467500D01*
X326333Y467833D01*
X327333D01*
X325334Y468500D02*
X324667D01*
X325001D01*
Y466500D01*
X325334Y466833D01*
X129000Y358833D02*
Y359500D01*
Y359166D01*
X127334D01*
X127000Y359500D01*
Y359833D01*
X127334Y360166D01*
Y358167D02*
X127000Y357834D01*
Y357167D01*
X127334Y356834D01*
X128666D01*
X129000Y357167D01*
Y357834D01*
X128666Y358167D01*
X128333D01*
X128000Y357834D01*
Y356834D01*
X107667Y476000D02*
X107000D01*
X107334D01*
Y474334D01*
X107000Y474000D01*
X106667D01*
X106334Y474334D01*
X108333Y475667D02*
X108667Y476000D01*
X109333D01*
X109666Y475667D01*
Y475333D01*
X109333Y475000D01*
X109666Y474667D01*
Y474334D01*
X109333Y474000D01*
X108667D01*
X108333Y474334D01*
Y474667D01*
X108667Y475000D01*
X108333Y475333D01*
Y475667D01*
X108667Y475000D02*
X109333D01*
X129567Y433861D02*
Y434527D01*
Y434194D01*
X127901D01*
X127567Y434527D01*
Y434861D01*
X127901Y435194D01*
X129567Y433194D02*
Y431861D01*
X129233D01*
X127901Y433194D01*
X127567D01*
X129000Y297333D02*
Y298000D01*
Y297666D01*
X127334D01*
X127000Y298000D01*
Y298333D01*
X127334Y298666D01*
X129000Y295334D02*
X128666Y296000D01*
X128000Y296667D01*
X127334D01*
X127000Y296334D01*
Y295667D01*
X127334Y295334D01*
X127667D01*
X128000Y295667D01*
Y296667D01*
X153500Y316501D02*
Y317167D01*
Y316834D01*
X155500D01*
Y316501D01*
Y317167D01*
X153833Y319500D02*
X153500Y319167D01*
Y318500D01*
X153833Y318167D01*
X155166D01*
X155500Y318500D01*
Y319167D01*
X155166Y319500D01*
X155500Y321499D02*
Y320166D01*
X154167Y321499D01*
X153833D01*
X153500Y321166D01*
Y320499D01*
X153833Y320166D01*
X298351Y440000D02*
X297685D01*
X298018D01*
Y442000D01*
X298351D01*
X297685D01*
X295352Y440334D02*
X295685Y440000D01*
X296352D01*
X296685Y440334D01*
Y441666D01*
X296352Y442000D01*
X295685D01*
X295352Y441666D01*
X294686Y442000D02*
X294019D01*
X294352D01*
Y440000D01*
X294686Y440334D01*
X304000Y458500D02*
X302667D01*
Y457500D01*
X303334D01*
X302667D01*
Y456500D01*
X304666D02*
X305333D01*
X305000D01*
Y458500D01*
X304666Y458167D01*
X132834Y221500D02*
Y219500D01*
X133833D01*
X134167Y219834D01*
Y221166D01*
X133833Y221500D01*
X132834D01*
X183500Y221484D02*
X181500D01*
Y220485D01*
X181834Y220151D01*
X183167D01*
X183500Y220485D01*
Y221484D01*
X183167Y218152D02*
X183500Y218485D01*
Y219152D01*
X183167Y219485D01*
X182833D01*
X182500Y219152D01*
Y218485D01*
X182167Y218152D01*
X181834D01*
X181500Y218485D01*
Y219152D01*
X181834Y219485D01*
X181500Y216153D02*
Y217486D01*
X182833Y216153D01*
X183167D01*
X183500Y216486D01*
Y217152D01*
X183167Y217486D01*
X270848Y221265D02*
X268848D01*
Y220266D01*
X269182Y219932D01*
X270514D01*
X270848Y220266D01*
Y221265D01*
X270514Y217933D02*
X270848Y218266D01*
Y218933D01*
X270514Y219266D01*
X270181D01*
X269848Y218933D01*
Y218266D01*
X269515Y217933D01*
X269182D01*
X268848Y218266D01*
Y218933D01*
X269182Y219266D01*
X268848Y217267D02*
Y216600D01*
Y216933D01*
X270848D01*
X270514Y217267D01*
X266334Y397000D02*
Y395000D01*
X267334D01*
X267667Y395334D01*
Y396667D01*
X267334Y397000D01*
X266334D01*
X269333Y395000D02*
Y397000D01*
X268333Y396000D01*
X269666D01*
X266605Y374500D02*
Y372500D01*
X267605D01*
X267938Y372834D01*
Y374166D01*
X267605Y374500D01*
X266605D01*
X268605Y374166D02*
X268938Y374500D01*
X269605D01*
X269938Y374166D01*
Y373833D01*
X269605Y373500D01*
X269271D01*
X269605D01*
X269938Y373167D01*
Y372834D01*
X269605Y372500D01*
X268938D01*
X268605Y372834D01*
X218877Y222500D02*
Y220500D01*
X219877D01*
X220210Y220834D01*
Y222166D01*
X219877Y222500D01*
X218877D01*
X222209Y220500D02*
X220877D01*
X222209Y221833D01*
Y222166D01*
X221876Y222500D01*
X221210D01*
X220877Y222166D01*
X266667Y386000D02*
Y384000D01*
X267667D01*
X268000Y384334D01*
Y385666D01*
X267667Y386000D01*
X266667D01*
X268666Y384000D02*
X269333D01*
X269000D01*
Y386000D01*
X268666Y385666D01*
X197817Y413741D02*
X198150Y414074D01*
Y414741D01*
X197817Y415074D01*
X196484D01*
X196150Y414741D01*
Y414074D01*
X196484Y413741D01*
X196150Y413075D02*
Y412408D01*
Y412741D01*
X198150D01*
X197817Y413075D01*
X198150Y411409D02*
Y410076D01*
X197817D01*
X196484Y411409D01*
X196150D01*
X197817Y401741D02*
X198150Y402074D01*
Y402741D01*
X197817Y403074D01*
X196484D01*
X196150Y402741D01*
Y402074D01*
X196484Y401741D01*
X196150Y401075D02*
Y400408D01*
Y400741D01*
X198150D01*
X197817Y401075D01*
X198150Y398076D02*
X197817Y398742D01*
X197150Y399409D01*
X196484D01*
X196150Y399075D01*
Y398409D01*
X196484Y398076D01*
X196817D01*
X197150Y398409D01*
Y399409D01*
X152816Y329166D02*
X153150Y329500D01*
Y330166D01*
X152816Y330499D01*
X151484D01*
X151150Y330166D01*
Y329500D01*
X151484Y329166D01*
X151150Y328500D02*
Y327833D01*
Y328167D01*
X153150D01*
X152816Y328500D01*
X153150Y325501D02*
Y326834D01*
X152150D01*
X152483Y326167D01*
Y325834D01*
X152150Y325501D01*
X151484D01*
X151150Y325834D01*
Y326501D01*
X151484Y326834D01*
X158834Y348667D02*
X158501Y349000D01*
X157834D01*
X157501Y348667D01*
Y347334D01*
X157834Y347000D01*
X158501D01*
X158834Y347334D01*
X159500Y347000D02*
X160167D01*
X159833D01*
Y349000D01*
X159500Y348667D01*
X162166Y347000D02*
Y349000D01*
X161166Y348000D01*
X162499D01*
X139333Y406834D02*
X139000Y406500D01*
Y405834D01*
X139333Y405501D01*
X140666D01*
X141000Y405834D01*
Y406500D01*
X140666Y406834D01*
X141000Y407500D02*
Y408167D01*
Y407833D01*
X139000D01*
X139333Y407500D01*
Y409166D02*
X139000Y409500D01*
Y410166D01*
X139333Y410499D01*
X139667D01*
X140000Y410166D01*
Y409833D01*
Y410166D01*
X140333Y410499D01*
X140666D01*
X141000Y410166D01*
Y409500D01*
X140666Y409166D01*
X139908Y395334D02*
X139575Y395001D01*
Y394334D01*
X139908Y394001D01*
X141241D01*
X141575Y394334D01*
Y395001D01*
X141241Y395334D01*
X141575Y396000D02*
Y396667D01*
Y396333D01*
X139575D01*
X139908Y396000D01*
X141575Y398999D02*
Y397666D01*
X140242Y398999D01*
X139908D01*
X139575Y398666D01*
Y398000D01*
X139908Y397666D01*
X156679Y364895D02*
X156345Y365228D01*
X155679D01*
X155346Y364895D01*
Y363562D01*
X155679Y363229D01*
X156345D01*
X156679Y363562D01*
X157345Y363229D02*
X158012D01*
X157678D01*
Y365228D01*
X157345Y364895D01*
X159011Y363229D02*
X159678D01*
X159345D01*
Y365228D01*
X159011Y364895D01*
X204167Y343483D02*
X204500Y343816D01*
Y344483D01*
X204167Y344816D01*
X202834D01*
X202500Y344483D01*
Y343816D01*
X202834Y343483D01*
Y342817D02*
X202500Y342483D01*
Y341817D01*
X202834Y341484D01*
X204167D01*
X204500Y341817D01*
Y342483D01*
X204167Y342817D01*
X203833D01*
X203500Y342483D01*
Y341484D01*
X204167Y355983D02*
X204500Y356316D01*
Y356983D01*
X204167Y357316D01*
X202834D01*
X202500Y356983D01*
Y356316D01*
X202834Y355983D01*
X204167Y355317D02*
X204500Y354983D01*
Y354317D01*
X204167Y353984D01*
X203833D01*
X203500Y354317D01*
X203167Y353984D01*
X202834D01*
X202500Y354317D01*
Y354983D01*
X202834Y355317D01*
X203167D01*
X203500Y354983D01*
X203833Y355317D01*
X204167D01*
X203500Y354983D02*
Y354317D01*
X310834Y241999D02*
X311168Y241666D01*
X311834D01*
X312167Y241999D01*
Y243332D01*
X311834Y243665D01*
X311168D01*
X310834Y243332D01*
X310168Y241666D02*
X308835D01*
Y241999D01*
X310168Y243332D01*
Y243665D01*
X327333Y241334D02*
X327666Y241000D01*
X328333D01*
X328666Y241334D01*
Y242666D01*
X328333Y243000D01*
X327666D01*
X327333Y242666D01*
X325334Y241000D02*
X326667D01*
Y242000D01*
X326000Y241667D01*
X325667D01*
X325334Y242000D01*
Y242666D01*
X325667Y243000D01*
X326333D01*
X326667Y242666D01*
X317166Y375666D02*
X316832Y376000D01*
X316166D01*
X315833Y375666D01*
Y374334D01*
X316166Y374000D01*
X316832D01*
X317166Y374334D01*
X318832Y374000D02*
Y376000D01*
X317832Y375000D01*
X319165D01*
X329834Y339167D02*
X329500Y338834D01*
Y338167D01*
X329834Y337834D01*
X331166D01*
X331500Y338167D01*
Y338834D01*
X331166Y339167D01*
X329834Y339833D02*
X329500Y340166D01*
Y340833D01*
X329834Y341166D01*
X330167D01*
X330500Y340833D01*
Y340500D01*
Y340833D01*
X330833Y341166D01*
X331166D01*
X331500Y340833D01*
Y340166D01*
X331166Y339833D01*
X132741Y234500D02*
X132075Y234167D01*
X131408Y233500D01*
Y232834D01*
X131742Y232500D01*
X132408D01*
X132741Y232834D01*
Y233167D01*
X132408Y233500D01*
X131408D01*
X220785Y235500D02*
X219452D01*
Y234500D01*
X220118Y234833D01*
X220451D01*
X220785Y234500D01*
Y233834D01*
X220451Y233500D01*
X219785D01*
X219452Y233834D01*
X158500Y216494D02*
X160500D01*
X159500Y217493D01*
Y216160D01*
X247667Y216533D02*
X248000Y216199D01*
Y215533D01*
X247667Y215200D01*
X247333D01*
X247000Y215533D01*
Y215866D01*
Y215533D01*
X246667Y215200D01*
X246334D01*
X246000Y215533D01*
Y216199D01*
X246334Y216533D01*
X189500Y216086D02*
Y217418D01*
X190833Y216086D01*
X191166D01*
X191500Y216419D01*
Y217085D01*
X191166Y217418D01*
X277500Y216125D02*
Y215458D01*
Y215791D01*
X279500D01*
X279166Y216125D01*
D16*
X177425Y223315D02*
X180574D01*
X264273Y222929D02*
X267423D01*
D17*
X169298Y316900D02*
X170100D01*
X156900D02*
X157702D01*
X156900D02*
Y330100D01*
X169298D02*
X170100D01*
Y316900D02*
Y330100D01*
X156900D02*
X157702D01*
D18*
X154797Y312525D02*
X158129Y315857D01*
Y312525D02*
X154797Y315857D01*
X156463Y312525D02*
Y315857D01*
X158129Y314191D02*
X154797D01*
M02*
