G04*
G04 #@! TF.GenerationSoftware,Altium Limited,Altium Designer,22.1.2 (22)*
G04*
G04 Layer_Color=32768*
%FSLAX25Y25*%
%MOIN*%
G70*
G04*
G04 #@! TF.SameCoordinates,9BB02E8B-A7E0-4FF3-B7F6-0A232C0EF0B8*
G04*
G04*
G04 #@! TF.FilePolarity,Positive*
G04*
G01*
G75*
%ADD12C,0.00787*%
D12*
X356287Y417539D02*
Y447461D01*
X379713D01*
Y417539D02*
Y447461D01*
X356287Y417539D02*
X379713D01*
X222990Y101552D02*
X262754D01*
X222990D02*
Y124977D01*
X262754D01*
Y101552D02*
Y124977D01*
X135425Y101552D02*
X175189D01*
X135425D02*
Y124977D01*
X175189D01*
Y101552D02*
Y124977D01*
X268582Y428714D02*
Y434644D01*
Y428714D02*
X280418D01*
Y434644D01*
X268582D02*
X280418D01*
X106394Y476531D02*
X185921D01*
X106394D02*
Y492280D01*
X185921D01*
Y476531D02*
Y492280D01*
X356287Y379039D02*
X379713D01*
Y408961D01*
X356287D02*
X379713D01*
X356287Y379039D02*
Y408961D01*
X155626Y362165D02*
X171374D01*
Y354291D02*
Y362165D01*
X155626Y354291D02*
X171374D01*
X155626D02*
Y362165D01*
X102787Y310197D02*
Y359803D01*
X126213D01*
Y310197D02*
Y359803D01*
X102787Y310197D02*
X126213D01*
X226539Y468854D02*
Y492280D01*
X196618D02*
X226539D01*
X196618Y468854D02*
Y492280D01*
Y468854D02*
X226539D01*
X142350Y415772D02*
X148650D01*
X142350Y404748D02*
Y415772D01*
Y404748D02*
X148650D01*
Y415772D01*
X287236Y375760D02*
Y383240D01*
X266764D02*
X287236D01*
X266764Y375760D02*
Y383240D01*
Y375760D02*
X287236D01*
X355354Y200039D02*
X378780D01*
X355354Y150433D02*
Y200039D01*
Y150433D02*
X378780D01*
Y200039D01*
X347803Y101354D02*
Y124780D01*
X298197D02*
X347803D01*
X298197Y101354D02*
Y124780D01*
Y101354D02*
X347803D01*
X312092Y245622D02*
Y247709D01*
X307908D02*
X312092D01*
X307908Y245622D02*
Y247709D01*
Y245622D02*
X312092D01*
X278000Y469287D02*
Y492713D01*
X248079D02*
X278000D01*
X248079Y469287D02*
Y492713D01*
Y469287D02*
X278000D01*
X246587Y375063D02*
Y382937D01*
Y375063D02*
X261548D01*
Y382937D01*
X246587D02*
X261548D01*
X266579Y388835D02*
Y393165D01*
Y388835D02*
X276421D01*
Y393165D01*
X266579D02*
X276421D01*
X195350Y344512D02*
X201650D01*
X195350Y333488D02*
Y344512D01*
Y333488D02*
X201650D01*
Y344512D01*
X195350Y357012D02*
X201650D01*
X195350Y345988D02*
Y357012D01*
Y345988D02*
X201650D01*
Y357012D01*
X266957Y367425D02*
Y370575D01*
Y367425D02*
X274043D01*
Y370575D01*
X266957D02*
X274043D01*
X246587Y386563D02*
Y394437D01*
Y386563D02*
X261548D01*
Y394437D01*
X246587D02*
X261548D01*
X209301Y333657D02*
X235699D01*
Y364343D01*
X209301D02*
X235699D01*
X209301Y333657D02*
Y364343D01*
X249205Y212004D02*
Y225996D01*
Y212004D02*
X262591D01*
Y225996D01*
X249205D02*
X262591D01*
X161679Y212390D02*
Y226382D01*
Y212390D02*
X175065D01*
Y226382D01*
X161679D02*
X175065D01*
X246587Y363563D02*
Y371437D01*
Y363563D02*
X261548D01*
Y371437D01*
X246587D02*
X261548D01*
X146957Y330092D02*
X149043D01*
X146957Y325908D02*
Y330092D01*
Y325908D02*
X149043D01*
Y330092D01*
X176268Y423138D02*
Y427862D01*
Y423138D02*
X185323D01*
Y427862D01*
X176268D02*
X185323D01*
X164768Y423138D02*
Y427862D01*
Y423138D02*
X173823D01*
Y427862D01*
X164768D02*
X173823D01*
X163028Y423138D02*
Y427862D01*
X153972D02*
X163028D01*
X153972Y423138D02*
Y427862D01*
Y423138D02*
X163028D01*
X102787Y248697D02*
X126213D01*
Y298303D01*
X102787D02*
X126213D01*
X102787Y248697D02*
Y298303D01*
Y385461D02*
X126213D01*
Y435067D01*
X102787D02*
X126213D01*
X102787Y385461D02*
Y435067D01*
X143531Y399092D02*
X145618D01*
X143531Y394908D02*
Y399092D01*
Y394908D02*
X145618D01*
Y399092D01*
X332488Y338350D02*
Y344650D01*
Y338350D02*
X343512D01*
Y344650D01*
X332488D02*
X343512D01*
X271126Y329902D02*
X374571D01*
X271126Y254311D02*
Y329902D01*
Y254311D02*
X374571D01*
Y329902D01*
X246587Y449736D02*
Y454264D01*
Y449736D02*
X255642D01*
Y454264D01*
X246587D02*
X255642D01*
X246587Y437972D02*
Y446091D01*
Y437972D02*
X261413D01*
Y446091D01*
X246587D02*
X261413D01*
X329461Y469287D02*
Y492713D01*
X299539D02*
X329461D01*
X299539Y469287D02*
Y492713D01*
Y469287D02*
X329461D01*
X246587Y426799D02*
Y432729D01*
Y426799D02*
X258422D01*
Y432729D01*
X246587D02*
X258422D01*
X246587Y415035D02*
Y420965D01*
Y415035D02*
X258422D01*
Y420965D01*
X246587D02*
X258422D01*
X315907Y369957D02*
Y372043D01*
Y369957D02*
X320091D01*
Y372043D01*
X315907D02*
X320091D01*
M02*
