G04*
G04 #@! TF.GenerationSoftware,Altium Limited,Altium Designer,22.1.2 (22)*
G04*
G04 Layer_Color=8388736*
%FSLAX25Y25*%
%MOIN*%
G70*
G04*
G04 #@! TF.SameCoordinates,9BB02E8B-A7E0-4FF3-B7F6-0A232C0EF0B8*
G04*
G04*
G04 #@! TF.FilePolarity,Positive*
G04*
G01*
G75*
%ADD12C,0.00787*%
D12*
X356681Y417933D02*
Y447067D01*
X379319D01*
Y417933D02*
Y447067D01*
X356681Y417933D02*
X379319D01*
X223384Y101945D02*
X262360D01*
X223384D02*
Y124583D01*
X262360D01*
Y101945D02*
Y124583D01*
X135819Y101945D02*
X174795D01*
X135819D02*
Y124583D01*
X174795D01*
Y101945D02*
Y124583D01*
X271350Y430104D02*
Y433254D01*
Y430104D02*
X277650D01*
Y433254D01*
X271350D02*
X277650D01*
X106787Y476925D02*
X185528D01*
X106787D02*
Y491886D01*
X185528D01*
Y476925D02*
Y491886D01*
X356681Y379433D02*
X379319D01*
Y408567D01*
X356681D02*
X379319D01*
X356681Y379433D02*
Y408567D01*
X156807Y361772D02*
X170193D01*
Y354685D02*
Y361772D01*
X156807Y354685D02*
X170193D01*
X156807D02*
Y361772D01*
X103181Y310591D02*
Y359409D01*
X125819D01*
Y310591D02*
Y359409D01*
X103181Y310591D02*
X125819D01*
X226146Y469248D02*
Y491886D01*
X197012D02*
X226146D01*
X197012Y469248D02*
Y491886D01*
Y469248D02*
X226146D01*
X142744Y414492D02*
X148256D01*
X142744Y406028D02*
Y414492D01*
Y406028D02*
X148256D01*
Y414492D01*
X283496Y376154D02*
Y382846D01*
X270504D02*
X283496D01*
X270504Y376154D02*
Y382846D01*
Y376154D02*
X283496D01*
X355748Y199646D02*
X378386D01*
X355748Y150827D02*
Y199646D01*
Y150827D02*
X378386D01*
Y199646D01*
X347409Y101748D02*
Y124386D01*
X298591D02*
X347409D01*
X298591Y101748D02*
Y124386D01*
Y101748D02*
X347409D01*
X311181Y246075D02*
Y247256D01*
X308819D02*
X311181D01*
X308819Y246075D02*
Y247256D01*
Y246075D02*
X311181D01*
X277606Y469681D02*
Y492319D01*
X248472D02*
X277606D01*
X248472Y469681D02*
Y492319D01*
Y469681D02*
X277606D01*
X247571Y375555D02*
Y382445D01*
Y375555D02*
X260563D01*
Y382445D01*
X247571D02*
X260563D01*
X268154Y389228D02*
Y392772D01*
Y389228D02*
X274846D01*
Y392772D01*
X268154D02*
X274846D01*
X195744Y343232D02*
X201256D01*
X195744Y334768D02*
Y343232D01*
Y334768D02*
X201256D01*
Y343232D01*
X195744Y355732D02*
X201256D01*
X195744Y347268D02*
Y355732D01*
Y347268D02*
X201256D01*
Y355732D01*
X268335Y367819D02*
Y370181D01*
Y367819D02*
X272665D01*
Y370181D01*
X268335D02*
X272665D01*
X247571Y387055D02*
Y393945D01*
Y387055D02*
X260563D01*
Y393945D01*
X247571D02*
X260563D01*
X209695Y342100D02*
X235305D01*
Y355900D01*
X209695D02*
X235305D01*
X209695Y342100D02*
Y355900D01*
X252355Y212898D02*
Y225102D01*
Y212898D02*
X259441D01*
Y225102D01*
X252355D02*
X259441D01*
X164829Y213283D02*
Y225488D01*
Y213283D02*
X171915D01*
Y225488D01*
X164829D02*
X171915D01*
X247571Y364055D02*
Y370945D01*
Y364055D02*
X260563D01*
Y370945D01*
X247571D02*
X260563D01*
X147409Y329181D02*
X148591D01*
X147409Y326819D02*
Y329181D01*
Y326819D02*
X148591D01*
Y329181D01*
X177252Y423532D02*
Y427469D01*
Y423532D02*
X184339D01*
Y427469D01*
X177252D02*
X184339D01*
X165752Y423532D02*
Y427469D01*
Y423532D02*
X172839D01*
Y427469D01*
X165752D02*
X172839D01*
X162043Y423532D02*
Y427469D01*
X154957D02*
X162043D01*
X154957Y423532D02*
Y427469D01*
Y423532D02*
X162043D01*
X103181Y249091D02*
X125819D01*
Y297909D01*
X103181D02*
X125819D01*
X103181Y249091D02*
Y297909D01*
Y385854D02*
X125819D01*
Y434673D01*
X103181D02*
X125819D01*
X103181Y385854D02*
Y434673D01*
X143984Y398181D02*
X145165D01*
X143984Y395819D02*
Y398181D01*
Y395819D02*
X145165D01*
Y398181D01*
X333768Y338744D02*
Y344256D01*
Y338744D02*
X342232D01*
Y344256D01*
X333768D02*
X342232D01*
X273193Y327835D02*
X374177D01*
X273193Y256378D02*
Y327835D01*
Y256378D02*
X374177D01*
Y327835D01*
X247670Y450130D02*
Y453870D01*
Y450130D02*
X254559D01*
Y453870D01*
X247670D02*
X254559D01*
X250949Y440358D02*
Y443705D01*
Y440358D02*
X257051D01*
Y443705D01*
X250949D02*
X257051D01*
X329067Y469681D02*
Y492319D01*
X299933D02*
X329067D01*
X299933Y469681D02*
Y492319D01*
Y469681D02*
X329067D01*
X249355Y428189D02*
Y431339D01*
Y428189D02*
X255654D01*
Y431339D01*
X249355D02*
X255654D01*
X249355Y416425D02*
Y419575D01*
Y416425D02*
X255654D01*
Y419575D01*
X249355D02*
X255654D01*
X316818Y370409D02*
Y371591D01*
Y370409D02*
X319180D01*
Y371591D01*
X316818D02*
X319180D01*
M02*
