G04*
G04 #@! TF.GenerationSoftware,Altium Limited,Altium Designer,22.1.2 (22)*
G04*
G04 Layer_Color=8388736*
%FSLAX25Y25*%
%MOIN*%
G70*
G04*
G04 #@! TF.SameCoordinates,9BB02E8B-A7E0-4FF3-B7F6-0A232C0EF0B8*
G04*
G04*
G04 #@! TF.FilePolarity,Negative*
G04*
G01*
G75*
%ADD21R,0.03958X0.03961*%
%ADD22R,0.03740X0.06693*%
%ADD23R,0.05118X0.02756*%
%ADD24R,0.05906X0.05906*%
%ADD25R,0.01394X0.01034*%
%ADD30R,0.04134X0.07087*%
%ADD38R,0.03150X0.03150*%
%ADD39R,0.02756X0.01968*%
G04:AMPARAMS|DCode=41|XSize=39.54mil|YSize=125.28mil|CornerRadius=17.2mil|HoleSize=0mil|Usage=FLASHONLY|Rotation=90.000|XOffset=0mil|YOffset=0mil|HoleType=Round|Shape=RoundedRectangle|*
%AMROUNDEDRECTD41*
21,1,0.03954,0.09088,0,0,90.0*
21,1,0.00514,0.12528,0,0,90.0*
1,1,0.03440,0.04544,0.00257*
1,1,0.03440,0.04544,-0.00257*
1,1,0.03440,-0.04544,-0.00257*
1,1,0.03440,-0.04544,0.00257*
%
%ADD41ROUNDEDRECTD41*%
G04:AMPARAMS|DCode=42|XSize=39.54mil|YSize=34.34mil|CornerRadius=17.17mil|HoleSize=0mil|Usage=FLASHONLY|Rotation=90.000|XOffset=0mil|YOffset=0mil|HoleType=Round|Shape=RoundedRectangle|*
%AMROUNDEDRECTD42*
21,1,0.03954,0.00000,0,0,90.0*
21,1,0.00520,0.03434,0,0,90.0*
1,1,0.03434,0.00000,0.00260*
1,1,0.03434,0.00000,-0.00260*
1,1,0.03434,0.00000,-0.00260*
1,1,0.03434,0.00000,0.00260*
%
%ADD42ROUNDEDRECTD42*%
%ADD43R,0.03434X0.03954*%
%ADD45R,0.01034X0.01394*%
%ADD46R,0.01100X0.05250*%
%ADD47R,0.02559X0.03543*%
%ADD54R,0.02756X0.05118*%
%ADD55R,0.03543X0.03543*%
%ADD56R,0.03543X0.05906*%
%ADD57R,0.05906X0.03543*%
%ADD58R,0.04469X0.04182*%
%ADD59R,0.03347X0.04528*%
%ADD60R,0.02953X0.03347*%
%ADD61R,0.02953X0.05315*%
%ADD62R,0.02362X0.02362*%
%ADD63R,0.03937X0.14094*%
%ADD64R,0.05315X0.02953*%
%ADD65R,0.05118X0.04724*%
%ADD66R,0.04921X0.07087*%
%ADD67R,0.05906X0.04921*%
%ADD68R,0.02953X0.05512*%
%ADD69R,0.02559X0.04528*%
%ADD70R,0.04921X0.05906*%
G04:AMPARAMS|DCode=71|XSize=50.79mil|YSize=70.08mil|CornerRadius=8.56mil|HoleSize=0mil|Usage=FLASHONLY|Rotation=180.000|XOffset=0mil|YOffset=0mil|HoleType=Round|Shape=RoundedRectangle|*
%AMROUNDEDRECTD71*
21,1,0.05079,0.05295,0,0,180.0*
21,1,0.03366,0.07008,0,0,180.0*
1,1,0.01713,-0.01683,0.02648*
1,1,0.01713,0.01683,0.02648*
1,1,0.01713,0.01683,-0.02648*
1,1,0.01713,-0.01683,-0.02648*
%
%ADD71ROUNDEDRECTD71*%
%ADD72R,0.02362X0.02362*%
%ADD73R,0.03740X0.03740*%
%ADD74R,0.03740X0.04331*%
%ADD75R,0.04724X0.10827*%
%ADD76R,0.06299X0.05118*%
%ADD77R,0.07087X0.03347*%
G04:AMPARAMS|DCode=78|XSize=21.65mil|YSize=53.15mil|CornerRadius=4.92mil|HoleSize=0mil|Usage=FLASHONLY|Rotation=180.000|XOffset=0mil|YOffset=0mil|HoleType=Round|Shape=RoundedRectangle|*
%AMROUNDEDRECTD78*
21,1,0.02165,0.04331,0,0,180.0*
21,1,0.01181,0.05315,0,0,180.0*
1,1,0.00984,-0.00591,0.02165*
1,1,0.00984,0.00591,0.02165*
1,1,0.00984,0.00591,-0.02165*
1,1,0.00984,-0.00591,-0.02165*
%
%ADD78ROUNDEDRECTD78*%
%ADD79R,0.06693X0.03150*%
%ADD80C,0.06591*%
%ADD81R,0.06102X0.06102*%
%ADD82C,0.06102*%
%ADD83R,0.05512X0.05512*%
%ADD84C,0.05512*%
%ADD85C,0.05709*%
%ADD86C,0.07835*%
%ADD87R,0.05512X0.05512*%
%ADD88R,0.06102X0.06102*%
%ADD89C,0.02953*%
%ADD90C,0.05591*%
D21*
X277455Y431679D02*
D03*
X271545D02*
D03*
X255459Y429764D02*
D03*
X249550D02*
D03*
X255459Y418000D02*
D03*
X249550D02*
D03*
D22*
X157988Y358228D02*
D03*
X169012D02*
D03*
D23*
X145500Y406520D02*
D03*
Y414000D02*
D03*
X198500Y335260D02*
D03*
Y342740D02*
D03*
Y347760D02*
D03*
Y355240D02*
D03*
D24*
X270110Y379500D02*
D03*
X283890D02*
D03*
D25*
X308999Y246665D02*
D03*
X311001D02*
D03*
X319000Y371000D02*
D03*
X316998D02*
D03*
D30*
X259087Y379000D02*
D03*
X249048D02*
D03*
X259087Y390500D02*
D03*
X249048D02*
D03*
X259087Y367500D02*
D03*
X249048D02*
D03*
D38*
X274453Y391000D02*
D03*
X268547D02*
D03*
X260622Y219000D02*
D03*
X251174Y215260D02*
D03*
Y222740D02*
D03*
X173096Y219386D02*
D03*
X163648Y215646D02*
D03*
Y223126D02*
D03*
D39*
X272272Y369000D02*
D03*
X268728D02*
D03*
D41*
X222500Y361972D02*
D03*
D42*
X231516Y336028D02*
D03*
X222500D02*
D03*
D43*
X213484D02*
D03*
D45*
X148000Y326999D02*
D03*
Y329001D02*
D03*
X144575Y395999D02*
D03*
Y398001D02*
D03*
D46*
X159562Y332225D02*
D03*
X161531D02*
D03*
X163500D02*
D03*
X165469D02*
D03*
X167438D02*
D03*
Y314775D02*
D03*
X165469D02*
D03*
X163500D02*
D03*
X161531D02*
D03*
X159562D02*
D03*
D47*
X183650Y425500D02*
D03*
X177941D02*
D03*
X172150D02*
D03*
X166441D02*
D03*
X155646D02*
D03*
X161354D02*
D03*
X253969Y452000D02*
D03*
X248260D02*
D03*
D54*
X341740Y341500D02*
D03*
X334260D02*
D03*
D55*
X308488Y292500D02*
D03*
Y298012D02*
D03*
Y303524D02*
D03*
X314000Y292500D02*
D03*
Y298012D02*
D03*
Y303524D02*
D03*
X319512Y292500D02*
D03*
Y298012D02*
D03*
Y303524D02*
D03*
D56*
X344394Y257657D02*
D03*
X339394D02*
D03*
X334394D02*
D03*
X329394D02*
D03*
X324394D02*
D03*
X319394D02*
D03*
X314394D02*
D03*
X309394D02*
D03*
X304394D02*
D03*
X299394D02*
D03*
X294394D02*
D03*
X289394D02*
D03*
X284394D02*
D03*
X279394D02*
D03*
Y326555D02*
D03*
X284394D02*
D03*
X289394D02*
D03*
X294394D02*
D03*
X299394D02*
D03*
X304394D02*
D03*
X309394D02*
D03*
X314394D02*
D03*
X319394D02*
D03*
X324394D02*
D03*
X329394D02*
D03*
X334394D02*
D03*
X339394D02*
D03*
X344394D02*
D03*
D57*
X274472Y269587D02*
D03*
Y274587D02*
D03*
Y279587D02*
D03*
Y284587D02*
D03*
Y289587D02*
D03*
Y294587D02*
D03*
Y299587D02*
D03*
Y304587D02*
D03*
Y309587D02*
D03*
Y314587D02*
D03*
D58*
X257210Y442032D02*
D03*
X250790D02*
D03*
D59*
X377126Y233811D02*
D03*
Y210189D02*
D03*
X362559Y233811D02*
D03*
Y210189D02*
D03*
D60*
X379685Y222000D02*
D03*
X360000D02*
D03*
D61*
X318823Y432921D02*
D03*
X322563Y423079D02*
D03*
X315083D02*
D03*
D62*
X289925Y245228D02*
D03*
X293075D02*
D03*
X297925D02*
D03*
X301075D02*
D03*
D63*
X323055Y448000D02*
D03*
X304945D02*
D03*
D64*
X278043Y418000D02*
D03*
X268201Y414260D02*
D03*
Y421740D02*
D03*
D65*
X292154Y426500D02*
D03*
X298846D02*
D03*
D66*
X134465Y227500D02*
D03*
X145685D02*
D03*
X222008Y228000D02*
D03*
X233228D02*
D03*
D67*
X192000Y395449D02*
D03*
Y400961D02*
D03*
Y407449D02*
D03*
Y412961D02*
D03*
D68*
X217563Y424602D02*
D03*
Y437398D02*
D03*
X225437Y424602D02*
D03*
Y437398D02*
D03*
X217563Y396102D02*
D03*
Y408898D02*
D03*
X225437Y396102D02*
D03*
Y408898D02*
D03*
D69*
X215004Y431000D02*
D03*
X227996D02*
D03*
X215004Y402500D02*
D03*
X227996D02*
D03*
D70*
X165756Y343000D02*
D03*
X160244D02*
D03*
X320744Y247000D02*
D03*
X326256D02*
D03*
D71*
X222087Y215500D02*
D03*
X235000D02*
D03*
X134043Y215000D02*
D03*
X146957D02*
D03*
D72*
X156500Y216327D02*
D03*
Y213177D02*
D03*
X187000D02*
D03*
Y216327D02*
D03*
X140500Y325925D02*
D03*
Y329075D02*
D03*
X155000Y380630D02*
D03*
Y383780D02*
D03*
X162500D02*
D03*
Y380630D02*
D03*
X275000Y212791D02*
D03*
Y215941D02*
D03*
X244000Y212791D02*
D03*
Y215941D02*
D03*
X140500Y315925D02*
D03*
Y319075D02*
D03*
D73*
X179000Y213866D02*
D03*
Y219772D02*
D03*
X265848Y213480D02*
D03*
Y219386D02*
D03*
D74*
X166138Y436000D02*
D03*
X171453D02*
D03*
X178288D02*
D03*
X183603D02*
D03*
D75*
X138283Y357146D02*
D03*
X148717D02*
D03*
X138283Y340539D02*
D03*
X148717D02*
D03*
D76*
X172000Y292791D02*
D03*
Y285902D02*
D03*
Y257752D02*
D03*
Y250862D02*
D03*
D77*
X136098Y287201D02*
D03*
Y297201D02*
D03*
X160902D02*
D03*
Y287201D02*
D03*
X136098Y252161D02*
D03*
Y262161D02*
D03*
X160902D02*
D03*
Y252161D02*
D03*
D78*
X183575Y414720D02*
D03*
X181016D02*
D03*
X178457D02*
D03*
X175898D02*
D03*
X173339D02*
D03*
X170780D02*
D03*
X168220D02*
D03*
X165661D02*
D03*
X163102D02*
D03*
X160543D02*
D03*
X157984D02*
D03*
X155425D02*
D03*
X183575Y392280D02*
D03*
X181016D02*
D03*
X178457D02*
D03*
X175898D02*
D03*
X173339D02*
D03*
X170780D02*
D03*
X168220D02*
D03*
X165661D02*
D03*
X163102D02*
D03*
X160543D02*
D03*
X157984D02*
D03*
X155425D02*
D03*
D79*
X268890Y451500D02*
D03*
Y446500D02*
D03*
X294480D02*
D03*
Y451500D02*
D03*
D80*
X114000Y464500D02*
D03*
Y113000D02*
D03*
X369000D02*
D03*
Y486500D02*
D03*
D81*
X365933Y427579D02*
D03*
Y389079D02*
D03*
D82*
Y437421D02*
D03*
Y398921D02*
D03*
X206657Y478500D02*
D03*
X258118Y478933D02*
D03*
X309579D02*
D03*
D83*
X252715Y111197D02*
D03*
X165149Y111197D02*
D03*
X175685Y483224D02*
D03*
X308236Y115134D02*
D03*
D84*
X242872Y111197D02*
D03*
X233030D02*
D03*
X155307Y111197D02*
D03*
X145464D02*
D03*
X165843Y483224D02*
D03*
X156000D02*
D03*
X146157D02*
D03*
X136315D02*
D03*
X126472D02*
D03*
X116630D02*
D03*
X116567Y320236D02*
D03*
Y330079D02*
D03*
Y339921D02*
D03*
X365000Y170315D02*
D03*
Y180157D02*
D03*
Y190000D02*
D03*
X318079Y115134D02*
D03*
X327921D02*
D03*
X337764D02*
D03*
X116567Y278421D02*
D03*
Y268579D02*
D03*
Y258736D02*
D03*
Y415185D02*
D03*
Y405343D02*
D03*
Y395500D02*
D03*
D85*
X185122Y188406D02*
D03*
X137878D02*
D03*
X185122Y140374D02*
D03*
X137878D02*
D03*
X271122Y187906D02*
D03*
X223878D02*
D03*
X271122Y139874D02*
D03*
X223878D02*
D03*
D86*
X161500Y132500D02*
D03*
X247500Y132000D02*
D03*
D87*
X116567Y349764D02*
D03*
X365000Y160472D02*
D03*
X116567Y288264D02*
D03*
Y425028D02*
D03*
D88*
X216500Y478500D02*
D03*
X267961Y478933D02*
D03*
X319421D02*
D03*
D89*
X241430Y120863D02*
D03*
X287681Y144500D02*
D03*
X267000Y266000D02*
D03*
X331000Y381000D02*
D03*
X175500Y308000D02*
D03*
X171700Y305819D02*
D03*
X173500Y300500D02*
D03*
X169500Y301500D02*
D03*
X163000Y325000D02*
D03*
X275619Y403500D02*
D03*
X281700Y405400D02*
D03*
X238000Y393500D02*
D03*
X198000Y362000D02*
D03*
X170500Y384000D02*
D03*
X294973Y436027D02*
D03*
X287000Y436000D02*
D03*
X240500Y420500D02*
D03*
X244000Y409500D02*
D03*
X264500Y404500D02*
D03*
X326000Y337000D02*
D03*
X333500Y278500D02*
D03*
X302000Y316500D02*
D03*
X157000Y420000D02*
D03*
X160500Y420500D02*
D03*
X187500Y419500D02*
D03*
X157000Y406500D02*
D03*
X159000Y308000D02*
D03*
X135761Y322261D02*
D03*
X155500Y337000D02*
D03*
X225000Y207000D02*
D03*
X247500Y206500D02*
D03*
X292500Y249000D02*
D03*
X316500Y247000D02*
D03*
X263200Y276187D02*
D03*
X258500Y229000D02*
D03*
X176500Y346500D02*
D03*
X228000Y324000D02*
D03*
X290000Y318681D02*
D03*
X165523Y403500D02*
D03*
X274647Y383453D02*
D03*
X137400Y308100D02*
D03*
X171700Y455500D02*
D03*
X311000Y244500D02*
D03*
X283200Y346800D02*
D03*
X167800Y375330D02*
D03*
X302000Y265400D02*
D03*
X301300Y302500D02*
D03*
X181016Y410700D02*
D03*
X234800Y399800D02*
D03*
X300600Y373000D02*
D03*
X152800Y351017D02*
D03*
X242400Y330200D02*
D03*
X314394Y313894D02*
D03*
D90*
X354500Y243000D02*
D03*
M02*
