G04*
G04 #@! TF.GenerationSoftware,Altium Limited,Altium Designer,22.1.2 (22)*
G04*
G04 Layer_Color=65535*
%FSLAX25Y25*%
%MOIN*%
G70*
G04*
G04 #@! TF.SameCoordinates,2BB1DE6D-457A-41CA-A848-8B8E96E8A4FB*
G04*
G04*
G04 #@! TF.FilePolarity,Positive*
G04*
G01*
G75*
%ADD10C,0.00394*%
%ADD11C,0.00787*%
%ADD12C,0.00600*%
%ADD13C,0.00500*%
%ADD14C,0.00400*%
D10*
X260452Y401000D02*
G03*
X260058Y401000I-197J0D01*
G01*
D02*
G03*
X260452Y401000I197J0D01*
G01*
Y352000D02*
G03*
X260058Y352000I-197J0D01*
G01*
D02*
G03*
X260452Y352000I197J0D01*
G01*
Y304500D02*
G03*
X260058Y304500I-197J0D01*
G01*
D02*
G03*
X260452Y304500I197J0D01*
G01*
Y258000D02*
G03*
X260058Y258000I-197J0D01*
G01*
D02*
G03*
X260452Y258000I197J0D01*
G01*
Y212500D02*
G03*
X260058Y212500I-197J0D01*
G01*
D02*
G03*
X260452Y212500I197J0D01*
G01*
X426559Y219469D02*
X430496D01*
X426559Y186004D02*
X430496D01*
X444276Y192894D02*
Y212579D01*
X399000Y219469D02*
X410811D01*
X399000Y186004D02*
Y219469D01*
Y186004D02*
X410811D01*
X399000Y306500D02*
X410811D01*
X399000D02*
Y339965D01*
X410811D01*
X444276Y313390D02*
Y333075D01*
X426559Y306500D02*
X430496D01*
X426559Y339965D02*
X430496D01*
X399000Y426532D02*
X410811D01*
X399000D02*
Y459996D01*
X410811D01*
X444276Y433421D02*
Y453106D01*
X426559Y426532D02*
X430496D01*
X426559Y459996D02*
X430496D01*
X405172Y322484D02*
X404516D01*
X404844D01*
Y320844D01*
X404516Y320516D01*
X404188D01*
X403860Y320844D01*
X405828Y322156D02*
X406156Y322484D01*
X406812D01*
X407140Y322156D01*
Y321828D01*
X406812Y321500D01*
X406484D01*
X406812D01*
X407140Y321172D01*
Y320844D01*
X406812Y320516D01*
X406156D01*
X405828Y320844D01*
X405172Y442984D02*
X404516D01*
X404844D01*
Y441344D01*
X404516Y441016D01*
X404188D01*
X403860Y441344D01*
X407140Y441016D02*
X405828D01*
X407140Y442328D01*
Y442656D01*
X406812Y442984D01*
X406156D01*
X405828Y442656D01*
X404500Y206984D02*
X403844D01*
X404172D01*
Y205344D01*
X403844Y205016D01*
X403516D01*
X403188Y205344D01*
X405156Y205016D02*
X405812D01*
X405484D01*
Y206984D01*
X405156Y206656D01*
D11*
X147394Y214443D02*
G03*
X147394Y214443I-394J0D01*
G01*
X274785Y458567D02*
G03*
X274785Y458567I-394J0D01*
G01*
X306295Y189500D02*
G03*
X306295Y189500I-394J0D01*
G01*
X147394Y261647D02*
G03*
X147394Y261647I-394J0D01*
G01*
Y308850D02*
G03*
X147394Y308850I-394J0D01*
G01*
Y356054D02*
G03*
X147394Y356054I-394J0D01*
G01*
Y403258D02*
G03*
X147394Y403258I-394J0D01*
G01*
X321300Y207783D02*
X332700D01*
X321300Y218217D02*
X332700D01*
X352000Y388433D02*
Y392567D01*
X346800Y409717D02*
X358200D01*
X346800Y399284D02*
X358200D01*
X352000Y444933D02*
Y449067D01*
Y331933D02*
Y336067D01*
Y275433D02*
Y279567D01*
Y218933D02*
Y223067D01*
X227516Y281714D02*
X239484D01*
X227516Y329687D02*
X239484D01*
X227516Y376187D02*
X239484D01*
X227516Y425445D02*
X239484D01*
X227516Y236372D02*
X239484D01*
X191362Y386659D02*
X197465D01*
X198842Y376187D02*
Y386817D01*
Y376187D02*
X215575D01*
Y386817D01*
X198842D02*
X215575D01*
X177614Y314748D02*
X186866D01*
Y308252D02*
Y314748D01*
X177614Y308252D02*
X186866D01*
X181898Y227882D02*
Y232118D01*
X181500Y275382D02*
Y279618D01*
X177850Y267748D02*
X187102D01*
Y261252D02*
Y267748D01*
X177850Y261252D02*
X187102D01*
X178248Y221248D02*
X187500D01*
Y214752D02*
Y221248D01*
X178248Y214752D02*
X187500D01*
X181748Y369054D02*
Y373290D01*
X181500Y321882D02*
Y326118D01*
X181748Y417804D02*
Y422040D01*
X177614Y403752D02*
X186866D01*
Y410248D01*
X177614D02*
X186866D01*
X177614Y361748D02*
X186866D01*
Y355252D02*
Y361748D01*
X177614Y355252D02*
X186866D01*
X152000Y217002D02*
Y247002D01*
X142000Y217002D02*
Y247002D01*
X152000D01*
X142000Y217002D02*
X152000D01*
X321032Y370783D02*
X332433D01*
X321032Y381217D02*
X332433D01*
X321032Y425283D02*
X332433D01*
X321032Y435717D02*
X332433D01*
X321032Y225283D02*
X332433D01*
X321032Y235717D02*
X332433D01*
X321032Y249283D02*
X332433D01*
X321032Y259717D02*
X332433D01*
X321032Y276717D02*
X332433D01*
X321032Y266283D02*
X332433D01*
X321032Y283283D02*
X332433D01*
X321032Y293717D02*
X332433D01*
X321032Y311283D02*
X332433D01*
X321032Y321717D02*
X332433D01*
X321032Y338217D02*
X332433D01*
X321032Y327783D02*
X332433D01*
X321032Y344283D02*
X332433D01*
X321032Y354717D02*
X332433D01*
X321032Y396967D02*
X332433D01*
X321032Y386533D02*
X332433D01*
X321032Y402283D02*
X332433D01*
X321032Y412717D02*
X332433D01*
X321032Y450217D02*
X332433D01*
X321032Y439783D02*
X332433D01*
X321032Y454283D02*
X332433D01*
X321032Y464717D02*
X332433D01*
X290701Y436028D02*
X303299D01*
Y401972D02*
Y436028D01*
X290701Y401972D02*
X303299D01*
X290701D02*
Y436028D01*
X283417Y436657D02*
X289323D01*
X346800Y343441D02*
X358200D01*
X346800Y353874D02*
X358200D01*
X372300Y425283D02*
X383700D01*
X372300Y435717D02*
X383700D01*
X372300Y450217D02*
X383700D01*
X372300Y439783D02*
X383700D01*
X372300Y464717D02*
X383700D01*
X372300Y454283D02*
X383700D01*
X346800Y413968D02*
X358200D01*
X346800Y424401D02*
X358200D01*
X321032Y191283D02*
X332433D01*
X321032Y201717D02*
X332433D01*
X346800Y357547D02*
X358200D01*
X346800Y367980D02*
X358200D01*
X346800Y301126D02*
X358200D01*
X346800Y311559D02*
X358200D01*
X346800Y244705D02*
X358200D01*
X346800Y255138D02*
X358200D01*
X346800Y188283D02*
X358200D01*
X346800Y198717D02*
X358200D01*
X346800Y438506D02*
X358200D01*
X346800Y428073D02*
X358200D01*
X346800Y382085D02*
X358200D01*
X346800Y371652D02*
X358200D01*
X346800Y325664D02*
X358200D01*
X346800Y315231D02*
X358200D01*
X346800Y269243D02*
X358200D01*
X346800Y258810D02*
X358200D01*
X346800Y212822D02*
X358200D01*
X346800Y202389D02*
X358200D01*
X346800Y456283D02*
X358200D01*
X346800Y466716D02*
X358200D01*
X346800Y287020D02*
X358200D01*
X346800Y297453D02*
X358200D01*
X346800Y230599D02*
X358200D01*
X346800Y241032D02*
X358200D01*
X372300Y370783D02*
X383700D01*
X372300Y381217D02*
X383700D01*
X372300Y311283D02*
X383700D01*
X372300Y321717D02*
X383700D01*
X372300Y249283D02*
X383700D01*
X372300Y259717D02*
X383700D01*
X372300Y191283D02*
X383700D01*
X372300Y201717D02*
X383700D01*
X372300Y396967D02*
X383700D01*
X372300Y386533D02*
X383700D01*
X372300Y338217D02*
X383700D01*
X372300Y327783D02*
X383700D01*
X372300Y276717D02*
X383700D01*
X372300Y266283D02*
X383700D01*
X372300Y218717D02*
X383700D01*
X372300Y208283D02*
X383700D01*
X372300Y412717D02*
X383700D01*
X372300Y402283D02*
X383700D01*
X372300Y354717D02*
X383700D01*
X372300Y344283D02*
X383700D01*
X372300Y293717D02*
X383700D01*
X372300Y283283D02*
X383700D01*
X372300Y235717D02*
X383700D01*
X372300Y225283D02*
X383700D01*
X244366Y409606D02*
Y433032D01*
X258634Y411969D02*
Y433032D01*
X244366Y360906D02*
Y384332D01*
X258634Y363269D02*
Y384332D01*
X244366Y315106D02*
Y338532D01*
X258634Y317469D02*
Y338532D01*
X244366Y268106D02*
Y291532D01*
X258634Y270469D02*
Y291532D01*
X244366Y222106D02*
Y245532D01*
X258634Y224469D02*
Y245532D01*
X142000Y264206D02*
X152000D01*
X142000Y294206D02*
X152000D01*
X142000Y264206D02*
Y294206D01*
X152000Y264206D02*
Y294206D01*
X142000Y311410D02*
X152000D01*
X142000Y341410D02*
X152000D01*
X142000Y311410D02*
Y341410D01*
X152000Y311410D02*
Y341410D01*
X142000Y358613D02*
X152000D01*
X142000Y388613D02*
X152000D01*
X142000Y358613D02*
Y388613D01*
X152000Y358613D02*
Y388613D01*
X142000Y405817D02*
X152000D01*
X142000Y435817D02*
X152000D01*
X142000Y405817D02*
Y435817D01*
X152000Y405817D02*
Y435817D01*
X283417Y389244D02*
X289323D01*
X290701Y354559D02*
Y388614D01*
Y354559D02*
X303299D01*
Y388614D01*
X290701D02*
X303299D01*
X269704Y222382D02*
Y226618D01*
X163169Y218524D02*
Y222761D01*
X198842Y247002D02*
X215575D01*
Y236372D02*
Y247002D01*
X198842Y236372D02*
X215575D01*
X198842D02*
Y247002D01*
X191362Y246844D02*
X197465D01*
X163169Y409129D02*
Y413366D01*
Y360463D02*
Y364699D01*
X198842Y340317D02*
X215575D01*
Y329687D02*
Y340317D01*
X198842Y329687D02*
X215575D01*
X198842D02*
Y340317D01*
X191362Y340159D02*
X197465D01*
X198842Y435817D02*
X215575D01*
Y425187D02*
Y435817D01*
X198842Y425187D02*
X215575D01*
X198842D02*
Y435817D01*
X191362Y435659D02*
X197465D01*
X269704Y361882D02*
Y366118D01*
Y411382D02*
Y415618D01*
Y314882D02*
Y319118D01*
Y268382D02*
Y272618D01*
X290701Y246372D02*
X303299D01*
Y212317D02*
Y246372D01*
X290701Y212317D02*
X303299D01*
X290701D02*
Y246372D01*
X283417Y247002D02*
X289323D01*
X290701Y293786D02*
X303299D01*
Y259731D02*
Y293786D01*
X290701Y259731D02*
X303299D01*
X290701D02*
Y293786D01*
X283417Y294416D02*
X289323D01*
X290701Y341200D02*
X303299D01*
Y307145D02*
Y341200D01*
X290701Y307145D02*
X303299D01*
X290701D02*
Y341200D01*
X283417Y341830D02*
X289323D01*
X163169Y265305D02*
Y269541D01*
Y312629D02*
Y316866D01*
X198842Y292344D02*
X215575D01*
Y281714D02*
Y292344D01*
X198842Y281714D02*
X215575D01*
X198842D02*
Y292344D01*
X191362Y292187D02*
X197465D01*
D12*
X220421Y399909D02*
G03*
X220421Y399909I-500J0D01*
G01*
Y210752D02*
G03*
X220421Y210752I-500J0D01*
G01*
Y255923D02*
G03*
X220421Y255923I-500J0D01*
G01*
X221642Y303410D02*
G03*
X221642Y303410I-500J0D01*
G01*
X220421Y350659D02*
G03*
X220421Y350659I-500J0D01*
G01*
X275050Y431910D02*
Y436100D01*
X266950Y428160D02*
Y430840D01*
Y422900D02*
X275050D01*
Y427090D01*
X266950Y436100D02*
X275050D01*
X211744Y404409D02*
Y408499D01*
Y404409D02*
X218256D01*
X211744Y413327D02*
Y417417D01*
X218256D01*
Y409292D02*
Y412535D01*
X266950Y247096D02*
X275050D01*
Y233896D02*
Y238086D01*
X266950Y233896D02*
X275050D01*
X266950Y239156D02*
Y241836D01*
X275050Y242906D02*
Y247096D01*
X211744Y215252D02*
Y219342D01*
Y215252D02*
X218256D01*
X211744Y224170D02*
Y228260D01*
X218256D01*
Y220135D02*
Y223377D01*
X211744Y260423D02*
Y264513D01*
Y260423D02*
X218256D01*
X211744Y269341D02*
Y273431D01*
X218256D01*
Y265306D02*
Y268549D01*
X266950Y340411D02*
X275050D01*
Y327211D02*
Y331401D01*
X266950Y327211D02*
X275050D01*
X266950Y332471D02*
Y335151D01*
X275050Y336221D02*
Y340411D01*
X212965Y307909D02*
Y311999D01*
Y307909D02*
X219476D01*
X212965Y316827D02*
Y320917D01*
X219476D01*
Y312792D02*
Y316035D01*
X211744Y355159D02*
Y359249D01*
Y355159D02*
X218256D01*
X211744Y364077D02*
Y368167D01*
X218256D01*
Y360042D02*
Y363285D01*
X266950Y386911D02*
X275050D01*
Y373711D02*
Y377901D01*
X266950Y373711D02*
X275050D01*
X266950Y378971D02*
Y381651D01*
X275050Y382721D02*
Y386911D01*
X266950Y292438D02*
X275050D01*
Y279238D02*
Y283428D01*
X266950Y279238D02*
X275050D01*
X266950Y284498D02*
Y287178D01*
X275050Y288248D02*
Y292438D01*
D13*
X416937Y293741D02*
X464890D01*
Y231339D02*
Y293741D01*
X416937Y231339D02*
X464890D01*
X429102Y299942D02*
X433039D01*
X431071Y296005D02*
X433039Y299942D01*
X429102D02*
X431071Y296005D01*
X180398Y209461D02*
X182602D01*
X180398Y204539D02*
X182602D01*
X180398Y256461D02*
X182602D01*
X180398Y251539D02*
X182602D01*
X180398Y303187D02*
X182602D01*
X180398Y298266D02*
X182602D01*
X180398Y349961D02*
X182602D01*
X180398Y345039D02*
X182602D01*
X180398Y397961D02*
X182602D01*
X180398Y393039D02*
X182602D01*
X232535Y311961D02*
X234740D01*
X232535Y307039D02*
X234740D01*
X232535Y357961D02*
X234740D01*
X232535Y353039D02*
X234740D01*
X232535Y407961D02*
X234740D01*
X232535Y403039D02*
X234740D01*
X232535Y264961D02*
X234740D01*
X232535Y260039D02*
X234740D01*
X232535Y219461D02*
X234740D01*
X232535Y214539D02*
X234740D01*
X197051Y368217D02*
X199256D01*
X197051Y363296D02*
X199256D01*
X429102Y419973D02*
X431071Y416036D01*
X433039Y419973D01*
X429102D02*
X433039D01*
X416937Y351371D02*
X464890D01*
Y413773D01*
X416937D02*
X464890D01*
X277305Y445181D02*
X306439D01*
Y467819D01*
X277305D02*
X306439D01*
X277305Y445181D02*
Y467819D01*
X302988Y180248D02*
Y202886D01*
X273854Y180248D02*
X302988D01*
X273854D02*
Y202886D01*
X302988D01*
X249448Y396539D02*
X251652D01*
X249448Y401461D02*
X251652D01*
X163248Y435961D02*
X165453D01*
X163248Y431039D02*
X165453D01*
X249448Y352461D02*
X251652D01*
X249448Y347539D02*
X251652D01*
X249448Y306461D02*
X251652D01*
X249448Y301539D02*
X251652D01*
X249448Y258961D02*
X251652D01*
X249448Y254039D02*
X251652D01*
X249448Y214461D02*
X251652D01*
X249448Y209539D02*
X251652D01*
X163248Y424615D02*
X165453D01*
X163248Y419694D02*
X165453D01*
X162398Y234961D02*
X164602D01*
X162398Y230040D02*
X164602D01*
X196362Y210654D02*
X201638D01*
X196362Y217346D02*
X201638D01*
X197051Y223389D02*
X199256D01*
X197051Y228310D02*
X199256D01*
X196362Y255654D02*
X201638D01*
X196362Y262346D02*
X201638D01*
X163248Y375781D02*
X165453D01*
X163248Y370860D02*
X165453D01*
X163248Y328615D02*
X165453D01*
X163248Y323694D02*
X165453D01*
X197051Y316046D02*
X199256D01*
X197051Y320967D02*
X199256D01*
X196362Y350654D02*
X201638D01*
X196362Y357346D02*
X201638D01*
X196362Y400154D02*
X201638D01*
X196362Y406846D02*
X201638D01*
X197051Y412546D02*
X199256D01*
X197051Y417467D02*
X199256D01*
X163248Y386961D02*
X165453D01*
X163248Y382039D02*
X165453D01*
X163248Y247146D02*
X165453D01*
X163248Y242224D02*
X165453D01*
X163248Y292488D02*
X165453D01*
X163248Y287567D02*
X165453D01*
X163248Y340461D02*
X165453D01*
X163248Y335539D02*
X165453D01*
X163248Y280967D02*
X165453D01*
X163248Y276045D02*
X165453D01*
X197051Y268560D02*
X199256D01*
X197051Y273481D02*
X199256D01*
X196362Y302654D02*
X201638D01*
X196362Y309346D02*
X201638D01*
X438739Y297729D02*
X440072D01*
X439406D01*
Y295730D01*
X440739Y297729D02*
Y295730D01*
Y296729D01*
X441072Y297062D01*
X441739D01*
X442072Y296729D01*
Y295730D01*
X443738D02*
X443071D01*
X442738Y296063D01*
Y296729D01*
X443071Y297062D01*
X443738D01*
X444071Y296729D01*
Y296396D01*
X442738D01*
X444738Y297062D02*
Y295730D01*
Y296396D01*
X445071Y296729D01*
X445404Y297062D01*
X445737D01*
X446737Y295730D02*
Y297062D01*
X447070D01*
X447403Y296729D01*
Y295730D01*
Y296729D01*
X447737Y297062D01*
X448070Y296729D01*
Y295730D01*
X449069Y297062D02*
X449736D01*
X450069Y296729D01*
Y295730D01*
X449069D01*
X448736Y296063D01*
X449069Y296396D01*
X450069D01*
X450736Y295730D02*
X451402D01*
X451069D01*
Y297729D01*
X450736D01*
X440072Y416261D02*
Y418260D01*
X441072D01*
X441405Y417927D01*
Y417261D01*
X441072Y416928D01*
X440072D01*
X442405Y416261D02*
X443071D01*
X443404Y416594D01*
Y417261D01*
X443071Y417594D01*
X442405D01*
X442072Y417261D01*
Y416594D01*
X442405Y416261D01*
X444071Y417594D02*
Y416594D01*
X444404Y416261D01*
X444737Y416594D01*
X445071Y416261D01*
X445404Y416594D01*
Y417594D01*
X447070Y416261D02*
X446404D01*
X446070Y416594D01*
Y417261D01*
X446404Y417594D01*
X447070D01*
X447403Y417261D01*
Y416928D01*
X446070D01*
X448070Y417594D02*
Y416261D01*
Y416928D01*
X448403Y417261D01*
X448736Y417594D01*
X449069D01*
D14*
X178101Y400334D02*
Y401933D01*
X178901D01*
X179168Y401666D01*
Y401133D01*
X178901Y400867D01*
X178101D01*
X178635D02*
X179168Y400334D01*
X180767D02*
X179701D01*
X180767Y401400D01*
Y401666D01*
X180501Y401933D01*
X179967D01*
X179701Y401666D01*
X181300Y400334D02*
X181834D01*
X181567D01*
Y401933D01*
X181300Y401666D01*
X182633Y400067D02*
X183700D01*
X184233Y401933D02*
Y400600D01*
X184499Y400334D01*
X185032D01*
X185299Y400600D01*
Y401933D01*
X186899D02*
X185832D01*
Y401133D01*
X186365Y401400D01*
X186632D01*
X186899Y401133D01*
Y400600D01*
X186632Y400334D01*
X186099D01*
X185832Y400600D01*
X177818Y351616D02*
Y353215D01*
X178618D01*
X178884Y352948D01*
Y352415D01*
X178618Y352149D01*
X177818D01*
X178351D02*
X178884Y351616D01*
X180484D02*
X179418D01*
X180484Y352682D01*
Y352948D01*
X180217Y353215D01*
X179684D01*
X179418Y352948D01*
X181017Y351616D02*
X181550D01*
X181284D01*
Y353215D01*
X181017Y352948D01*
X182350Y351349D02*
X183416D01*
X183949Y353215D02*
Y351882D01*
X184216Y351616D01*
X184749D01*
X185016Y351882D01*
Y353215D01*
X186349Y351616D02*
Y353215D01*
X185549Y352415D01*
X186615D01*
X177601Y305060D02*
Y306659D01*
X178401D01*
X178668Y306393D01*
Y305859D01*
X178401Y305593D01*
X177601D01*
X178135D02*
X178668Y305060D01*
X180267D02*
X179201D01*
X180267Y306126D01*
Y306393D01*
X180001Y306659D01*
X179467D01*
X179201Y306393D01*
X180800Y305060D02*
X181333D01*
X181067D01*
Y306659D01*
X180800Y306393D01*
X182133Y304793D02*
X183200D01*
X183733Y306659D02*
Y305326D01*
X183999Y305060D01*
X184532D01*
X184799Y305326D01*
Y306659D01*
X185332Y306393D02*
X185599Y306659D01*
X186132D01*
X186399Y306393D01*
Y306126D01*
X186132Y305859D01*
X185865D01*
X186132D01*
X186399Y305593D01*
Y305326D01*
X186132Y305060D01*
X185599D01*
X185332Y305326D01*
X177601Y258334D02*
Y259933D01*
X178401D01*
X178668Y259666D01*
Y259133D01*
X178401Y258867D01*
X177601D01*
X178135D02*
X178668Y258334D01*
X180267D02*
X179201D01*
X180267Y259400D01*
Y259666D01*
X180001Y259933D01*
X179467D01*
X179201Y259666D01*
X180800Y258334D02*
X181333D01*
X181067D01*
Y259933D01*
X180800Y259666D01*
X182133Y258067D02*
X183200D01*
X183733Y259933D02*
Y258600D01*
X183999Y258334D01*
X184532D01*
X184799Y258600D01*
Y259933D01*
X186399Y258334D02*
X185332D01*
X186399Y259400D01*
Y259666D01*
X186132Y259933D01*
X185599D01*
X185332Y259666D01*
X178368Y211334D02*
Y212933D01*
X179168D01*
X179434Y212666D01*
Y212133D01*
X179168Y211867D01*
X178368D01*
X178901D02*
X179434Y211334D01*
X181034D02*
X179967D01*
X181034Y212400D01*
Y212666D01*
X180767Y212933D01*
X180234D01*
X179967Y212666D01*
X181567Y211334D02*
X182100D01*
X181834D01*
Y212933D01*
X181567Y212666D01*
X182900Y211067D02*
X183966D01*
X184499Y212933D02*
Y211600D01*
X184766Y211334D01*
X185299D01*
X185566Y211600D01*
Y212933D01*
X186099Y211334D02*
X186632D01*
X186365D01*
Y212933D01*
X186099Y212666D01*
X141502Y439750D02*
Y438417D01*
X141769Y438151D01*
X142302D01*
X142568Y438417D01*
Y439750D01*
X143101Y438151D02*
Y439750D01*
X143901D01*
X144168Y439483D01*
Y438950D01*
X143901Y438684D01*
X143101D01*
X144701Y439750D02*
Y438151D01*
X145501D01*
X145767Y438417D01*
Y439483D01*
X145501Y439750D01*
X144701D01*
X146300D02*
Y438417D01*
X146567Y438151D01*
X147100D01*
X147367Y438417D01*
Y439750D01*
X147900Y438151D02*
X148433D01*
X148167D01*
Y439750D01*
X147900Y439483D01*
X149233Y437884D02*
X150299D01*
X150832Y439750D02*
Y438417D01*
X151099Y438151D01*
X151632D01*
X151899Y438417D01*
Y439750D01*
X153498D02*
X152432D01*
Y438950D01*
X152965Y439217D01*
X153232D01*
X153498Y438950D01*
Y438417D01*
X153232Y438151D01*
X152698D01*
X152432Y438417D01*
X141502Y392546D02*
Y391213D01*
X141769Y390947D01*
X142302D01*
X142568Y391213D01*
Y392546D01*
X143101Y390947D02*
Y392546D01*
X143901D01*
X144168Y392280D01*
Y391746D01*
X143901Y391480D01*
X143101D01*
X144701Y392546D02*
Y390947D01*
X145501D01*
X145767Y391213D01*
Y392280D01*
X145501Y392546D01*
X144701D01*
X146300D02*
Y391213D01*
X146567Y390947D01*
X147100D01*
X147367Y391213D01*
Y392546D01*
X147900Y390947D02*
X148433D01*
X148167D01*
Y392546D01*
X147900Y392280D01*
X149233Y390680D02*
X150299D01*
X150832Y392546D02*
Y391213D01*
X151099Y390947D01*
X151632D01*
X151899Y391213D01*
Y392546D01*
X153232Y390947D02*
Y392546D01*
X152432Y391746D01*
X153498D01*
X141502Y345342D02*
Y344009D01*
X141769Y343743D01*
X142302D01*
X142568Y344009D01*
Y345342D01*
X143101Y343743D02*
Y345342D01*
X143901D01*
X144168Y345076D01*
Y344543D01*
X143901Y344276D01*
X143101D01*
X144701Y345342D02*
Y343743D01*
X145501D01*
X145767Y344009D01*
Y345076D01*
X145501Y345342D01*
X144701D01*
X146300D02*
Y344009D01*
X146567Y343743D01*
X147100D01*
X147367Y344009D01*
Y345342D01*
X147900Y343743D02*
X148433D01*
X148167D01*
Y345342D01*
X147900Y345076D01*
X149233Y343476D02*
X150299D01*
X150832Y345342D02*
Y344009D01*
X151099Y343743D01*
X151632D01*
X151899Y344009D01*
Y345342D01*
X152432Y345076D02*
X152698Y345342D01*
X153232D01*
X153498Y345076D01*
Y344809D01*
X153232Y344543D01*
X152965D01*
X153232D01*
X153498Y344276D01*
Y344009D01*
X153232Y343743D01*
X152698D01*
X152432Y344009D01*
X141502Y298139D02*
Y296806D01*
X141769Y296539D01*
X142302D01*
X142568Y296806D01*
Y298139D01*
X143101Y296539D02*
Y298139D01*
X143901D01*
X144168Y297872D01*
Y297339D01*
X143901Y297072D01*
X143101D01*
X144701Y298139D02*
Y296539D01*
X145501D01*
X145767Y296806D01*
Y297872D01*
X145501Y298139D01*
X144701D01*
X146300D02*
Y296806D01*
X146567Y296539D01*
X147100D01*
X147367Y296806D01*
Y298139D01*
X147900Y296539D02*
X148433D01*
X148167D01*
Y298139D01*
X147900Y297872D01*
X149233Y296273D02*
X150299D01*
X150832Y298139D02*
Y296806D01*
X151099Y296539D01*
X151632D01*
X151899Y296806D01*
Y298139D01*
X153498Y296539D02*
X152432D01*
X153498Y297605D01*
Y297872D01*
X153232Y298139D01*
X152698D01*
X152432Y297872D01*
X141769Y250935D02*
Y249602D01*
X142035Y249335D01*
X142568D01*
X142835Y249602D01*
Y250935D01*
X143368Y249335D02*
Y250935D01*
X144168D01*
X144434Y250668D01*
Y250135D01*
X144168Y249869D01*
X143368D01*
X144967Y250935D02*
Y249335D01*
X145767D01*
X146034Y249602D01*
Y250668D01*
X145767Y250935D01*
X144967D01*
X146567D02*
Y249602D01*
X146834Y249335D01*
X147367D01*
X147633Y249602D01*
Y250935D01*
X148167Y249335D02*
X148700D01*
X148433D01*
Y250935D01*
X148167Y250668D01*
X149499Y249069D02*
X150566D01*
X151099Y250935D02*
Y249602D01*
X151365Y249335D01*
X151899D01*
X152165Y249602D01*
Y250935D01*
X152698Y249335D02*
X153232D01*
X152965D01*
Y250935D01*
X152698Y250668D01*
X203610Y439935D02*
Y438602D01*
X203876Y438335D01*
X204409D01*
X204676Y438602D01*
Y439935D01*
X205209Y438335D02*
X205742D01*
X205476D01*
Y439935D01*
X205209Y439668D01*
X206542Y438069D02*
X207608D01*
X208142Y439935D02*
Y438602D01*
X208408Y438335D01*
X208941D01*
X209208Y438602D01*
Y439935D01*
X210807D02*
X209741D01*
Y439135D01*
X210274Y439402D01*
X210541D01*
X210807Y439135D01*
Y438602D01*
X210541Y438335D01*
X210008D01*
X209741Y438602D01*
X204110Y390435D02*
Y389102D01*
X204376Y388835D01*
X204909D01*
X205176Y389102D01*
Y390435D01*
X205709Y388835D02*
X206242D01*
X205976D01*
Y390435D01*
X205709Y390168D01*
X207042Y388569D02*
X208108D01*
X208642Y390435D02*
Y389102D01*
X208908Y388835D01*
X209441D01*
X209708Y389102D01*
Y390435D01*
X211041Y388835D02*
Y390435D01*
X210241Y389635D01*
X211307D01*
X204610Y344435D02*
Y343102D01*
X204876Y342835D01*
X205410D01*
X205676Y343102D01*
Y344435D01*
X206209Y342835D02*
X206742D01*
X206476D01*
Y344435D01*
X206209Y344168D01*
X207542Y342569D02*
X208608D01*
X209142Y344435D02*
Y343102D01*
X209408Y342835D01*
X209941D01*
X210208Y343102D01*
Y344435D01*
X210741Y344168D02*
X211008Y344435D01*
X211541D01*
X211807Y344168D01*
Y343902D01*
X211541Y343635D01*
X211274D01*
X211541D01*
X211807Y343369D01*
Y343102D01*
X211541Y342835D01*
X211008D01*
X210741Y343102D01*
X203330Y296210D02*
Y294877D01*
X203597Y294611D01*
X204130D01*
X204397Y294877D01*
Y296210D01*
X204930Y294611D02*
X205463D01*
X205196D01*
Y296210D01*
X204930Y295944D01*
X206263Y294344D02*
X207329D01*
X207862Y296210D02*
Y294877D01*
X208129Y294611D01*
X208662D01*
X208928Y294877D01*
Y296210D01*
X210528Y294611D02*
X209462D01*
X210528Y295677D01*
Y295944D01*
X210261Y296210D01*
X209728D01*
X209462Y295944D01*
X204876Y250620D02*
Y249287D01*
X205143Y249020D01*
X205676D01*
X205943Y249287D01*
Y250620D01*
X206476Y249020D02*
X207009D01*
X206742D01*
Y250620D01*
X206476Y250353D01*
X207809Y248754D02*
X208875D01*
X209408Y250620D02*
Y249287D01*
X209675Y249020D01*
X210208D01*
X210474Y249287D01*
Y250620D01*
X211008Y249020D02*
X211541D01*
X211274D01*
Y250620D01*
X211008Y250353D01*
X273572Y453667D02*
Y454733D01*
Y454200D01*
X275172D01*
X274106Y455267D02*
X275172Y456333D01*
X274639Y455800D01*
X274106Y456333D01*
X275172Y455267D01*
X305200Y196333D02*
X306800D01*
Y195533D01*
X306533Y195267D01*
X306000D01*
X305733Y195533D01*
Y196333D01*
Y195800D02*
X305200Y195267D01*
X306267Y194733D02*
X305200Y193667D01*
X305733Y194200D01*
X306267Y193667D01*
X305200Y194733D01*
X322200Y435334D02*
Y436933D01*
X323000D01*
X323267Y436666D01*
Y436133D01*
X323000Y435867D01*
X322200D01*
X322734D02*
X323267Y435334D01*
X324866D02*
X323800D01*
X324866Y436400D01*
Y436666D01*
X324600Y436933D01*
X324066D01*
X323800Y436666D01*
X325399D02*
X325666Y436933D01*
X326199D01*
X326466Y436666D01*
Y436400D01*
X326199Y436133D01*
X326466Y435867D01*
Y435600D01*
X326199Y435334D01*
X325666D01*
X325399Y435600D01*
Y435867D01*
X325666Y436133D01*
X325399Y436400D01*
Y436666D01*
X325666Y436133D02*
X326199D01*
X326999Y435067D02*
X328065D01*
X328598Y436933D02*
Y435600D01*
X328865Y435334D01*
X329398D01*
X329665Y435600D01*
Y436933D01*
X331264D02*
X330198D01*
Y436133D01*
X330731Y436400D01*
X330998D01*
X331264Y436133D01*
Y435600D01*
X330998Y435334D01*
X330464D01*
X330198Y435600D01*
X322200Y380334D02*
Y381933D01*
X323000D01*
X323267Y381666D01*
Y381133D01*
X323000Y380867D01*
X322200D01*
X322734D02*
X323267Y380334D01*
X324866D02*
X323800D01*
X324866Y381400D01*
Y381666D01*
X324600Y381933D01*
X324066D01*
X323800Y381666D01*
X325399D02*
X325666Y381933D01*
X326199D01*
X326466Y381666D01*
Y381400D01*
X326199Y381133D01*
X326466Y380867D01*
Y380600D01*
X326199Y380334D01*
X325666D01*
X325399Y380600D01*
Y380867D01*
X325666Y381133D01*
X325399Y381400D01*
Y381666D01*
X325666Y381133D02*
X326199D01*
X326999Y380067D02*
X328065D01*
X328598Y381933D02*
Y380600D01*
X328865Y380334D01*
X329398D01*
X329665Y380600D01*
Y381933D01*
X330998Y380334D02*
Y381933D01*
X330198Y381133D01*
X331264D01*
X322701Y320834D02*
Y322433D01*
X323500D01*
X323767Y322166D01*
Y321633D01*
X323500Y321367D01*
X322701D01*
X323234D02*
X323767Y320834D01*
X325366D02*
X324300D01*
X325366Y321900D01*
Y322166D01*
X325100Y322433D01*
X324567D01*
X324300Y322166D01*
X325899D02*
X326166Y322433D01*
X326699D01*
X326966Y322166D01*
Y321900D01*
X326699Y321633D01*
X326966Y321367D01*
Y321100D01*
X326699Y320834D01*
X326166D01*
X325899Y321100D01*
Y321367D01*
X326166Y321633D01*
X325899Y321900D01*
Y322166D01*
X326166Y321633D02*
X326699D01*
X327499Y320567D02*
X328565D01*
X329098Y322433D02*
Y321100D01*
X329365Y320834D01*
X329898D01*
X330165Y321100D01*
Y322433D01*
X330698Y322166D02*
X330964Y322433D01*
X331498D01*
X331764Y322166D01*
Y321900D01*
X331498Y321633D01*
X331231D01*
X331498D01*
X331764Y321367D01*
Y321100D01*
X331498Y320834D01*
X330964D01*
X330698Y321100D01*
X322200Y258834D02*
Y260433D01*
X323000D01*
X323267Y260166D01*
Y259633D01*
X323000Y259367D01*
X322200D01*
X322734D02*
X323267Y258834D01*
X324866D02*
X323800D01*
X324866Y259900D01*
Y260166D01*
X324600Y260433D01*
X324066D01*
X323800Y260166D01*
X325399D02*
X325666Y260433D01*
X326199D01*
X326466Y260166D01*
Y259900D01*
X326199Y259633D01*
X326466Y259367D01*
Y259100D01*
X326199Y258834D01*
X325666D01*
X325399Y259100D01*
Y259367D01*
X325666Y259633D01*
X325399Y259900D01*
Y260166D01*
X325666Y259633D02*
X326199D01*
X326999Y258567D02*
X328065D01*
X328598Y260433D02*
Y259100D01*
X328865Y258834D01*
X329398D01*
X329665Y259100D01*
Y260433D01*
X331264Y258834D02*
X330198D01*
X331264Y259900D01*
Y260166D01*
X330998Y260433D01*
X330464D01*
X330198Y260166D01*
X322341Y200834D02*
Y202433D01*
X323141D01*
X323407Y202167D01*
Y201633D01*
X323141Y201367D01*
X322341D01*
X322874D02*
X323407Y200834D01*
X325007D02*
X323940D01*
X325007Y201900D01*
Y202167D01*
X324740Y202433D01*
X324207D01*
X323940Y202167D01*
X325540D02*
X325807Y202433D01*
X326340D01*
X326606Y202167D01*
Y201900D01*
X326340Y201633D01*
X326606Y201367D01*
Y201100D01*
X326340Y200834D01*
X325807D01*
X325540Y201100D01*
Y201367D01*
X325807Y201633D01*
X325540Y201900D01*
Y202167D01*
X325807Y201633D02*
X326340D01*
X327139Y200567D02*
X328206D01*
X328739Y202433D02*
Y201100D01*
X329006Y200834D01*
X329539D01*
X329805Y201100D01*
Y202433D01*
X330339Y200834D02*
X330872D01*
X330605D01*
Y202433D01*
X330339Y202167D01*
X347468Y423518D02*
Y425117D01*
X348268D01*
X348534Y424851D01*
Y424318D01*
X348268Y424051D01*
X347468D01*
X348001D02*
X348534Y423518D01*
X350134D02*
X349068D01*
X350134Y424584D01*
Y424851D01*
X349867Y425117D01*
X349334D01*
X349068Y424851D01*
X350667Y425117D02*
X351733D01*
Y424851D01*
X350667Y423784D01*
Y423518D01*
X352267Y423251D02*
X353333D01*
X353866Y425117D02*
Y423784D01*
X354133Y423518D01*
X354666D01*
X354932Y423784D01*
Y425117D01*
X356532D02*
X355466D01*
Y424318D01*
X355999Y424584D01*
X356265D01*
X356532Y424318D01*
Y423784D01*
X356265Y423518D01*
X355732D01*
X355466Y423784D01*
X348468Y367097D02*
Y368696D01*
X349268D01*
X349535Y368430D01*
Y367896D01*
X349268Y367630D01*
X348468D01*
X349001D02*
X349535Y367097D01*
X351134D02*
X350068D01*
X351134Y368163D01*
Y368430D01*
X350867Y368696D01*
X350334D01*
X350068Y368430D01*
X351667Y368696D02*
X352733D01*
Y368430D01*
X351667Y367363D01*
Y367097D01*
X353267Y366830D02*
X354333D01*
X354866Y368696D02*
Y367363D01*
X355133Y367097D01*
X355666D01*
X355932Y367363D01*
Y368696D01*
X357265Y367097D02*
Y368696D01*
X356466Y367896D01*
X357532D01*
X347968Y310676D02*
Y312275D01*
X348768D01*
X349035Y312009D01*
Y311475D01*
X348768Y311209D01*
X347968D01*
X348501D02*
X349035Y310676D01*
X350634D02*
X349568D01*
X350634Y311742D01*
Y312009D01*
X350367Y312275D01*
X349834D01*
X349568Y312009D01*
X351167Y312275D02*
X352233D01*
Y312009D01*
X351167Y310942D01*
Y310676D01*
X352767Y310409D02*
X353833D01*
X354366Y312275D02*
Y310942D01*
X354633Y310676D01*
X355166D01*
X355432Y310942D01*
Y312275D01*
X355965Y312009D02*
X356232Y312275D01*
X356765D01*
X357032Y312009D01*
Y311742D01*
X356765Y311475D01*
X356499D01*
X356765D01*
X357032Y311209D01*
Y310942D01*
X356765Y310676D01*
X356232D01*
X355965Y310942D01*
X347968Y254255D02*
Y255854D01*
X348768D01*
X349035Y255588D01*
Y255054D01*
X348768Y254788D01*
X347968D01*
X348501D02*
X349035Y254255D01*
X350634D02*
X349568D01*
X350634Y255321D01*
Y255588D01*
X350367Y255854D01*
X349834D01*
X349568Y255588D01*
X351167Y255854D02*
X352233D01*
Y255588D01*
X351167Y254521D01*
Y254255D01*
X352767Y253988D02*
X353833D01*
X354366Y255854D02*
Y254521D01*
X354633Y254255D01*
X355166D01*
X355432Y254521D01*
Y255854D01*
X357032Y254255D02*
X355965D01*
X357032Y255321D01*
Y255588D01*
X356765Y255854D01*
X356232D01*
X355965Y255588D01*
X349109Y197834D02*
Y199433D01*
X349908D01*
X350175Y199167D01*
Y198633D01*
X349908Y198367D01*
X349109D01*
X349642D02*
X350175Y197834D01*
X351775D02*
X350708D01*
X351775Y198900D01*
Y199167D01*
X351508Y199433D01*
X350975D01*
X350708Y199167D01*
X352308Y199433D02*
X353374D01*
Y199167D01*
X352308Y198100D01*
Y197834D01*
X353907Y197567D02*
X354974D01*
X355507Y199433D02*
Y198100D01*
X355773Y197834D01*
X356306D01*
X356573Y198100D01*
Y199433D01*
X357106Y197834D02*
X357639D01*
X357373D01*
Y199433D01*
X357106Y199167D01*
X322701Y449334D02*
Y450933D01*
X323500D01*
X323767Y450666D01*
Y450133D01*
X323500Y449867D01*
X322701D01*
X323234D02*
X323767Y449334D01*
X325366D02*
X324300D01*
X325366Y450400D01*
Y450666D01*
X325100Y450933D01*
X324567D01*
X324300Y450666D01*
X326966Y450933D02*
X326433Y450666D01*
X325899Y450133D01*
Y449600D01*
X326166Y449334D01*
X326699D01*
X326966Y449600D01*
Y449867D01*
X326699Y450133D01*
X325899D01*
X327499Y449067D02*
X328565D01*
X329098Y450933D02*
Y449600D01*
X329365Y449334D01*
X329898D01*
X330165Y449600D01*
Y450933D01*
X331764D02*
X330698D01*
Y450133D01*
X331231Y450400D01*
X331498D01*
X331764Y450133D01*
Y449600D01*
X331498Y449334D01*
X330964D01*
X330698Y449600D01*
X322826Y395584D02*
Y397183D01*
X323626D01*
X323893Y396916D01*
Y396383D01*
X323626Y396117D01*
X322826D01*
X323360D02*
X323893Y395584D01*
X325492D02*
X324426D01*
X325492Y396650D01*
Y396916D01*
X325226Y397183D01*
X324693D01*
X324426Y396916D01*
X327092Y397183D02*
X326559Y396916D01*
X326025Y396383D01*
Y395850D01*
X326292Y395584D01*
X326825D01*
X327092Y395850D01*
Y396117D01*
X326825Y396383D01*
X326025D01*
X327625Y395317D02*
X328691D01*
X329224Y397183D02*
Y395850D01*
X329491Y395584D01*
X330024D01*
X330291Y395850D01*
Y397183D01*
X331624Y395584D02*
Y397183D01*
X330824Y396383D01*
X331890D01*
X322701Y337834D02*
Y339433D01*
X323500D01*
X323767Y339166D01*
Y338633D01*
X323500Y338367D01*
X322701D01*
X323234D02*
X323767Y337834D01*
X325366D02*
X324300D01*
X325366Y338900D01*
Y339166D01*
X325100Y339433D01*
X324567D01*
X324300Y339166D01*
X326966Y339433D02*
X326433Y339166D01*
X325899Y338633D01*
Y338100D01*
X326166Y337834D01*
X326699D01*
X326966Y338100D01*
Y338367D01*
X326699Y338633D01*
X325899D01*
X327499Y337567D02*
X328565D01*
X329098Y339433D02*
Y338100D01*
X329365Y337834D01*
X329898D01*
X330165Y338100D01*
Y339433D01*
X330698Y339166D02*
X330964Y339433D01*
X331498D01*
X331764Y339166D01*
Y338900D01*
X331498Y338633D01*
X331231D01*
X331498D01*
X331764Y338367D01*
Y338100D01*
X331498Y337834D01*
X330964D01*
X330698Y338100D01*
X322701Y275834D02*
Y277433D01*
X323500D01*
X323767Y277166D01*
Y276633D01*
X323500Y276367D01*
X322701D01*
X323234D02*
X323767Y275834D01*
X325366D02*
X324300D01*
X325366Y276900D01*
Y277166D01*
X325100Y277433D01*
X324567D01*
X324300Y277166D01*
X326966Y277433D02*
X326433Y277166D01*
X325899Y276633D01*
Y276100D01*
X326166Y275834D01*
X326699D01*
X326966Y276100D01*
Y276367D01*
X326699Y276633D01*
X325899D01*
X327499Y275567D02*
X328565D01*
X329098Y277433D02*
Y276100D01*
X329365Y275834D01*
X329898D01*
X330165Y276100D01*
Y277433D01*
X331764Y275834D02*
X330698D01*
X331764Y276900D01*
Y277166D01*
X331498Y277433D01*
X330964D01*
X330698Y277166D01*
X322861Y217334D02*
Y218933D01*
X323660D01*
X323927Y218666D01*
Y218133D01*
X323660Y217867D01*
X322861D01*
X323394D02*
X323927Y217334D01*
X325526D02*
X324460D01*
X325526Y218400D01*
Y218666D01*
X325260Y218933D01*
X324727D01*
X324460Y218666D01*
X327126Y218933D02*
X326593Y218666D01*
X326060Y218133D01*
Y217600D01*
X326326Y217334D01*
X326859D01*
X327126Y217600D01*
Y217867D01*
X326859Y218133D01*
X326060D01*
X327659Y217067D02*
X328726D01*
X329259Y218933D02*
Y217600D01*
X329525Y217334D01*
X330058D01*
X330325Y217600D01*
Y218933D01*
X330858Y217334D02*
X331391D01*
X331125D01*
Y218933D01*
X330858Y218666D01*
X348468Y437623D02*
Y439222D01*
X349268D01*
X349535Y438956D01*
Y438423D01*
X349268Y438156D01*
X348468D01*
X349001D02*
X349535Y437623D01*
X351134D02*
X350068D01*
X351134Y438689D01*
Y438956D01*
X350867Y439222D01*
X350334D01*
X350068Y438956D01*
X352733Y439222D02*
X351667D01*
Y438423D01*
X352200Y438689D01*
X352467D01*
X352733Y438423D01*
Y437889D01*
X352467Y437623D01*
X351934D01*
X351667Y437889D01*
X353267Y437356D02*
X354333D01*
X354866Y439222D02*
Y437889D01*
X355133Y437623D01*
X355666D01*
X355932Y437889D01*
Y439222D01*
X357532D02*
X356466D01*
Y438423D01*
X356999Y438689D01*
X357265D01*
X357532Y438423D01*
Y437889D01*
X357265Y437623D01*
X356732D01*
X356466Y437889D01*
X347842Y381202D02*
Y382801D01*
X348642D01*
X348908Y382535D01*
Y382002D01*
X348642Y381735D01*
X347842D01*
X348375D02*
X348908Y381202D01*
X350508D02*
X349442D01*
X350508Y382268D01*
Y382535D01*
X350241Y382801D01*
X349708D01*
X349442Y382535D01*
X352107Y382801D02*
X351041D01*
Y382002D01*
X351574Y382268D01*
X351841D01*
X352107Y382002D01*
Y381469D01*
X351841Y381202D01*
X351308D01*
X351041Y381469D01*
X352641Y380935D02*
X353707D01*
X354240Y382801D02*
Y381469D01*
X354507Y381202D01*
X355040D01*
X355306Y381469D01*
Y382801D01*
X356639Y381202D02*
Y382801D01*
X355840Y382002D01*
X356906D01*
X347594Y324781D02*
Y326380D01*
X348394D01*
X348660Y326114D01*
Y325581D01*
X348394Y325314D01*
X347594D01*
X348127D02*
X348660Y324781D01*
X350260D02*
X349194D01*
X350260Y325847D01*
Y326114D01*
X349993Y326380D01*
X349460D01*
X349194Y326114D01*
X351859Y326380D02*
X350793D01*
Y325581D01*
X351326Y325847D01*
X351593D01*
X351859Y325581D01*
Y325047D01*
X351593Y324781D01*
X351060D01*
X350793Y325047D01*
X352393Y324514D02*
X353459D01*
X353992Y326380D02*
Y325047D01*
X354259Y324781D01*
X354792D01*
X355058Y325047D01*
Y326380D01*
X355592Y326114D02*
X355858Y326380D01*
X356391D01*
X356658Y326114D01*
Y325847D01*
X356391Y325581D01*
X356125D01*
X356391D01*
X356658Y325314D01*
Y325047D01*
X356391Y324781D01*
X355858D01*
X355592Y325047D01*
X348094Y268360D02*
Y269959D01*
X348894D01*
X349160Y269693D01*
Y269160D01*
X348894Y268893D01*
X348094D01*
X348627D02*
X349160Y268360D01*
X350760D02*
X349694D01*
X350760Y269426D01*
Y269693D01*
X350493Y269959D01*
X349960D01*
X349694Y269693D01*
X352359Y269959D02*
X351293D01*
Y269160D01*
X351826Y269426D01*
X352093D01*
X352359Y269160D01*
Y268626D01*
X352093Y268360D01*
X351560D01*
X351293Y268626D01*
X352893Y268093D02*
X353959D01*
X354492Y269959D02*
Y268626D01*
X354759Y268360D01*
X355292D01*
X355558Y268626D01*
Y269959D01*
X357158Y268360D02*
X356091D01*
X357158Y269426D01*
Y269693D01*
X356891Y269959D01*
X356358D01*
X356091Y269693D01*
X348109Y211939D02*
Y213538D01*
X348908D01*
X349175Y213272D01*
Y212738D01*
X348908Y212472D01*
X348109D01*
X348642D02*
X349175Y211939D01*
X350775D02*
X349708D01*
X350775Y213005D01*
Y213272D01*
X350508Y213538D01*
X349975D01*
X349708Y213272D01*
X352374Y213538D02*
X351308D01*
Y212738D01*
X351841Y213005D01*
X352107D01*
X352374Y212738D01*
Y212205D01*
X352107Y211939D01*
X351574D01*
X351308Y212205D01*
X352907Y211672D02*
X353974D01*
X354507Y213538D02*
Y212205D01*
X354773Y211939D01*
X355306D01*
X355573Y212205D01*
Y213538D01*
X356106Y211939D02*
X356639D01*
X356373D01*
Y213538D01*
X356106Y213272D01*
X322200Y463834D02*
Y465433D01*
X323000D01*
X323267Y465166D01*
Y464633D01*
X323000Y464367D01*
X322200D01*
X322734D02*
X323267Y463834D01*
X324866D02*
X323800D01*
X324866Y464900D01*
Y465166D01*
X324600Y465433D01*
X324066D01*
X323800Y465166D01*
X326199Y463834D02*
Y465433D01*
X325399Y464633D01*
X326466D01*
X326999Y463567D02*
X328065D01*
X328598Y465433D02*
Y464100D01*
X328865Y463834D01*
X329398D01*
X329665Y464100D01*
Y465433D01*
X331264D02*
X330198D01*
Y464633D01*
X330731Y464900D01*
X330998D01*
X331264Y464633D01*
Y464100D01*
X330998Y463834D01*
X330464D01*
X330198Y464100D01*
X323200Y411834D02*
Y413433D01*
X324000D01*
X324267Y413166D01*
Y412633D01*
X324000Y412367D01*
X323200D01*
X323734D02*
X324267Y411834D01*
X325866D02*
X324800D01*
X325866Y412900D01*
Y413166D01*
X325600Y413433D01*
X325066D01*
X324800Y413166D01*
X327199Y411834D02*
Y413433D01*
X326399Y412633D01*
X327466D01*
X327999Y411567D02*
X329065D01*
X329598Y413433D02*
Y412100D01*
X329865Y411834D01*
X330398D01*
X330665Y412100D01*
Y413433D01*
X331998Y411834D02*
Y413433D01*
X331198Y412633D01*
X332264D01*
X322701Y353834D02*
Y355433D01*
X323500D01*
X323767Y355166D01*
Y354633D01*
X323500Y354367D01*
X322701D01*
X323234D02*
X323767Y353834D01*
X325366D02*
X324300D01*
X325366Y354900D01*
Y355166D01*
X325100Y355433D01*
X324567D01*
X324300Y355166D01*
X326699Y353834D02*
Y355433D01*
X325899Y354633D01*
X326966D01*
X327499Y353567D02*
X328565D01*
X329098Y355433D02*
Y354100D01*
X329365Y353834D01*
X329898D01*
X330165Y354100D01*
Y355433D01*
X330698Y355166D02*
X330964Y355433D01*
X331498D01*
X331764Y355166D01*
Y354900D01*
X331498Y354633D01*
X331231D01*
X331498D01*
X331764Y354367D01*
Y354100D01*
X331498Y353834D01*
X330964D01*
X330698Y354100D01*
X321701Y292834D02*
Y294433D01*
X322500D01*
X322767Y294166D01*
Y293633D01*
X322500Y293367D01*
X321701D01*
X322234D02*
X322767Y292834D01*
X324366D02*
X323300D01*
X324366Y293900D01*
Y294166D01*
X324100Y294433D01*
X323567D01*
X323300Y294166D01*
X325699Y292834D02*
Y294433D01*
X324899Y293633D01*
X325966D01*
X326499Y292567D02*
X327565D01*
X328098Y294433D02*
Y293100D01*
X328365Y292834D01*
X328898D01*
X329165Y293100D01*
Y294433D01*
X330764Y292834D02*
X329698D01*
X330764Y293900D01*
Y294166D01*
X330498Y294433D01*
X329964D01*
X329698Y294166D01*
X322467Y234834D02*
Y236433D01*
X323267D01*
X323533Y236166D01*
Y235633D01*
X323267Y235367D01*
X322467D01*
X323000D02*
X323533Y234834D01*
X325133D02*
X324066D01*
X325133Y235900D01*
Y236166D01*
X324866Y236433D01*
X324333D01*
X324066Y236166D01*
X326466Y234834D02*
Y236433D01*
X325666Y235633D01*
X326732D01*
X327266Y234567D02*
X328332D01*
X328865Y236433D02*
Y235100D01*
X329132Y234834D01*
X329665D01*
X329931Y235100D01*
Y236433D01*
X330464Y234834D02*
X330998D01*
X330731D01*
Y236433D01*
X330464Y236166D01*
X347968Y465834D02*
Y467433D01*
X348768D01*
X349035Y467166D01*
Y466633D01*
X348768Y466367D01*
X347968D01*
X348501D02*
X349035Y465834D01*
X350634D02*
X349568D01*
X350634Y466900D01*
Y467166D01*
X350367Y467433D01*
X349834D01*
X349568Y467166D01*
X352233Y465834D02*
X351167D01*
X352233Y466900D01*
Y467166D01*
X351967Y467433D01*
X351434D01*
X351167Y467166D01*
X352767Y465567D02*
X353833D01*
X354366Y467433D02*
Y466100D01*
X354633Y465834D01*
X355166D01*
X355432Y466100D01*
Y467433D01*
X357032D02*
X355965D01*
Y466633D01*
X356499Y466900D01*
X356765D01*
X357032Y466633D01*
Y466100D01*
X356765Y465834D01*
X356232D01*
X355965Y466100D01*
X347468Y408834D02*
Y410433D01*
X348268D01*
X348534Y410166D01*
Y409633D01*
X348268Y409367D01*
X347468D01*
X348001D02*
X348534Y408834D01*
X350134D02*
X349068D01*
X350134Y409900D01*
Y410166D01*
X349867Y410433D01*
X349334D01*
X349068Y410166D01*
X351733Y408834D02*
X350667D01*
X351733Y409900D01*
Y410166D01*
X351467Y410433D01*
X350934D01*
X350667Y410166D01*
X352267Y408567D02*
X353333D01*
X353866Y410433D02*
Y409100D01*
X354133Y408834D01*
X354666D01*
X354932Y409100D01*
Y410433D01*
X356265Y408834D02*
Y410433D01*
X355466Y409633D01*
X356532D01*
X348342Y352991D02*
Y354591D01*
X349142D01*
X349409Y354324D01*
Y353791D01*
X349142Y353525D01*
X348342D01*
X348875D02*
X349409Y352991D01*
X351008D02*
X349942D01*
X351008Y354058D01*
Y354324D01*
X350741Y354591D01*
X350208D01*
X349942Y354324D01*
X352607Y352991D02*
X351541D01*
X352607Y354058D01*
Y354324D01*
X352341Y354591D01*
X351808D01*
X351541Y354324D01*
X353141Y352725D02*
X354207D01*
X354740Y354591D02*
Y353258D01*
X355007Y352991D01*
X355540D01*
X355806Y353258D01*
Y354591D01*
X356340Y354324D02*
X356606Y354591D01*
X357139D01*
X357406Y354324D01*
Y354058D01*
X357139Y353791D01*
X356873D01*
X357139D01*
X357406Y353525D01*
Y353258D01*
X357139Y352991D01*
X356606D01*
X356340Y353258D01*
X348968Y296570D02*
Y298170D01*
X349768D01*
X350034Y297903D01*
Y297370D01*
X349768Y297104D01*
X348968D01*
X349501D02*
X350034Y296570D01*
X351634D02*
X350568D01*
X351634Y297637D01*
Y297903D01*
X351367Y298170D01*
X350834D01*
X350568Y297903D01*
X353233Y296570D02*
X352167D01*
X353233Y297637D01*
Y297903D01*
X352967Y298170D01*
X352434D01*
X352167Y297903D01*
X353767Y296304D02*
X354833D01*
X355366Y298170D02*
Y296837D01*
X355633Y296570D01*
X356166D01*
X356432Y296837D01*
Y298170D01*
X358032Y296570D02*
X356965D01*
X358032Y297637D01*
Y297903D01*
X357765Y298170D01*
X357232D01*
X356965Y297903D01*
X349109Y240149D02*
Y241749D01*
X349908D01*
X350175Y241482D01*
Y240949D01*
X349908Y240683D01*
X349109D01*
X349642D02*
X350175Y240149D01*
X351775D02*
X350708D01*
X351775Y241216D01*
Y241482D01*
X351508Y241749D01*
X350975D01*
X350708Y241482D01*
X353374Y240149D02*
X352308D01*
X353374Y241216D01*
Y241482D01*
X353107Y241749D01*
X352574D01*
X352308Y241482D01*
X353907Y239883D02*
X354974D01*
X355507Y241749D02*
Y240416D01*
X355773Y240149D01*
X356306D01*
X356573Y240416D01*
Y241749D01*
X357106Y240149D02*
X357639D01*
X357373D01*
Y241749D01*
X357106Y241482D01*
X160319Y426488D02*
Y428087D01*
X161118D01*
X161385Y427821D01*
Y427287D01*
X161118Y427021D01*
X160319D01*
X160852D02*
X161385Y426488D01*
X162984D02*
X161918D01*
X162984Y427554D01*
Y427821D01*
X162718Y428087D01*
X162185D01*
X161918Y427821D01*
X163517D02*
X163784Y428087D01*
X164317D01*
X164584Y427821D01*
Y426754D01*
X164317Y426488D01*
X163784D01*
X163517Y426754D01*
Y427821D01*
X165117Y426221D02*
X166183D01*
X166716Y428087D02*
Y426754D01*
X166983Y426488D01*
X167516D01*
X167783Y426754D01*
Y428087D01*
X169382D02*
X168316D01*
Y427287D01*
X168849Y427554D01*
X169116D01*
X169382Y427287D01*
Y426754D01*
X169116Y426488D01*
X168582D01*
X168316Y426754D01*
X159818Y377154D02*
Y378754D01*
X160618D01*
X160885Y378487D01*
Y377954D01*
X160618Y377688D01*
X159818D01*
X160352D02*
X160885Y377154D01*
X162484D02*
X161418D01*
X162484Y378221D01*
Y378487D01*
X162218Y378754D01*
X161685D01*
X161418Y378487D01*
X163017D02*
X163284Y378754D01*
X163817D01*
X164084Y378487D01*
Y377421D01*
X163817Y377154D01*
X163284D01*
X163017Y377421D01*
Y378487D01*
X164617Y376888D02*
X165683D01*
X166216Y378754D02*
Y377421D01*
X166483Y377154D01*
X167016D01*
X167283Y377421D01*
Y378754D01*
X168616Y377154D02*
Y378754D01*
X167816Y377954D01*
X168882D01*
X160693Y330488D02*
Y332087D01*
X161492D01*
X161759Y331821D01*
Y331287D01*
X161492Y331021D01*
X160693D01*
X161226D02*
X161759Y330488D01*
X163358D02*
X162292D01*
X163358Y331554D01*
Y331821D01*
X163092Y332087D01*
X162558D01*
X162292Y331821D01*
X163891D02*
X164158Y332087D01*
X164691D01*
X164958Y331821D01*
Y330754D01*
X164691Y330488D01*
X164158D01*
X163891Y330754D01*
Y331821D01*
X165491Y330221D02*
X166557D01*
X167090Y332087D02*
Y330754D01*
X167357Y330488D01*
X167890D01*
X168157Y330754D01*
Y332087D01*
X168690Y331821D02*
X168956Y332087D01*
X169490D01*
X169756Y331821D01*
Y331554D01*
X169490Y331287D01*
X169223D01*
X169490D01*
X169756Y331021D01*
Y330754D01*
X169490Y330488D01*
X168956D01*
X168690Y330754D01*
X160319Y282839D02*
Y284439D01*
X161118D01*
X161385Y284172D01*
Y283639D01*
X161118Y283373D01*
X160319D01*
X160852D02*
X161385Y282839D01*
X162984D02*
X161918D01*
X162984Y283906D01*
Y284172D01*
X162718Y284439D01*
X162185D01*
X161918Y284172D01*
X163517D02*
X163784Y284439D01*
X164317D01*
X164584Y284172D01*
Y283106D01*
X164317Y282839D01*
X163784D01*
X163517Y283106D01*
Y284172D01*
X165117Y282573D02*
X166183D01*
X166716Y284439D02*
Y283106D01*
X166983Y282839D01*
X167516D01*
X167783Y283106D01*
Y284439D01*
X169382Y282839D02*
X168316D01*
X169382Y283906D01*
Y284172D01*
X169116Y284439D01*
X168582D01*
X168316Y284172D01*
X158609Y236834D02*
Y238433D01*
X159408D01*
X159675Y238166D01*
Y237633D01*
X159408Y237367D01*
X158609D01*
X159142D02*
X159675Y236834D01*
X161275D02*
X160208D01*
X161275Y237900D01*
Y238166D01*
X161008Y238433D01*
X160475D01*
X160208Y238166D01*
X161808D02*
X162074Y238433D01*
X162607D01*
X162874Y238166D01*
Y237100D01*
X162607Y236834D01*
X162074D01*
X161808Y237100D01*
Y238166D01*
X163407Y236567D02*
X164473D01*
X165007Y238433D02*
Y237100D01*
X165273Y236834D01*
X165806D01*
X166073Y237100D01*
Y238433D01*
X166606Y236834D02*
X167139D01*
X166873D01*
Y238433D01*
X166606Y238166D01*
X348101Y450834D02*
Y452433D01*
X348901D01*
X349168Y452166D01*
Y451633D01*
X348901Y451367D01*
X348101D01*
X348635D02*
X349168Y450834D01*
X349701D02*
X350234D01*
X349968D01*
Y452433D01*
X349701Y452166D01*
X351034Y451100D02*
X351300Y450834D01*
X351834D01*
X352100Y451100D01*
Y452166D01*
X351834Y452433D01*
X351300D01*
X351034Y452166D01*
Y451900D01*
X351300Y451633D01*
X352100D01*
X352633Y450567D02*
X353700D01*
X354233Y452433D02*
Y451100D01*
X354499Y450834D01*
X355032D01*
X355299Y451100D01*
Y452433D01*
X356899D02*
X355832D01*
Y451633D01*
X356365Y451900D01*
X356632D01*
X356899Y451633D01*
Y451100D01*
X356632Y450834D01*
X356099D01*
X355832Y451100D01*
X347419Y394271D02*
Y395871D01*
X348218D01*
X348485Y395604D01*
Y395071D01*
X348218Y394805D01*
X347419D01*
X347952D02*
X348485Y394271D01*
X349018D02*
X349551D01*
X349285D01*
Y395871D01*
X349018Y395604D01*
X350351Y394538D02*
X350618Y394271D01*
X351151D01*
X351417Y394538D01*
Y395604D01*
X351151Y395871D01*
X350618D01*
X350351Y395604D01*
Y395338D01*
X350618Y395071D01*
X351417D01*
X351951Y394005D02*
X353017D01*
X353550Y395871D02*
Y394538D01*
X353817Y394271D01*
X354350D01*
X354616Y394538D01*
Y395871D01*
X355949Y394271D02*
Y395871D01*
X355150Y395071D01*
X356216D01*
X348208Y337833D02*
Y339433D01*
X349008D01*
X349274Y339166D01*
Y338633D01*
X349008Y338367D01*
X348208D01*
X348741D02*
X349274Y337833D01*
X349807D02*
X350340D01*
X350074D01*
Y339433D01*
X349807Y339166D01*
X351140Y338100D02*
X351407Y337833D01*
X351940D01*
X352206Y338100D01*
Y339166D01*
X351940Y339433D01*
X351407D01*
X351140Y339166D01*
Y338900D01*
X351407Y338633D01*
X352206D01*
X352740Y337567D02*
X353806D01*
X354339Y339433D02*
Y338100D01*
X354606Y337833D01*
X355139D01*
X355405Y338100D01*
Y339433D01*
X355939Y339166D02*
X356205Y339433D01*
X356738D01*
X357005Y339166D01*
Y338900D01*
X356738Y338633D01*
X356472D01*
X356738D01*
X357005Y338367D01*
Y338100D01*
X356738Y337833D01*
X356205D01*
X355939Y338100D01*
X347601Y281334D02*
Y282933D01*
X348401D01*
X348668Y282666D01*
Y282133D01*
X348401Y281867D01*
X347601D01*
X348135D02*
X348668Y281334D01*
X349201D02*
X349734D01*
X349467D01*
Y282933D01*
X349201Y282666D01*
X350534Y281600D02*
X350800Y281334D01*
X351334D01*
X351600Y281600D01*
Y282666D01*
X351334Y282933D01*
X350800D01*
X350534Y282666D01*
Y282400D01*
X350800Y282133D01*
X351600D01*
X352133Y281067D02*
X353200D01*
X353733Y282933D02*
Y281600D01*
X353999Y281334D01*
X354533D01*
X354799Y281600D01*
Y282933D01*
X356399Y281334D02*
X355332D01*
X356399Y282400D01*
Y282666D01*
X356132Y282933D01*
X355599D01*
X355332Y282666D01*
X347868Y224834D02*
Y226433D01*
X348668D01*
X348934Y226166D01*
Y225633D01*
X348668Y225367D01*
X347868D01*
X348401D02*
X348934Y224834D01*
X349467D02*
X350001D01*
X349734D01*
Y226433D01*
X349467Y226166D01*
X350800Y225100D02*
X351067Y224834D01*
X351600D01*
X351867Y225100D01*
Y226166D01*
X351600Y226433D01*
X351067D01*
X350800Y226166D01*
Y225900D01*
X351067Y225633D01*
X351867D01*
X352400Y224567D02*
X353466D01*
X353999Y226433D02*
Y225100D01*
X354266Y224834D01*
X354799D01*
X355066Y225100D01*
Y226433D01*
X355599Y224834D02*
X356132D01*
X355865D01*
Y226433D01*
X355599Y226166D01*
X178349Y425256D02*
Y426855D01*
X179149D01*
X179416Y426589D01*
Y426055D01*
X179149Y425789D01*
X178349D01*
X178882D02*
X179416Y425256D01*
X179949D02*
X180482D01*
X180215D01*
Y426855D01*
X179949Y426589D01*
X181282D02*
X181548Y426855D01*
X182081D01*
X182348Y426589D01*
Y426322D01*
X182081Y426055D01*
X182348Y425789D01*
Y425522D01*
X182081Y425256D01*
X181548D01*
X181282Y425522D01*
Y425789D01*
X181548Y426055D01*
X181282Y426322D01*
Y426589D01*
X181548Y426055D02*
X182081D01*
X182881Y424989D02*
X183947D01*
X184481Y426855D02*
Y425522D01*
X184747Y425256D01*
X185280D01*
X185547Y425522D01*
Y426855D01*
X187146D02*
X186080D01*
Y426055D01*
X186613Y426322D01*
X186880D01*
X187146Y426055D01*
Y425522D01*
X186880Y425256D01*
X186347D01*
X186080Y425522D01*
X177349Y376006D02*
Y377605D01*
X178149D01*
X178416Y377339D01*
Y376805D01*
X178149Y376539D01*
X177349D01*
X177882D02*
X178416Y376006D01*
X178949D02*
X179482D01*
X179215D01*
Y377605D01*
X178949Y377339D01*
X180282D02*
X180548Y377605D01*
X181081D01*
X181348Y377339D01*
Y377072D01*
X181081Y376805D01*
X181348Y376539D01*
Y376272D01*
X181081Y376006D01*
X180548D01*
X180282Y376272D01*
Y376539D01*
X180548Y376805D01*
X180282Y377072D01*
Y377339D01*
X180548Y376805D02*
X181081D01*
X181881Y375739D02*
X182947D01*
X183481Y377605D02*
Y376272D01*
X183747Y376006D01*
X184280D01*
X184547Y376272D01*
Y377605D01*
X185880Y376006D02*
Y377605D01*
X185080Y376805D01*
X186146D01*
X177601Y328334D02*
Y329933D01*
X178401D01*
X178668Y329666D01*
Y329133D01*
X178401Y328867D01*
X177601D01*
X178135D02*
X178668Y328334D01*
X179201D02*
X179734D01*
X179467D01*
Y329933D01*
X179201Y329666D01*
X180534D02*
X180800Y329933D01*
X181333D01*
X181600Y329666D01*
Y329400D01*
X181333Y329133D01*
X181600Y328867D01*
Y328600D01*
X181333Y328334D01*
X180800D01*
X180534Y328600D01*
Y328867D01*
X180800Y329133D01*
X180534Y329400D01*
Y329666D01*
X180800Y329133D02*
X181333D01*
X182133Y328067D02*
X183200D01*
X183733Y329933D02*
Y328600D01*
X183999Y328334D01*
X184532D01*
X184799Y328600D01*
Y329933D01*
X185332Y329666D02*
X185599Y329933D01*
X186132D01*
X186399Y329666D01*
Y329400D01*
X186132Y329133D01*
X185865D01*
X186132D01*
X186399Y328867D01*
Y328600D01*
X186132Y328334D01*
X185599D01*
X185332Y328600D01*
X177361Y282334D02*
Y283933D01*
X178161D01*
X178428Y283666D01*
Y283133D01*
X178161Y282867D01*
X177361D01*
X177894D02*
X178428Y282334D01*
X178961D02*
X179494D01*
X179227D01*
Y283933D01*
X178961Y283666D01*
X180294D02*
X180560Y283933D01*
X181093D01*
X181360Y283666D01*
Y283400D01*
X181093Y283133D01*
X181360Y282867D01*
Y282600D01*
X181093Y282334D01*
X180560D01*
X180294Y282600D01*
Y282867D01*
X180560Y283133D01*
X180294Y283400D01*
Y283666D01*
X180560Y283133D02*
X181093D01*
X181893Y282067D02*
X182959D01*
X183493Y283933D02*
Y282600D01*
X183759Y282334D01*
X184292D01*
X184559Y282600D01*
Y283933D01*
X186158Y282334D02*
X185092D01*
X186158Y283400D01*
Y283666D01*
X185892Y283933D01*
X185359D01*
X185092Y283666D01*
X178266Y234834D02*
Y236433D01*
X179066D01*
X179332Y236166D01*
Y235633D01*
X179066Y235367D01*
X178266D01*
X178799D02*
X179332Y234834D01*
X179865D02*
X180398D01*
X180132D01*
Y236433D01*
X179865Y236166D01*
X181198D02*
X181465Y236433D01*
X181998D01*
X182264Y236166D01*
Y235900D01*
X181998Y235633D01*
X182264Y235367D01*
Y235100D01*
X181998Y234834D01*
X181465D01*
X181198Y235100D01*
Y235367D01*
X181465Y235633D01*
X181198Y235900D01*
Y236166D01*
X181465Y235633D02*
X181998D01*
X182798Y234567D02*
X183864D01*
X184397Y236433D02*
Y235100D01*
X184664Y234834D01*
X185197D01*
X185464Y235100D01*
Y236433D01*
X185997Y234834D02*
X186530D01*
X186263D01*
Y236433D01*
X185997Y236166D01*
X265305Y418334D02*
Y419933D01*
X266105D01*
X266372Y419666D01*
Y419133D01*
X266105Y418867D01*
X265305D01*
X265839D02*
X266372Y418334D01*
X266905D02*
X267438D01*
X267172D01*
Y419933D01*
X266905Y419666D01*
X268238Y419933D02*
X269304D01*
Y419666D01*
X268238Y418600D01*
Y418334D01*
X269837Y418067D02*
X270904D01*
X271437Y419933D02*
Y418600D01*
X271703Y418334D01*
X272237D01*
X272503Y418600D01*
Y419933D01*
X274103D02*
X273036D01*
Y419133D01*
X273569Y419400D01*
X273836D01*
X274103Y419133D01*
Y418600D01*
X273836Y418334D01*
X273303D01*
X273036Y418600D01*
X264806Y368834D02*
Y370433D01*
X265605D01*
X265872Y370166D01*
Y369633D01*
X265605Y369367D01*
X264806D01*
X265339D02*
X265872Y368834D01*
X266405D02*
X266938D01*
X266671D01*
Y370433D01*
X266405Y370166D01*
X267738Y370433D02*
X268804D01*
Y370166D01*
X267738Y369100D01*
Y368834D01*
X269337Y368567D02*
X270404D01*
X270937Y370433D02*
Y369100D01*
X271203Y368834D01*
X271737D01*
X272003Y369100D01*
Y370433D01*
X273336Y368834D02*
Y370433D01*
X272536Y369633D01*
X273603D01*
X265065Y321834D02*
Y323433D01*
X265865D01*
X266132Y323166D01*
Y322633D01*
X265865Y322367D01*
X265065D01*
X265599D02*
X266132Y321834D01*
X266665D02*
X267198D01*
X266931D01*
Y323433D01*
X266665Y323166D01*
X267998Y323433D02*
X269064D01*
Y323166D01*
X267998Y322100D01*
Y321834D01*
X269597Y321567D02*
X270663D01*
X271197Y323433D02*
Y322100D01*
X271463Y321834D01*
X271996D01*
X272263Y322100D01*
Y323433D01*
X272796Y323166D02*
X273063Y323433D01*
X273596D01*
X273863Y323166D01*
Y322900D01*
X273596Y322633D01*
X273329D01*
X273596D01*
X273863Y322367D01*
Y322100D01*
X273596Y321834D01*
X273063D01*
X272796Y322100D01*
X264806Y275334D02*
Y276933D01*
X265605D01*
X265872Y276666D01*
Y276133D01*
X265605Y275867D01*
X264806D01*
X265339D02*
X265872Y275334D01*
X266405D02*
X266938D01*
X266671D01*
Y276933D01*
X266405Y276666D01*
X267738Y276933D02*
X268804D01*
Y276666D01*
X267738Y275600D01*
Y275334D01*
X269337Y275067D02*
X270404D01*
X270937Y276933D02*
Y275600D01*
X271203Y275334D01*
X271737D01*
X272003Y275600D01*
Y276933D01*
X273603Y275334D02*
X272536D01*
X273603Y276400D01*
Y276666D01*
X273336Y276933D01*
X272803D01*
X272536Y276666D01*
X265572Y229334D02*
Y230933D01*
X266372D01*
X266638Y230666D01*
Y230133D01*
X266372Y229867D01*
X265572D01*
X266105D02*
X266638Y229334D01*
X267172D02*
X267705D01*
X267438D01*
Y230933D01*
X267172Y230666D01*
X268504Y230933D02*
X269571D01*
Y230666D01*
X268504Y229600D01*
Y229334D01*
X270104Y229067D02*
X271170D01*
X271703Y230933D02*
Y229600D01*
X271970Y229334D01*
X272503D01*
X272770Y229600D01*
Y230933D01*
X273303Y229334D02*
X273836D01*
X273569D01*
Y230933D01*
X273303Y230666D01*
X159270Y416081D02*
Y417680D01*
X160070D01*
X160337Y417414D01*
Y416881D01*
X160070Y416614D01*
X159270D01*
X159804D02*
X160337Y416081D01*
X160870D02*
X161403D01*
X161136D01*
Y417680D01*
X160870Y417414D01*
X163269Y417680D02*
X162736Y417414D01*
X162203Y416881D01*
Y416348D01*
X162469Y416081D01*
X163003D01*
X163269Y416348D01*
Y416614D01*
X163003Y416881D01*
X162203D01*
X163802Y415814D02*
X164869D01*
X165402Y417680D02*
Y416348D01*
X165668Y416081D01*
X166201D01*
X166468Y416348D01*
Y417680D01*
X168068D02*
X167001D01*
Y416881D01*
X167534Y417147D01*
X167801D01*
X168068Y416881D01*
Y416348D01*
X167801Y416081D01*
X167268D01*
X167001Y416348D01*
X159270Y367414D02*
Y369014D01*
X160070D01*
X160337Y368747D01*
Y368214D01*
X160070Y367947D01*
X159270D01*
X159803D02*
X160337Y367414D01*
X160870D02*
X161403D01*
X161136D01*
Y369014D01*
X160870Y368747D01*
X163269Y369014D02*
X162736Y368747D01*
X162203Y368214D01*
Y367681D01*
X162469Y367414D01*
X163002D01*
X163269Y367681D01*
Y367947D01*
X163002Y368214D01*
X162203D01*
X163802Y367148D02*
X164868D01*
X165402Y369014D02*
Y367681D01*
X165668Y367414D01*
X166201D01*
X166468Y367681D01*
Y369014D01*
X167801Y367414D02*
Y369014D01*
X167001Y368214D01*
X168068D01*
X159270Y319581D02*
Y321180D01*
X160070D01*
X160337Y320914D01*
Y320381D01*
X160070Y320114D01*
X159270D01*
X159804D02*
X160337Y319581D01*
X160870D02*
X161403D01*
X161136D01*
Y321180D01*
X160870Y320914D01*
X163269Y321180D02*
X162736Y320914D01*
X162203Y320381D01*
Y319847D01*
X162469Y319581D01*
X163003D01*
X163269Y319847D01*
Y320114D01*
X163003Y320381D01*
X162203D01*
X163802Y319314D02*
X164869D01*
X165402Y321180D02*
Y319847D01*
X165668Y319581D01*
X166201D01*
X166468Y319847D01*
Y321180D01*
X167001Y320914D02*
X167268Y321180D01*
X167801D01*
X168068Y320914D01*
Y320647D01*
X167801Y320381D01*
X167534D01*
X167801D01*
X168068Y320114D01*
Y319847D01*
X167801Y319581D01*
X167268D01*
X167001Y319847D01*
X159011Y272257D02*
Y273856D01*
X159810D01*
X160077Y273590D01*
Y273057D01*
X159810Y272790D01*
X159011D01*
X159544D02*
X160077Y272257D01*
X160610D02*
X161143D01*
X160877D01*
Y273856D01*
X160610Y273590D01*
X163009Y273856D02*
X162476Y273590D01*
X161943Y273057D01*
Y272523D01*
X162209Y272257D01*
X162743D01*
X163009Y272523D01*
Y272790D01*
X162743Y273057D01*
X161943D01*
X163542Y271990D02*
X164609D01*
X165142Y273856D02*
Y272523D01*
X165409Y272257D01*
X165942D01*
X166208Y272523D01*
Y273856D01*
X167808Y272257D02*
X166741D01*
X167808Y273323D01*
Y273590D01*
X167541Y273856D01*
X167008D01*
X166741Y273590D01*
X159037Y225476D02*
Y227075D01*
X159837D01*
X160103Y226809D01*
Y226276D01*
X159837Y226009D01*
X159037D01*
X159570D02*
X160103Y225476D01*
X160636D02*
X161170D01*
X160903D01*
Y227075D01*
X160636Y226809D01*
X163036Y227075D02*
X162503Y226809D01*
X161969Y226276D01*
Y225743D01*
X162236Y225476D01*
X162769D01*
X163036Y225743D01*
Y226009D01*
X162769Y226276D01*
X161969D01*
X163569Y225209D02*
X164635D01*
X165168Y227075D02*
Y225743D01*
X165435Y225476D01*
X165968D01*
X166235Y225743D01*
Y227075D01*
X166768Y225476D02*
X167301D01*
X167034D01*
Y227075D01*
X166768Y226809D01*
X229239Y409834D02*
Y411433D01*
X230039D01*
X230306Y411166D01*
Y410633D01*
X230039Y410367D01*
X229239D01*
X229772D02*
X230306Y409834D01*
X230839D02*
X231372D01*
X231105D01*
Y411433D01*
X230839Y411166D01*
X233238Y411433D02*
X232172D01*
Y410633D01*
X232705Y410900D01*
X232971D01*
X233238Y410633D01*
Y410100D01*
X232971Y409834D01*
X232438D01*
X232172Y410100D01*
X233771Y409567D02*
X234837D01*
X235371Y411433D02*
Y410100D01*
X235637Y409834D01*
X236170D01*
X236437Y410100D01*
Y411433D01*
X238036D02*
X236970D01*
Y410633D01*
X237503Y410900D01*
X237770D01*
X238036Y410633D01*
Y410100D01*
X237770Y409834D01*
X237237D01*
X236970Y410100D01*
X229739Y359834D02*
Y361433D01*
X230539D01*
X230806Y361166D01*
Y360633D01*
X230539Y360367D01*
X229739D01*
X230272D02*
X230806Y359834D01*
X231339D02*
X231872D01*
X231605D01*
Y361433D01*
X231339Y361166D01*
X233738Y361433D02*
X232672D01*
Y360633D01*
X233205Y360900D01*
X233471D01*
X233738Y360633D01*
Y360100D01*
X233471Y359834D01*
X232938D01*
X232672Y360100D01*
X234271Y359567D02*
X235337D01*
X235871Y361433D02*
Y360100D01*
X236137Y359834D01*
X236670D01*
X236937Y360100D01*
Y361433D01*
X238270Y359834D02*
Y361433D01*
X237470Y360633D01*
X238536D01*
X229239Y313834D02*
Y315433D01*
X230039D01*
X230306Y315166D01*
Y314633D01*
X230039Y314367D01*
X229239D01*
X229772D02*
X230306Y313834D01*
X230839D02*
X231372D01*
X231105D01*
Y315433D01*
X230839Y315166D01*
X233238Y315433D02*
X232172D01*
Y314633D01*
X232705Y314900D01*
X232971D01*
X233238Y314633D01*
Y314100D01*
X232971Y313834D01*
X232438D01*
X232172Y314100D01*
X233771Y313567D02*
X234837D01*
X235371Y315433D02*
Y314100D01*
X235637Y313834D01*
X236170D01*
X236437Y314100D01*
Y315433D01*
X236970Y315166D02*
X237237Y315433D01*
X237770D01*
X238036Y315166D01*
Y314900D01*
X237770Y314633D01*
X237503D01*
X237770D01*
X238036Y314367D01*
Y314100D01*
X237770Y313834D01*
X237237D01*
X236970Y314100D01*
X229739Y266834D02*
Y268433D01*
X230539D01*
X230806Y268166D01*
Y267633D01*
X230539Y267367D01*
X229739D01*
X230272D02*
X230806Y266834D01*
X231339D02*
X231872D01*
X231605D01*
Y268433D01*
X231339Y268166D01*
X233738Y268433D02*
X232672D01*
Y267633D01*
X233205Y267900D01*
X233471D01*
X233738Y267633D01*
Y267100D01*
X233471Y266834D01*
X232938D01*
X232672Y267100D01*
X234271Y266567D02*
X235337D01*
X235871Y268433D02*
Y267100D01*
X236137Y266834D01*
X236670D01*
X236937Y267100D01*
Y268433D01*
X238536Y266834D02*
X237470D01*
X238536Y267900D01*
Y268166D01*
X238270Y268433D01*
X237737D01*
X237470Y268166D01*
X230006Y221334D02*
Y222933D01*
X230806D01*
X231072Y222666D01*
Y222133D01*
X230806Y221867D01*
X230006D01*
X230539D02*
X231072Y221334D01*
X231605D02*
X232138D01*
X231872D01*
Y222933D01*
X231605Y222666D01*
X234004Y222933D02*
X232938D01*
Y222133D01*
X233471Y222400D01*
X233738D01*
X234004Y222133D01*
Y221600D01*
X233738Y221334D01*
X233205D01*
X232938Y221600D01*
X234538Y221067D02*
X235604D01*
X236137Y222933D02*
Y221600D01*
X236404Y221334D01*
X236937D01*
X237204Y221600D01*
Y222933D01*
X237737Y221334D02*
X238270D01*
X238003D01*
Y222933D01*
X237737Y222666D01*
X195601Y408834D02*
Y410433D01*
X196401D01*
X196668Y410166D01*
Y409633D01*
X196401Y409367D01*
X195601D01*
X196135D02*
X196668Y408834D01*
X197201D02*
X197734D01*
X197468D01*
Y410433D01*
X197201Y410166D01*
X199334Y408834D02*
Y410433D01*
X198534Y409633D01*
X199600D01*
X200133Y408567D02*
X201200D01*
X201733Y410433D02*
Y409100D01*
X201999Y408834D01*
X202533D01*
X202799Y409100D01*
Y410433D01*
X204399D02*
X203332D01*
Y409633D01*
X203865Y409900D01*
X204132D01*
X204399Y409633D01*
Y409100D01*
X204132Y408834D01*
X203599D01*
X203332Y409100D01*
X194601Y358834D02*
Y360433D01*
X195401D01*
X195668Y360166D01*
Y359633D01*
X195401Y359367D01*
X194601D01*
X195135D02*
X195668Y358834D01*
X196201D02*
X196734D01*
X196467D01*
Y360433D01*
X196201Y360166D01*
X198334Y358834D02*
Y360433D01*
X197534Y359633D01*
X198600D01*
X199133Y358567D02*
X200200D01*
X200733Y360433D02*
Y359100D01*
X200999Y358834D01*
X201533D01*
X201799Y359100D01*
Y360433D01*
X203132Y358834D02*
Y360433D01*
X202332Y359633D01*
X203399D01*
X194601Y310834D02*
Y312433D01*
X195401D01*
X195668Y312166D01*
Y311633D01*
X195401Y311367D01*
X194601D01*
X195135D02*
X195668Y310834D01*
X196201D02*
X196734D01*
X196467D01*
Y312433D01*
X196201Y312166D01*
X198334Y310834D02*
Y312433D01*
X197534Y311633D01*
X198600D01*
X199133Y310567D02*
X200200D01*
X200733Y312433D02*
Y311100D01*
X200999Y310834D01*
X201533D01*
X201799Y311100D01*
Y312433D01*
X202332Y312166D02*
X202599Y312433D01*
X203132D01*
X203399Y312166D01*
Y311900D01*
X203132Y311633D01*
X202865D01*
X203132D01*
X203399Y311367D01*
Y311100D01*
X203132Y310834D01*
X202599D01*
X202332Y311100D01*
X195101Y263834D02*
Y265433D01*
X195901D01*
X196168Y265166D01*
Y264633D01*
X195901Y264367D01*
X195101D01*
X195635D02*
X196168Y263834D01*
X196701D02*
X197234D01*
X196967D01*
Y265433D01*
X196701Y265166D01*
X198834Y263834D02*
Y265433D01*
X198034Y264633D01*
X199100D01*
X199633Y263567D02*
X200700D01*
X201233Y265433D02*
Y264100D01*
X201499Y263834D01*
X202032D01*
X202299Y264100D01*
Y265433D01*
X203899Y263834D02*
X202832D01*
X203899Y264900D01*
Y265166D01*
X203632Y265433D01*
X203099D01*
X202832Y265166D01*
X193868Y218834D02*
Y220433D01*
X194668D01*
X194934Y220166D01*
Y219633D01*
X194668Y219367D01*
X193868D01*
X194401D02*
X194934Y218834D01*
X195467D02*
X196001D01*
X195734D01*
Y220433D01*
X195467Y220166D01*
X197600Y218834D02*
Y220433D01*
X196800Y219633D01*
X197867D01*
X198400Y218567D02*
X199466D01*
X199999Y220433D02*
Y219100D01*
X200266Y218834D01*
X200799D01*
X201066Y219100D01*
Y220433D01*
X201599Y218834D02*
X202132D01*
X201865D01*
Y220433D01*
X201599Y220166D01*
X373601Y434834D02*
Y436433D01*
X374401D01*
X374668Y436166D01*
Y435633D01*
X374401Y435367D01*
X373601D01*
X374135D02*
X374668Y434834D01*
X375201D02*
X375734D01*
X375467D01*
Y436433D01*
X375201Y436166D01*
X376534D02*
X376800Y436433D01*
X377334D01*
X377600Y436166D01*
Y435100D01*
X377334Y434834D01*
X376800D01*
X376534Y435100D01*
Y436166D01*
X378133Y434567D02*
X379200D01*
X379733Y436433D02*
Y435100D01*
X379999Y434834D01*
X380533D01*
X380799Y435100D01*
Y436433D01*
X382399D02*
X381332D01*
Y435633D01*
X381865Y435900D01*
X382132D01*
X382399Y435633D01*
Y435100D01*
X382132Y434834D01*
X381599D01*
X381332Y435100D01*
X373454Y380488D02*
Y382087D01*
X374254D01*
X374520Y381821D01*
Y381287D01*
X374254Y381021D01*
X373454D01*
X373987D02*
X374520Y380488D01*
X375054D02*
X375587D01*
X375320D01*
Y382087D01*
X375054Y381821D01*
X376386D02*
X376653Y382087D01*
X377186D01*
X377453Y381821D01*
Y380754D01*
X377186Y380488D01*
X376653D01*
X376386Y380754D01*
Y381821D01*
X377986Y380221D02*
X379052D01*
X379585Y382087D02*
Y380754D01*
X379852Y380488D01*
X380385D01*
X380652Y380754D01*
Y382087D01*
X381984Y380488D02*
Y382087D01*
X381185Y381287D01*
X382251D01*
X373601Y320834D02*
Y322433D01*
X374401D01*
X374668Y322166D01*
Y321633D01*
X374401Y321367D01*
X373601D01*
X374135D02*
X374668Y320834D01*
X375201D02*
X375734D01*
X375467D01*
Y322433D01*
X375201Y322166D01*
X376534D02*
X376800Y322433D01*
X377334D01*
X377600Y322166D01*
Y321100D01*
X377334Y320834D01*
X376800D01*
X376534Y321100D01*
Y322166D01*
X378133Y320567D02*
X379200D01*
X379733Y322433D02*
Y321100D01*
X379999Y320834D01*
X380533D01*
X380799Y321100D01*
Y322433D01*
X381332Y322166D02*
X381599Y322433D01*
X382132D01*
X382399Y322166D01*
Y321900D01*
X382132Y321633D01*
X381865D01*
X382132D01*
X382399Y321367D01*
Y321100D01*
X382132Y320834D01*
X381599D01*
X381332Y321100D01*
X373101Y258834D02*
Y260433D01*
X373901D01*
X374168Y260166D01*
Y259633D01*
X373901Y259367D01*
X373101D01*
X373635D02*
X374168Y258834D01*
X374701D02*
X375234D01*
X374968D01*
Y260433D01*
X374701Y260166D01*
X376034D02*
X376300Y260433D01*
X376834D01*
X377100Y260166D01*
Y259100D01*
X376834Y258834D01*
X376300D01*
X376034Y259100D01*
Y260166D01*
X377633Y258567D02*
X378700D01*
X379233Y260433D02*
Y259100D01*
X379499Y258834D01*
X380032D01*
X380299Y259100D01*
Y260433D01*
X381899Y258834D02*
X380832D01*
X381899Y259900D01*
Y260166D01*
X381632Y260433D01*
X381099D01*
X380832Y260166D01*
X373368Y200834D02*
Y202433D01*
X374168D01*
X374434Y202167D01*
Y201633D01*
X374168Y201367D01*
X373368D01*
X373901D02*
X374434Y200834D01*
X374968D02*
X375501D01*
X375234D01*
Y202433D01*
X374968Y202167D01*
X376300D02*
X376567Y202433D01*
X377100D01*
X377367Y202167D01*
Y201100D01*
X377100Y200834D01*
X376567D01*
X376300Y201100D01*
Y202167D01*
X377900Y200567D02*
X378966D01*
X379499Y202433D02*
Y201100D01*
X379766Y200834D01*
X380299D01*
X380566Y201100D01*
Y202433D01*
X381099Y200834D02*
X381632D01*
X381365D01*
Y202433D01*
X381099Y202167D01*
X374268Y449334D02*
Y450933D01*
X375068D01*
X375334Y450666D01*
Y450133D01*
X375068Y449867D01*
X374268D01*
X374801D02*
X375334Y449334D01*
X375867Y450666D02*
X376134Y450933D01*
X376667D01*
X376934Y450666D01*
Y450400D01*
X376667Y450133D01*
X376934Y449867D01*
Y449600D01*
X376667Y449334D01*
X376134D01*
X375867Y449600D01*
Y449867D01*
X376134Y450133D01*
X375867Y450400D01*
Y450666D01*
X376134Y450133D02*
X376667D01*
X377467Y449067D02*
X378533D01*
X379066Y450933D02*
Y449600D01*
X379333Y449334D01*
X379866D01*
X380133Y449600D01*
Y450933D01*
X381732D02*
X380666D01*
Y450133D01*
X381199Y450400D01*
X381466D01*
X381732Y450133D01*
Y449600D01*
X381466Y449334D01*
X380932D01*
X380666Y449600D01*
X374394Y396084D02*
Y397683D01*
X375194D01*
X375460Y397416D01*
Y396883D01*
X375194Y396617D01*
X374394D01*
X374927D02*
X375460Y396084D01*
X375993Y397416D02*
X376260Y397683D01*
X376793D01*
X377060Y397416D01*
Y397150D01*
X376793Y396883D01*
X377060Y396617D01*
Y396350D01*
X376793Y396084D01*
X376260D01*
X375993Y396350D01*
Y396617D01*
X376260Y396883D01*
X375993Y397150D01*
Y397416D01*
X376260Y396883D02*
X376793D01*
X377593Y395817D02*
X378659D01*
X379192Y397683D02*
Y396350D01*
X379459Y396084D01*
X379992D01*
X380259Y396350D01*
Y397683D01*
X381592Y396084D02*
Y397683D01*
X380792Y396883D01*
X381858D01*
X374394Y337334D02*
Y338933D01*
X375194D01*
X375460Y338666D01*
Y338133D01*
X375194Y337867D01*
X374394D01*
X374927D02*
X375460Y337334D01*
X375993Y338666D02*
X376260Y338933D01*
X376793D01*
X377060Y338666D01*
Y338400D01*
X376793Y338133D01*
X377060Y337867D01*
Y337600D01*
X376793Y337334D01*
X376260D01*
X375993Y337600D01*
Y337867D01*
X376260Y338133D01*
X375993Y338400D01*
Y338666D01*
X376260Y338133D02*
X376793D01*
X377593Y337067D02*
X378659D01*
X379192Y338933D02*
Y337600D01*
X379459Y337334D01*
X379992D01*
X380259Y337600D01*
Y338933D01*
X380792Y338666D02*
X381058Y338933D01*
X381592D01*
X381858Y338666D01*
Y338400D01*
X381592Y338133D01*
X381325D01*
X381592D01*
X381858Y337867D01*
Y337600D01*
X381592Y337334D01*
X381058D01*
X380792Y337600D01*
X374268Y275834D02*
Y277433D01*
X375068D01*
X375334Y277166D01*
Y276633D01*
X375068Y276367D01*
X374268D01*
X374801D02*
X375334Y275834D01*
X375867Y277166D02*
X376134Y277433D01*
X376667D01*
X376934Y277166D01*
Y276900D01*
X376667Y276633D01*
X376934Y276367D01*
Y276100D01*
X376667Y275834D01*
X376134D01*
X375867Y276100D01*
Y276367D01*
X376134Y276633D01*
X375867Y276900D01*
Y277166D01*
X376134Y276633D02*
X376667D01*
X377467Y275567D02*
X378533D01*
X379066Y277433D02*
Y276100D01*
X379333Y275834D01*
X379866D01*
X380133Y276100D01*
Y277433D01*
X381732Y275834D02*
X380666D01*
X381732Y276900D01*
Y277166D01*
X381466Y277433D01*
X380932D01*
X380666Y277166D01*
X374535Y217834D02*
Y219433D01*
X375334D01*
X375601Y219166D01*
Y218633D01*
X375334Y218367D01*
X374535D01*
X375068D02*
X375601Y217834D01*
X376134Y219166D02*
X376400Y219433D01*
X376934D01*
X377200Y219166D01*
Y218900D01*
X376934Y218633D01*
X377200Y218367D01*
Y218100D01*
X376934Y217834D01*
X376400D01*
X376134Y218100D01*
Y218367D01*
X376400Y218633D01*
X376134Y218900D01*
Y219166D01*
X376400Y218633D02*
X376934D01*
X377733Y217567D02*
X378800D01*
X379333Y219433D02*
Y218100D01*
X379599Y217834D01*
X380133D01*
X380399Y218100D01*
Y219433D01*
X380932Y217834D02*
X381466D01*
X381199D01*
Y219433D01*
X380932Y219166D01*
X374268Y463834D02*
Y465433D01*
X375068D01*
X375334Y465166D01*
Y464633D01*
X375068Y464367D01*
X374268D01*
X374801D02*
X375334Y463834D01*
X376934Y465433D02*
X376400Y465166D01*
X375867Y464633D01*
Y464100D01*
X376134Y463834D01*
X376667D01*
X376934Y464100D01*
Y464367D01*
X376667Y464633D01*
X375867D01*
X377467Y463567D02*
X378533D01*
X379066Y465433D02*
Y464100D01*
X379333Y463834D01*
X379866D01*
X380133Y464100D01*
Y465433D01*
X381732D02*
X380666D01*
Y464633D01*
X381199Y464900D01*
X381466D01*
X381732Y464633D01*
Y464100D01*
X381466Y463834D01*
X380932D01*
X380666Y464100D01*
X374142Y411334D02*
Y412933D01*
X374942D01*
X375208Y412666D01*
Y412133D01*
X374942Y411867D01*
X374142D01*
X374675D02*
X375208Y411334D01*
X376808Y412933D02*
X376274Y412666D01*
X375741Y412133D01*
Y411600D01*
X376008Y411334D01*
X376541D01*
X376808Y411600D01*
Y411867D01*
X376541Y412133D01*
X375741D01*
X377341Y411067D02*
X378407D01*
X378940Y412933D02*
Y411600D01*
X379207Y411334D01*
X379740D01*
X380007Y411600D01*
Y412933D01*
X381340Y411334D02*
Y412933D01*
X380540Y412133D01*
X381606D01*
X374268Y353834D02*
Y355433D01*
X375068D01*
X375334Y355166D01*
Y354633D01*
X375068Y354367D01*
X374268D01*
X374801D02*
X375334Y353834D01*
X376934Y355433D02*
X376400Y355166D01*
X375867Y354633D01*
Y354100D01*
X376134Y353834D01*
X376667D01*
X376934Y354100D01*
Y354367D01*
X376667Y354633D01*
X375867D01*
X377467Y353567D02*
X378533D01*
X379066Y355433D02*
Y354100D01*
X379333Y353834D01*
X379866D01*
X380133Y354100D01*
Y355433D01*
X380666Y355166D02*
X380932Y355433D01*
X381466D01*
X381732Y355166D01*
Y354900D01*
X381466Y354633D01*
X381199D01*
X381466D01*
X381732Y354367D01*
Y354100D01*
X381466Y353834D01*
X380932D01*
X380666Y354100D01*
X373768Y292834D02*
Y294433D01*
X374568D01*
X374834Y294166D01*
Y293633D01*
X374568Y293367D01*
X373768D01*
X374301D02*
X374834Y292834D01*
X376434Y294433D02*
X375901Y294166D01*
X375367Y293633D01*
Y293100D01*
X375634Y292834D01*
X376167D01*
X376434Y293100D01*
Y293367D01*
X376167Y293633D01*
X375367D01*
X376967Y292567D02*
X378033D01*
X378566Y294433D02*
Y293100D01*
X378833Y292834D01*
X379366D01*
X379633Y293100D01*
Y294433D01*
X381232Y292834D02*
X380166D01*
X381232Y293900D01*
Y294166D01*
X380965Y294433D01*
X380432D01*
X380166Y294166D01*
X374535Y234834D02*
Y236433D01*
X375334D01*
X375601Y236166D01*
Y235633D01*
X375334Y235367D01*
X374535D01*
X375068D02*
X375601Y234834D01*
X377200Y236433D02*
X376667Y236166D01*
X376134Y235633D01*
Y235100D01*
X376400Y234834D01*
X376934D01*
X377200Y235100D01*
Y235367D01*
X376934Y235633D01*
X376134D01*
X377733Y234567D02*
X378800D01*
X379333Y236433D02*
Y235100D01*
X379599Y234834D01*
X380133D01*
X380399Y235100D01*
Y236433D01*
X380932Y234834D02*
X381466D01*
X381199D01*
Y236433D01*
X380932Y236166D01*
X194421Y419340D02*
Y420940D01*
X195221D01*
X195488Y420673D01*
Y420140D01*
X195221Y419874D01*
X194421D01*
X194955D02*
X195488Y419340D01*
X197087Y420940D02*
X196021D01*
Y420140D01*
X196554Y420407D01*
X196821D01*
X197087Y420140D01*
Y419607D01*
X196821Y419340D01*
X196287D01*
X196021Y419607D01*
X197620Y419074D02*
X198687D01*
X199220Y420940D02*
Y419607D01*
X199486Y419340D01*
X200020D01*
X200286Y419607D01*
Y420940D01*
X201886D02*
X200819D01*
Y420140D01*
X201352Y420407D01*
X201619D01*
X201886Y420140D01*
Y419607D01*
X201619Y419340D01*
X201086D01*
X200819Y419607D01*
X194547Y370090D02*
Y371690D01*
X195347D01*
X195614Y371423D01*
Y370890D01*
X195347Y370623D01*
X194547D01*
X195080D02*
X195614Y370090D01*
X197213Y371690D02*
X196147D01*
Y370890D01*
X196680Y371157D01*
X196947D01*
X197213Y370890D01*
Y370357D01*
X196947Y370090D01*
X196413D01*
X196147Y370357D01*
X197746Y369824D02*
X198813D01*
X199346Y371690D02*
Y370357D01*
X199612Y370090D01*
X200146D01*
X200412Y370357D01*
Y371690D01*
X201745Y370090D02*
Y371690D01*
X200945Y370890D01*
X202012D01*
X194260Y322689D02*
Y324289D01*
X195060D01*
X195327Y324022D01*
Y323489D01*
X195060Y323222D01*
X194260D01*
X194793D02*
X195327Y322689D01*
X196926Y324289D02*
X195860D01*
Y323489D01*
X196393Y323756D01*
X196660D01*
X196926Y323489D01*
Y322956D01*
X196660Y322689D01*
X196126D01*
X195860Y322956D01*
X197459Y322423D02*
X198526D01*
X199059Y324289D02*
Y322956D01*
X199325Y322689D01*
X199858D01*
X200125Y322956D01*
Y324289D01*
X200658Y324022D02*
X200925Y324289D01*
X201458D01*
X201725Y324022D01*
Y323756D01*
X201458Y323489D01*
X201191D01*
X201458D01*
X201725Y323222D01*
Y322956D01*
X201458Y322689D01*
X200925D01*
X200658Y322956D01*
X194421Y275354D02*
Y276954D01*
X195221D01*
X195488Y276687D01*
Y276154D01*
X195221Y275887D01*
X194421D01*
X194955D02*
X195488Y275354D01*
X197087Y276954D02*
X196021D01*
Y276154D01*
X196554Y276420D01*
X196821D01*
X197087Y276154D01*
Y275621D01*
X196821Y275354D01*
X196287D01*
X196021Y275621D01*
X197620Y275088D02*
X198687D01*
X199220Y276954D02*
Y275621D01*
X199486Y275354D01*
X200020D01*
X200286Y275621D01*
Y276954D01*
X201886Y275354D02*
X200819D01*
X201886Y276420D01*
Y276687D01*
X201619Y276954D01*
X201086D01*
X200819Y276687D01*
X194688Y230183D02*
Y231782D01*
X195488D01*
X195754Y231516D01*
Y230983D01*
X195488Y230716D01*
X194688D01*
X195221D02*
X195754Y230183D01*
X197354Y231782D02*
X196287D01*
Y230983D01*
X196821Y231249D01*
X197087D01*
X197354Y230983D01*
Y230449D01*
X197087Y230183D01*
X196554D01*
X196287Y230449D01*
X197887Y229916D02*
X198953D01*
X199486Y231782D02*
Y230449D01*
X199753Y230183D01*
X200286D01*
X200553Y230449D01*
Y231782D01*
X201086Y230183D02*
X201619D01*
X201352D01*
Y231782D01*
X201086Y231516D01*
X246768Y404334D02*
Y405933D01*
X247568D01*
X247834Y405666D01*
Y405133D01*
X247568Y404867D01*
X246768D01*
X247301D02*
X247834Y404334D01*
X249434D02*
X248367D01*
X249434Y405400D01*
Y405666D01*
X249167Y405933D01*
X248634D01*
X248367Y405666D01*
X249967Y404067D02*
X251033D01*
X251566Y405933D02*
Y404600D01*
X251833Y404334D01*
X252366D01*
X252633Y404600D01*
Y405933D01*
X254232D02*
X253166D01*
Y405133D01*
X253699Y405400D01*
X253965D01*
X254232Y405133D01*
Y404600D01*
X253965Y404334D01*
X253432D01*
X253166Y404600D01*
X247318Y355334D02*
Y356933D01*
X248118D01*
X248384Y356666D01*
Y356133D01*
X248118Y355867D01*
X247318D01*
X247851D02*
X248384Y355334D01*
X249984D02*
X248917D01*
X249984Y356400D01*
Y356666D01*
X249717Y356933D01*
X249184D01*
X248917Y356666D01*
X250517Y355067D02*
X251583D01*
X252116Y356933D02*
Y355600D01*
X252383Y355334D01*
X252916D01*
X253183Y355600D01*
Y356933D01*
X254516Y355334D02*
Y356933D01*
X253716Y356133D01*
X254782D01*
X246818Y309334D02*
Y310933D01*
X247618D01*
X247884Y310666D01*
Y310133D01*
X247618Y309867D01*
X246818D01*
X247351D02*
X247884Y309334D01*
X249484D02*
X248417D01*
X249484Y310400D01*
Y310666D01*
X249217Y310933D01*
X248684D01*
X248417Y310666D01*
X250017Y309067D02*
X251083D01*
X251616Y310933D02*
Y309600D01*
X251883Y309334D01*
X252416D01*
X252683Y309600D01*
Y310933D01*
X253216Y310666D02*
X253482Y310933D01*
X254015D01*
X254282Y310666D01*
Y310400D01*
X254015Y310133D01*
X253749D01*
X254015D01*
X254282Y309867D01*
Y309600D01*
X254015Y309334D01*
X253482D01*
X253216Y309600D01*
X246868Y261834D02*
Y263433D01*
X247668D01*
X247934Y263166D01*
Y262633D01*
X247668Y262367D01*
X246868D01*
X247401D02*
X247934Y261834D01*
X249534D02*
X248467D01*
X249534Y262900D01*
Y263166D01*
X249267Y263433D01*
X248734D01*
X248467Y263166D01*
X250067Y261567D02*
X251133D01*
X251666Y263433D02*
Y262100D01*
X251933Y261834D01*
X252466D01*
X252733Y262100D01*
Y263433D01*
X254332Y261834D02*
X253266D01*
X254332Y262900D01*
Y263166D01*
X254065Y263433D01*
X253532D01*
X253266Y263166D01*
X246920Y217156D02*
Y218755D01*
X247720D01*
X247987Y218488D01*
Y217955D01*
X247720Y217689D01*
X246920D01*
X247454D02*
X247987Y217156D01*
X249586D02*
X248520D01*
X249586Y218222D01*
Y218488D01*
X249320Y218755D01*
X248787D01*
X248520Y218488D01*
X250119Y216889D02*
X251186D01*
X251719Y218755D02*
Y217422D01*
X251986Y217156D01*
X252519D01*
X252785Y217422D01*
Y218755D01*
X253319Y217156D02*
X253852D01*
X253585D01*
Y218755D01*
X253319Y218488D01*
X161751Y437834D02*
Y439433D01*
X162551D01*
X162818Y439166D01*
Y438633D01*
X162551Y438367D01*
X161751D01*
X162285D02*
X162818Y437834D01*
X163351D02*
X163884D01*
X163618D01*
Y439433D01*
X163351Y439166D01*
X164684Y437567D02*
X165750D01*
X166283Y439433D02*
Y438100D01*
X166550Y437834D01*
X167083D01*
X167350Y438100D01*
Y439433D01*
X168949D02*
X167883D01*
Y438633D01*
X168416Y438900D01*
X168683D01*
X168949Y438633D01*
Y438100D01*
X168683Y437834D01*
X168149D01*
X167883Y438100D01*
X160751Y388833D02*
Y390433D01*
X161551D01*
X161818Y390166D01*
Y389633D01*
X161551Y389367D01*
X160751D01*
X161285D02*
X161818Y388833D01*
X162351D02*
X162884D01*
X162618D01*
Y390433D01*
X162351Y390166D01*
X163684Y388567D02*
X164750D01*
X165283Y390433D02*
Y389100D01*
X165550Y388833D01*
X166083D01*
X166350Y389100D01*
Y390433D01*
X167683Y388833D02*
Y390433D01*
X166883Y389633D01*
X167949D01*
X160751Y342334D02*
Y343933D01*
X161551D01*
X161818Y343667D01*
Y343133D01*
X161551Y342867D01*
X160751D01*
X161285D02*
X161818Y342334D01*
X162351D02*
X162884D01*
X162618D01*
Y343933D01*
X162351Y343667D01*
X163684Y342067D02*
X164750D01*
X165283Y343933D02*
Y342600D01*
X165550Y342334D01*
X166083D01*
X166350Y342600D01*
Y343933D01*
X166883Y343667D02*
X167149Y343933D01*
X167683D01*
X167949Y343667D01*
Y343400D01*
X167683Y343133D01*
X167416D01*
X167683D01*
X167949Y342867D01*
Y342600D01*
X167683Y342334D01*
X167149D01*
X166883Y342600D01*
X160751Y294361D02*
Y295961D01*
X161551D01*
X161818Y295694D01*
Y295161D01*
X161551Y294894D01*
X160751D01*
X161285D02*
X161818Y294361D01*
X162351D02*
X162884D01*
X162618D01*
Y295961D01*
X162351Y295694D01*
X163684Y294094D02*
X164750D01*
X165283Y295961D02*
Y294628D01*
X165550Y294361D01*
X166083D01*
X166350Y294628D01*
Y295961D01*
X167949Y294361D02*
X166883D01*
X167949Y295427D01*
Y295694D01*
X167683Y295961D01*
X167149D01*
X166883Y295694D01*
X160518Y249019D02*
Y250618D01*
X161318D01*
X161584Y250352D01*
Y249818D01*
X161318Y249552D01*
X160518D01*
X161051D02*
X161584Y249019D01*
X162118D02*
X162651D01*
X162384D01*
Y250618D01*
X162118Y250352D01*
X163451Y248752D02*
X164517D01*
X165050Y250618D02*
Y249285D01*
X165316Y249019D01*
X165850D01*
X166116Y249285D01*
Y250618D01*
X166649Y249019D02*
X167183D01*
X166916D01*
Y250618D01*
X166649Y250352D01*
X263168Y438100D02*
Y439166D01*
X262901Y439433D01*
X262368D01*
X262101Y439166D01*
Y438100D01*
X262368Y437834D01*
X262901D01*
X262634Y438367D02*
X263168Y437834D01*
X262901D02*
X263168Y438100D01*
X263701Y437834D02*
X264234D01*
X263967D01*
Y439433D01*
X263701Y439166D01*
X265034Y437567D02*
X266100D01*
X266633Y439433D02*
Y438100D01*
X266900Y437834D01*
X267433D01*
X267699Y438100D01*
Y439433D01*
X269299D02*
X268232D01*
Y438633D01*
X268766Y438900D01*
X269032D01*
X269299Y438633D01*
Y438100D01*
X269032Y437834D01*
X268499D01*
X268232Y438100D01*
X264267Y389161D02*
Y390227D01*
X264001Y390494D01*
X263468D01*
X263201Y390227D01*
Y389161D01*
X263468Y388894D01*
X264001D01*
X263734Y389427D02*
X264267Y388894D01*
X264001D02*
X264267Y389161D01*
X264801Y388894D02*
X265334D01*
X265067D01*
Y390494D01*
X264801Y390227D01*
X266134Y388628D02*
X267200D01*
X267733Y390494D02*
Y389161D01*
X268000Y388894D01*
X268533D01*
X268799Y389161D01*
Y390494D01*
X270132Y388894D02*
Y390494D01*
X269333Y389694D01*
X270399D01*
X263468Y342911D02*
Y343977D01*
X263201Y344244D01*
X262668D01*
X262401Y343977D01*
Y342911D01*
X262668Y342644D01*
X263201D01*
X262934Y343177D02*
X263468Y342644D01*
X263201D02*
X263468Y342911D01*
X264001Y342644D02*
X264534D01*
X264267D01*
Y344244D01*
X264001Y343977D01*
X265334Y342378D02*
X266400D01*
X266933Y344244D02*
Y342911D01*
X267200Y342644D01*
X267733D01*
X267999Y342911D01*
Y344244D01*
X268532Y343977D02*
X268799Y344244D01*
X269332D01*
X269599Y343977D01*
Y343711D01*
X269332Y343444D01*
X269066D01*
X269332D01*
X269599Y343177D01*
Y342911D01*
X269332Y342644D01*
X268799D01*
X268532Y342911D01*
X264267Y295188D02*
Y296255D01*
X264001Y296521D01*
X263468D01*
X263201Y296255D01*
Y295188D01*
X263468Y294922D01*
X264001D01*
X263734Y295455D02*
X264267Y294922D01*
X264001D02*
X264267Y295188D01*
X264801Y294922D02*
X265334D01*
X265067D01*
Y296521D01*
X264801Y296255D01*
X266134Y294655D02*
X267200D01*
X267733Y296521D02*
Y295188D01*
X268000Y294922D01*
X268533D01*
X268799Y295188D01*
Y296521D01*
X270399Y294922D02*
X269333D01*
X270399Y295988D01*
Y296255D01*
X270132Y296521D01*
X269599D01*
X269333Y296255D01*
X265034Y249846D02*
Y250912D01*
X264768Y251179D01*
X264234D01*
X263968Y250912D01*
Y249846D01*
X264234Y249579D01*
X264768D01*
X264501Y250112D02*
X265034Y249579D01*
X264768D02*
X265034Y249846D01*
X265567Y249579D02*
X266100D01*
X265834D01*
Y251179D01*
X265567Y250912D01*
X266900Y249313D02*
X267966D01*
X268500Y251179D02*
Y249846D01*
X268766Y249579D01*
X269299D01*
X269566Y249846D01*
Y251179D01*
X270099Y249579D02*
X270632D01*
X270366D01*
Y251179D01*
X270099Y250912D01*
X291735Y439933D02*
X292268D01*
X292001D01*
Y438334D01*
X291735D01*
X292268D01*
X294134Y439666D02*
X293867Y439933D01*
X293334D01*
X293068Y439666D01*
Y438600D01*
X293334Y438334D01*
X293867D01*
X294134Y438600D01*
X294667Y438334D02*
X295200D01*
X294934D01*
Y439933D01*
X294667Y439666D01*
X296000Y438067D02*
X297066D01*
X297600Y439933D02*
Y438600D01*
X297866Y438334D01*
X298399D01*
X298666Y438600D01*
Y439933D01*
X300265D02*
X299199D01*
Y439133D01*
X299732Y439400D01*
X299999D01*
X300265Y439133D01*
Y438600D01*
X299999Y438334D01*
X299465D01*
X299199Y438600D01*
X293105Y392519D02*
X293638D01*
X293371D01*
Y390920D01*
X293105D01*
X293638D01*
X295504Y392252D02*
X295237Y392519D01*
X294704D01*
X294438Y392252D01*
Y391186D01*
X294704Y390920D01*
X295237D01*
X295504Y391186D01*
X296037Y390920D02*
X296570D01*
X296304D01*
Y392519D01*
X296037Y392252D01*
X297370Y390653D02*
X298436D01*
X298970Y392519D02*
Y391186D01*
X299236Y390920D01*
X299769D01*
X300036Y391186D01*
Y392519D01*
X301369Y390920D02*
Y392519D01*
X300569Y391719D01*
X301635D01*
X292235Y345105D02*
X292768D01*
X292501D01*
Y343506D01*
X292235D01*
X292768D01*
X294634Y344839D02*
X294367Y345105D01*
X293834D01*
X293568Y344839D01*
Y343772D01*
X293834Y343506D01*
X294367D01*
X294634Y343772D01*
X295167Y343506D02*
X295700D01*
X295434D01*
Y345105D01*
X295167Y344839D01*
X296500Y343239D02*
X297566D01*
X298099Y345105D02*
Y343772D01*
X298366Y343506D01*
X298899D01*
X299166Y343772D01*
Y345105D01*
X299699Y344839D02*
X299966Y345105D01*
X300499D01*
X300765Y344839D01*
Y344572D01*
X300499Y344306D01*
X300232D01*
X300499D01*
X300765Y344039D01*
Y343772D01*
X300499Y343506D01*
X299966D01*
X299699Y343772D01*
X292735Y297691D02*
X293268D01*
X293001D01*
Y296092D01*
X292735D01*
X293268D01*
X295134Y297425D02*
X294867Y297691D01*
X294334D01*
X294068Y297425D01*
Y296358D01*
X294334Y296092D01*
X294867D01*
X295134Y296358D01*
X295667Y296092D02*
X296200D01*
X295934D01*
Y297691D01*
X295667Y297425D01*
X297000Y295825D02*
X298066D01*
X298600Y297691D02*
Y296358D01*
X298866Y296092D01*
X299399D01*
X299666Y296358D01*
Y297691D01*
X301265Y296092D02*
X300199D01*
X301265Y297158D01*
Y297425D01*
X300999Y297691D01*
X300465D01*
X300199Y297425D01*
X292131Y250277D02*
X292664D01*
X292398D01*
Y248678D01*
X292131D01*
X292664D01*
X294530Y250011D02*
X294264Y250277D01*
X293731D01*
X293464Y250011D01*
Y248945D01*
X293731Y248678D01*
X294264D01*
X294530Y248945D01*
X295064Y248678D02*
X295597D01*
X295330D01*
Y250277D01*
X295064Y250011D01*
X296396Y248411D02*
X297463D01*
X297996Y250277D02*
Y248945D01*
X298263Y248678D01*
X298796D01*
X299062Y248945D01*
Y250277D01*
X299595Y248678D02*
X300129D01*
X299862D01*
Y250277D01*
X299595Y250011D01*
X230468Y439378D02*
X229401D01*
Y438578D01*
X229934D01*
X229401D01*
Y437778D01*
X231001D02*
X231534D01*
X231267D01*
Y439378D01*
X231001Y439111D01*
X232333Y437512D02*
X233400D01*
X233933Y439378D02*
Y438045D01*
X234200Y437778D01*
X234733D01*
X234999Y438045D01*
Y439378D01*
X236599D02*
X235532D01*
Y438578D01*
X236066Y438845D01*
X236332D01*
X236599Y438578D01*
Y438045D01*
X236332Y437778D01*
X235799D01*
X235532Y438045D01*
X230967Y390175D02*
X229901D01*
Y389375D01*
X230434D01*
X229901D01*
Y388576D01*
X231501D02*
X232034D01*
X231767D01*
Y390175D01*
X231501Y389909D01*
X232834Y388309D02*
X233900D01*
X234433Y390175D02*
Y388842D01*
X234700Y388576D01*
X235233D01*
X235499Y388842D01*
Y390175D01*
X236832Y388576D02*
Y390175D01*
X236033Y389375D01*
X237099D01*
X231967Y343620D02*
X230901D01*
Y342820D01*
X231434D01*
X230901D01*
Y342021D01*
X232501D02*
X233034D01*
X232767D01*
Y343620D01*
X232501Y343353D01*
X233834Y341754D02*
X234900D01*
X235433Y343620D02*
Y342287D01*
X235700Y342021D01*
X236233D01*
X236499Y342287D01*
Y343620D01*
X237033Y343353D02*
X237299Y343620D01*
X237832D01*
X238099Y343353D01*
Y343087D01*
X237832Y342820D01*
X237566D01*
X237832D01*
X238099Y342554D01*
Y342287D01*
X237832Y342021D01*
X237299D01*
X237033Y342287D01*
X231967Y295703D02*
X230901D01*
Y294903D01*
X231434D01*
X230901D01*
Y294103D01*
X232501D02*
X233034D01*
X232767D01*
Y295703D01*
X232501Y295436D01*
X233834Y293837D02*
X234900D01*
X235433Y295703D02*
Y294370D01*
X235700Y294103D01*
X236233D01*
X236499Y294370D01*
Y295703D01*
X238099Y294103D02*
X237033D01*
X238099Y295170D01*
Y295436D01*
X237832Y295703D01*
X237299D01*
X237033Y295436D01*
X231734Y250305D02*
X230668D01*
Y249505D01*
X231201D01*
X230668D01*
Y248705D01*
X232267D02*
X232800D01*
X232534D01*
Y250305D01*
X232267Y250038D01*
X233600Y248439D02*
X234666D01*
X235200Y250305D02*
Y248972D01*
X235466Y248705D01*
X235999D01*
X236266Y248972D01*
Y250305D01*
X236799Y248705D02*
X237332D01*
X237066D01*
Y250305D01*
X236799Y250038D01*
X177882Y413933D02*
Y412334D01*
X178682D01*
X178948Y412600D01*
Y413666D01*
X178682Y413933D01*
X177882D01*
X180281Y412334D02*
Y413933D01*
X179481Y413133D01*
X180548D01*
X181081Y412067D02*
X182147D01*
X182680Y413933D02*
Y412600D01*
X182947Y412334D01*
X183480D01*
X183747Y412600D01*
Y413933D01*
X185346D02*
X184280D01*
Y413133D01*
X184813Y413400D01*
X185080D01*
X185346Y413133D01*
Y412600D01*
X185080Y412334D01*
X184546D01*
X184280Y412600D01*
X177031Y365433D02*
Y363834D01*
X177831D01*
X178098Y364100D01*
Y365166D01*
X177831Y365433D01*
X177031D01*
X179431Y363834D02*
Y365433D01*
X178631Y364633D01*
X179697D01*
X180230Y363567D02*
X181297D01*
X181830Y365433D02*
Y364100D01*
X182097Y363834D01*
X182630D01*
X182896Y364100D01*
Y365433D01*
X184229Y363834D02*
Y365433D01*
X183429Y364633D01*
X184496D01*
X178031Y318433D02*
Y316834D01*
X178831D01*
X179098Y317100D01*
Y318166D01*
X178831Y318433D01*
X178031D01*
X180431Y316834D02*
Y318433D01*
X179631Y317633D01*
X180697D01*
X181230Y316567D02*
X182297D01*
X182830Y318433D02*
Y317100D01*
X183097Y316834D01*
X183630D01*
X183896Y317100D01*
Y318433D01*
X184429Y318166D02*
X184696Y318433D01*
X185229D01*
X185496Y318166D01*
Y317900D01*
X185229Y317633D01*
X184962D01*
X185229D01*
X185496Y317367D01*
Y317100D01*
X185229Y316834D01*
X184696D01*
X184429Y317100D01*
X177268Y271433D02*
Y269834D01*
X178068D01*
X178334Y270100D01*
Y271166D01*
X178068Y271433D01*
X177268D01*
X179667Y269834D02*
Y271433D01*
X178867Y270633D01*
X179934D01*
X180467Y269567D02*
X181533D01*
X182066Y271433D02*
Y270100D01*
X182333Y269834D01*
X182866D01*
X183133Y270100D01*
Y271433D01*
X184732Y269834D02*
X183666D01*
X184732Y270900D01*
Y271166D01*
X184466Y271433D01*
X183932D01*
X183666Y271166D01*
X178283Y224933D02*
Y223334D01*
X179082D01*
X179349Y223600D01*
Y224666D01*
X179082Y224933D01*
X178283D01*
X180682Y223334D02*
Y224933D01*
X179882Y224133D01*
X180948D01*
X181482Y223067D02*
X182548D01*
X183081Y224933D02*
Y223600D01*
X183348Y223334D01*
X183881D01*
X184147Y223600D01*
Y224933D01*
X184681Y223334D02*
X185214D01*
X184947D01*
Y224933D01*
X184681Y224666D01*
X265488Y407933D02*
Y406334D01*
X266287D01*
X266554Y406600D01*
Y407666D01*
X266287Y407933D01*
X265488D01*
X267087Y407666D02*
X267354Y407933D01*
X267887D01*
X268153Y407666D01*
Y407400D01*
X267887Y407133D01*
X267620D01*
X267887D01*
X268153Y406867D01*
Y406600D01*
X267887Y406334D01*
X267354D01*
X267087Y406600D01*
X268687Y406067D02*
X269753D01*
X270286Y407933D02*
Y406600D01*
X270553Y406334D01*
X271086D01*
X271352Y406600D01*
Y407933D01*
X272952D02*
X271885D01*
Y407133D01*
X272419Y407400D01*
X272685D01*
X272952Y407133D01*
Y406600D01*
X272685Y406334D01*
X272152D01*
X271885Y406600D01*
X265488Y358933D02*
Y357334D01*
X266287D01*
X266554Y357600D01*
Y358666D01*
X266287Y358933D01*
X265488D01*
X267087Y358666D02*
X267354Y358933D01*
X267887D01*
X268153Y358666D01*
Y358400D01*
X267887Y358133D01*
X267620D01*
X267887D01*
X268153Y357867D01*
Y357600D01*
X267887Y357334D01*
X267354D01*
X267087Y357600D01*
X268687Y357067D02*
X269753D01*
X270286Y358933D02*
Y357600D01*
X270553Y357334D01*
X271086D01*
X271352Y357600D01*
Y358933D01*
X272685Y357334D02*
Y358933D01*
X271885Y358133D01*
X272952D01*
X264637Y311433D02*
Y309834D01*
X265437D01*
X265704Y310100D01*
Y311166D01*
X265437Y311433D01*
X264637D01*
X266237Y311166D02*
X266503Y311433D01*
X267036D01*
X267303Y311166D01*
Y310900D01*
X267036Y310633D01*
X266770D01*
X267036D01*
X267303Y310367D01*
Y310100D01*
X267036Y309834D01*
X266503D01*
X266237Y310100D01*
X267836Y309567D02*
X268902D01*
X269436Y311433D02*
Y310100D01*
X269702Y309834D01*
X270235D01*
X270502Y310100D01*
Y311433D01*
X271035Y311166D02*
X271302Y311433D01*
X271835D01*
X272101Y311166D01*
Y310900D01*
X271835Y310633D01*
X271568D01*
X271835D01*
X272101Y310367D01*
Y310100D01*
X271835Y309834D01*
X271302D01*
X271035Y310100D01*
X263488Y264933D02*
Y263334D01*
X264287D01*
X264554Y263600D01*
Y264666D01*
X264287Y264933D01*
X263488D01*
X265087Y264666D02*
X265354Y264933D01*
X265887D01*
X266153Y264666D01*
Y264400D01*
X265887Y264133D01*
X265620D01*
X265887D01*
X266153Y263867D01*
Y263600D01*
X265887Y263334D01*
X265354D01*
X265087Y263600D01*
X266687Y263067D02*
X267753D01*
X268286Y264933D02*
Y263600D01*
X268553Y263334D01*
X269086D01*
X269352Y263600D01*
Y264933D01*
X270952Y263334D02*
X269885D01*
X270952Y264400D01*
Y264666D01*
X270685Y264933D01*
X270152D01*
X269885Y264666D01*
X265754Y219433D02*
Y217834D01*
X266554D01*
X266821Y218100D01*
Y219166D01*
X266554Y219433D01*
X265754D01*
X267354Y219166D02*
X267620Y219433D01*
X268153D01*
X268420Y219166D01*
Y218900D01*
X268153Y218633D01*
X267887D01*
X268153D01*
X268420Y218367D01*
Y218100D01*
X268153Y217834D01*
X267620D01*
X267354Y218100D01*
X268953Y217567D02*
X270020D01*
X270553Y219433D02*
Y218100D01*
X270819Y217834D01*
X271352D01*
X271619Y218100D01*
Y219433D01*
X272152Y217834D02*
X272685D01*
X272419D01*
Y219433D01*
X272152Y219166D01*
X247268Y438933D02*
Y437334D01*
X248068D01*
X248334Y437600D01*
Y438666D01*
X248068Y438933D01*
X247268D01*
X249934Y437334D02*
X248867D01*
X249934Y438400D01*
Y438666D01*
X249667Y438933D01*
X249134D01*
X248867Y438666D01*
X250467Y437067D02*
X251533D01*
X252066Y438933D02*
Y437600D01*
X252333Y437334D01*
X252866D01*
X253133Y437600D01*
Y438933D01*
X254732D02*
X253666D01*
Y438133D01*
X254199Y438400D01*
X254466D01*
X254732Y438133D01*
Y437600D01*
X254466Y437334D01*
X253932D01*
X253666Y437600D01*
X247768Y390233D02*
Y388634D01*
X248568D01*
X248834Y388900D01*
Y389966D01*
X248568Y390233D01*
X247768D01*
X250434Y388634D02*
X249367D01*
X250434Y389700D01*
Y389966D01*
X250167Y390233D01*
X249634D01*
X249367Y389966D01*
X250967Y388367D02*
X252033D01*
X252566Y390233D02*
Y388900D01*
X252833Y388634D01*
X253366D01*
X253633Y388900D01*
Y390233D01*
X254965Y388634D02*
Y390233D01*
X254166Y389433D01*
X255232D01*
X247768Y344595D02*
Y342995D01*
X248568D01*
X248834Y343262D01*
Y344328D01*
X248568Y344595D01*
X247768D01*
X250434Y342995D02*
X249367D01*
X250434Y344061D01*
Y344328D01*
X250167Y344595D01*
X249634D01*
X249367Y344328D01*
X250967Y342728D02*
X252033D01*
X252566Y344595D02*
Y343262D01*
X252833Y342995D01*
X253366D01*
X253633Y343262D01*
Y344595D01*
X254166Y344328D02*
X254432Y344595D01*
X254965D01*
X255232Y344328D01*
Y344061D01*
X254965Y343795D01*
X254699D01*
X254965D01*
X255232Y343528D01*
Y343262D01*
X254965Y342995D01*
X254432D01*
X254166Y343262D01*
X247268Y297433D02*
Y295834D01*
X248068D01*
X248334Y296100D01*
Y297166D01*
X248068Y297433D01*
X247268D01*
X249934Y295834D02*
X248867D01*
X249934Y296900D01*
Y297166D01*
X249667Y297433D01*
X249134D01*
X248867Y297166D01*
X250467Y295567D02*
X251533D01*
X252066Y297433D02*
Y296100D01*
X252333Y295834D01*
X252866D01*
X253133Y296100D01*
Y297433D01*
X254732Y295834D02*
X253666D01*
X254732Y296900D01*
Y297166D01*
X254466Y297433D01*
X253932D01*
X253666Y297166D01*
X247534Y251433D02*
Y249834D01*
X248334D01*
X248601Y250100D01*
Y251166D01*
X248334Y251433D01*
X247534D01*
X250200Y249834D02*
X249134D01*
X250200Y250900D01*
Y251166D01*
X249934Y251433D01*
X249400D01*
X249134Y251166D01*
X250733Y249567D02*
X251800D01*
X252333Y251433D02*
Y250100D01*
X252600Y249834D01*
X253133D01*
X253399Y250100D01*
Y251433D01*
X253932Y249834D02*
X254466D01*
X254199D01*
Y251433D01*
X253932Y251166D01*
X212401Y420846D02*
Y419247D01*
X213201D01*
X213468Y419514D01*
Y420580D01*
X213201Y420846D01*
X212401D01*
X214001Y419247D02*
X214534D01*
X214267D01*
Y420846D01*
X214001Y420580D01*
X215334Y418980D02*
X216400D01*
X216933Y420846D02*
Y419514D01*
X217200Y419247D01*
X217733D01*
X217999Y419514D01*
Y420846D01*
X219599D02*
X218532D01*
Y420047D01*
X219066Y420313D01*
X219332D01*
X219599Y420047D01*
Y419514D01*
X219332Y419247D01*
X218799D01*
X218532Y419514D01*
X212401Y371597D02*
Y369997D01*
X213201D01*
X213468Y370264D01*
Y371330D01*
X213201Y371597D01*
X212401D01*
X214001Y369997D02*
X214534D01*
X214267D01*
Y371597D01*
X214001Y371330D01*
X215334Y369730D02*
X216400D01*
X216933Y371597D02*
Y370264D01*
X217200Y369997D01*
X217733D01*
X217999Y370264D01*
Y371597D01*
X219332Y369997D02*
Y371597D01*
X218532Y370797D01*
X219599D01*
X213622Y324346D02*
Y322747D01*
X214422D01*
X214688Y323013D01*
Y324080D01*
X214422Y324346D01*
X213622D01*
X215221Y322747D02*
X215754D01*
X215488D01*
Y324346D01*
X215221Y324080D01*
X216554Y322480D02*
X217620D01*
X218154Y324346D02*
Y323013D01*
X218420Y322747D01*
X218953D01*
X219220Y323013D01*
Y324346D01*
X219753Y324080D02*
X220020Y324346D01*
X220553D01*
X220819Y324080D01*
Y323813D01*
X220553Y323547D01*
X220286D01*
X220553D01*
X220819Y323280D01*
Y323013D01*
X220553Y322747D01*
X220020D01*
X219753Y323013D01*
X213401Y276860D02*
Y275261D01*
X214201D01*
X214468Y275527D01*
Y276594D01*
X214201Y276860D01*
X213401D01*
X215001Y275261D02*
X215534D01*
X215267D01*
Y276860D01*
X215001Y276594D01*
X216334Y274994D02*
X217400D01*
X217933Y276860D02*
Y275527D01*
X218200Y275261D01*
X218733D01*
X218999Y275527D01*
Y276860D01*
X220599Y275261D02*
X219532D01*
X220599Y276327D01*
Y276594D01*
X220332Y276860D01*
X219799D01*
X219532Y276594D01*
X212668Y231689D02*
Y230089D01*
X213468D01*
X213734Y230356D01*
Y231422D01*
X213468Y231689D01*
X212668D01*
X214267Y230089D02*
X214800D01*
X214534D01*
Y231689D01*
X214267Y231422D01*
X215600Y229823D02*
X216666D01*
X217200Y231689D02*
Y230356D01*
X217466Y230089D01*
X217999D01*
X218266Y230356D01*
Y231689D01*
X218799Y230089D02*
X219332D01*
X219066D01*
Y231689D01*
X218799Y231422D01*
X179039Y438865D02*
X178772Y439132D01*
X178239D01*
X177973Y438865D01*
Y437799D01*
X178239Y437532D01*
X178772D01*
X179039Y437799D01*
X180638Y437532D02*
X179572D01*
X180638Y438599D01*
Y438865D01*
X180372Y439132D01*
X179839D01*
X179572Y438865D01*
X181172Y437266D02*
X182238D01*
X182771Y439132D02*
Y437799D01*
X183038Y437532D01*
X183571D01*
X183837Y437799D01*
Y439132D01*
X185437D02*
X184371D01*
Y438332D01*
X184904Y438599D01*
X185170D01*
X185437Y438332D01*
Y437799D01*
X185170Y437532D01*
X184637D01*
X184371Y437799D01*
X178937Y389865D02*
X178670Y390132D01*
X178137D01*
X177870Y389865D01*
Y388799D01*
X178137Y388532D01*
X178670D01*
X178937Y388799D01*
X180536Y388532D02*
X179470D01*
X180536Y389599D01*
Y389865D01*
X180270Y390132D01*
X179736D01*
X179470Y389865D01*
X181069Y388266D02*
X182136D01*
X182669Y390132D02*
Y388799D01*
X182935Y388532D01*
X183468D01*
X183735Y388799D01*
Y390132D01*
X185068Y388532D02*
Y390132D01*
X184268Y389332D01*
X185335D01*
X178437Y341666D02*
X178170Y341933D01*
X177637D01*
X177370Y341666D01*
Y340600D01*
X177637Y340334D01*
X178170D01*
X178437Y340600D01*
X180036Y340334D02*
X178970D01*
X180036Y341400D01*
Y341666D01*
X179770Y341933D01*
X179236D01*
X178970Y341666D01*
X180569Y340067D02*
X181635D01*
X182169Y341933D02*
Y340600D01*
X182435Y340334D01*
X182968D01*
X183235Y340600D01*
Y341933D01*
X183768Y341666D02*
X184035Y341933D01*
X184568D01*
X184835Y341666D01*
Y341400D01*
X184568Y341133D01*
X184301D01*
X184568D01*
X184835Y340867D01*
Y340600D01*
X184568Y340334D01*
X184035D01*
X183768Y340600D01*
X178834Y295166D02*
X178568Y295433D01*
X178034D01*
X177768Y295166D01*
Y294100D01*
X178034Y293834D01*
X178568D01*
X178834Y294100D01*
X180434Y293834D02*
X179367D01*
X180434Y294900D01*
Y295166D01*
X180167Y295433D01*
X179634D01*
X179367Y295166D01*
X180967Y293567D02*
X182033D01*
X182566Y295433D02*
Y294100D01*
X182833Y293834D01*
X183366D01*
X183633Y294100D01*
Y295433D01*
X185232Y293834D02*
X184166D01*
X185232Y294900D01*
Y295166D01*
X184966Y295433D01*
X184432D01*
X184166Y295166D01*
X178999Y246666D02*
X178732Y246933D01*
X178199D01*
X177932Y246666D01*
Y245600D01*
X178199Y245334D01*
X178732D01*
X178999Y245600D01*
X180598Y245334D02*
X179532D01*
X180598Y246400D01*
Y246666D01*
X180332Y246933D01*
X179798D01*
X179532Y246666D01*
X181131Y245067D02*
X182197D01*
X182731Y246933D02*
Y245600D01*
X182997Y245334D01*
X183530D01*
X183797Y245600D01*
Y246933D01*
X184330Y245334D02*
X184863D01*
X184597D01*
Y246933D01*
X184330Y246666D01*
X161468Y406166D02*
X161201Y406433D01*
X160668D01*
X160401Y406166D01*
Y405100D01*
X160668Y404834D01*
X161201D01*
X161468Y405100D01*
X162001Y404834D02*
X162534D01*
X162267D01*
Y406433D01*
X162001Y406166D01*
X163333Y404567D02*
X164400D01*
X164933Y406433D02*
Y405100D01*
X165200Y404834D01*
X165733D01*
X165999Y405100D01*
Y406433D01*
X167599D02*
X166533D01*
Y405633D01*
X167066Y405900D01*
X167332D01*
X167599Y405633D01*
Y405100D01*
X167332Y404834D01*
X166799D01*
X166533Y405100D01*
X162227Y357666D02*
X161961Y357933D01*
X161428D01*
X161161Y357666D01*
Y356600D01*
X161428Y356333D01*
X161961D01*
X162227Y356600D01*
X162760Y356333D02*
X163294D01*
X163027D01*
Y357933D01*
X162760Y357666D01*
X164093Y356067D02*
X165160D01*
X165693Y357933D02*
Y356600D01*
X165959Y356333D01*
X166493D01*
X166759Y356600D01*
Y357933D01*
X168092Y356333D02*
Y357933D01*
X167292Y357133D01*
X168359D01*
X161727Y309166D02*
X161461Y309433D01*
X160928D01*
X160661Y309166D01*
Y308100D01*
X160928Y307834D01*
X161461D01*
X161727Y308100D01*
X162260Y307834D02*
X162794D01*
X162527D01*
Y309433D01*
X162260Y309166D01*
X163593Y307567D02*
X164660D01*
X165193Y309433D02*
Y308100D01*
X165459Y307834D01*
X165993D01*
X166259Y308100D01*
Y309433D01*
X166792Y309166D02*
X167059Y309433D01*
X167592D01*
X167859Y309166D01*
Y308900D01*
X167592Y308633D01*
X167325D01*
X167592D01*
X167859Y308367D01*
Y308100D01*
X167592Y307834D01*
X167059D01*
X166792Y308100D01*
X161227Y262166D02*
X160961Y262433D01*
X160428D01*
X160161Y262166D01*
Y261100D01*
X160428Y260834D01*
X160961D01*
X161227Y261100D01*
X161760Y260834D02*
X162294D01*
X162027D01*
Y262433D01*
X161760Y262166D01*
X163093Y260567D02*
X164160D01*
X164693Y262433D02*
Y261100D01*
X164959Y260834D01*
X165493D01*
X165759Y261100D01*
Y262433D01*
X167359Y260834D02*
X166292D01*
X167359Y261900D01*
Y262166D01*
X167092Y262433D01*
X166559D01*
X166292Y262166D01*
X162254Y214666D02*
X161987Y214933D01*
X161454D01*
X161187Y214666D01*
Y213600D01*
X161454Y213334D01*
X161987D01*
X162254Y213600D01*
X162787Y213334D02*
X163320D01*
X163054D01*
Y214933D01*
X162787Y214666D01*
X164120Y213067D02*
X165186D01*
X165719Y214933D02*
Y213600D01*
X165986Y213334D01*
X166519D01*
X166786Y213600D01*
Y214933D01*
X167319Y213334D02*
X167852D01*
X167585D01*
Y214933D01*
X167319Y214666D01*
M02*
