G04*
G04 #@! TF.GenerationSoftware,Altium Limited,Altium Designer,22.1.2 (22)*
G04*
G04 Layer_Color=8388736*
%FSLAX25Y25*%
%MOIN*%
G70*
G04*
G04 #@! TF.SameCoordinates,2BB1DE6D-457A-41CA-A848-8B8E96E8A4FB*
G04*
G04*
G04 #@! TF.FilePolarity,Positive*
G04*
G01*
G75*
%ADD11C,0.00787*%
D11*
X317158Y217921D02*
X336842D01*
Y208079D02*
Y217921D01*
X317158Y208079D02*
X336842D01*
X317158D02*
Y217921D01*
X342657Y399579D02*
X362343D01*
X342657D02*
Y409421D01*
X362343D01*
Y399579D02*
Y409421D01*
X336575Y371079D02*
Y380921D01*
X316890D02*
X336575D01*
X316890Y371079D02*
Y380921D01*
Y371079D02*
X336575D01*
Y425579D02*
Y435421D01*
X316890D02*
X336575D01*
X316890Y425579D02*
Y435421D01*
Y425579D02*
X336575D01*
Y225579D02*
Y235421D01*
X316890D02*
X336575D01*
X316890Y225579D02*
Y235421D01*
Y225579D02*
X336575D01*
Y249579D02*
Y259421D01*
X316890D02*
X336575D01*
X316890Y249579D02*
Y259421D01*
Y249579D02*
X336575D01*
X316890Y266579D02*
Y276421D01*
Y266579D02*
X336575D01*
Y276421D01*
X316890D02*
X336575D01*
Y283579D02*
Y293421D01*
X316890D02*
X336575D01*
X316890Y283579D02*
Y293421D01*
Y283579D02*
X336575D01*
Y311579D02*
Y321421D01*
X316890D02*
X336575D01*
X316890Y311579D02*
Y321421D01*
Y311579D02*
X336575D01*
X316890Y328079D02*
Y337921D01*
Y328079D02*
X336575D01*
Y337921D01*
X316890D02*
X336575D01*
Y344579D02*
Y354421D01*
X316890D02*
X336575D01*
X316890Y344579D02*
Y354421D01*
Y344579D02*
X336575D01*
X316890Y386829D02*
Y396671D01*
Y386829D02*
X336575D01*
Y396671D01*
X316890D02*
X336575D01*
Y402579D02*
Y412421D01*
X316890D02*
X336575D01*
X316890Y402579D02*
Y412421D01*
Y402579D02*
X336575D01*
X316890Y440079D02*
Y449921D01*
Y440079D02*
X336575D01*
Y449921D01*
X316890D02*
X336575D01*
Y454579D02*
Y464421D01*
X316890D02*
X336575D01*
X316890Y454579D02*
Y464421D01*
Y454579D02*
X336575D01*
X362343Y343737D02*
Y353579D01*
X342657D02*
X362343D01*
X342657Y343737D02*
Y353579D01*
Y343737D02*
X362343D01*
X387843Y425579D02*
Y435421D01*
X368157D02*
X387843D01*
X368157Y425579D02*
Y435421D01*
Y425579D02*
X387843D01*
X368157Y440079D02*
Y449921D01*
Y440079D02*
X387843D01*
Y449921D01*
X368157D02*
X387843D01*
X368157Y454579D02*
Y464421D01*
Y454579D02*
X387843D01*
Y464421D01*
X368157D02*
X387843D01*
X362343Y414263D02*
Y424105D01*
X342657D02*
X362343D01*
X342657Y414263D02*
Y424105D01*
Y414263D02*
X362343D01*
X336575Y191579D02*
Y201421D01*
X316890D02*
X336575D01*
X316890Y191579D02*
Y201421D01*
Y191579D02*
X336575D01*
X362343Y357842D02*
Y367684D01*
X342657D02*
X362343D01*
X342657Y357842D02*
Y367684D01*
Y357842D02*
X362343D01*
Y301421D02*
Y311263D01*
X342657D02*
X362343D01*
X342657Y301421D02*
Y311263D01*
Y301421D02*
X362343D01*
Y245000D02*
Y254842D01*
X342657D02*
X362343D01*
X342657Y245000D02*
Y254842D01*
Y245000D02*
X362343D01*
Y188579D02*
Y198421D01*
X342657D02*
X362343D01*
X342657Y188579D02*
Y198421D01*
Y188579D02*
X362343D01*
X342657Y428368D02*
Y438211D01*
Y428368D02*
X362343D01*
Y438211D01*
X342657D02*
X362343D01*
X342657Y371947D02*
Y381790D01*
Y371947D02*
X362343D01*
Y381790D01*
X342657D02*
X362343D01*
X342657Y315526D02*
Y325369D01*
Y315526D02*
X362343D01*
Y325369D01*
X342657D02*
X362343D01*
X342657Y259105D02*
Y268948D01*
Y259105D02*
X362343D01*
Y268948D01*
X342657D02*
X362343D01*
X342657Y202684D02*
Y212527D01*
Y202684D02*
X362343D01*
Y212527D01*
X342657D02*
X362343D01*
Y456579D02*
Y466421D01*
X342657D02*
X362343D01*
X342657Y456579D02*
Y466421D01*
Y456579D02*
X362343D01*
Y287316D02*
Y297158D01*
X342657D02*
X362343D01*
X342657Y287316D02*
Y297158D01*
Y287316D02*
X362343D01*
Y230895D02*
Y240737D01*
X342657D02*
X362343D01*
X342657Y230895D02*
Y240737D01*
Y230895D02*
X362343D01*
X387843Y371079D02*
Y380921D01*
X368157D02*
X387843D01*
X368157Y371079D02*
Y380921D01*
Y371079D02*
X387843D01*
Y311579D02*
Y321421D01*
X368157D02*
X387843D01*
X368157Y311579D02*
Y321421D01*
Y311579D02*
X387843D01*
Y249579D02*
Y259421D01*
X368157D02*
X387843D01*
X368157Y249579D02*
Y259421D01*
Y249579D02*
X387843D01*
Y191579D02*
Y201421D01*
X368157D02*
X387843D01*
X368157Y191579D02*
Y201421D01*
Y191579D02*
X387843D01*
X368157Y386829D02*
Y396671D01*
Y386829D02*
X387843D01*
Y396671D01*
X368157D02*
X387843D01*
X368157Y328079D02*
Y337921D01*
Y328079D02*
X387843D01*
Y337921D01*
X368157D02*
X387843D01*
X368157Y266579D02*
Y276421D01*
Y266579D02*
X387843D01*
Y276421D01*
X368157D02*
X387843D01*
X368157Y208579D02*
Y218421D01*
Y208579D02*
X387843D01*
Y218421D01*
X368157D02*
X387843D01*
X368157Y402579D02*
Y412421D01*
Y402579D02*
X387843D01*
Y412421D01*
X368157D02*
X387843D01*
X368157Y344579D02*
Y354421D01*
Y344579D02*
X387843D01*
Y354421D01*
X368157D02*
X387843D01*
X368157Y283579D02*
Y293421D01*
Y283579D02*
X387843D01*
Y293421D01*
X368157D02*
X387843D01*
X368157Y225579D02*
Y235421D01*
Y225579D02*
X387843D01*
Y235421D01*
X368157D02*
X387843D01*
M02*
