M48
;Layer_Color=9474304
;FILE_FORMAT=2:5
INCH,LZ
;TYPE=PLATED
T1F00S00C0.04134
T2F00S00C0.05906
%
T01
X0228579Y0163933
X0238421
Y0216433
X0228579
X0297079
X0306921
Y0163933
X0297079
T02
X02134Y01925
X02221
X02308
X02395
X02482
X02569
X02656
X02743
X0283
X02917
X03004
X03091
X02615Y02
Y02086
Y02172
Y02258
Y01835
Y01756
Y01677
Y01598
M30
