G04*
G04 #@! TF.GenerationSoftware,Altium Limited,Altium Designer,22.1.2 (22)*
G04*
G04 Layer_Color=16711935*
%FSLAX25Y25*%
%MOIN*%
G70*
G04*
G04 #@! TF.SameCoordinates,A84A231E-1FB4-490D-AB1D-95A42E3D9FFD*
G04*
G04*
G04 #@! TF.FilePolarity,Positive*
G04*
G01*
G75*
%ADD15C,0.00787*%
%ADD16C,0.00500*%
%ADD22C,0.00394*%
D15*
X251374Y163933D02*
G03*
X251374Y163933I-394J0D01*
G01*
X319874D02*
G03*
X319874Y163933I-394J0D01*
G01*
X251374Y216433D02*
G03*
X251374Y216433I-394J0D01*
G01*
X319874D02*
G03*
X319874Y216433I-394J0D01*
G01*
D16*
X248067Y154681D02*
Y177319D01*
X218933Y154681D02*
X248067D01*
X218933D02*
Y177319D01*
X248067D01*
X316567Y154681D02*
Y177319D01*
X287433Y154681D02*
X316567D01*
X287433D02*
Y177319D01*
X316567D01*
X248067Y207181D02*
Y229819D01*
X218933Y207181D02*
X248067D01*
X218933D02*
Y229819D01*
X248067D01*
X316567Y207181D02*
Y229819D01*
X287433Y207181D02*
X316567D01*
X287433D02*
Y229819D01*
X316567D01*
D22*
X206539Y167425D02*
Y175299D01*
X211461D01*
Y167425D02*
Y175299D01*
X206539Y167425D02*
X211461D01*
X275039D02*
Y175299D01*
X279961D01*
Y167425D02*
Y175299D01*
X275039Y167425D02*
X279961D01*
X206539Y219925D02*
Y227799D01*
X211461D01*
Y219925D02*
Y227799D01*
X206539Y219925D02*
X211461D01*
X275039D02*
Y227799D01*
X279961D01*
Y219925D02*
Y227799D01*
X275039Y219925D02*
X279961D01*
M02*
