G04*
G04 #@! TF.GenerationSoftware,Altium Limited,Altium Designer,22.1.2 (22)*
G04*
G04 Layer_Color=65535*
%FSLAX25Y25*%
%MOIN*%
G70*
G04*
G04 #@! TF.SameCoordinates,A84A231E-1FB4-490D-AB1D-95A42E3D9FFD*
G04*
G04*
G04 #@! TF.FilePolarity,Positive*
G04*
G01*
G75*
%ADD15C,0.00787*%
%ADD16C,0.00500*%
D15*
X251374Y163933D02*
G03*
X251374Y163933I-394J0D01*
G01*
X206933Y171362D02*
X211067D01*
X319874Y163933D02*
G03*
X319874Y163933I-394J0D01*
G01*
X275433Y171362D02*
X279567D01*
X251374Y216433D02*
G03*
X251374Y216433I-394J0D01*
G01*
X206933Y223862D02*
X211067D01*
X319874Y216433D02*
G03*
X319874Y216433I-394J0D01*
G01*
X275433Y223862D02*
X279567D01*
D16*
X248067Y154681D02*
Y177319D01*
X218933Y154681D02*
X248067D01*
X218933D02*
Y177319D01*
X248067D01*
X206668Y180859D02*
Y182859D01*
X207668D01*
X208001Y182526D01*
Y181859D01*
X207668Y181526D01*
X206668D01*
X207334D02*
X208001Y180859D01*
X210000D02*
X208667D01*
X210000Y182192D01*
Y182526D01*
X209667Y182859D01*
X209001D01*
X208667Y182526D01*
X210667D02*
X211000Y182859D01*
X211666D01*
X212000Y182526D01*
Y182192D01*
X211666Y181859D01*
X211333D01*
X211666D01*
X212000Y181526D01*
Y181193D01*
X211666Y180859D01*
X211000D01*
X210667Y181193D01*
X212666Y180526D02*
X213999D01*
X214666Y180859D02*
X215332D01*
X214999D01*
Y182859D01*
X214666Y182526D01*
X244579Y181599D02*
X243913D01*
X244246D01*
Y179933D01*
X243913Y179600D01*
X243579D01*
X243246Y179933D01*
X245246Y179267D02*
X246578D01*
X247245Y179600D02*
X247911D01*
X247578D01*
Y181599D01*
X247245Y181266D01*
X316567Y154681D02*
Y177319D01*
X287433Y154681D02*
X316567D01*
X287433D02*
Y177319D01*
X316567D01*
X275168Y180859D02*
Y182859D01*
X276168D01*
X276501Y182526D01*
Y181859D01*
X276168Y181526D01*
X275168D01*
X275834D02*
X276501Y180859D01*
X278500D02*
X277167D01*
X278500Y182192D01*
Y182526D01*
X278167Y182859D01*
X277501D01*
X277167Y182526D01*
X279167D02*
X279500Y182859D01*
X280167D01*
X280500Y182526D01*
Y182192D01*
X280167Y181859D01*
X279833D01*
X280167D01*
X280500Y181526D01*
Y181193D01*
X280167Y180859D01*
X279500D01*
X279167Y181193D01*
X281166Y180526D02*
X282499D01*
X283166Y180859D02*
X283832D01*
X283499D01*
Y182859D01*
X283166Y182526D01*
X313079Y181599D02*
X312413D01*
X312746D01*
Y179933D01*
X312413Y179600D01*
X312079D01*
X311746Y179933D01*
X313745Y179267D02*
X315078D01*
X315745Y179600D02*
X316411D01*
X316078D01*
Y181599D01*
X315745Y181266D01*
X248067Y207181D02*
Y229819D01*
X218933Y207181D02*
X248067D01*
X218933D02*
Y229819D01*
X248067D01*
X206668Y233360D02*
Y235359D01*
X207668D01*
X208001Y235026D01*
Y234359D01*
X207668Y234026D01*
X206668D01*
X207334D02*
X208001Y233360D01*
X210000D02*
X208667D01*
X210000Y234692D01*
Y235026D01*
X209667Y235359D01*
X209001D01*
X208667Y235026D01*
X210667D02*
X211000Y235359D01*
X211666D01*
X212000Y235026D01*
Y234692D01*
X211666Y234359D01*
X211333D01*
X211666D01*
X212000Y234026D01*
Y233693D01*
X211666Y233360D01*
X211000D01*
X210667Y233693D01*
X212666Y233026D02*
X213999D01*
X214666Y233360D02*
X215332D01*
X214999D01*
Y235359D01*
X214666Y235026D01*
X244579Y234099D02*
X243913D01*
X244246D01*
Y232433D01*
X243913Y232100D01*
X243579D01*
X243246Y232433D01*
X245246Y231767D02*
X246578D01*
X247245Y232100D02*
X247911D01*
X247578D01*
Y234099D01*
X247245Y233766D01*
X316567Y207181D02*
Y229819D01*
X287433Y207181D02*
X316567D01*
X287433D02*
Y229819D01*
X316567D01*
X275168Y233360D02*
Y235359D01*
X276168D01*
X276501Y235026D01*
Y234359D01*
X276168Y234026D01*
X275168D01*
X275834D02*
X276501Y233360D01*
X278500D02*
X277167D01*
X278500Y234692D01*
Y235026D01*
X278167Y235359D01*
X277501D01*
X277167Y235026D01*
X279167D02*
X279500Y235359D01*
X280167D01*
X280500Y235026D01*
Y234692D01*
X280167Y234359D01*
X279833D01*
X280167D01*
X280500Y234026D01*
Y233693D01*
X280167Y233360D01*
X279500D01*
X279167Y233693D01*
X281166Y233026D02*
X282499D01*
X283166Y233360D02*
X283832D01*
X283499D01*
Y235359D01*
X283166Y235026D01*
X313079Y234099D02*
X312413D01*
X312746D01*
Y232433D01*
X312413Y232100D01*
X312079D01*
X311746Y232433D01*
X313745Y231767D02*
X315078D01*
X315745Y232100D02*
X316411D01*
X316078D01*
Y234099D01*
X315745Y233766D01*
M02*
